<?xml version="1.0" encoding="utf-8"?>
<svg xmlns="http://www.w3.org/2000/svg" xmlns:svg="http://www.w3.org/2000/svg" version="1.1" viewBox="0 0 489 269">
	<title>A torn scrap of paper, showing part of a bill for “1 chambre” and “1 petit déjeuner,” totaling to 28 50. The ends of a few other words are visible at the edges of the paper.</title>
	<path d="M.6 268.67c-.71-.51-.8-1.73-.23-3.24.21-.55.45-1.95.54-3.11.1-1.17.21-2.78.27-3.58s.2-2.22.3-3.17.22-2.33.25-3.09.13-1.47.21-1.6.1-1.07.05-2.07-.01-1.94.11-2.1c.13-.15.3-1.64.37-3.31.09-1.67.22-3.76.3-4.63.6-6.31.94-11.37.89-12.83-.04-.95.13-2.62.38-3.7.24-1.1.56-4.1.72-6.7.16-2.58.38-4.96.5-5.29.28-.74.58-5 .7-9.86.06-2.05.23-4.3.39-5s.35-4.03.43-7.38c.1-4.19.25-6.31.48-6.77.36-.72.6-3.74.83-10.07.08-2.11.25-4.2.39-4.63.13-.44.3-1.69.36-2.78.18-3.12.92-12.46 1.08-13.63.2-1.43.47-6.76.54-10.32.06-3.1.44-8.45.9-12.56.16-1.38.23-2.66.16-2.85-.2-.5.32-5.42.77-7.47.42-1.94.7-5.97.77-11.64.04-2.7.19-4.27.5-5.3.3-.98.49-2.75.56-5.46.07-2.2.22-4.22.36-4.5.13-.27.2-2.72.16-5.46l-.07-4.97.85-.52a4.4 4.4 0 0 1 1.91-.52c.58 0 2-.24 3.14-.53s2.6-.53 3.21-.53c.64 0 1.8-.3 2.68-.69a7 7 0 0 1 3.07-.86c.24-.02.85-.39 1.35-.82.84-.74 1.02-.8 2.98-.76a9 9 0 0 0 3.55-.52c2.62-1 4.85-1.34 9.49-1.49 4.3-.13 4.65-.18 6.33-.91.97-.43 2.48-.98 3.36-1.23s2.23-.8 3.01-1.22c.79-.41 1.7-.76 2.03-.76.6 0 3.35-1.02 4.62-1.72 3-1.66 2.26-1.54 8.86-1.46 4.92.06 6.73-.22 8.2-1.26a6 6 0 0 1 1.46-.85c.15 0 .26-.1.26-.21 0-.28 1.74-1.11 2.33-1.11.26 0 .7-.16.99-.37.28-.2.64-.37.78-.39.58-.05 3.3-1.17 3.3-1.36 0-.57 3.88-1.14 7.34-1.06q1.38.04 2.48-.53c1.26-.65 4.64-1.04 14.66-1.7 5.19-.35 6.56-.53 7.5-.96 1.08-.5 3.94-1.28 8.7-2.37 1.21-.27 2.7-.79 3.32-1.14a11 11 0 0 1 2.46-.95c1.65-.38 2.36-.84 4.44-2.86 1.5-1.46 2.63-2.16 6.13-3.8.72-.35 1.86-.96 2.53-1.37.83-.5 1.8-.81 3.04-.97 2.07-.26 5.18-1 5.4-1.28.08-.1.75-.69 1.49-1.3 2.14-1.75 5.04-2.53 10.82-2.87a21 21 0 0 0 5.3-.92c1.3-.4 2.67-.8 3.03-.88 1.13-.24 6.41-.74 7.8-.74.87 0 1.5-.14 1.8-.43q.5-.43 2-.47a7 7 0 0 0 2.57-.54c.8-.38 1.5-.49 2.9-.42 1.02.04 2.27.07 2.78.06l6.61-.13c4.01-.08 6.67 0 9 .28 1.82.22 5.75.44 8.73.5 5.4.11 14.38.72 17.25 1.18.95.15 1.86.14 2.46-.03.73-.2 1.26-.16 2.26.17a4 4 0 0 0 1.83.27c.29-.1 1.2-.04 2.04.11 1.35.25 1.63.22 2.58-.27a3.3 3.3 0 0 1 2.26-.4c.69.09 1.77 0 2.53-.2.84-.22 2.13-.3 3.51-.23 2.57.15 4.72-.24 7.33-1.33 1.27-.53 2.4-.8 3.6-.85.95-.04 1.99-.2 2.3-.37s.79-.3 1.08-.3c.28 0 .56-.13.61-.28s.82-.38 1.7-.5a10 10 0 0 0 2.44-.65c.45-.23.97-.43 1.16-.43s.94-.3 1.67-.66a7 7 0 0 1 1.85-.65c.29 0 1.24-.3 2.11-.66a9 9 0 0 1 2.39-.67c1.12-.01 4.28-1.07 5.7-1.92.67-.4 1.8-.8 2.52-.9.71-.09 1.6-.31 1.97-.5a8 8 0 0 1 1.98-.51c.73-.1 1.85-.43 2.51-.73s2.44-.87 3.97-1.27 3.2-.91 3.7-1.13c.51-.21 1.57-.48 2.36-.58s2.24-.48 3.23-.82c1-.35 2.32-.63 2.95-.63s1.85-.19 2.72-.42c1.15-.3 2.75-.4 5.94-.37 2.4.02 5.8-.1 7.54-.25l6.62-.56c1.89-.15 3.78-.4 4.2-.53a8 8 0 0 1 2.03-.26c.72 0 1.82-.24 2.54-.56 1.49-.66 6.16-1.5 10.14-1.8 1.53-.12 3.8-.35 5.03-.5 2.02-.26 11.7-.72 16.14-.78 2-.02 6.72-.47 9.4-.88 1.01-.16 2.26-.34 2.77-.4 3.82-.44 5.65-.7 7.14-1.04.95-.22 2.9-.57 4.32-.8 1.44-.22 3.04-.57 3.58-.77 1.76-.66 4.87-.95 6.54-.62 1.15.23 1.98.23 3.4 0a10 10 0 0 1 2.8-.1c.51.11 1.34.14 1.85.06s1.59-.05 2.39.08c1.49.23 3.96.12 7.93-.35l3.84-.43c2.24-.23 5.41-.78 6.35-1.12.72-.25 4.26-.89 9-1.61 7.32-1.12 9.15-1.35 9.82-1.27.41.06 1.53-.05 2.48-.25 1.02-.21 4.55-.42 8.73-.52 5.02-.11 7.26-.26 7.9-.52 1.1-.46 2.6-.47 3.47-.03.99.5 1.21 1.7.7 3.74-.25 1.03-.5 3.55-.6 6.3-.21 5.1-.21 5.33.05 7.26.13.98.06 1.73-.25 2.63-.24.72-.5 2.6-.58 4.32a48 48 0 0 1-.8 6.17c-.37 1.7-.6 3.22-.5 3.36.08.14.03 1.3-.12 2.58A296 296 0 0 0 484.29 52a32 32 0 0 1-.36 4.07c-.37 1.48-.79 6.9-.92 11.97-.1 3.64-.23 4.89-.56 5.54a3 3 0 0 0-.3 1.65c.15 1.05-.24 6.98-.6 8.89-.15.8-.33 3.18-.4 5.3-.08 2.1-.21 4.58-.3 5.5-.26 2.83-.35 4.53-.49 8.55a28 28 0 0 1-.42 4.62c-.16.42-.22 1.3-.13 1.95.08.66.02 2.15-.13 3.32a116 116 0 0 0-.52 5.82c-.13 2.03-.36 4.95-.51 6.48l-.62 6.61c-.2 2.11-.48 4.08-.64 4.37-.48.87-.68 2.9-.38 3.96q.28 1 .03 3.81c-.14 1.55-.37 4.36-.52 6.25-.16 1.9-.39 4.16-.52 5.03-.14.87-.3 2.72-.38 4.1-.07 1.38-.32 4.84-.56 7.67-.23 2.84-.48 6.71-.55 8.6a71 71 0 0 1-.54 6.22c-.22 1.53-.46 4.2-.54 5.94a32 32 0 0 1-.23 3.33c-.06.1-.18 2.6-.27 5.57s-.27 5.53-.4 5.69-.23.81-.22 1.45c.02.65-.11 2.06-.28 3.16-.17 1.09-.37 3.4-.44 5.15s-.3 6.02-.5 9.5c-.2 3.47-.3 6.47-.22 6.67s0 1.35-.16 2.55-.4 3.91-.55 6.02c-.42 6.52-.81 9.9-1.18 10.28-.34.36-4.78.19-13.1-.5-7.97-.66-9.01-.7-10.65-.38-.91.18-2 .46-2.4.63a7 7 0 0 1-2.07.3c-.73 0-1.88.22-2.56.5-2.15.88-7.19 1.14-10.63.54a30 30 0 0 0-5.3-.31c-1.67.04-4.6-.06-6.5-.22a23 23 0 0 0-5.55 0c-3 .43-5.99 1.05-6.55 1.36-.55.3-4.18.5-10.37.58-3.07.04-4.85-.07-6.48-.39a79 79 0 0 0-4.63-.74 160 160 0 0 1-4.85-.69 63 63 0 0 0-5.08-.56c-2.55-.15-2.66-.14-3.67.57-.97.67-1.17.7-2.75.54-1.18-.13-1.9-.08-2.32.15-.34.18-1.16.48-1.82.67a40 40 0 0 0-5.9 2.2 9 9 0 0 1-2.54.82c-.72 0-3.17.96-5.33 2.1-2.01 1.05-3.66 1.34-7.75 1.34-2.85 0-4.35.12-5.41.43-1.93.55-2.95.25-4.88-1.44-.8-.7-1.8-1.42-2.23-1.6a4 4 0 0 1-1.43-1.24c-.73-1-3-2.81-4.31-3.44-1.26-.59-3.18-1.99-5.03-3.65-4.66-4.19-6.02-5.24-8.77-6.83a29 29 0 0 1-2.92-1.88c-1.66-1.37-4.74-3.63-4.94-3.63-.12 0-.38-.4-.58-.86a4 4 0 0 0-1.48-1.53 22 22 0 0 1-2.16-1.5 15 15 0 0 0-2.56-1.55 9 9 0 0 1-1.78-1c-.14-.18-.9-.79-1.69-1.37a6 6 0 0 1-2.04-2.38c-.34-.73-.9-1.8-1.26-2.4a8 8 0 0 1-.82-1.91c-.1-.47-.32-.93-.5-1.04-.8-.5-4-1.4-6.39-1.8-1.45-.23-3.3-.58-4.1-.78q-3.54-.85-3.85-.39c-.1.18-1.11.26-2.73.22-1.4-.04-3.14.06-3.87.23-2 .46-6 1.13-6.75 1.13-1.42 0-5.36 1.26-5.95 1.9-.32.34-1.45 1.15-2.5 1.79a10 10 0 0 0-2.22 1.64c-.17.27-1.1.79-2.06 1.16a10 10 0 0 0-2.68 1.56c-1.26 1.23-3.64 2.53-4.63 2.53-.46 0-.9.1-.97.22-.08.13-.74.31-1.48.41-1.03.14-1.5.36-2.05.99-.85.95-2.06 1.6-3.9 2.08a8 8 0 0 0-1.59.54c-.14.11-.8.35-1.45.54-.66.18-1.33.44-1.5.57-.96.72-3.9 1.32-7.37 1.52-4.28.24-8.6 1.22-9.92 2.26-.92.72-6.83 2.45-9.4 2.74-1.01.12-2.09.36-2.37.53-.46.28-3.37 1.04-7.14 1.87l-2.2.52c-.61.16-1.62.28-2.24.26s-2.25.22-3.63.53c-1.39.3-3.89.62-5.56.7a50 50 0 0 0-3.57.24c-.3.06-2.19.02-4.2-.09-2.65-.14-4.14-.1-5.3.15-1.1.23-5.21.38-13.05.47-11.9.13-12.82.18-16.4.84-1.18.21-3.44.43-5.02.48a38 38 0 0 0-3.79.25c-.5.1-2.24.15-3.84.13s-3.38-.03-3.97-.01l-4.89.1c-3.73.07-3.9.1-6.25 1.05a20 20 0 0 1-3.83 1.17c-.79.1-1.72.37-2.08.6-.63.41-1.93.46-8.15.27-1.86-.06-6.26.72-7.4 1.3a5 5 0 0 1-1.87.58c-.45 0-1.06.27-1.46.64a4 4 0 0 1-1.56.8c-.48.1-1.64.4-2.59.67s-2.5.62-3.44.78c-.95.15-2.53.42-3.52.6a6 6 0 0 1-2.92.01c-1-.26-1.35-.21-3.3.48-2.12.75-5.67 1.44-9.44 1.85-2.63.27-4.9.68-5.82 1.04-1.17.45-3.03.8-6.22 1.18-1.7.2-8.18 1.86-9.13 2.34a23 23 0 0 1-3.97 1.36c-.86.17-5.24 1.8-5.82 2.16-.29.18-2 .88-3.79 1.54-3.1 1.16-3.4 1.22-5.98 1.22-2.33 0-2.94.1-4.15.64a21 21 0 0 1-5.92 1.39q-1.05.1-1.66-.31m9.72-5.58c2.55-.22 6.64-1.46 8.36-2.52.46-.27.98-.5 1.15-.5.18 0 1.22-.45 2.32-1q2-1 2.23-1.64c.14-.35.24-1.9.21-3.43s.03-2.97.1-3.2c.2-.59.68-4.77.66-5.68-.01-.44.06-2.16.16-3.84s.18-3.81.16-4.76c-.02-1.75.62-6.65.94-7.18.1-.16.22-2.03.27-4.16s.22-5.06.38-6.52.39-4.13.52-5.95c.12-1.82.35-4.62.51-6.22s.34-3.92.4-5.16c.07-1.24.19-2.84.27-3.57.38-3.43.62-6.23.66-7.68.03-.87.14-2.6.25-3.83.1-1.24.1-3.38-.03-4.76a11 11 0 0 1 .02-3.17c.24-.65.8-4.61.8-5.7 0-.29.12-1.78.28-3.3.16-1.53.4-4.33.55-6.22 1.12-15.13 1.09-14.74 1.58-18.13.14-.94.32-3.2.4-5.02.27-5.96.59-9.91.87-10.6.15-.38.27-2.02.28-3.64 0-1.62.08-3.07.17-3.22.09-.14.01-.75-.17-1.35-.26-.86-.26-1.2.01-1.62.38-.6.59-2.14 1.33-9.74.3-2.98.6-5.84.67-6.35s.2-3 .28-5.55.31-5.7.53-7.01c.82-5 1.07-12.16.45-12.9-.35-.43-1.85-.28-2.83.27-.63.35-3.4 1.27-5.43 1.8-.8.22-1.68.52-1.96.68-.93.52-4.66 1.28-6.32 1.29-.9 0-1.79.1-1.97.21-.48.3-.8 2.23-1.26 7.46-.23 2.54-.53 5.88-.68 7.4a74 74 0 0 0-.28 3.31 23 23 0 0 1-.24 2.12c-.13.87-.3 3.25-.38 5.29s-.21 4.66-.29 5.82-.17 3.43-.2 5.03c-.04 1.6-.27 4.04-.51 5.42a93 93 0 0 0-.7 8.73 91 91 0 0 1-.65 8.34 45 45 0 0 0-.83 10.58q.04 4.77-.27 5.69-1.08 3.08-.65 4.5c.18.63.19 1.3 0 2.11-.14.66-.38 2.5-.52 4.1s-.4 3.87-.55 5.03-.23 2.6-.14 3.18-.04 3.14-.27 5.69a567 567 0 0 0-.64 7.67c-.12 1.67-.48 5.78-.8 9.13-.3 3.34-.6 7.51-.64 9.26a117 117 0 0 1-.5 7.27c-.24 2.26-.56 5.89-.73 8.07s-.47 5.76-.67 7.94-.42 4.92-.49 6.09a56 56 0 0 1-.41 4c-.16 1.03-.28 2.4-.27 3.04.03 1.42-.2 6.36-.4 8.7-.3 3.33-.43 8.5-.26 9.41l.17.93 1.64-.14zm22.5-6.87a4 4 0 0 1 1.5-.39c.69 0 3.81-.74 7.21-1.7.8-.23 1.8-.41 2.25-.42.44 0 1.52-.18 2.39-.4 1.88-.48 3.77-.77 8.6-1.3 2.03-.21 4.25-.63 5.16-.95.87-.31 2.24-.62 3.04-.69s1.9-.25 2.45-.41c.98-.3.99-.31.99-1.67 0-1.03-.13-1.49-.53-1.85-.62-.56-.69-1.52-.14-1.98.5-.4.66-1.34.82-4.63.3-6.12.76-10.57 1.22-12.02.18-.55.22-1.76.12-3.1-.11-1.49-.04-3.04.24-4.76.23-1.4.36-2.7.3-2.88-.08-.17.05-1.32.28-2.54.22-1.22.44-3.17.48-4.34.08-2.33.57-7.66.77-8.31.07-.23.2-1.73.27-3.33s.26-4.04.4-5.42c.28-2.76.54-6.26.68-9.13.05-1.02.21-2.92.36-4.23s.28-3.32.28-4.45.12-2.28.25-2.53c.15-.28.16-.88.02-1.5-.17-.74-.12-1.69.19-3.23.34-1.79.37-2.6.15-4.47-.22-1.8-.2-2.46.07-3.13.52-1.24 1.03-5.02.96-7.12-.03-1 .07-2.53.23-3.4.16-.86.33-2.75.39-4.19s.21-2.83.35-3.09.28-1.95.32-3.77c.12-5.83.29-7.95.82-10.48.22-1 .21-1.6-.01-2.27-.25-.74-.22-1.31.13-2.88.25-1.08.54-3.51.66-5.4s.34-4.82.49-6.49.32-3.93.38-5.03c.4-7.18.73-11.82.86-12.17.08-.21.2-1.82.24-3.57.05-1.74.28-4.24.52-5.55.82-4.6 1.6-14.58 1.23-15.88-.25-.9.29-.87-6.13-.43-4.3.3-5.38.57-8.36 2.15-1.14.6-2.55 1.2-3.14 1.32-.58.12-2.02.6-3.18 1.06s-2.48.94-2.91 1.06-1.3.42-1.93.65c-.8.3-2.53.45-5.95.56-2.65.08-5.09.2-5.41.27-.86.17-1.36 1.36-1.4 3.3-.02.94-.15 3.13-.28 4.88-.3 3.99-.56 9.27-.5 10.32.08 1.23.06 1.42-.42 4.1a42 42 0 0 0-.52 5.19c-.04 1.47-.21 2.93-.38 3.25-.2.36-.36 2.36-.42 5.1-.06 2.5-.22 4.9-.36 5.35s-.38 2.84-.54 5.32c-.16 2.47-.38 5.09-.47 5.82-.19 1.45-.24 2.66-.45 9.92-.08 2.7-.22 5.31-.32 5.82a49 49 0 0 0-.62 5.03c-.17 1.67-.36 4.17-.43 5.55-.07 1.39-.25 3.11-.4 3.84s-.32 4.05-.38 7.38c-.08 4.54-.2 6.33-.5 7.15-.34.9-.76 6.6-.89 11.93-.05 2.15-.54 8.85-.67 9.05-.35.57-.89 3.99-.77 4.91.07.55 0 1.32-.16 1.72-.25.65-.6 5.5-1 14.08-.14 3.15-.63 11.38-1.14 19.13-.18 2.8-.44 4.81-.7 5.43a9 9 0 0 0-.41 2.83c0 1.02-.18 2.6-.38 3.52-.44 1.96-.48 3.53-.12 4.8.2.67.16 1.2-.13 2.05-.38 1.12-.55 4.6-.24 4.9.2.2 3.62-.74 4.63-1.26m310.6-4.48c.66-.25 2.21-.75 3.45-1.1 4.36-1.22 8.2-2.7 9.73-3.74.4-.27 1.5-.7 2.44-.96 3.8-1.03 5.44-1.61 5.86-2.06.33-.36.48-1.26.6-3.85.1-1.86.31-3.97.48-4.7s.33-3 .38-5.03c.2-8.65.45-12.9.84-13.92.14-.36.26-2.14.28-3.95 0-1.81.16-4.25.32-5.41.17-1.17.28-3.69.24-5.6-.03-1.92.04-3.65.16-3.84.22-.34.96-3.54 1.43-6.12.13-.7.16-1.45.07-1.67-.19-.5-1.18-.9-2.28-.9-1.08 0-2.5-.87-2.83-1.73-.27-.7-.14-2.2.29-3.3.36-.92 2.09-1.84 3.47-1.85 2.4 0 2.31.14 2.29-3.8-.01-1.9.1-4.19.25-5.06.43-2.45.96-9.37.74-9.59-.23-.23-1.94-.2-6.16.07-1.62.1-3.23.13-3.57.04-.66-.17-1.73-.93-2.95-2.1-.7-.68-.75-.84-.58-1.99.1-.68.46-1.9.8-2.7.33-.8.69-1.75.8-2.12.25-.86 2.04-3.51 3.4-5.06l2.02-2.3c.5-.6 1.25-1.15 1.64-1.24.94-.21 1.95.5 2.34 1.67q.56 1.6-1.44 2.63c-1.8.93-4.1 4.32-4.67 6.85-.39 1.75.21 3.12 1.56 3.57 1.24.4 6.9.11 7.4-.4.35-.35.4-1.7.65-14.86.05-2.77.2-5.2.33-5.41s.33-1.87.45-3.7c.28-4.28.28-4.07.06-6.17-.12-1.11-.08-2.34.1-3.18.17-.75.36-2.08.43-2.96.2-2.71.92-8.97 1.09-9.52.09-.3.33-2.67.53-5.3.2-2.61.5-5.77.65-7s.37-3.8.48-5.7.28-3.58.38-3.74c.2-.31.34-2.6.58-9.48.09-2.33.26-4.71.4-5.3.13-.58.3-2.54.39-4.36.17-4.05.26-4.86.7-6.26.26-.87.27-1.32.02-2.16l-.32-1.06-2.7-.16c-1.5-.08-3.31-.2-4.04-.26s-3.38-.23-5.9-.38c-2.52-.16-5.26-.4-6.09-.54s-2.4-.23-3.49-.2c-1.09.04-2.27-.04-2.63-.16s-2.32-.23-4.36-.24c-3.84-.02-5.6-.33-6.53-1.17q-1.05-.97.23-1.93c.42-.32.57-.55.34-.55-.65-.02-1.6-1.12-1.6-1.87 0-.4.26-1.04.57-1.44l.57-.72 3.47.17c1.9.1 4.5.36 5.77.59 1.77.3 2.51.33 3.15.11 1.15-.4 1.99-.36 2.72.12.44.28 2.1.52 5.61.79 2.75.2 6.13.5 7.5.67 1.4.15 2.88.27 3.32.25 1.6-.05 9.95.55 11.18.81.69.15 2.5.38 4.03.51 1.53.14 4.03.38 5.56.54s3.9.33 5.29.38c2.85.09 8.73.74 10.71 1.19.73.16 1.92.23 2.65.15s2.99.01 5.03.21c2.03.2 4.11.34 4.62.3s1.39.08 1.95.27c.71.25 1.75.31 3.33.21 1.75-.11 2.47-.05 3.07.25.43.22 1.92.48 3.3.57l5.42.43 6.62.54c2.03.15 4.55.41 5.6.58 1.64.26 2.1.23 3.48-.18 1-.3 1.86-.41 2.34-.3.41.11 1.25.26 1.86.33 1.57.2 1.82.6 1.15 1.84a5 5 0 0 0-.54 1.7c0 .39-.24 1.4-.54 2.25-.38 1.12-.55 2.4-.61 4.6-.05 1.68-.22 3.32-.4 3.63-.17.33-.3 1.68-.3 3.13 0 1.4-.13 2.79-.29 3.08s-.33 2.04-.38 3.88c-.2 6.5-.38 9.73-.65 11.7-.15 1.09-.28 2.87-.3 3.96 0 1.1-.18 4.25-.39 7.01-.2 2.77-.38 5.98-.38 7.15 0 1.16-.1 2.53-.24 3.04s-.3 2.67-.37 4.8a33 33 0 0 1-.27 4.13c-.09.14-.02.61.14 1.05.25.64.23.98-.1 1.7-.23.49-.49 1.96-.58 3.27a73 73 0 0 1-.55 4.94c-.48 3.14-.54 4.7-.28 6.5q.2 1.38-.08 1.74c-.18.2-.4 2.5-.56 5.5-.14 2.82-.45 6.62-.67 8.44-.45 3.58-.56 7-.28 8.47.11.58.02 1.38-.23 2.13-.46 1.34-1.05 9.1-.8 10.43.1.5-.01 1.36-.26 2.1-.25.72-.43 2.16-.44 3.41-.01 1.2-.17 3.77-.36 5.74a49 49 0 0 0-.27 5.3c.05.94-.02 2.25-.15 2.9-.39 1.95-.51 3.52-.8 10.18a77 77 0 0 1-.52 7.28 10 10 0 0 0-.26 2.17 7 7 0 0 1-.28 1.96c-.15.4-.32 2.7-.37 5.1a53 53 0 0 1-.37 5.72c-.15.73-.35 2.48-.45 3.9-.16 2.09-.12 2.6.17 2.67l1.39.43c.8.26 1.26.26 2.16.01.95-.26 1.52-.24 3.33.13 1.2.24 2.67.6 3.26.82 1.9.66 4.48.78 5.84.26.66-.25 1.32-.69 1.47-.97s.29-2.36.3-4.67c.02-3.33.11-4.3.45-4.83.34-.52.46-1.78.59-6.08.1-2.99.3-6.02.48-6.75s.43-3.46.58-6.08.3-5.3.36-5.96c.2-2.38.69-8.4.93-11.5.14-1.75.39-6.04.55-9.53.16-3.5.36-6.46.44-6.59.2-.31.63-5.77.6-7.57 0-.8.11-1.87.27-2.38.28-.89.6-5.1.93-12.17.08-1.82.26-4.02.39-4.9.13-.87.3-3.43.4-5.68.08-2.26.31-5.06.52-6.22.48-2.76.93-7.23.94-9.4 0-.94.13-2.55.29-3.56s.28-2.21.28-2.65.1-2.22.23-3.97.3-4.6.38-6.35c.2-4.5.85-11.7 1.19-13.07.16-.64.21-1.65.13-2.25-.15-1.06.42-9.17.92-13.12.14-1.1.3-3.44.37-5.21.06-1.77.18-3.33.26-3.46.11-.19.19-3.8.13-6.68 0-.36.12-1.55.28-2.64.47-3.18 1.08-11.36 1.21-16.14.03-1.1.2-3.42.39-5.16.18-1.75.36-4.01.39-5.03s.26-3.04.5-4.5c.25-1.45.52-4.42.6-6.58s.2-4.05.27-4.18c.33-.53 1.54-13.88 1.86-20.47.18-3.73.25-3.66-3.55-3.6-5.96.1-11.08.68-13.29 1.5-.8.3-2.28.47-4.63.54-3.45.1-4.7.24-8.86.98-1.24.22-3.26.4-4.5.42-1.23.02-3.08.2-4.1.42s-3.22.57-4.9.79l-5.2.7c-1.46.2-3.49.23-6.34.09-6.88-.36-16.15-.07-18.62.58-.8.21-2.17.45-3.04.53s-1.97.27-2.43.4c-.47.15-1.9.37-3.18.5s-3.46.42-4.84.64c-3.9.62-8.99 1.03-13.63 1.1-9.73.16-11.92.32-15.47 1.14-.66.15-1.85.2-2.66.12a9 9 0 0 0-3.5.4c-1.13.31-2.34.57-2.7.57s-1.25.23-2 .53c-.73.29-1.78.53-2.32.53s-1.5.18-2.12.4-1.64.46-2.25.53-1.88.25-2.83.4c-.94.14-2.97.3-4.5.36s-3.13.22-3.58.36c-.44.14-2.7.27-5.02.29-2.33.01-4.94.14-5.81.28-2.14.35-6.67.82-7.81.82-.5 0-1.88.29-3.04.65s-2.77.79-3.57.95-2.6.71-3.97 1.23c-4.63 1.72-8.68 2.99-9.54 2.99-.62 0-1.15.27-1.96 1.01-.95.88-1.46 1.1-3.73 1.62-1.45.34-3.45.95-4.45 1.37s-2.31.84-2.91.93c-1.15.18-2.93.96-3.2 1.41-.1.15-.5.27-.89.27-.69 0-3.32.53-5.47 1.1-1.41.39-3.83.95-6.03 1.42-.99.21-2.03.51-2.32.67-1 .53-4.9 1.06-10.04 1.35-6.65.39-19.23.38-20.41-.01-.5-.17-4.06-.36-8.3-.44-4.07-.09-8.06-.2-8.86-.26-3.85-.28-10.24-.5-13.1-.43-1.74.04-4.6.06-6.35.05a59 59 0 0 0-5.69.27c-3.87.44-4.1.46-8.33.79-2.18.17-4.5.41-5.16.54-.65.14-2.2.42-3.46.63-1.24.22-2.7.57-3.23.8-.53.22-1.55.4-2.26.4-1.24 0-4.01.91-4.01 1.32 0 .1.8.27 1.78.37 3.3.32 4 .48 4.45.97 1.07 1.19-.25 2.38-2.4 2.17l-2.57-.2c-.83-.04-1.9-.2-2.38-.36-1.4-.43-6.56-.5-6.56-.08 0 .3 7.87 1.37 10 1.37 1.97 0 2.44.16 2.44.86 0 1.25-1.63 1.94-2.94 1.24-.28-.16-1.74-.28-3.22-.29s-4.31-.18-6.28-.4a56 56 0 0 0-4.5-.36l-2.6.02c-1.4-.01-1.84.1-2.77.74-.61.4-1.82 1.09-2.7 1.5-1.8.86-3.21 1.84-3.92 2.7-.26.33-.63.6-.8.6-.19 0-.6.3-.9.65-.32.36-.9.74-1.31.83-.4.1-1.42.51-2.26.93a10 10 0 0 1-3.77 1.12c-.29.03-.94.27-1.44.54s-2.05.73-3.44 1c-1.4.28-2.77.61-3.06.73l-1.32.55c-.44.18-1.62.43-2.62.56-1.98.25-2.8.75-2.8 1.71 0 .33-.1.88-.23 1.22s-.31 3.17-.41 6.3-.25 6.19-.33 6.8c-.15 1.1-.14 1.1.8 1.28.53.1 1.17.1 1.42-.02.26-.1 1.3-.28 2.32-.4 2.43-.26 5.16-1 5.82-1.58.3-.25.95-.67 1.45-.93a8 8 0 0 0 3.65-3.48c1.21-2.29 2.38-3.79 2.94-3.79.79 0 1.88 1.02 1.88 1.76 0 .8-2.5 6.16-3.66 7.83a8 8 0 0 0-.99 1.95c-.1.42-.27.89-.37 1.03s-.46 1.46-.8 2.91c-.32 1.46-.93 3.6-1.35 4.75a13 13 0 0 0-.77 3.07c0 2.01-1.12 3.96-2.28 3.96-1.01 0-1.9-.56-2.33-1.47-.56-1.18-.52-1.87.22-3.46.35-.74.83-2.05 1.08-2.9.25-.87.79-2.28 1.2-3.15 1.42-3 1.96-5.16 1.3-5.16-.15 0-.84.23-1.52.5-2.27.95-7.77 1.63-9.07 1.13-1.36-.53-1.53 0-1.85 5.9-.36 6.53-.62 8.88-1.12 9.98-.34.77-.38 1.13-.15 1.62.28.62 0 6.65-.57 11.95-.41 3.9-.76 8.97-.87 12.57-.14 4.91-.66 12.48-1 14.55-.14.95-.25 3.15-.24 4.9.02 2.06-.11 3.8-.39 4.97a38 38 0 0 0-.52 6.08c-.06 2.36-.24 5.43-.39 6.8-.15 1.4-.39 4.77-.52 7.52-.14 2.75-.4 5.58-.57 6.29-.17.7-.25 1.43-.18 1.61.24.62-.34 9.59-.7 10.91-.2.73-.31 1.92-.26 2.65.06.73-.08 2.74-.3 4.47a19 19 0 0 0-.26 3.63c.27.83.31 4.02.08 4.86-.13.44-.35 1.57-.5 2.52l-.54 3.17c-.14.8-.31 2.3-.38 3.31s-.25 3.28-.4 5.03c-.15 1.74-.34 4.42-.42 5.95s-.25 3.2-.38 3.7c-.13.51-.24 1.8-.24 2.86 0 1.07-.13 2.45-.29 3.08-.2.8-.2 1.43-.01 2.14.2.71.2 1.15-.02 1.55-.42.77-1.07 4.72-1.1 6.65l-.04 1.58 6.75-.1a380 380 0 0 0 8.33-.19l6.88-.35c2.91-.15 5.71-.39 6.22-.54.5-.14 4.62-.4 9.13-.56 14.05-.5 17.14-.68 19-1.04 1.4-.28 1.98-.29 2.65-.05s1.5.22 3.89-.1c1.67-.22 4.05-.37 5.28-.34 1.59.04 3.2-.14 5.43-.62 1.74-.36 4.24-.82 5.55-1.01s2.85-.5 3.4-.7c.57-.19 1.48-.35 2.03-.35s1.57-.17 2.28-.38 2.54-.57 4.07-.8c2.45-.38 3.14-.62 5.9-2.03a35 35 0 0 1 4.5-1.98c1.38-.38 6.04-.94 8.54-1.02a8 8 0 0 0 2.11-.33c.43-.17 1.51-.42 2.41-.57 1.52-.25 3-.9 3-1.34 0-.1-.36-.44-.8-.77-.61-.45-.8-.79-.8-1.5 0-1.47 1.24-1.86 2.99-.92.54.29 1.15.53 1.35.53s.68.25 1.06.55c.82.65 1.67.54 2.67-.33.7-.6 1.12-2.39.8-3.37-.21-.7-1.78-1.52-3.63-1.91-.77-.16-1.72-.46-2.1-.66-1.26-.64-1.3-2.1-.09-2.75.72-.38.51-.43 4.63 1.05 1.24.44 2.63.8 3.1.8.5 0 1.13.26 1.56.63.68.58.7.67.38 1.45-.19.46-.5.83-.69.83-.37 0-.5.33-.77 1.92-.15.91-.11 1 .44 1 .34-.01.86-.16 1.17-.34s1.27-.7 2.13-1.17c.9-.47 2-1.35 2.55-2.02a4.8 4.8 0 0 1 2.72-1.78c1.58-.52 2.53-1.16 5.03-3.36.86-.76 7-2.36 11.48-2.98 1.24-.17 2.53-.42 2.87-.55l.6-.25-.54-.69c-.65-.83-.7-1.75-.13-2.32.61-.61 1.17-.52 2.8.46 4.12 2.48 4.89 2.52 5.8.27.66-1.63 1.44-2.29 2.54-2.16.67.07.76.2.83 1.18.07.91-.03 1.18-.61 1.63-.4.32-.71.85-.74 1.28-.05.7.03.74 1.93 1.2 1.1.25 2.43.47 2.97.47 1.09.01 7.08 1.21 8.14 1.63.65.25 3.18 4.02 3.18 4.73 0 .18.31.9.7 1.62.73 1.34 1.56 1.72 1.84.83q.51-1.57 1.22-1.8c.88-.28 1.71.1 2.06.95.28.67.27.98-.08 1.85-.47 1.2-.26 2.46.43 2.6.49.09 1.5-1.92 1.5-2.98 0-.7 1.4-2.9 2.2-3.47.77-.54 3.93-.52 5.08.03 1 .47 1.67 1.83 1.88 3.8.12 1.06-.02 1.5-1.14 3.61a30 30 0 0 1-2 3.33l-.73.93.86.91c.6.64 1.33 1.04 2.45 1.36 1.2.33 1.82.69 2.51 1.45.51.56 1.64 1.48 2.52 2.05a55 55 0 0 1 3.3 2.4c.95.74 2.23 1.63 2.85 1.97.61.34 1.18.83 1.27 1.1.33 1.03 2.22 2.46 5.54 4.19.87.45 1.96 1.2 2.41 1.67s1.56 1.42 2.45 2.12 1.62 1.4 1.62 1.53.63.53 1.4.9c1.32.61 1.58.64 5.61.56 3.28-.07 4.5-.2 5.43-.56m-111.06-38.13c-3.75-.97-4.75-1.66-4.28-2.93.34-.88 1.08-.95 3.34-.32 1.14.32 2.85.66 3.8.76s1.91.26 2.15.37c.66.3.78 1.22.29 2.06-.39.65-.6.74-1.64.72-.66 0-2.3-.3-3.66-.66m-10.45-2.2c-1.25-1.39-1.43-2.04-.79-2.9.92-1.23 3.82-1.05 4.66.28.83 1.31.8 1.76-.18 2.73-1.31 1.32-2.43 1.28-3.69-.1m6.7-4.77c-.15-.28-.28-.81-.28-1.17 0-1.06-1.25-2.02-3.17-2.42-.5-.1-1.32-.49-1.81-.86-.77-.57-.87-.77-.73-1.49.1-.49.57-1.19 1.15-1.7.95-.85 1.05-.87 2.58-.71.87.09 1.86.34 2.18.55.58.37.6.35.6-.48.02-1.36.57-1.86 2.22-2 1.33-.11 1.47-.07 1.9.6.5.77.61 1.9.3 3.18-.3 1.27.08 1.54 2.43 1.75 2.66.23 3.9.9 4.15 2.24.12.63.04 1.1-.26 1.57-.37.56-.63.66-1.82.65-.76 0-2.1-.19-2.97-.41-2.71-.7-2.95-.72-3.34-.25-1 1.22-1.35 1.46-2.07 1.46q-.77 0-1.06-.51m42.85-.98c-2.11-.38-4.34-1.32-4.96-2.1a7 7 0 0 1-1.38-3.4c-.01-.92 1.26-2.71 2.26-3.19.82-.38 1.14-.4 2.19-.14.68.16 1.86.65 2.62 1.08l2.85 1.59c1.7.95 2.09 1.54 1.9 2.9-.13 1.03-1.23 2.73-1.92 3-.6.23-2.83.4-3.56.26m2.05-2.74c.28 0-.02-1.37-.4-1.8-.52-.6-2.68-1.38-3.81-1.38-.74 0-.86.18-.76 1.2.14 1.32 2.58 2.63 4.11 2.2zm2.05-4.68c-1.3-.51-3.03-1.17-3.83-1.45s-1.83-.69-2.3-.9a4 4 0 0 0-1.1-.38c-.44 0-1.1-1.12-1.1-1.87 0-1.3.62-1.53 3.7-1.4q4.32.18.93-.66c-1.95-.48-3.67-1.45-3.95-2.23-.19-.54-.11-.82.4-1.45.96-1.19 2.33-1.3 4.34-.34a32 32 0 0 0 5.31 2.12c1.46.36 3.03 2.13 3.03 3.4 0 .75-1.22 1.43-2.9 1.61-.8.09-1.47.28-1.47.42 0 .15.9.36 1.99.48 2.38.25 3.1.77 2.72 1.92-.27.82-1.7 1.71-2.72 1.7-.37-.02-1.74-.45-3.05-.97m-57.67-51.02c-1.05-1.1-1.17-1.34-1.34-2.94a8 8 0 0 1 .12-2.77c.37-1.22 2.66-3.98 4.39-5.27.68-.5 1.74-1.36 2.34-1.88.6-.53 1.7-1.26 2.42-1.63 1.72-.87 2.24-1.49 3.28-3.9a9 9 0 0 1 1.42-2.42c.33-.25.8-1.23 1.14-2.38l.57-1.94-.56-.08c-.3-.04-1.39.2-2.4.54-1.22.4-2.4.6-3.43.59-1.44-.04-1.63-.12-2.34-.94-.87-1.03-1.25-1.86-1.25-2.74 0-.87 1.66-2.92 2.7-3.33.48-.18 1.4-.67 2.06-1.08a8 8 0 0 1 2.54-.91c1.25-.17 1.39-.13 1.92.55 1.06 1.34.6 2.79-1.43 4.58-.67.59-1.15 1.19-1.07 1.33.35.55 4.37-1 5.24-2.03.51-.6 2.06-3.42 2.06-3.74 0-.56 1.46-2.64 2.03-2.9.78-.36 2.13.1 2.35.8.28.89-.17 2.13-1.17 3.16-2.13 2.2-3.27 3.75-4.03 5.46l-1.35 2.99c-.83 1.8-1.02 2.65-.72 3.2.29.54 1.14.66 1.65.23.17-.15.82-.62 1.44-1.06 1.07-.75 1.13-.85 1.13-2.12 0-1.1.17-1.6.99-2.83.54-.82 1.27-2 1.62-2.62a2.8 2.8 0 0 1 3.03-1.58c1.18.14 1.77.94 1.93 2.56.14 1.43.14 1.45-1.1 2.7a7 7 0 0 1-1.49 1.25c-.12 0-.22.18-.22.4 0 .53 1.37.52 2.4-.02.85-.43 1.48-.93 3.34-2.6.85-.76 1.43-1.05 2.3-1.15 1.02-.11 1.2-.05 1.51.5.48.86.48 1.04-.07 1.98-.6 1-.62 1.69-.09 1.69.71 0 2.71-1.08 3.62-1.94 1.33-1.28 2.22-1.77 3.21-1.77a1.9 1.9 0 0 1 1.73 2.77c-.41.9-.03 1.19 1.53 1.2 1.18 0 1.47-.27 2.63-2.51.94-1.81 2.8-2.18 3.75-.74.4.62.4.73-.15 1.76-.32.6-.58 1.18-.58 1.3 0 .1.42.19.93.19.7 0 1.39-.33 2.74-1.31 2.54-1.85 3.12-2.04 3.94-1.28.57.54.62.75.47 2l-.18 1.38h.9c1.16 0 1.79-.68 1.79-1.95 0-2.66 3.12-5.8 5.25-5.28 2.43.58 3.23 3.27 1.5 5-.56.56-.73.6-1.32.34-.37-.17-.67-.48-.67-.68 0-.74-.67-.15-1.05.93-.45 1.28-.26 1.6.66 1.11.57-.3.8-.3 1.6.09 1.14.55 2 .56 3.1.04a6.6 6.6 0 0 0 3.23-2.85c.61-1.27 1.44-1.67 2.89-1.4.84.16 1.05.35 1.47 1.33.27.63.62 1.23.78 1.33s.54.66.84 1.26c.54 1.05.55 1.6.1 3.45-.25.96.17.95 2.08-.07.82-.44 1.77-.8 2.12-.8.34 0 1.05-.32 1.56-.72s1.2-.9 1.52-1.13c.33-.21.85-.58 1.16-.8.3-.24.98-.58 1.49-.78.96-.37 4.27-2.03 5.74-2.87.84-.49 1.16-.78 4.18-3.73 1.63-1.59 4.94-3.46 6.13-3.46.9 0 1.5 1.08 1.28 2.35-.2 1.19-.76 1.77-2.71 2.82-.77.4-1.4.82-1.4.92 0 .39-1.4 1.58-2.47 2.1-.6.3-1.94 1.18-2.97 1.96a34 34 0 0 1-2.64 1.87c-.43.24-1.5 1.03-2.36 1.76-.9.75-2.26 1.57-3.14 1.89-.85.3-1.6.7-1.67.89-.16.41-1.22.82-2.69 1.02-.63.09-1.94.52-2.9.96-.98.44-2.22.9-2.75 1.02-1.35.3-3.3-.1-4.36-.92-1.18-.9-1.2-2.15-.07-3.94.44-.7.74-1.44.66-1.64-.2-.54-.95-.75-1.44-.4-1.02.72-3.58 1.9-4.13 1.9-.33 0-1.1.17-1.72.4-1.32.46-2.9.47-4.35.04-.9-.28-1.4-.22-3.96.42-1.62.4-3.42.7-4 .67-1.05-.08-1.06-.09-1.14-1.27-.11-1.61-.41-1.84-1.3-1-1.01.97-2.55 1.18-4.34.6a9 9 0 0 1-1.75-.72c-.17-.14-.83-.2-1.45-.1-4.23.57-4.62.53-6.33-.7-.62-.43-.71-.43-2.09.1-3.49 1.31-4.67 1.23-6-.44-.87-1.09-1.1-1.12-1.9-.28-.62.66-1.89 1.08-4.12 1.36-2.04.25-3.57.84-5.16 1.98-.8.57-1.88 1.24-2.38 1.5-.51.25-1.4.79-1.96 1.2s-1.17.73-1.35.73c-.68 0-1.43 1.23-1.7 2.78-.6 3.62-2.04 6.36-4.85 9.2-2.73 2.78-3.22 3.1-4.63 3.1-1 0-1.28-.14-2.3-1.19m4.62-4.6c.08-.09.37-.29.65-.44s.64-.5.8-.78c.15-.27.37-.62.48-.78 1.32-1.79 1.97-2.93 1.86-3.23-.18-.45-1.01-.23-1.76.47-.3.27-.72.56-.95.64-.68.24-2.65 2.9-2.83 3.82l-.18.86.9-.2a3 3 0 0 0 1.03-.35m5.14-23.98c.8-.38 1.74-1.58 1.74-2.22 0-.7-1.49-.22-2.96.95-.4.3-.87.61-1.04.67-.19.06-.25.3-.15.56.21.56 1.28.58 2.4.04m-20.42 13.12c-1.2-.76-1.46-1.58-1.1-3.54.3-1.68 1.14-3.62 1.56-3.62.13 0 .8-.78 1.48-1.73 1.47-2.06 2.23-2.5 4.3-2.5 1.17 0 1.66-.12 2-.49q.81-.9.03-1.2c-.63-.24-.46-.7.27-.7q.64 0 .66-.4c0-.23.12-.35.26-.26.15.1.27-.02.27-.24 0-.5-.12-.51-2.43-.43-3.52.13-4.92-1.02-5.04-4.13a5 5 0 0 1 .69-3.27c1-1.93.98-1.9 3.07-3.17a8.5 8.5 0 0 1 3.61-1.35c2.38-.33 3.13-.13 4.44 1.18 1.15 1.15 1.83 3.05 1.57 4.4-.07.37.03.87.22 1.11.33.42.45.4 1.8-.22 3.03-1.39 5.31-3.43 6.62-5.91.66-1.26 1.69-1.42 2.63-.42.85.9.59 1.65-1.15 3.22-3.04 2.75-4.59 3.8-6.55 4.47a16 16 0 0 1-2.34.66c-.22 0-.99.39-1.7.86-1.47.97-1.71 1.53-1.77 4.04-.03 1.7-.26 2.17-1.21 2.53-.34.13-.61.42-.61.65 0 .84-1.6 3.75-3.03 5.55a22 22 0 0 0-1.81 2.51c-.18.36-1 1.12-1.83 1.7-1.88 1.29-3.58 1.53-4.91.7m4.07-4.85c1.4-.8 2.22-1.75 2.22-2.54 0-.44-.11-.86-.24-.95-.35-.2-1.61.31-1.61.67 0 .16-.23.62-.52 1.02-.58.81-.98 2.14-.64 2.13.13 0 .48-.16.79-.33m6.58-13.04c1.61-.22 2.17-.71 2.49-2.2.35-1.67.04-2.62-1.12-3.4-.72-.5-1.1-.58-2.18-.45-2.24.25-2.42.34-3.4 1.67-1.18 1.6-1.32 3.35-.35 4.28.62.58 1.03.6 4.56.1m-93.8 17.35c-1.05-1.07-.37-3.36 2.2-7.32 2.07-3.21 2.85-4.6 3.27-5.87.23-.68.76-1.8 1.18-2.5.42-.69.77-1.31.77-1.38 0-.27-1.49-.11-2.14.22-1.23.65-2.2.78-5.25.73-3.7-.07-4.52-.39-4.52-1.74 0-1.51 1.3-1.83 4.28-1.05 1.5.39 1.67.38 3.15-.13a12 12 0 0 1 1.9-.54c.46 0 4.2-1.82 4.76-2.32.26-.23.6-.89.75-1.47.4-1.5 1-2.31 2-2.73 1.14-.48 1.32-.46 1.95.17.85.85.66 1.88-.66 3.64a7 7 0 0 0-1.2 1.97c0 .22-.25.62-.55.9-.77.7-1.17 1.53-2.21 4.67-1.02 3.07-2.6 6.69-3.24 7.4-.23.25-.45.95-.48 1.54-.04.6-.31 1.42-.63 1.85-.3.42-.56.95-.56 1.18q-.01.96-1.4 2.44c-1 1.05-2.5 1.2-3.36.34m21.16-1.13c-.87-1.38-.59-2.69 1.03-4.77 1.95-2.52 2.08-3.61.42-3.63-.68 0-1.38-.76-2.45-2.68-1.3-2.3-1.16-4.62.55-9.36 1.09-3 2.18-4.14 5.58-5.8 2.85-1.38 4.15-1.72 6.54-1.73s3.88.75 4.67 2.37c.99 2.03.68 3.77-1.03 5.75-1.27 1.49-1.83 1.84-3.26 2.07-1.34.2-1.84.58-2.09 1.57-.1.44-.6 1.62-1.12 2.62-.8 1.58-.87 1.88-.55 2.2.62.62 2.15-.17 2.8-1.42.72-1.42 1.43-2 2.33-1.9.95.11 1.1.85.48 2.46-.5 1.3-1.27 2.1-3.13 3.21-2.3 1.38-2.94 1.67-3.64 1.69-1 .01-1.27.5-1.45 2.55-.19 2.28-1.18 4.6-2.21 5.22a4 4 0 0 1-1.85.44c-.94 0-1.16-.12-1.62-.86m5.5-12.3c.4-.55.88-1.3 1.04-1.66l.7-1.62c.76-1.77.8-2.68.18-3.48-.3-.4-.52-.98-.48-1.31.07-.5.3-.62 1.32-.73.95-.1 1.37-.3 1.82-.88.51-.65.74-.73 1.78-.67.97.06 1.27-.03 1.56-.47q.95-1.42-2.02-2.44c-.78-.27-1.12-.24-2.25.2-.73.28-1.65.58-2.04.67-.93.2-4.06 2.86-4.64 3.94a9 9 0 0 0-1.13 3.93c0 .54-.11 1.27-.25 1.62-.2.52-.08.9.58 1.98q2.02 3.27 3.82.92m30.03 11.42a4 4 0 0 1-.96-1.12c-.39-.75-.42-.87-.42-1.5 0-.76-.65-.4-2.13 1.2-1.47 1.58-1.51 1.6-2.77 1.52-1.74-.11-2.28-.85-2.4-3.28-.05-1.13.03-1.95.23-2.2q.4-.45-.04-.17-.38.22-.25-.15c.07-.2.25-.36.41-.36s.38-.1.49-.2q.14-.18-.15-.2c-.2 0-1.41 1.06-2.71 2.37-3.61 3.62-5.04 4.21-8.05 3.32a4.8 4.8 0 0 1-3.27-3.33c-.6-2.2.17-3.68 3.34-6.4l1.46-1.25h2.03c2.48.02 2.97.32 3.15 1.95.16 1.42-.12 3.15-.47 2.93-.14-.08-.25-.05-.25.08 0 .64.46.49 1.59-.53.68-.62 1.85-1.64 2.6-2.26a5.5 5.5 0 0 0 1.53-1.79c.09-.36.24-.65.33-.65s.47-.53.83-1.19.74-1.19.85-1.19c.12 0 .2-.17.2-.38s.28-.7.6-1.12c.33-.41.82-1.22 1.09-1.8l.91-2c.64-1.39 1.12-1.84 1.95-1.84.99 0 1.8.85 1.8 1.87 0 .75-.63 1.94-1.5 2.84-.2.2-.34.58-.34.86 0 .66.65.66 2.14 0 1.34-.6 3.62-.95 4.56-.71 1.52.38.93 1.97-.92 2.52a18 18 0 0 0-2.61 1.11c-.8.42-1.81.77-2.25.77-2.18.01-2.76.27-3.39 1.55a16 16 0 0 0-.97 2.76c-.2.84-.46 1.6-.58 1.67s-.22.56-.22 1.08c0 .8.06.9.4.61.22-.18.4-.46.4-.61s.23-.53.5-.83c.55-.57 1.42-1.74 2.53-3.38.8-1.18 1.56-1.63 2.41-1.41.6.14.64.27.64 1.98 0 1.88.16 2.66.54 2.66s4.01-4.59 4.49-5.69c.26-.58.84-1.52 1.29-2.08s.83-1.14.83-1.28c0-.43 1.88-3.1 2.93-4.17 1.2-1.2 1.78-1.44 2.71-1.08 1.1.41 1.15 1.33.2 3.36-.46.97-.77 1.82-.69 1.9s.82-.01 1.66-.2c2.87-.62 4.3-.65 4.7-.1.55.7.47 1.35-.23 2.05-.49.49-1.04.67-2.45.8a10 10 0 0 0-3.52 1.01c-1.98.98-2.26 1.47-2.53 4.42-.23 2.53-1.35 6.35-2.05 6.95s-1.86.6-2.41-.02c-.76-.84-.53-2.84.75-6.46.2-.55.25-1 .12-1-.12 0-.56.45-.97 1-.4.54-.89 1.15-1.07 1.34s-.33.48-.33.63-.74 1-1.65 1.9-1.86 2-2.1 2.48c-.52.98-1.53 1.16-2.54.44m-16.5-3.97c.79-.4 1.15-1.17.55-1.17-.15 0-.21.11-.13.25.2.32-.17.53-1.02.6-.38.04-.69.21-.69.4 0 .44.27.43 1.29-.08m.04-.76c0-.2-.8-.37-.9-.19-.07.11.1.22.38.24s.52 0 .52-.05m.64-3.04c.89-.93.76-1.6-.3-1.6-.87 0-1.15.18-1.62 1.01-.3.54-.28.67.13.99.7.53.96.47 1.8-.4m6.5 2.63c0-.14.13-.26.28-.26s.2.12.12.26c-.1.15-.22.27-.28.27s-.12-.12-.12-.27m-31.09-23.48c-4.22-.36-8.33-2.3-8.33-3.91 0-.32.23-.79.52-1.05.76-.68 2.25-.4 4.95.95l2.25 1.12 4.54.02c4.91.03 5.3-.06 9.17-2.07.65-.34 1.55-.7 1.98-.8.44-.1 1.1-.45 1.46-.78.7-.63 1.17-.97 3.44-2.45.8-.52 1.66-1.2 1.92-1.52.85-1.02 2.02-3.22 2-3.74-.01-.29.11-1.3.27-2.24.4-2.3.14-3.16-1.17-3.9a4 4 0 0 0-3.46-.32c-1.01.39-3 2.05-3.26 2.73-1.73 4.53-2.05 5.14-2.9 5.58-1 .52-1.13.51-1.82-.13-.83-.77-.81-2.84.03-3.87.97-1.21 3.14-5.14 3.02-5.47-.1-.23-.92-.25-3.16-.07-2.95.23-3.06.22-3.88-.39-.46-.34-.91-.9-1-1.25-.26-1.06.68-3.58 1.94-5.17 1.02-1.28 1.32-1.5 2.35-1.65 2.05-.3 3.3.34 3.3 1.7 0 1.14-.56 1.66-1.93 1.82q-2.18.25-2 1.83c.12 1.02 1.15 1.12 3.18.32 2.6-1.03 3.74-2.3 5.7-6.31 1.8-3.7 4.16-8.5 4.43-9.03.56-1.04 3.76-1.7 4.68-.96a3.5 3.5 0 0 1 1.28 2.4c0 1.26-.8 3.62-1.34 3.96-.28.17-.51.45-.51.6 0 .17-.22.4-.5.54-.26.13-1.28 1.16-2.26 2.29a13 13 0 0 1-2.02 2.05c-.14 0-.25.12-.25.27s-.52.8-1.16 1.44a7 7 0 0 0-1.35 1.71c-.1.3-.28.55-.4.55-.14 0-.43.34-.64.76-.31.6-.33.84-.07 1.18.27.37.56.39 2.17.15 1.65-.25 2-.22 3.3.27 2.14.82 2.92 1.95 2.91 4.23 0 2.46-.39 4.55-1.24 6.69-2.02 5.04-10.28 10.35-17.86 11.46-2.6.38-6.6.6-8.28.46m24.77-35.06q.24-.45-.01-.46c-.27 0-1.09 1.36-1.07 1.77 0 .23.68-.58 1.08-1.3m27.58 25.81a2.2 2.2 0 0 1-1.03-.62c-.56-.62-.88-.64-1.88-.12-1.23.64-2.53.51-3.34-.33a5 5 0 0 1-.98-1.49c-.27-.73-.33-.75-1.4-.54-.62.12-2.2.24-3.5.25-1.31.01-2.72.17-3.13.34-1.68.71-4.51.09-5.34-1.18a6 6 0 0 1-.57-2.03c-.16-1.63.25-2.75 1.61-4.33 1.38-1.6 3.05-2.04 6.75-1.8 3.3.23 3.72.4 3.72 1.48 0 .93-.32 1.6-1.36 2.88-.42.5-.76 1.09-.76 1.3 0 1.08 4.7-1.05 5.85-2.66.71-1 2.15-1.6 3.01-1.28 1.08.4 1.58 1.95.86 2.7a6 6 0 0 0-1.25 2.05c0 .61 1.04.22 1.7-.65.81-1.06 1.54-1.51 2.66-1.62 1.22-.12 1.83.47 1.65 1.6q-.32 1.95 1.1.22c1.98-2.42 2.9-2.98 4.91-2.98 1.42 0 1.74.42 1.74 2.26v1.24l.98-.18c.68-.13 1.31-.54 2.07-1.36.6-.64 1.28-1.16 1.5-1.16.24 0 .83-.51 1.3-1.13a12.95 12.95 0 0 0 2.34-3.5c.3-.59 1.02-1.84 1.6-2.78a60 60 0 0 0 3.58-6.79c.47-1.16 2-2.39 3.33-2.65.55-.11.9.02 1.43.56.6.6.68.85.53 1.64-.25 1.33-1.03 2.62-2.81 4.64-.86.96-1.56 1.81-1.56 1.87s-.66 1.1-1.46 2.3-1.45 2.33-1.45 2.53-.16.51-.35.7c-.18.2-.5.77-.7 1.28a8 8 0 0 1-.99 1.68c-.65.79-.79 1.99-.34 2.84.32.59 1.32.7 1.32.13 0-.2.28-.71.63-1.12s.75-1.17.9-1.68c.15-.5.51-1.54.8-2.3s.46-1.43.38-1.5c-.07-.08.15-.27.5-.42.5-.22.99-.15 2.34.34 2.32.84 2.52 1.38 1.38 3.67-.85 1.72-.93 2.01-.88 3.1.03.57.12.61 1.1.48q1.07-.17 1.73-.84c.68-.74 1.56-2.26 1.3-2.26-.25 0 1.5-2.44 2.32-3.24.62-.61.97-.73 2.15-.73 1.78 0 2.81.8 2.81 2.19 0 1.11-1.75 3.56-3 4.2-1.3.67-1.6 1.13-1.23 1.83.28.5.46.56 1.52.41.66-.09 1.33-.27 1.5-.4.39-.3 3.59-1.35 4.13-1.35.24 0 .66-.26.94-.57a9 9 0 0 1 2.23-1.38c1.58-.74 2.02-.82 5.55-.99 4.7-.22 5.2-.3 8.85-1.56 8.74-3 10.75-3.64 12.27-3.93.91-.18 2.46-.6 3.44-.92 1.71-.58 1.82-.59 3.36-.17 2.6.71 2.64.75 2.92 2.52.12.71 0 .96-.8 1.66-1.09.96-1.5 1.04-6.36 1.21-2.53.09-3.95.26-4.5.53-.43.22-1.39.54-2.11.72-.73.17-2.06.6-2.96.94s-1.83.62-2.08.62-.86.24-1.35.55c-1.2.74-6.06 1.47-11.34 1.7-3.33.13-4.47.28-5.36.68-5.3 2.4-5.5 2.45-8.46 2.3-2.18-.11-2.85-.26-4.3-.95-1.7-.8-1.75-.82-2.91-.42-1.56.54-2.7.3-3.58-.75-.72-.85-.76-1.33-.25-3.51l.18-.8-.8.93c-.45.51-1.01 1.46-1.26 2.12-.7 1.85-2.02 3.08-3.5 3.25-2.04.23-3.07-.65-3.29-2.83-.04-.42-.28-.9-.53-1.05-.37-.23-.64-.1-1.45.66-1.13 1.06-2.19 1.43-4.34 1.53-1.12.05-1.7-.07-2.38-.48-1.27-.78-1.69-.7-3.1.6q-2.62 2.44-4.45 2.1m-15.55-5.65c.73-.27 1.96-1.75 1.96-2.35 0-.26-.17-.62-.38-.8-.88-.73-3.85 1.16-3.85 2.44 0 1.12.64 1.32 2.27.71m50.54-1.77c-.19-.18-.69.2-.69.51q.01.27.4-.05c.23-.19.35-.4.29-.46m104.2-22.47a5 5 0 0 1-1.58-1.16c-.93-.95-1.14-1.04-2.4-1.04-1.14 0-1.47-.1-1.8-.59a2.3 2.3 0 0 1-.42-1.03c0-.69 2.26-2.85 3.58-3.44.65-.29 1.18-.61 1.18-.72 0-.52-.66-.75-1.81-.63-.94.09-1.38 0-1.7-.31-1.24-1.25 1.5-3.29 4.03-2.99 2.18.26 3.98 1.63 3.98 3.02 0 .74-.27 1.17-1.59 2.48-.87.87-1.58 1.68-1.58 1.8s.52.31 1.17.4c1.61.25 2.53 1.02 2.53 2.12 0 .73-.18 1-1.05 1.57-1.02.68-1.37.75-2.55.52m-27.37-2.41q-1.58-.75-1.58-1.59c0-.82.68-2.1 1.3-2.43.74-.39 2.15-.33 3.03.13.41.22.91.4 1.1.4s.6.4.92.92c.67 1.1.52 1.84-.48 2.35-.77.38-3.64.53-4.29.22M317.5 59c0-.13-.22-.31-.48-.4-.55-.17-1.47-1.33-1.75-2.2-.14-.44-.01-.75.53-1.25.8-.75 1.87-.86 2.64-.28.66.5 1.3.51 1.69.04.25-.3.12-.43-.7-.7-2.24-.71-2.67-1.03-2.86-2.1a3.5 3.5 0 0 1 1.55-3.46 6.8 6.8 0 0 1 4.5-.53c1.27.42 2 1.94 2.05 4.28.04 1.82-.1 2.24-1.45 4.26-.6.9-1.22 1.44-2.22 1.92-1.37.65-3.5.91-3.5.42m4.09-6.87c.2-.34-.1-1.02-.51-1.18-.55-.2-1.25.44-1.05.96.18.48 1.3.63 1.56.22m-24.12 6.35c-2.33-.4-3-2.3-1.29-3.6 1.2-.91 2.16-1.15 3.46-.86 1.55.34 2.25 1.11 2.25 2.47 0 .9-.13 1.2-.7 1.57-.82.54-2.18.7-3.72.42m14.07-.66c-.7-.51-.85-3.47-.29-5.69.24-.91.43-2.04.43-2.5 0-1.25.65-2.02 1.7-2.02q1.91 0 1.63 2.16c-.09.63-.2 2.57-.27 4.31-.1 2.87-.17 3.22-.7 3.64-.68.56-1.8.6-2.5.1m-21.56-.32c-.65-.24-1.28-.6-1.4-.8-.3-.51-1.04-.45-2.4.2-1.54.75-2.93.53-3.56-.57l-.44-.76-.66.63c-.54.51-1 .65-2.45.7-2.06.1-2.5-.18-2.75-1.7-.14-.82-.05-1.07.67-1.79s.97-.81 1.95-.71c.62.06 1.34.2 1.61.33.42.18.47.13.32-.33-.23-.74.77-1.48 1.48-1.1.92.5.43 1.8-.69 1.85-.52.01-.52.02.04.3.45.21.67.18.99-.13.68-.68 1.82-.79 3.09-.28.82.33 1.94.47 3.8.48 1.46.01 2.9.05 3.2.08 1.55.16 2.34 2.54 1.1 3.34-.95.63-2.57.73-3.9.26m-17.79-1.58c-.43-.23-.74-.64-.77-.98-.09-1.41.12-2.48.59-2.96.46-.47.6-.48 1.5-.16 1.24.44 1.6.72 2.07 1.63.58 1.13.07 2.27-1.17 2.62-1.22.34-1.34.33-2.22-.15m-6.56-.49c-.38-.2-.83-.7-1-1.1l-.34-.72-.74.9c-.68.8-.87.88-2 .83-1.6-.07-1.93-.34-2.15-1.83-.24-1.63.43-2.34 2.2-2.3 1.22.02 1.53.23 2.36 1.6.28.46.34.45 1.07-.24 1.1-1.03 2.79-1.23 4.42-.5 1.2.52 1.25.6 1.17 1.52-.06.7-.3 1.13-.8 1.5-.92.7-3.25.88-4.2.34m-13.01-.56c-.4-.22-.85-.62-1-.9-.27-.51-.29-.51-1.48 0a5 5 0 0 1-4.18.08c-1.27-.6-1.61-1.45-.94-2.3 1.04-1.32 2.96-1.48 5.03-.43 1.27.65 1.5.65 1.7.02.23-.74.66-.82 2.74-.47 2.1.36 2.37.54 2.85 1.94.42 1.22.22 1.5-1.42 2.05-1.5.52-2.36.52-3.3 0m-12.82-1.2c-.98-.62-1.42-1.94-.84-2.51.47-.48 2.02-.7 3-.43a1.9 1.9 0 0 1 1.36 2.24c-.13.52-.42.77-1.16.97-1.31.37-1.39.36-2.36-.27m-6.85-.9c-.58-.87-.14-2.24.92-2.86 1.58-.93 4.58-.36 4.14.8-.08.2-.15.6-.15.85 0 .26-.3.78-.65 1.17-.56.6-.86.7-2.24.7-1.4 0-1.65-.08-2.02-.65m-5.9-.14c-.51-.43-.6-.69-.46-1.4.35-1.88 1.91-2.53 4-1.65.84.35.92.48.92 1.49 0 1.51-.7 2.1-2.49 2.08-.94 0-1.53-.16-1.97-.52m-4.96-.25c-1.17-.52-1.47-.97-1.29-1.9.32-1.65 2.68-2.22 4.32-1.05.69.5.83.77.83 1.62 0 1.78-1.6 2.33-3.86 1.33m-6.14-.42c-1.31-.94-1.32-2.68-.01-2.95.42-.08.83-.25.9-.38.19-.3 1.99-.3 2.45 0 .61.39.7 2.21.14 2.87-.67.8-2.65 1.06-3.48.46m-7-.4c-.83-.44-.99-.66-.98-1.38.01-1.03.45-1.67 1.42-2.03 1.8-.69 4.13.14 4.13 1.45 0 .97-.42 1.64-1.32 2.1-1.03.54-2.04.5-3.25-.14m-5.22-.86c-1.6-.54-1.73-.64-1.8-1.44-.14-1.36.87-2.18 2.68-2.18 2.22 0 3.09 1.09 2.46 3.07-.14.43-1.27 1.25-1.57 1.14zm-5.82-.89c-1.6-.55-1.85-.8-1.85-1.83 0-1.1.8-1.7 2.5-1.9 1.42-.15 2.41.07 2.61.59.09.21.02 1.04-.15 1.84-.4 1.86-.9 2.07-3.11 1.3m-8.84-1.8c-.46-.36-.49-.63-.33-3.2.2-3.18.55-4.05 1.94-4.71a7 7 0 0 1 2.46-.43c1.32 0 1.63.1 1.97.59.59.83.55.92-.7 1.5-1.12.53-1.12.54-.32.55.44 0 1.04.17 1.32.38.5.36.5.38 0 .92-.38.43-.81.56-1.84.56-1.58 0-2.39.37-1.75.79.22.14 1 .26 1.75.26 1.33 0 2.22.51 2.22 1.27 0 .5-1.13 1.12-2.05 1.12-.48 0-1.3.18-1.83.4-1.18.49-2.19.49-2.84 0m-7.53-.44c-.94-.35-1.07-1-.86-4.55.22-3.78.39-4.13 1.98-4.2 1.8-.06 2.3 1.32 1.46 3.98-.33 1.07-.32 1.18.15 1.52.28.2.78.38 1.12.38.7 0 1.67.85 1.67 1.46 0 .23-.28.7-.63 1.04-.54.54-.86.62-2.49.6-1.03-.02-2.1-.12-2.4-.23m232.42-7.52c-.62-.62-.52-2.44.26-4.8.37-1.14.7-2.53.73-3.11.04-.97-.03-1.09-1.01-1.6-1.77-.93-1.48-2.75.44-2.77.53 0 .93-.31 1.6-1.26.5-.7 1.07-1.65 1.26-2.13s.56-.98.82-1.12c.66-.36 1.93-.32 2.31.06.53.52.38 2.52-.27 3.65-.33.56-.5 1.12-.38 1.24s1.28.22 2.58.23 2.47.13 2.6.27c.4.44.86 2.2.7 2.71-.09.27-.43.62-.77.77-.7.32-3.13.2-3.87-.19-.93-.5-2.05-.32-2.63.43-.61.77-.73 2.07-.22 2.38.18.12.86.3 1.52.4 3.97.63 6.08 1.5 6.08 2.49 0 .8-.63 1.97-1.14 2.13-1.57.5-3.96-.02-5.05-1.1a2 2 0 0 0-1.13-.47c-.56-.04-.86.18-1.47 1.08-.65.95-.9 1.12-1.66 1.12-.48 0-1.07-.18-1.3-.41m-9.74-.83c-.82-.52-1.62-2.27-1.39-3 .09-.28.02-.76-.15-1.08-.27-.5-.24-.64.18-.93 1.07-.74 1.12-.84.88-1.87-.39-1.65-.33-1.93.42-1.93.37 0 .93-.24 1.24-.53a2 2 0 0 1 2.46-.16c.45.33.47.46.15 1.52-.2.63-.57 1.71-.85 2.4-.27.67-.5 1.46-.5 1.75 0 .28-.16.65-.37.82-.42.35-.25 1.34.23 1.34.18 0 .6-.44.96-.99.49-.76.84-1.01 1.5-1.07.72-.07.86 0 .86.47 0 .77-.6 1.85-1.52 2.72-1.01.97-3.03 1.23-4.1.54m-28.51-1.96a8 8 0 0 0-1.9-.76c-1.15-.02-.64-2.36.57-2.66a6 6 0 0 1 1.97.08c.72.13 1.7.16 2.2.07 1.2-.23 2.98-2 2.98-2.99 0-1.64.8-3.31 3.22-6.74.96-1.35 2.28-2.23 2.96-1.97.73.28.49 1.08-.66 2.18-.6.57-1.38 1.7-1.73 2.5s-.74 1.7-.88 1.98c-.4.88-.8 2.6-.8 3.5 0 .75.11.87 1 1.12 1.61.45 2.34.33 3.53-.58.86-.66 1.3-1.3 1.9-2.71 1.18-2.83 1.28-3.3.94-4.36-.7-2.19-1.1-3.1-1.7-3.89-1.27-1.67-5.03-3.2-7.12-2.88-1.32.2-3.8 1.71-5.24 3.2-.8.82-.98 1.18-.97 2.08.01 1.59.45 2.01 2.07 2.01 1.56 0 1.73.33.81 1.61-.49.7-.69.77-2.05.77-1.74 0-2.69-.62-3.35-2.2s-.5-2.68.62-4.55c1.4-2.31 3.5-3.85 6.63-4.86 1.34-.44 4.34-.36 5.64.14 1.92.75 4.37 2.45 4.71 3.3.18.42.43.76.55.76s.54.63.9 1.4c.6 1.22.66 1.6.52 3.23-.23 2.68-.9 5.64-1.54 6.73-.73 1.27-1.54 2-3.24 2.97-1.28.72-1.7.81-4.5.95-2.71.13-3.16.22-3.8.77-.99.83-2.36.76-4.24-.2m18.53.35c-1.27-.5-2.4-1.83-2.4-2.84 0-.98 1.24-4.05 2-4.96 1.07-1.27 2.88-2.36 4.2-2.5 1.04-.13 1.25-.05 2.26.87 1.54 1.39 1.84 2.08 1.77 4.13-.05 1.41-.21 2-.84 3.03a5.9 5.9 0 0 1-7 2.27m3.9-2.89c1.03-.49 1.25-.86 1.49-2.48.23-1.58-.33-2.33-1.87-2.54-1.57-.21-2.2.48-2.2 2.41 0 .8-.11 1.5-.24 1.59-.13.08-.3.39-.38.69-.27 1.03 1.36 1.2 3.2.33m-29.42 1.62c-.51-.5-.51-.49-.03-1.42.49-.94 1.56-1.24 2.42-.68q1.1.7.22 1.93c-.5.7-1.98.8-2.61.17m-4.08-.46c-.76-.8-.72-1.35.12-2.01.89-.7 1.95-.7 2.7-.01.74.7.73 1.34-.04 2.06-.81.76-2.04.75-2.78-.04m-4.2.08c-1.25-.5-1.58-2.6-.5-3.3.53-.35.82-.37 1.84-.12 1.38.35 1.69.64 1.91 1.76.28 1.4-1.55 2.35-3.24 1.66m-7.05-.8c-.98-.77-1-2.43-.04-3.06.79-.51 2.9-.3 3.64.36.7.62.62 2.3-.13 2.83-.85.6-2.63.53-3.47-.14m-7.61-.92c-.86-.46-1.09-1-.78-1.81.33-.86.87-1.02 3.32-.98 1.8.02 2.19.1 2.58.58.63.75.6 2-.05 2.34-.76.4-4.25.32-5.07-.13m-7.08-.36c-.31-.3-.56-.77-.57-1.02 0-.34-.18-.24-.68.4-.63.8-.77.85-2.36.85-1.5 0-1.74-.07-2.23-.7-.66-.84-.67-.94-.06-1.69.37-.45.84-.63 1.94-.72 1.26-.1 1.55-.03 2.21.54l.77.66.72-.54c1.01-.75 3.27-.54 3.96.37.59.76.61 1.04.14 1.68-.25.34-.8.52-1.82.6-1.24.1-1.55.04-2.02-.43m-10.82-.81c-.47-.3-.86-.75-.86-1.02 0-1.31 2.37-2.34 3.7-1.6.87.48 1.1 2.16.35 2.56-1.09.58-2.3.6-3.19.06m-6.68-.47q-1.58-.3-1.58-1.95c0-1.9 1.11-2.2 3.57-.97 1.6.81 1.9 1.61.92 2.58-.51.52-1.37.62-2.9.34m-5.37-.47c-1.24-.43-1.7-1.02-1.56-1.98.2-1.4 2.63-1.82 3.94-.7.64.56.7.73.47 1.38-.14.4-.61.95-1.05 1.2-.7.4-.91.41-1.8.1m-8.76-.94a7 7 0 0 1-1.57-.77c-.42-.42.13-1.68.9-2.03.8-.37 3.68-.08 5.08.51.85.36 1 .55 1 1.25 0 .45-.18 1-.39 1.2-.53.54-3.41.45-5.02-.16m-6.72-.6c-.74-.79-.77-2.17-.07-2.55.29-.15 1.1-.28 1.81-.28 2.47 0 3.33 2.16 1.22 3.04-1.36.57-2.3.5-2.96-.21m105.96-5.7a1.9 1.9 0 0 1 .24-2.65c1.03-.81 1.65-.92 2.4-.43.62.4.67.58.55 1.66-.08.74-.32 1.35-.61 1.57-.69.5-2.07.42-2.58-.14M73.24 248.85c1.6-.5 3.36-1.11 3.92-1.36 4.52-2 6.79-2.52 12.14-2.77 5.57-.27 9.43-.61 9.88-.9.18-.1 1.35-.36 2.6-.56a14 14 0 0 0 2.44-.53c.09-.09.24-1.01.34-2.06.1-1.04.31-3.02.48-4.4s.34-3.23.4-4.1c.26-4 .48-6.13.69-6.53.23-.45.58-4.97 1.06-13.72.33-6.06.32-5.59.1-7.8-.13-1.28-.08-2.1.14-2.65.55-1.3.58-1.48.68-4.23.06-1.46.23-3.9.38-5.43.16-1.52.32-3.3.38-3.96s.24-2.33.43-3.7c.18-1.4.36-3.53.39-4.77.07-2.58.52-6.93.93-8.86.26-1.23.52-3.72.9-8.6.09-1.1.27-4.6.4-7.8.14-3.21.37-6.96.51-8.34.15-1.39.32-4.18.38-6.22.14-4.54.58-10.13.93-11.92.14-.74.33-3.04.41-5.13.09-2.09.32-4.46.52-5.28.45-1.79.7-4.83.7-8.23-.01-4.46.9-19.42 1.33-21.8.14-.74.37-2.84.51-4.66.25-3.1.65-6.8.93-8.6.07-.43.25-2.34.41-4.23l.4-4.63c.47-5.14.48-4.86-.29-5.32-.55-.32-.99-.37-1.94-.2-.68.12-2.36.27-3.74.33-1.39.07-3.05.24-3.7.39-.66.14-2.03.4-3.05.57q-5.3.86-6.88 1.28c-.58.15-1.65.3-2.38.34-.73.03-1.62.14-1.99.25s-.95.27-1.32.35c-.36.08-1.06.5-1.55.94s-1.32.86-1.85.95c-1.46.25-2.72.65-3.63 1.17-.45.26-1.24.6-1.75.77q-1.8.6-1.2 2.53c.2.7.2 1.2 0 1.81-.15.5-.22 2.07-.15 3.76.16 3.83.16 3.85-.18 6.62a85 85 0 0 0-.42 5.42 27 27 0 0 1-.56 4.63c-.3 1.07-.44 2.74-.46 5.16-.01 1.96-.11 3.7-.22 3.87-.17.27-.4 3.45-.6 8.7a40 40 0 0 1-.2 2.9c-.08.59-.28 2.97-.44 5.3s-.42 5.28-.58 6.56a49 49 0 0 0-.28 4.88c0 1.4-.12 2.85-.26 3.22s-.36 2.42-.48 4.54a42 42 0 0 1-.5 4.9c-.24.96-.63 7.88-.57 10.32.01.6-.1 1.43-.27 1.85s-.3 1.72-.29 2.89c0 1.16-.17 3.36-.4 4.9a68 68 0 0 0-.5 6.47c-.2 7.09-.79 14.42-1.48 18.46a5 5 0 0 0-.08 1.8c.1.16.04 1.02-.12 1.92-.46 2.58-.87 7.5-.85 10.15.01 1.55-.12 2.75-.36 3.33-.2.5-.31 1.15-.24 1.45s-.04 2.12-.28 4.04c-.23 1.92-.42 5-.4 6.84a34 34 0 0 1-.38 5.46c-.37 1.96-.51 4.15-.47 7.4 0 .74-.17 1.97-.4 2.75a6 6 0 0 0-.24 2.46q.16 1.03-.24 1.8c-.22.43-.4 1.42-.4 2.2 0 .8-.1 1.78-.24 2.2-.12.42-.36 1.84-.52 3.15-.7 5.63-.68 6.22.23 6.22.27 0 1.8-.41 3.39-.91m322.05-2.52c2.86-.47 4-.84 4.82-1.6.7-.64.73-.76.88-4.36.1-2.07.38-4.65.66-5.83.3-1.32.54-3.7.64-6.35.09-2.32.28-5.3.42-6.61.15-1.3.38-3.87.5-5.69.14-1.82.37-4.5.52-5.95s.35-4.5.43-6.75.28-4.7.43-5.42c.38-1.83 1.15-13.53 1.03-15.74a182 182 0 0 1-.1-4.25c-.04-2.82.03-3.43.44-4.05.47-.72.46-.75-.1-1.23-.31-.28-.49-.63-.4-.78.1-.15.08-.27-.04-.27s-.86.96-1.64 2.12a19 19 0 0 1-2.88 3.3l-1.44 1.18.87.73c2.85 2.4 3.95 4.42 3.95 7.24 0 1.9-.8 3.5-2.32 4.62-.54.4-1.4 1.12-1.91 1.6-.51.47-1.34.96-1.85 1.1l-.93.23-.16 3.95c-.24 5.69-.88 13.16-1.17 13.62a7 7 0 0 0-.28 2.1c-.01.95-.16 4.05-.32 6.89l-.58 10.14a53 53 0 0 1-.43 5.24c-.22.37-.62 3.63-.78 6.43-.16 2.77-.67 3.94-1.78 4.07-.96.1-1.35-.9-1.12-2.87.09-.8.26-2.58.39-3.96.12-1.39.42-4.07.65-5.96s.54-5.82.69-8.73.43-7.61.63-10.45.39-6.41.4-7.94c.03-1.53.16-3.49.3-4.36s.38-2.54.52-3.7.33-2.28.4-2.48c.27-.73-.2-1.54-1.3-2.23-2.52-1.6-3.45-4.3-2.55-7.44.64-2.22.83-2.54 2.8-4.68 2.1-2.31 2.23-2.66 1.23-3.63-1.32-1.3-1.66-2.03-1.82-4l-.16-1.87 1.33-1.26c.73-.7 1.66-1.5 2.07-1.81.64-.48.75-.77.82-2.06.04-.83.21-1.75.37-2.06.69-1.27-1.02-1.8-5.92-1.8h-3.38l-.36.85c-.22.52-.42 2.43-.5 4.83a53 53 0 0 1-.43 5.42c-.15.8-.28 1.93-.28 2.52-.02 4.64-.2 8.18-.47 9.52-.37 1.85-.43 5.7-.08 5.7.13 0 .57-.18.97-.4.55-.28.84-.3 1.1-.1.58.49.39 1-.9 2.34-1.6 1.68-1.89 2.69-1.92 6.85a44 44 0 0 1-.28 4.94 30 30 0 0 0-.27 3.82c0 1.24-.1 3.26-.24 4.5s-.44 4.1-.66 6.35-.55 5.3-.72 6.75-.35 4.1-.4 5.9a28 28 0 0 1-.38 4.36c-.45 1.65-.58 8.27-.17 8.59.67.52 2.78.82 4.95.7 1.56-.1 2.66 0 3.58.27 1.39.41 1.47.41 4.63-.1m44.84-2.26a50 50 0 0 1 3.24-1.32c.37-.1.65-.44.74-.88.07-.4.26-1.19.4-1.77.33-1.22 1.04-7.9 1.04-9.66 0-.65.07-2.08.14-3.17.08-1.1.26-4 .4-6.48s.37-5.33.51-6.35c.6-4.26.82-6.72.78-8.47-.05-1.93.44-7.4.7-7.81.07-.13.2-1.84.26-3.81.1-3.41.55-7.96.8-8.38.12-.19.19-1.53.52-10.82.08-2.11.05-3.98-.07-4.16-.2-.3-5.61-2.72-6.1-2.72-.13 0-.54-.23-.9-.52-.35-.28-.96-.59-1.34-.68-.84-.21-.82-.28-1.25 4.45-.35 3.78-.25 4.16 1.13 4.16 1.19 0 2.48.93 3.51 2.54a5.3 5.3 0 0 1 .36 5.4c-.3.65-.7 1.61-.9 2.14-.57 1.58-2.62 4.05-3.95 4.75-1.6.85-1.91 1.73-1.5 4.33q.31 1.9.06 2.57c-.22.6-.42 2.85-.68 7.63a19 19 0 0 1-.25 2.39c-.09.36-.23 1.97-.3 3.57-.17 3.2-.51 8.86-.9 14.55-.14 2.04-.38 5.79-.53 8.33s-.4 5.43-.54 6.4c-.32 2.08-.35 4.8-.08 5.09.34.34 1.98-.12 4.7-1.3m-7.8.65c.16-.3.36-1.82.43-3.37.08-1.56.32-3.71.55-4.78.22-1.07.35-2.47.27-3.12a8 8 0 0 1 .08-2.16c.23-1.04.62-8.98.53-10.77-.03-.58.08-2.49.23-4.23.35-3.88.8-9.8.96-12.83.07-1.24.24-2.85.38-3.58.23-1.14.64-4.85.66-5.9 0-.36-.92-.78-3.43-1.56-1.63-.5-1.89-.7-2.53-1.97a4.3 4.3 0 0 1-.12-3.75c.21-.46.63-1.55.93-2.43a15 15 0 0 1 3.53-5.47 6 6 0 0 1 2.91-1.65c.4-.12.46-.3.3-.88-.2-.84-.2-5.07.04-8.16l.16-2.13-1.02-.61c-2.2-1.3-6.8-2.09-7.43-1.27-.32.4-.37 7.1-.07 8.16a2 2 0 0 1-.13 1.5c-.93 1.9-1.2 2.84-1.2 4.24 0 .83-.11 1.93-.25 2.44-.13.5-.3 2.53-.38 4.5-.14 3.51-.3 4.62-.72 5.17-.26.33-.13 4.27.17 4.98.11.28.06 1.4-.13 2.51-.18 1.11-.38 3.69-.43 5.72-.06 2.04-.28 6.03-.5 8.87-.61 8.1-.8 11.2-.75 11.77.03.3-.05 1.48-.19 2.65-.13 1.16-.3 3.3-.38 4.76-.25 4.7-.43 6.85-.68 8.47-.36 2.26-.32 4.55.07 4.81.29.18 1.96.32 6.87.56.75.04 1.05-.08 1.27-.49m-11.81-.02c.77-.35 1-1.06.79-2.4a7 7 0 0 1 .14-2.25c.48-2.1 1.09-10.6 1.5-20.98.06-1.68.23-3.58.37-4.24.27-1.27.77-7.63.96-12.17.14-3.5.57-6.95.96-7.8.45-1.01-.08-1.99-1.1-1.99-.42 0-.84.1-.92.24-.08.12-.65.36-1.27.52s-1.29.4-1.48.52c-.44.3-.74 2.73-.97 8.1l-.19 4.22.86.7c.71.58.83.82.68 1.41-.13.51-.4.76-.94.87-.6.12-.8.33-.91.98-.17.9-.73 10.31-.84 13.93-.16 5.55-.36 8.99-.61 10.58-.15.95-.34 2.56-.42 3.57-.07 1.02-.21 2.57-.3 3.44-.15 1.38-.1 1.69.4 2.32.46.57.8.73 1.61.73.57 0 1.32-.14 1.68-.3m-46.1-.62c2.14 0 3.98-.1 4.1-.23.13-.12.3-1.07.4-2.12.09-1.04.35-3.08.58-4.54.62-3.94 1-7.27.86-7.5-.1-.18.28-7.84.5-9.7.28-2.4.72-8.15 1.05-13.62.2-3.42.42-6.4.5-6.62.07-.22.2-1.18.3-2.15l.15-1.75-1.5-.37c-1.19-.28-1.67-.56-2.28-1.33-.7-.86-1.6-3.3-1.97-5.3-.14-.71-.97-1.8-1.4-1.8-.12 0-.88.6-1.68 1.34-1.32 1.2-1.48 1.46-1.63 2.7-.1.77-.07 2.75.06 4.41a30 30 0 0 1-.1 5.82 59 59 0 0 0-.33 5.05c-.02 1.23-.15 2.9-.3 3.7-.16.8-.32 2-.36 2.67a5 5 0 0 1-.23 1.46c-.08.14-.06 1 .05 1.93a9 9 0 0 1-.29 3.7c-.26 1.1-.48 2.85-.49 3.87 0 1.67-.59 7.47-.91 9.13-.07.36-.3 2.44-.52 4.63a92 92 0 0 1-.56 4.76c-.22 1.1.75 2.39 1.57 2.08.3-.12 2.3-.22 4.44-.22m39.33-.52c.23-.21.38-1.28.44-3.08.05-1.52.23-3.9.4-5.27.4-3.1.5-4.83.56-8.76.02-1.7.15-3.6.28-4.24.24-1.16.39-2.98.72-8.8.2-3.44.07-3.87-1.18-3.87-1.18 0-2.58-.98-3.39-2.35-1.58-2.69-1.56-2.61-1.1-4.46.83-3.28 2.43-5.58 5.6-8.02 1.26-.98 1.43-1.22 1.44-2.07 0-.53.17-1.61.39-2.41.5-1.83.49-2.75 0-4.17-.46-1.32-.22-3.6.68-6.42a6 6 0 0 0 .38-2.85c-.22-1.44.32-7.92.81-9.88.43-1.69.48-3.1.14-3.63-.12-.2-.73-.46-1.35-.57-1.1-.2-8.73-.09-8.95.14-.18.18-.34 1.41-.5 3.9-.1 1.67-.04 2.43.2 2.72.44.53.54 2 .17 2.46-.41.51-.76 2.75-.84 5.47-.12 3.68-.59 8.37-.93 9.32-.18.48-.26 1.02-.2 1.2.18.44-.2 6.21-.73 11.57-.45 4.41-.53 6.09-.77 14.68-.07 2.62-.2 5.42-.27 6.22s-.25 2.97-.39 4.83a28 28 0 0 1-.4 3.62 44 44 0 0 0-.3 4.9 39 39 0 0 1-.36 5.27c-.14.35-.28 1.54-.32 2.66-.06 1.56.02 2.1.31 2.29.56.37 9.03 0 9.46-.4M301.6 226.8c.89-.84 1.69-2.75 1.45-3.44-.24-.67-1.18-1.66-1.6-1.66-.46 0-1.67 1.96-1.67 2.73 0 .35-.24.85-.53 1.1-.65.6-.65.7.01 1.41.72.78 1.41.73 2.34-.14M416.74 207c.27-.33.28-.6.04-1.23-.26-.67-.22-.96.21-1.82.42-.82.52-1.55.52-3.82 0-2.13-.08-2.79-.33-2.7-.18.05-1.07 1.2-1.98 2.55-1.63 2.4-1.66 2.47-1.65 4.21 0 .97.16 1.96.33 2.19.8 1.02 2.26 1.34 2.86.62m-33.28-14.47c.25-.4.38-1.68.42-3.98.02-1.87.17-4.25.32-5.3.55-3.85.6-5.85.16-6.22-.34-.28-.6-.2-1.55.49-1.76 1.26-4.99 4.28-5.37 5.02s-.29 1.11.88 3.58a29 29 0 0 1 1.93 4.76c.32 1.02.71 1.94.87 2.05.62.43 1.98.2 2.34-.4m39.06-.96c.6-.42 1.22-1.82.95-2.1a6 6 0 0 0-1.25-.33c-.98-.19-1.2-.14-1.6.33-.53.62-.61 2.08-.14 2.55.37.37 1.12.2 2.04-.45m-27.11-.63c.05-.18.17-2.14.27-4.36.18-4.51.1-4.71-1.38-3.18a7 7 0 0 0-1.38 2.7c-.68 2.22-.46 3.18 1 4.38 1.05.87 1.33.96 1.49.46m4.23-.88c.65-.68 1.48-1.96 1.87-2.89.7-1.63.7-1.68.29-3.1-.53-1.84-2.66-4.23-3.55-4q-1.05.27-.72 2.16c.09.54.04 2.7-.1 4.79s-.21 3.9-.14 4.03c.34.53 1.26.14 2.35-1m36.52.06c.83-.84 1.13-2.1 1.3-5.46.06-1.53.2-3.04.3-3.37.15-.5.09-.6-.38-.6-.76 0-2.15 1.43-2.9 2.98-.34.7-.82 1.4-1.08 1.59-.26.18-.68.98-.93 1.78-.56 1.81-.28 2.76.98 3.31 1.25.54 2 .48 2.7-.23m-11.4-2.88c.23-.38.41-1.66.5-3.52.06-1.62.26-3.2.44-3.53.45-.83.71-6.24.32-6.49-.18-.1-.92.4-1.76 1.2-1.1 1.04-1.56 1.7-1.85 2.7a10 10 0 0 1-.76 1.88c-.48.74-.76 2.35-.73 4.12.06 2.77.3 3.22 2.04 3.85 1.36.48 1.36.48 1.8-.2m15.62-.07c1.54-1.54 3.08-5.6 2.7-7.12-.25-.99-1.4-2-2.26-2-1.33 0-1.6.63-1.72 4.12-.07 1.73-.2 3.54-.3 4-.36 1.69.4 2.18 1.58 1m-70.35-.6c.44-.3 1.18-1.46 1.18-1.85 0-.25-.32-.33-1.12-.27-.88.06-1.2.22-1.5.78-.33.59-.34.77-.05 1.13.37.44 1.03.54 1.5.22m2.64-1.64c.09-.15-.03-.27-.27-.27-.23 0-.35.12-.26.27.09.14.2.26.26.26s.18-.12.27-.26m2.13-2.8c.3-.08.83-.62 1.19-1.2a6 6 0 0 1 1.5-1.6c.8-.5 2.2-1.78 3.3-3.04.45-.51.43-.55-.74-1.38a4.1 4.1 0 0 1-1.9-4.09c.15-1.5.8-2.47 2.21-3.3.9-.53 1.29-.6 2.83-.48 1.73.12 1.81.1 2.05-.53.14-.37.26-1.2.26-1.84 0-1.05-.08-1.19-.73-1.37-1.13-.31-9.57-.2-9.9.14-.35.34-1.04 6.03-.85 6.84.08.31 0 1.92-.16 3.57-.17 1.65-.35 3.42-.39 3.93s-.17 1.57-.28 2.36c-.18 1.23-.14 1.47.28 1.78.55.4.57.4 1.33.2m24.97-6.39c.92-.66 1.4-1.24 2.4-2.96.21-.38.48-.73.6-.77.53-.24.08-1.18-.9-1.9-1.14-.82-2.68-1.07-3.04-.49-.1.17-.24 1.45-.3 2.84a14 14 0 0 1-.36 2.98c-.64 1.21.13 1.36 1.6.3m-3.21-2.48c-.07-1.59-.17-1.97-.53-2.04-.74-.14-1.26 1.2-1 2.58.2 1.18.96 2.06 1.38 1.64.12-.12.19-1.1.15-2.18m26.46.5c.24-.36 1.04-1.18 1.77-1.8s1.46-1.34 1.63-1.58c.44-.61.87-6.69.5-6.95a4 4 0 0 0-.94-.37c-.37-.1-.97-.39-1.35-.65-.68-.48-.7-.47-1.26.12-.31.33-.57.8-.57 1.06 0 .25-.19.83-.43 1.29-.26.5-.46 1.7-.53 3.1-.1 2.13-.28 4.48-.37 4.77-.14.43-.1 1.26.09 1.66.26.57.81.33 1.46-.65m-39.6-.27c.9-.42 1.9-2.6 1.68-3.66-.2-.93-.93-1.18-2.61-.93-1.85.28-2.96 1.9-2.25 3.3q1.16 2.24 3.18 1.3m23.36-3.94c-.22-.36-.56-.28-.56.14 0 .2.16.3.35.23.2-.07.29-.24.2-.37m-1.27-2.8c1.7-1.78 2.05-2.62 1.31-3.24-.59-.48-6.77-.33-7.37.19-.55.48-.65 3.2-.14 3.71.17.17.86.32 1.52.33.66 0 1.5.18 1.87.38.36.21.76.39.89.4a11 11 0 0 0 1.92-1.76m44.83.12c.01-.48.13-1.81.27-2.98.3-2.54.54-6.5.52-8.86-.01-.95.15-2.67.36-3.84.2-1.16.36-3 .36-4.1-.01-1.1.18-4.13.41-6.75.24-2.62.5-6.9.58-9.5.09-2.62.23-4.87.32-5.01.09-.15.19-1.05.22-2 .04-.96.18-3.05.32-4.65s.4-5 .56-7.54.43-6.12.6-7.94c.15-1.82.31-4.02.36-4.9.24-4.55.45-7.13.78-9.52.38-2.74.6-6.45.78-13.19.12-4.64 0-4.93-2.16-4.94-.7 0-1.75-.12-2.36-.26-2.03-.47-4.78-.59-5.02-.2-.2.31-.33 2.37-.5 7.74-.14 4.8-.86 13.78-1.17 14.6-.23.6-.24 1.23-.05 2.26.18.99.18 1.76-.01 2.48-.16.57-.32 2.34-.36 3.94s-.2 3.69-.36 4.63c-.16.95-.3 3.1-.3 4.77a49 49 0 0 1-.3 5.02 30 30 0 0 0-.26 3.31c0 .73-.19 2.6-.43 4.18a14 14 0 0 0-.11 5.04c.44 3.03.4 5.8-.1 6.99-.33.81-.34 1.09-.07 1.6.3.55.27.68-.14.98-.75.55-.95 2.03-.92 6.78.02 2.42-.04 4.5-.12 4.64s-.2 1.55-.28 3.14c-.07 1.6-.26 3.23-.42 3.64a7 7 0 0 0-.28 2.07c0 .73-.13 2.14-.28 3.14-.2 1.24-.2 1.98-.02 2.32.34.63 2.72 1.88 4.13 2.18 1.93.4 3.92 1.03 4.2 1.31.15.15.5.28.75.28.36 0 .49-.22.5-.86m-11.83-4.97c.31-.29 1.03-11.67.86-13.75-.1-1.27-.04-1.86.25-2.23q.38-.51.38-2.58c0-1.94-.03-2.07-.57-2.07-.31 0-1.21.3-2 .68-1.33.63-1.56.66-3.15.41a9 9 0 0 1-2.64-.84c-.5-.32-1-.5-1.11-.4-.1.11-.2 2.18-.23 4.6-.03 4.13-.74 14.15-1.02 14.6-.07.12.1.49.38.82.44.56.84.65 3.9.91 3.35.29 4.5.25 4.95-.15m-34.57-.6c2.82-.26 3.25-.36 3.49-.84.27-.54.47-3.25.7-9.27.07-1.75.3-5.22.52-7.72.28-3.21.32-4.75.13-5.26-.26-.68-.34-.7-1.53-.53-.68.1-2.35.27-3.7.38-2.6.21-3.3.52-2.73 1.2q.33.4.18 1.8c-.08.77-.22 3-.3 4.97-.13 3.26-.4 7.1-.8 11.64-.09.95-.33 2.17-.53 2.7-.33.9-.32 1.01.09 1.26.25.14.64.2.85.1.22-.08 1.85-.28 3.63-.44m21.73.07c1.9-.02 1.91-.05 2.33-6.92l.48-7.5a9 9 0 0 0-.15-2.3c-.22-.87-.36-1-1.03-1-1.3 0-3.08.59-3.42 1.13-.17.28-.37 1.6-.43 2.93-.07 1.33-.23 3.55-.38 4.94a39 39 0 0 0-.23 3.3c.02.44-.06 1.64-.17 2.67-.2 1.84-.19 1.88.54 2.46.41.32.92.52 1.12.44s.8-.15 1.34-.15m-39.76-4.16c.03-1.85.21-4.74.4-6.42s.34-3.81.31-4.76.08-2.12.24-2.6c.15-.49.39-2.99.52-5.56.44-8.52.72-12.05 1.14-14.46.23-1.31.42-3.23.42-4.26 0-1.04.11-2.5.25-3.24.33-1.7.24-1.91-1.07-2.7-2.27-1.37-2.25-1.34-2.52-3.7-.16-1.35-.6-2.64-.9-2.64-.12 0-.85.3-1.62.66a7 7 0 0 1-2.38.66c-.53 0-1.1.18-1.28.39-.26.32-.37 1.9-.27 3.98.01.3-.1 1.18-.25 1.98a5 5 0 0 0 .03 2.44c.22.75.22 1.44-.02 2.79a51 51 0 0 0-.66 5.89 8 8 0 0 1-.23 1.59c-.08.21-.23 1.35-.32 2.51l-.4 5.03a99 99 0 0 1-.94 8.3c-.08.35-.2 1.9-.28 3.44-.12 2.7-.24 3.91-.52 5.32-.08.37-.18 1.74-.24 3.05s-.19 3-.28 3.75c-.29 2.46-.33 2.44 5.24 2.52 3.53.06 4.92-.01 5.2-.25.3-.25.4-1.13.43-3.7m6.73 3.77c3.58-.04 3.94-.1 4.35-.73.23-.35.44-1.56.53-2.97.08-1.31.3-3.63.48-5.16s.3-3.88.28-5.23c-.09-4.72-.1-6.03-.02-6.94l.07-.93-1.59.01c-.87.01-2.54.07-3.7.13a9 9 0 0 1-2.56-.1c-.63-.3-.93 1.4-1.28 7.14-.15 2.6-.4 5.32-.53 6.05-.14.73-.24 1.74-.22 2.25.01.5-.1 2.02-.27 3.36a13 13 0 0 0-.14 2.83q.28.78 1.96.48c.5-.1 1.7-.18 2.64-.19m26.76-.65c.87-.02 1.46-3.83.7-4.44a6 6 0 0 0-2.06-.4c-2.78-.21-5.56-1.84-5.97-3.5-.16-.61.1-1.14 1.66-3.4 2.05-3 3.75-4.4 6-4.95 1.62-.4 2.11-1.34 1.85-3.55-.12-1-.07-1.58.16-1.86.27-.32.25-.6-.08-1.43-.47-1.17-.38-2.22.4-4.7.4-1.26.53-2.62.6-6.08.06-2.46.17-5.24.26-6.18.23-2.59.95-14.74.97-16.4.01-.8.13-1.92.27-2.47.22-.83.45-4.32.55-8.12 0-.36.13-1.85.28-3.3.14-1.46.3-3.43.35-4.37.33-6.49.5-8.74.93-12.7.3-2.73.1-3.82-.74-4.07-.95-.28-8.22-.97-8.62-.81-.65.25-.75.8-.87 4.61a94 94 0 0 1-.8 9.66c-.06.58-.29 3.44-.5 6.35s-.53 6.75-.7 8.52c-.4 3.9-.24 4.5 1.25 4.63q.96.08 1.34.63c.32.5.3.64-.2 1.26-.42.54-.78.7-1.55.7-1.21 0-1.32.26-1.32 3.19a57 57 0 0 1-.3 4.75 97 97 0 0 0-.38 6.09 32 32 0 0 1-.38 4.5c-.16.65-.36 3.09-.44 5.42a46 46 0 0 1-.5 5.69c-.18.8-.34 2.34-.36 3.43a13 13 0 0 1-.32 2.84 3 3 0 0 0-.13 1.35c.09.27.03 1.8-.12 3.38-.56 5.95-.76 15.12-.34 15.8.08.13 2.06.17 4.4.09zm.2-7.01c1.1-.57 1.56-1.97 1.52-4.64-.03-1.24-.14-2.4-.25-2.58-.36-.56-1.39-.37-2.42.45-.54.43-1.18.85-1.42.93-.25.07-.65.47-.9.87l-1.03 1.59-.55.86.86.99c.92 1.06 2.2 1.89 2.98 1.9.26.01.8-.16 1.22-.37m6.33-11.2c.51-.4.57-.58.34-1.18-.3-.78-1.2-1.37-1.77-1.15-.38.14-.51 1.6-.21 2.38.2.55.88.53 1.64-.06m3.09-2.8c.06-.3.17-1.34.23-2.28l.45-6.56c.37-5.34.28-5.78-.93-4.99-.36.24-.74.77-.84 1.16-.09.4-.68 1.26-1.31 1.92-1.66 1.72-2.18 3.12-2.07 5.56.12 2.74.25 3.1 1.51 4.36 1.79 1.79 2.7 2.04 2.96.83m8.57.24a7 7 0 0 0 1.96-1.45 10 10 0 0 0 1.55-4.38c-.02-.3-.04-1.16-.06-1.94-.02-.8-.17-1.45-.34-1.5s-1.2-.16-2.29-.25c-1.9-.15-2.03-.12-3.36.7-1.16.74-1.54 1.2-2.47 2.98-.96 1.87-1.07 2.25-.91 3.28.25 1.65.35 1.84 1.41 2.56 1.26.86 2.83.86 4.51 0m-46.77-2.17c.2-.24.73-.59 1.18-.78.84-.35 2.08-2 5.6-7.47 2.5-3.9 2.4-3.6 2.58-7.2.15-2.9.44-5.59.84-7.66.07-.36.18-1.97.23-3.57s.17-3.3.25-3.76a5 5 0 0 0-.98-3.2c-.53-.62-.21-2.14.74-3.64.77-1.2.95-1.77 1.16-3.8.13-1.32.32-2.52.4-2.66.1-.14.02-.97-.16-1.85-.29-1.36-.27-1.7.08-2.45.26-.54.43-1.7.46-3.11.02-1.24.17-3.92.32-5.96.46-6.15.58-8.35.6-10.98l.03-2.5-1.06-.37c-.58-.2-2.42-.43-4.08-.5-3.62-.16-3.72-.1-3.72 2.59 0 .97-.12 2.1-.26 2.53s-.31 2.67-.39 5a159 159 0 0 1-.55 8.55c-.43 4.4-.36 5.08.53 5.08.57 0 1.73 1.07 1.73 1.6 0 .27.22.87.5 1.32s.43 1.07.35 1.4a30 30 0 0 1-2.32 3.76c-1.99 2.91-2.2 3.33-2.37 4.87-.1.92-.35 2.05-.54 2.5-.28.68-.28.94.02 1.48.47.85.47 1.85 0 2.48-.52.69-.12 1.37 1.02 1.74 1.41.47 1.42 1.02.05 2.34-1.5 1.44-1.7 2.19-1.77 6.54-.02 1.89-.15 4.15-.28 5.02-.22 1.53-.63 6.38-.92 10.92-.13 2.2.03 2.6.73 1.74m7.22-.64c1.6-.4 2.07-1.44 1.84-3.96q-.17-1.85-.51-1.84c-.19 0-.41.22-.5.5-.08.26-.63 1-1.2 1.62a7 7 0 0 0-1.06 1.34c0 .1-.17.26-.39.34-.3.12-1.2 1.74-1.2 2.19 0 .2 1.93.08 3.02-.19m9.1-.88c1.07-.2 2-.42 2.06-.49.15-.15.59-7.53.62-10.51.02-1.24.15-3.15.3-4.24s.37-3.59.5-5.55c.14-1.97.37-4.47.52-5.56.45-3.3.37-5.1-.25-5.77-.69-.74-1.08-.73-1.78.01-.58.63-1.9 3.34-2.43 5.01-.44 1.39-.88 1.69-1.87 1.28-1.09-.45-1.05-1.42.13-3.18 1-1.47 1.1-1.72.62-1.43q-.29.18-.1-.12c.1-.17.28-.25.4-.17.26.16.84-1.33.6-1.56a3 3 0 0 0-1.27-.16c-1.06 0-1.15.06-1.44.93a4 4 0 0 0-.14 1.66c.09.4-.02 3.16-.24 6.12-.23 2.96-.41 6.12-.41 7.02 0 1.61.01 1.65.93 2.08 1.16.56 1.2 1.3.16 2.58-1.6 1.93-1.89 2.75-2.06 5.76l-.15 2.83.58-.61c.34-.36.83-.58 1.16-.53.5.07.56.22.49 1.14a6 6 0 0 1-.73 2.16c-.35.6-.64 1.23-.64 1.39 0 .4 2.13.35 4.44-.09m26.54-5.97a12.3 12.3 0 0 1 5.9-3.3c1.33-.29 1.35-.3 1.54-1.48.1-.65.25-3.2.33-5.68s.33-7 .56-10.05.46-6.78.51-8.26c.05-1.49.22-3.39.38-4.22.15-.83.28-2.55.28-3.82a40 40 0 0 1 .25-4.26c.14-1.06.31-3.54.38-5.5.08-1.97.28-5.58.47-8.04.3-4.16.3-4.49-.14-4.8-.48-.35-3.73-.87-5.72-.9a8 8 0 0 1-1.58-.15c-.92-.28-1.06.24-1.36 4.9-.16 2.54-.32 5.63-.36 6.87a22 22 0 0 1-.23 2.9c-.2.77-.82 13.03-.75 14.83.02.65-.1 1.84-.27 2.64-.16.8-.33 2.83-.37 4.5s-.2 3.82-.37 4.76c-.44 2.58-.93 7.65-.84 8.8.02.27.48.65 1.08.92 1.17.5 1.6 1.23 1.6 2.66 0 1.24-.49 2.19-1.24 2.47-.79.28-1.46-.37-1.25-1.21.16-.65-.26-1.15-.56-.66-.1.16-.21 1.08-.26 2.05-.05.98-.16 2.19-.26 2.7-.2 1.13.23 2.38.83 2.38.25 0 .9-.47 1.45-1.05m-7.14-4.7c.5-.68 1.5-1.84 2.25-2.57l1.35-1.34.02-2.38c.02-2.31.25-5.4.5-6.74.08-.37.16-2.21.19-4.1.03-1.9.34-6.3.69-9.8.34-3.49.6-7.18.58-8.2s.12-3.28.33-5.02c.2-1.75.45-4.9.54-7s.34-4.82.55-6.05c.35-2.02.35-2.29-.03-2.7-.52-.58-3.67-.99-4.2-.54s-.66 1.7-.82 8.74a81 81 0 0 1-.43 7.73 4 4 0 0 0-.14 1.46c.07.12.03 1.17-.08 2.33a703 703 0 0 0-.97 10.97c-.09 1.1-.2 3.48-.27 5.3-.13 3.9-.45 8.24-.84 11.37-.5 3.94-.86 8.9-.69 9.35.26.68.5.55 1.47-.8m-36.65-14.93c.1-.17.29-1.21.4-2.32s.3-2.55.39-3.22c.1-.76.05-1.44-.14-1.8-.31-.58-.33-.58-1.48.49-.64.59-1.36 1.07-1.6 1.07-.35 0-.39.14-.21.73.12.4.23 1.47.24 2.37.01 1.35.12 1.76.64 2.32.67.71 1.45.87 1.76.36m-7.3-6.9c.22 0 .82.04 1.35.08.83.06 1.24-.17 3.16-1.73 3.94-3.21 3.86-3.07 4.08-6.8.19-3.14.17-3.25-.4-3.71a2 2 0 0 0-1.01-.47 6 6 0 0 0-3.18 1.2c-.42.35-.9.65-1.06.65s-.3.1-.3.21c0 .12-.25.49-.56.82-.47.5-.51.7-.27 1.24.36.8 1.08.81 2.39.06 1.84-1.06 2.54 0 1.04 1.56-.79.8-.97.87-2.55.87-2.8 0-4.17-1.32-3.55-3.46.47-1.63 5.93-5.27 7.9-5.27q1.49-.01 1.82-1.25c.1-.4.22-2.58.26-4.84s.2-4.41.35-4.8.3-1.75.33-3.04.23-3.24.44-4.33c.38-1.92.36-4.56-.03-4.95-.1-.1-1.64-.2-3.41-.21-2.48-.02-3.44-.13-4.13-.47-.98-.5-2.06-.58-2.64-.21-.45.28-.82 3.96-.63 6.12.07.81-.02 2.48-.2 3.7a60 60 0 0 0-.4 6.08 31 31 0 0 1-.4 5.02 10 10 0 0 0-.28 2.52c.02.72-.07 2.03-.21 2.9a56 56 0 0 0-.92 8.74c-.1 3.76.1 4.27 1.68 3.94a8 8 0 0 1 1.33-.17m25.26-2.47c.35-.23.78-.86.95-1.39.43-1.36 1.46-3.1 2.58-4.34.94-1.04.96-1.1 1.06-3.67.06-1.44 0-2.62-.12-2.62-.4 0-1.95 1.6-1.95 2 0 .2-.28.56-.63.78a4 4 0 0 0-1.08 1.6 4 4 0 0 1-.95 1.53c-.28.2-.82 1.05-1.21 1.9a23 23 0 0 1-1.49 2.7c-.43.63-.71 1.33-.63 1.54.2.54 2.63.52 3.47-.03m3.58-1.04q0-1.99-.95-.54c-.51.79-.28 1.73.44 1.73.42 0 .5-.19.5-1.19m-17.6-5.9c0-2.15-.5-1.99-.6.2-.07 1.26 0 1.63.26 1.54q.34-.1.34-1.75m12.24.2.92-1.1c.26-.3.47-.75.47-.98.01-.64 2.21-4.28 3.14-5.18.45-.44.82-.93.82-1.09s.3-.73.67-1.27c.59-.87.68-1.37.9-4.73.12-2.07.22-4.12.22-4.55-.01-.44.2-2.25.47-4.03.38-2.57.41-3.3.15-3.61-.74-.9-6.5-1.37-7.16-.58-.23.28-.27 1.02-.13 2.62.11 1.37.07 2.58-.1 3.12-.15.49-.34 3.03-.42 5.65a75 75 0 0 1-.4 6.35c-.38 2.38-.88 9.09-.71 9.53.2.55.62.49 1.16-.16m51.1-25.29c-.16-.2-.52-.36-.78-.36-.27 0-.55-.1-.62-.23-.18-.28-2.77-.56-6.77-.73a49 49 0 0 1-4.63-.4c-.88-.15-3.61-.38-6.09-.51a42 42 0 0 1-5.3-.52 4.5 4.5 0 0 0-2.05-.03c-1.31.25-4.9 0-5.5-.37-.76-.47-2.87-.73-5.49-.68-2.3.05-3.1-.05-5.16-.66-1.77-.53-2.91-.7-4.21-.67-.98.03-2.23-.06-2.78-.2s-3.2-.33-5.89-.42c-2.69-.1-5.55-.3-6.35-.45s-3.36-.31-5.69-.34c-3.19-.03-4.64-.16-5.88-.53-1.56-.45-2.06-.45-4.06.01q-.7.15-1.13-.28c-.6-.6-3.06-.96-7.58-1.08-5.6-.16-7.16-.27-10.98-.78-3.42-.45-8.2-.61-8.53-.29-.42.43.61.65 4.43.95 5.38.42 5.5.44 8.73.96 1.53.24 4.15.49 5.82.54s3.88.2 4.9.34c1.01.12 2.68.24 3.7.26s2.33.17 2.9.33c.6.15 2 .26 3.16.25 1.14-.02 3.1.1 4.36.25 3.3.41 4.86.54 7.86.62 1.47.04 2.83.18 3.03.3s1.5.32 2.88.45l5.44.5c1.6.15 3.99.31 5.3.36s2.8.2 3.3.37 1.64.3 2.51.3c.88 0 2.01.11 2.52.25.5.14 2.2.3 3.75.37 1.55.06 2.96.2 3.13.3.3.19 1.76.33 9.66.91 1.6.12 3.16.3 3.48.41s.77.08 1-.05c.26-.14 1.1-.14 2.07 0a81 81 0 0 0 6.28.59c.8.05 2.23.2 3.17.32 2.03.27 2.54.18 2.1-.36m-106.72-9.1c.1-.16.01-.47-.17-.7-.28-.32-.66-.37-1.84-.24-.85.1-1.8.05-2.23-.1-.82-.32-1.93-.1-1.53.29.13.13 1.23.35 2.44.5a13 13 0 0 1 2.34.38c.24.24.8.16.99-.13"/>
</svg>
