<?xml version="1.0" encoding="utf-8"?>
<svg xmlns="http://www.w3.org/2000/svg" xmlns:svg="http://www.w3.org/2000/svg" version="1.1" viewBox="0 0 513 187">
	<title>Two diagrams of a flask, divided down the middle and containing liquids in both parts. In the second diagram, the flask is tipped, and liquid pours from the right half only.</title>
	<path d="M89.49 185.84c-.3-.29-4.37-.59-6.66-.49-1.34.06-18.89.25-26.65.3-9.91.05-9.74.09-12.87-3.03-2.9-2.9-3.46-4.35-3.32-8.49l.02-6.21c-.02-2.56 0-17.56.02-19.05.02-.95-.05-3.93-.14-6.62s-.17-6.8-.16-9.13c.03-7 0-7.89-.3-9.02a3.7 3.7 0 0 1-.02-2.09c.15-.55.23-1.09.17-1.18-.11-.18-.27-8.19-.56-28.45-.09-6.26-.2-11.46-.27-11.55-.06-.1-.17-4.96-.25-10.8-.19-13.62-.03-14.46 3.3-17.77 2.97-2.95.77-2.68 23-2.78 20.98-.09 20.2-.03 20.97-1.47.3-.55.79-12.1.54-12.86-.06-.2-.28-.28-.54-.17-.97.4-1.26.39-1.84-.11-.42-.37-.58-.76-.52-1.28.08-.72.13-.74 1.48-.68l1.4.05-.17-12.36-.17-13.11c-.01-.42.15-.86.35-1 .2-.12 1.8-.16 3.54-.08 4.38.2 7.3.12 7.9-.2.35-.19.85-.17 1.68.06.9.25 2.62.28 7.18.11l12.43-.42c2.41-.1 2.22-1.81 2.22 19.91v19.15l.65 1.12c.35.62.97 1.33 1.36 1.57.4.25 1.03.73 1.41 1.08.78.71-1.43.69 19.02.21 13.02-.3 19.57-.23 20.09.21.23.2.63.44.9.53.68.24 5.2 3.4 5.2 3.63 0 .1.4.77.89 1.48a7 7 0 0 1 1.4 3.22c.25 1.6.1 20.53-.18 21.37q-.3.88-.02 1.37c.16.3.33 5 .44 11.73.09 6.17.25 14.07.35 17.57s.09 7.12-.03 8.07c-.12.94-.14 4.16-.05 7.14.21 6.53.2 5.55.14 14.82-.02 4.14.04 12.06.14 17.59.27 14.28.18 18.16-.46 19.83a11.7 11.7 0 0 1-4.49 5.05 6 6 0 0 0-1.42.89c-.08.13-1.07.43-2.2.67s-2.38.62-2.78.84c-.61.34-1.04.36-2.52.13-1.1-.17-5.18-.23-10.77-.15-4.95.07-19.68.18-32.74.24-20.97.1-23.82.17-24.34.53q-1.07.75-1.75.08m-15.05-3.3c.55-.38 1.33-1.05 1.73-1.5a17 17 0 0 1 1.9-1.73c.66-.5 1.37-1.07 1.59-1.25 1.29-1.1 2.42-1.95 3.74-2.8a6 6 0 0 0 1.64-1.38c.08-.21 1.51-1.29 3.17-2.38s3.22-2.29 3.46-2.65a13 13 0 0 1 2.28-2.02 11 11 0 0 0 1.85-1.52c0-.1.32-.39.72-.63a20 20 0 0 0 2.19-1.78c.8-.73 1.53-1.33 1.64-1.33s.72-.45 1.38-1c.66-.54 1.54-1.25 1.96-1.57.83-.64 1.2-1.73 1.1-3.36-.1-2.04-.92-2.4-2.38-1.08a53 53 0 0 1-5.03 4.1c-1.09.79-2.46 1.89-3.04 2.45a11 11 0 0 1-1.85 1.44c-.44.23-1.5 1.12-2.37 1.97a10 10 0 0 1-1.83 1.54c-.13 0-1.44 1.06-2.91 2.34a90 90 0 0 1-3.9 3.24c-1.45 1.08-4.59 3.63-5.55 4.51-.95.87-2.29 1.82-2.57 1.82-.13 0-1.03.77-2 1.72-.98.95-1.9 1.72-2.06 1.72-.15 0-.62.29-1.04.64-.41.35-.9.68-1.07.74s-.25.23-.16.37c.1.17 1.35.23 3.29.16 2.82-.1 3.22-.17 4.12-.79m-18.28.38c.4-.18 1.57-1.09 2.6-2.02a50 50 0 0 1 5.18-4.14c1-.7 3.14-2.48 4.21-3.49.2-.18.47-.33.61-.33s.85-.53 1.58-1.19a7 7 0 0 1 1.59-1.19c.14 0 .92-.64 1.74-1.43.8-.78 1.99-1.62 2.61-1.86a4 4 0 0 0 1.65-1.2c.28-.4.84-.94 1.25-1.19.41-.24 1.43-1.06 2.27-1.83a64 64 0 0 1 5.87-4.66 52 52 0 0 0 4.11-3.3c.15-.15 1.16-.97 2.25-1.8 1.1-.84 2.64-2.07 3.44-2.72s1.93-1.52 2.51-1.92c2.46-1.67 4.46-3.41 4.9-4.3.46-.88.47-1.05.1-2.32-.23-.75-.55-1.36-.72-1.36s-.71.36-1.2.8c-.5.43-.97.78-1.06.78s-.6.4-1.14.86a32 32 0 0 1-3.43 2.84c-.54.37-1.43 1.08-2 1.6-.56.5-1.48 1.16-2.05 1.45-.58.29-2.28 1.63-3.8 2.98a27 27 0 0 1-2.97 2.44c-.13 0-.65.37-1.16.82-.66.57-1.08.76-1.47.64-.78-.25-.66-.8.33-1.5.47-.32.95-.75 1.07-.94.11-.19.33-.34.49-.34s.59-.25.97-.55l2.3-1.74c.87-.66 2.18-1.8 2.9-2.54.73-.74 2.1-1.84 3.05-2.46a18 18 0 0 0 2.64-2.09c.51-.53 1.5-1.33 2.19-1.77.69-.45 1.25-.92 1.25-1.05s.15-.24.33-.24.81-.44 1.4-.96c.57-.52 1.36-1.2 1.75-1.51.6-.49.66-.66.43-1.23-.14-.36-.3-1-.34-1.4-.1-1.1-.28-1.13-1.27-.29-.5.42-1.58 1.24-2.41 1.82s-1.6 1.2-1.7 1.35-.65.64-1.23 1.06a68 68 0 0 0-6.08 4.9c-.88.81-2.13 1.8-2.78 2.18-.66.4-1.9 1.36-2.78 2.17q-2.45 2.23-2.73.84c-.1-.53.33-1.02 1.42-1.6.43-.22 1.89-1.4 3.24-2.6a47 47 0 0 1 3.7-3.04c.69-.46 1.55-1.13 1.91-1.5.36-.36 1.08-.95 1.59-1.3.5-.34 1.32-1.01 1.81-1.48s1.03-.84 1.2-.84 1.07-.72 2.01-1.6c.95-.87 1.8-1.58 1.89-1.58s.62-.42 1.18-.93q1.94-1.75-.7-1.93c-1.99-.15-2.84.16-4.47 1.62-2.3 2.05-3.08 2.68-8.63 6.93-.57.44-1.08.88-1.13 1-.05.1-.2.19-.35.19s-.6.33-1 .73a47 47 0 0 1-4.46 3.87 10 10 0 0 0-1.2.87c-.4.34-1.04.61-1.4.61-.56 0-.65-.1-.58-.7.06-.48.37-.84 1.01-1.18.51-.27 1.22-.83 1.59-1.24.36-.41 1.14-1.1 1.72-1.52a173 173 0 0 0 8.96-7.44c.42-.4 1.2-1.02 1.75-1.4 2.02-1.39 2.5-1.86 2.18-2.18-.23-.22-.88-.21-2.57.04-1.93.29-2.43.47-3.34 1.23-.6.5-1.2.9-1.35.9-.14 0-.76.48-1.36 1.07a89 89 0 0 1-7.05 5.75c-1.1.82-2.12 1.62-2.29 1.77s-.63.51-1.03.8c-2.16 1.56-3.31 2.62-3.19 2.94.08.2.03.42-.1.5-.14.09-.18.33-.1.54.11.29-.04.38-.6.36-.62-.02-.66-.06-.23-.2.3-.09.56-.32.6-.5.07-.4-.37-.44-.6-.06-.09.14-.45.26-.81.26-.54 0-.65-.13-.65-.78 0-.64.24-.94 1.26-1.64a55 55 0 0 0 4.4-3.4l2.14-1.72c.56-.44 1.93-1.55 3.03-2.47l2.54-2.12c2.67-2.23 3.3-2.8 3.3-3 0-.33-3.92-.26-4.58.09-.9.47-4.68 3.44-4.68 3.67 0 .12-.52.46-1.16.77s-1.81 1.14-2.61 1.84-1.86 1.56-2.35 1.9c-.48.35-1.58 1.3-2.43 2.1s-1.87 1.62-2.25 1.83c-.97.5-3.11 2.13-4.54 3.43-.66.6-1.81 1.5-2.57 2.02-.75.5-1.59 1.2-1.86 1.55a5 5 0 0 1-1.27 1.05c-.43.23-1.18.83-1.67 1.33a9 9 0 0 1-1.85 1.4c-.52.26-1.36.9-1.85 1.41-.84.87-2.4 2.08-4.58 3.55-.53.36-1.77 1.37-2.77 2.26-.99.88-1.89 1.6-1.99 1.6-.3 0-1.32 1.79-1.25 2.17.03.19-.03.74-.15 1.24-.58 2.47 2.12 1.02 7.7-4.14a5 5 0 0 1 1.57-1.12c.2 0 .37-.12.37-.26s.32-.43.72-.65c.4-.2 1.2-.8 1.79-1.33.58-.52 1.43-1.13 1.9-1.36.45-.22 1.52-1.03 2.37-1.78.85-.76 1.99-1.7 2.52-2.1s1.13-.87 1.33-1.05a47 47 0 0 1 4.36-3.6c.79-.42 1.06-.39 1.26.13.31.82-.15 1.39-2.57 3.16a22 22 0 0 0-2.53 2c-.05.12-.25.22-.44.22-.2 0-.7.4-1.1.88a9 9 0 0 1-2.06 1.63c-.71.4-1.68 1.13-2.15 1.6s-2.2 1.87-3.86 3.11a48 48 0 0 0-3.91 3.21c-.5.52-1.02.95-1.14.95-.3 0-1.98 1.25-3 2.25a29 29 0 0 1-1.89 1.65c-1.03.8-1.09.93-1.17 2.47-.05.91.03 1.71.19 1.84.17.14.78-.17 1.58-.81a18 18 0 0 1 2.17-1.5c.48-.24.86-.53.86-.63s.8-.84 1.79-1.64a73 73 0 0 0 2.31-1.95c.3-.27.9-.67 1.33-.89s1.35-.92 2.04-1.55c1.4-1.31 2.95-2.42 3.37-2.42.15 0 .28-.11.28-.25s.8-.89 1.78-1.67c6.75-5.35 7.68-5.95 8.12-5.25.21.34-.83 1.56-1.93 2.27a30 30 0 0 0-2.75 2.2c-.98.86-2.54 2.1-3.47 2.74a37 37 0 0 0-4.77 3.81c-.45.44-1.53 1.33-2.4 1.98-.88.64-2.25 1.72-3.05 2.39a52 52 0 0 1-2.71 2.1c-.7.49-1.26.99-1.26 1.11s-.65.64-1.45 1.15c-.8.52-1.46 1.1-1.46 1.28 0 .79.6 2 1.07 2.15.55.18 1.68-.33 2.56-1.17.32-.3.64-.55.72-.55s.71-.56 1.41-1.25a34 34 0 0 1 4.92-3.86c.6-.4 1.45-1.07 1.89-1.46.43-.4 1.27-1.07 1.85-1.5.58-.44 1.22-.94 1.4-1.12.46-.43 1.38-.43 1.38 0 0 .54-3.27 3.7-4.72 4.56a6 6 0 0 0-1.63 1.32 11 11 0 0 1-2.05 1.86c-2.02 1.52-5.04 4.29-5.38 4.94-.37.67-.03 1.2.84 1.33.62.1 1.12-.13 2.4-1.1l2.18-1.6c.32-.22 1.3-1 2.17-1.72.88-.73 2.52-1.98 3.65-2.78a67 67 0 0 0 5.79-4.56c.92-.87 4.91-3.9 5.15-3.91.1 0 1.09-.83 2.17-1.85 2.12-1.98 3.34-2.6 4.2-2.13.78.4.44 1.17-.84 1.88-.96.54-2.33 1.53-7.23 5.22-.63.47-1.15.97-1.15 1.11s-.44.5-.99.79c-.54.29-1.4.95-1.9 1.46s-1 .93-1.12.93c-.11 0-.77.54-1.47 1.19a8 8 0 0 1-1.73 1.34c-.25.08-.46.25-.46.38 0 .12-.59.58-1.3 1.03a6 6 0 0 0-1.6 1.34c-.16.3-.8.8-1.4 1.1-1.29.64-2.84 2.03-2.84 2.54 0 .45 4.33.45 5.34 0m4.45-15.5c0-.58 1.07-1.88 1.55-1.88.16 0 .3-.1.3-.2s.45-.5 1-.86c.54-.36 1.24-.9 1.54-1.19.31-.3 1.07-.94 1.7-1.44l1.12-.9.49.64c.27.35.49.82.49 1.04 0 .35-.03.35-.26 0-.21-.34-.25-.34-.26.06 0 .26-.36.61-.86.82-.47.2-1.45.92-2.18 1.6-1.37 1.28-3 2.36-4.04 2.66-.48.15-.6.08-.6-.35m8.87-7.16c-.16-.5.6-2.34 1.31-3.2.18-.2.4-.69.47-1.05.08-.36.62-1.8 1.2-3.17.58-1.39 1.19-3.01 1.35-3.61.24-.88.44-1.12 1.02-1.24 1.53-.3 2.1.54 4.43 6.52.61 1.58 1.3 3.08 1.5 3.33.51.59 1.05 2.13.86 2.43-.08.13-.56.24-1.06.24-1.06 0-2.23-.97-2.23-1.84 0-1.15-.88-1.6-3.15-1.6h-2.1l-.42 1.43c-.22.78-.41 1.55-.41 1.69 0 .36-.66.58-1.72.58-.65 0-.94-.14-1.05-.51m6.73-5.7c.25-.3.24-.53-.04-1.11-.51-1.07-1.15-1.09-1.52-.04-.26.75-.23.92.15 1.2.6.44 1.02.43 1.4-.04m-1.12-.31c.19-.08.48-.08.66 0s.04.13-.33.13c-.36 0-.5-.06-.33-.13m-.08-.8c.08-.54.56-.76.8-.37q.14.26-.28.1-.45-.16-.28.12c.1.16.07.36-.06.44-.14.09-.22-.05-.18-.3m-1.44-5.33c0-.32.5-.7.69-.5.06.06-.06.26-.28.45q-.4.31-.4.05m-8.91 34.54c.32-.33 1.06-.92 1.65-1.32s1.48-1.14 1.97-1.65c.5-.5 1.05-.93 1.23-.93.19 0 .73-.34 1.2-.77 1.6-1.4 3.61-3.04 5.4-4.38a68 68 0 0 0 3.81-3.05c.8-.65 1.8-1.49 2.2-1.85.42-.36.91-.72 1.1-.8.2-.07 1.14-.82 2.1-1.67s2.43-2 3.27-2.54c.83-.55 1.82-1.33 2.18-1.72.36-.4 1.08-.95 1.59-1.22.5-.27 1.3-.85 1.77-1.3.46-.44.96-.8 1.1-.8s.88-.6 1.65-1.33a8 8 0 0 1 1.62-1.32c.24 0 1.65-1.24 2.9-2.55.43-.46 1.32-1.17 1.97-1.58s1.25-1.02 1.33-1.36c.19-.73 0-3.69-.25-3.93-.17-.18-.99.46-3.63 2.82-.8.71-2.1 1.78-2.9 2.37s-1.82 1.41-2.26 1.83a29 29 0 0 1-2.11 1.76c-.73.55-1.62 1.26-1.99 1.6a55 55 0 0 1-2.31 1.87c-.91.7-3.35 2.69-5.43 4.42s-4.17 3.32-4.67 3.53-1.43.96-2.08 1.68c-.64.71-1.3 1.3-1.45 1.3-.33 0-2.55 1.65-4.03 3.01-.58.53-1.83 1.5-2.78 2.13-.95.64-2.13 1.6-2.63 2.11-.5.53-1 .95-1.12.95s-.84.6-1.6 1.32a8 8 0 0 1-1.63 1.32c-.33.01-2.81 2.13-2.81 2.41 0 .13 1.14.24 2.53.24 2.27 0 2.58-.06 3.1-.6m18.4-.52c.88-.62 2.23-1.63 3-2.24l2.52-1.99c4.42-3.43 6.97-5.49 7.88-6.36.58-.56 1.55-1.26 2.15-1.56s1.49-.96 1.95-1.45c.47-.5 1.2-1.08 1.62-1.3s.76-.48.76-.6c0-.1.43-.42.94-.7l.95-.5-.18-2c-.1-1.1-.24-2.1-.3-2.2-.25-.44-.92-.15-2.15.92-.71.62-2.22 1.84-3.36 2.71a116 116 0 0 0-3.82 3.07c-.95.82-2.25 1.8-2.89 2.2-.63.4-1.52 1.15-1.97 1.66a10 10 0 0 1-1.76 1.54 41 41 0 0 0-3.45 2.9 28 28 0 0 1-3.3 2.72c-1.15.58-4.37 3.4-4.37 3.8 0 .3.74.44 2.55.47 1.51.03 1.75-.05 3.23-1.1m7.35.69c.5-.24 1.23-.78 1.63-1.21s1.35-1.2 2.14-1.7c.78-.51 2.02-1.51 2.75-2.23s2.28-2 3.45-2.83a33 33 0 0 0 3.24-2.6c.99-.98 1.12-1.26 1.24-2.66.2-2.17-.2-2.57-1.57-1.55-.56.42-1.51 1.21-2.13 1.77a6 6 0 0 1-1.32 1.01c-.11 0-1.15.88-2.3 1.96a24 24 0 0 1-2.75 2.31c-.36.2-.83.63-1.05.97s-.86.84-1.42 1.13-1.46.93-2 1.45a78 78 0 0 1-2.93 2.53c-1.06.87-1.85 1.7-1.77 1.83.26.43 3.8.3 4.79-.18m8.47.2c1.06-.2 1.55-.57 5.28-3.87l.9-.8-.17-2.28-.17-2.29-.76.26c-.7.25-1.43.83-3.53 2.82-.44.41-1.27 1.03-1.85 1.38a18 18 0 0 0-2.54 2.1c-.82.8-1.9 1.78-2.39 2.17l-.9.71h2.52c1.38 0 3-.09 3.61-.2m5.38-.3c.56-.56.7-1.19.3-1.44-.32-.19-1.83.67-2.01 1.14-.36.92.88 1.14 1.71.3m11.66.03c.38-.02 1.12-.44 1.72-1 2.62-2.43 3.76-3.42 4.32-3.79 1.25-.81 2.68-1.97 2.68-2.17 0-.11.4-.37.9-.58s1.37-.86 1.93-1.44c.57-.58 1.98-1.78 3.13-2.66 1.16-.88 2.82-2.2 3.69-2.93a8 8 0 0 1 1.93-1.33c.18 0 .4-.18.5-.4.08-.22.25-.4.38-.4s1.13-.89 2.23-1.98c1.55-1.54 2.17-1.98 2.75-1.98 1.61 0 1.16 1.08-1.07 2.57l-1.7 1.14c-.33.22-1.24 1.02-2.01 1.77a23 23 0 0 1-2.45 2.06 76 76 0 0 0-6.35 5.29 16 16 0 0 1-2.94 2.36c-.43.28-1.27 1-1.85 1.61s-1.65 1.56-2.38 2.1c-2.34 1.77-2.23 1.99.95 1.96 2.2-.02 2.43-.07 3.1-.73.39-.4 1.25-1.08 1.9-1.53.66-.45 1.97-1.52 2.91-2.38a44 44 0 0 1 3.57-2.86 14 14 0 0 0 1.95-1.51c.04-.12.21-.21.37-.21.15 0 .69-.48 1.19-1.06s1.07-1.06 1.28-1.06.37-.1.37-.21c0-.12.46-.48 1.02-.8.56-.3 1.72-1.23 2.58-2.05s2.46-2.16 3.55-2.97 2.76-2.16 3.7-2.98 1.91-1.6 2.15-1.73c.64-.36 2.54-1.94 4.03-3.35a8 8 0 0 1 1.53-1.25c.1 0 1.08-.8 2.16-1.8a52 52 0 0 1 2.86-2.44c.5-.36 1.26-1.03 1.71-1.48s1.2-1.04 1.66-1.31.9-.69.97-.92c.08-.24.6-.68 1.15-1a6 6 0 0 0 1.72-1.58c.6-.87.7-1.29.7-2.92 0-1.4-.1-1.9-.35-1.9-.56 0-3.4 2.09-5.74 4.23a29 29 0 0 1-3.28 2.65c-.62.36-1.9 1.43-2.83 2.38s-2.52 2.31-3.5 3.04q-3.35 2.47-3.35 2.95c0 .13-.25.42-.56.63a39 39 0 0 0-3.8 2.84c-.73.7-1.68 1.18-2 .99q-.81-.49 1.01-2.12c1.95-1.75 6.17-5.16 6.39-5.16.1 0 .8-.56 1.53-1.25 2.73-2.58 3.2-2.96 4.3-3.53.69-.36 1.27-.92 1.53-1.47.24-.49.64-.95.9-1.03s.87-.54 1.35-1 1.64-1.4 2.58-2.1c.95-.69 2.57-2.06 3.61-3.04 1.87-1.76 1.9-1.81 2.08-3.44.14-1.31.1-1.68-.2-1.8-.42-.16-2.76 1.32-4.17 2.64a25 25 0 0 1-2.51 1.94c-.87.59-1.98 1.5-2.46 2.01a29 29 0 0 1-4.46 3.76 50 50 0 0 0-5.5 4.48 14 14 0 0 1-1.9 1.53c-.57.36-1.6 1.2-2.31 1.88-1.4 1.32-1.77 1.45-2.31.8-.31-.38-.26-.51.33-1 3.37-2.74 4.34-3.51 4.74-3.74.25-.15.92-.68 1.48-1.2.56-.5 1.61-1.4 2.34-1.98a45 45 0 0 0 2.74-2.44 8 8 0 0 1 1.64-1.4c.13 0 .8-.54 1.5-1.2 3.75-3.6 4.87-4.55 7.14-6 .61-.4 1.7-1.32 2.4-2.03 1.28-1.29 1.3-1.33 1.45-3.38.09-1.13.05-2.18-.08-2.31-.38-.38-1.14.1-3 1.9-.93.9-1.8 1.65-1.93 1.66-.33 0-2.74 2.3-2.74 2.6 0 .15-.24.34-.53.44s-1.08.63-1.74 1.2a6 6 0 0 1-1.44 1.04c-.13 0-.99.7-1.9 1.54-.92.85-1.93 1.72-2.26 1.95-.34.22-1.07.84-1.65 1.37a5 5 0 0 1-1.3.96c-.14 0-1.04.78-2 1.72-.96.95-1.84 1.72-1.95 1.72s-.67.48-1.24 1.06c-1.11 1.14-1.48 1.27-1.96.68-.25-.3-.22-.48.18-.86a86 86 0 0 1 5.25-4.55c.57-.41 1.3-1.04 1.61-1.38.32-.35 1.86-1.7 3.4-3.02 1.56-1.3 3.8-3.3 4.98-4.41a36 36 0 0 1 3.26-2.78c1.28-.86 5.9-5.08 5.9-5.39 0-.1-.9-.21-2.02-.22-1.58-.02-2.28.1-3.18.55-.63.32-1.14.67-1.14.79s-.5.52-1.1.9-1.79 1.39-2.65 2.25-2.25 2.03-3.08 2.6-1.98 1.5-2.57 2.06a31 31 0 0 1-2.64 2.2c-.87.64-2.42 1.9-3.44 2.77-1.02.89-2.5 2.14-3.3 2.8-.8.64-1.7 1.38-1.98 1.64-.28.25-.65.46-.83.46s-.51.3-.76.68a9 9 0 0 1-3 2.63c-.74.37-.8.48-.48.8.2.2.9.45 1.52.55 1.31.2 2.76.98 3.14 1.7.41.76.31 2.72-.18 3.41-.42.61-.41.66.42 1.4a3.3 3.3 0 0 1 1.09 3.49c-.45 2.01-2.06 2.8-5.71 2.8-3.2 0-3.04.3-3.2-6.13-.16-6.28-.1-6.57 1.49-6.57.57 0 1.12-.13 1.22-.3q.16-.28-.09-.14c-.26.17-.59-.6-.6-1.42 0-.22.86-1.11 1.9-1.98 1.05-.87 2.64-2.24 3.54-3.04 2.17-1.92 3.55-3 4.35-3.44.37-.19 1.35-1 2.18-1.8s2.14-1.92 2.91-2.5a10 10 0 0 0 1.6-1.39c.1-.2.82-.8 1.58-1.36.77-.55 1.9-1.48 2.54-2.07.63-.58 1.5-1.28 1.92-1.55s.77-.58.77-.68.5-.47 1.1-.8c1-.58 1.06-.65.62-.98-.3-.21-1.19-.34-2.31-.33-1.75.02-1.9.07-3.2 1.13-.76.6-1.79 1.4-2.3 1.74a19 19 0 0 0-2.02 1.71c-.6.6-1.65 1.5-2.32 2-.67.51-2.14 1.8-3.27 2.86a22 22 0 0 1-2.84 2.35c-.44.24-1.17.74-1.62 1.12s-1.07.87-1.36 1.08c-.66.5-2.85 2.4-4.64 4.03-.75.68-1.66 1.4-2.03 1.58-.36.2-1 .74-1.43 1.23-.43.48-1.45 1.33-2.26 1.89s-1.9 1.45-2.4 1.98a8 8 0 0 1-1.64 1.35c-.64.34-1.5 1.01-4.26 3.33-.55.47-1.32 1.05-1.72 1.3-.4.26-1.43 1.13-2.3 1.94s-1.66 1.48-1.78 1.48c-.11 0-.2.11-.2.25 0 .13-.28.33-.6.43-.33.1-1.31.92-2.19 1.83-.87.9-2.06 1.94-2.64 2.31s-1.58 1.14-2.22 1.7c-1.07.96-1.18 1.17-1.27 2.49-.14 1.92.15 2.36 1.13 1.72.4-.27.98-.73 1.28-1.04.3-.3.97-.85 1.47-1.2.51-.36 1.09-.87 1.28-1.13.19-.27.68-.66 1.1-.87.4-.21 1.57-1.13 2.59-2.05a36 36 0 0 1 3.23-2.59c.76-.5 1.94-1.4 2.61-2 .68-.6 2.6-2.2 4.28-3.56 1.67-1.37 3.56-2.94 4.2-3.49 1.27-1.1 1.74-1.23 2-.57.28.76-.1 1.25-2.05 2.7a73 73 0 0 0-4.29 3.52 21 21 0 0 1-3.28 2.52c-.5.22-1.4.9-2 1.5a27 27 0 0 1-3.16 2.76c-.84.66-2.66 2.2-4.7 3.97a6 6 0 0 1-1.65 1.12c-.41 0-3.14 2.6-3.67 3.5-.47.8-.3 4.44.2 4.44.2 0 .4-.1.45-.2.05-.12.74-.62 1.54-1.13s2.14-1.57 2.98-2.37 1.75-1.57 2.02-1.72c.49-.27.9-.6 4.23-3.46.93-.8 1.8-1.44 1.94-1.44s.72-.48 1.3-1.06a6 6 0 0 1 1.25-1.06c.11 0 .61-.42 1.11-.94.5-.53 1.51-1.39 2.24-1.92.72-.53 1.62-1.28 1.98-1.67 1.36-1.44 2.65-1.58 2.65-.27 0 .53-.28.88-1.13 1.45-.62.4-1.6 1.1-2.18 1.53s-1.5 1.07-2.03 1.43c-.54.35-1.25.92-1.59 1.26-.34.35-1.32 1.21-2.19 1.93s-1.77 1.48-2.01 1.7-.95.81-1.58 1.32-1.69 1.42-2.35 2a39 39 0 0 1-3.07 2.37c-1.02.7-2.83 2.26-4.03 3.45-2.11 2.1-2.18 2.21-2.18 3.4 0 .9.11 1.28.43 1.4.63.24 2.7-1 4.5-2.7.85-.79 1.64-1.44 1.75-1.44.1 0 .64-.4 1.19-.87.54-.48 1.53-1.24 2.18-1.7s1.8-1.37 2.52-2.04a7 7 0 0 1 1.58-1.22c.26 0 2.62-1.94 4.63-3.8.51-.46 1.39-1.2 1.95-1.62a28 28 0 0 0 1.85-1.55c1.78-1.66 3.86-3.08 4.5-3.08 1 0 1.15.53.33 1.16-.4.3-1.23 1-1.86 1.55-.63.54-1.28.99-1.45.99s-.81.5-1.43 1.12a52 52 0 0 1-2.7 2.45c-.87.73-1.74 1.47-1.93 1.65-.2.19-.48.34-.63.34s-1.19.87-2.3 1.95a19 19 0 0 1-2.88 2.38 21 21 0 0 0-2.77 2.11 23 23 0 0 1-2.58 2.02c-1.12.6-2.64 1.96-2.65 2.38 0 .34.37.37 2.45.23 1.34-.1 2.75-.19 3.12-.2m24.93-.01c.1-.01 1.18-.88 2.38-1.94s3.07-2.6 4.16-3.41a27 27 0 0 0 2.65-2.2c.36-.4 1-.9 1.4-1.11.82-.42 2.07-1.46 2.92-2.4.3-.33.68-.6.87-.6s.4-.22.49-.5c.08-.27.5-.64.92-.82a6 6 0 0 0 1.54-1.15 33 33 0 0 1 4.75-4.03c1.13-.84 3.26-2.52 4.73-3.72 2.89-2.36 3.17-2.84 2.85-4.89-.27-1.64-.63-1.46-4.86 2.42-1.75 1.6-5.02 4.23-5.26 4.23-.26 0-1.9 1.35-3.26 2.7-.56.55-1.11 1-1.24 1s-.9.62-1.69 1.39c-1.79 1.71-2.21 2.05-2.57 2.05-.16 0-.4.27-.56.6-.15.32-.65.86-1.12 1.2a78 78 0 0 0-7.38 5.82 15 15 0 0 1-2.51 2.01c-.29.1-.67.43-.85.76-.18.32-.8.93-1.4 1.34-1.44 1-.71 1.57 1.78 1.35zm-6.65-.88 2.2-1.78c.63-.51 1.66-1.32 2.3-1.8.63-.47 1.75-1.33 2.47-1.9.73-.59 2.28-1.8 3.44-2.7s2.6-2.12 3.18-2.71c.58-.6 2-1.8 3.15-2.67a55 55 0 0 0 3.7-3.1c.88-.84 1.69-1.53 1.79-1.53s.7-.44 1.34-.99c.64-.54 1.55-1.29 2.03-1.65a82 82 0 0 0 3.47-2.74c2.05-1.87 5.1-4.4 5.3-4.4.12 0 .56-.32.97-.7.68-.62.75-.87.83-2.9.07-1.58 0-2.23-.22-2.23-.55 0-1.44.6-2.54 1.7a127 127 0 0 1-9.44 7.93 69 69 0 0 0-4.23 3.58 46 46 0 0 1-4.04 3.32c-1.01.7-2.5 1.9-3.31 2.63-.8.74-1.98 1.7-2.61 2.14-.64.44-1.95 1.52-2.93 2.41-.97.9-2.06 1.78-2.4 1.97a32 32 0 0 0-4.46 3.65c-.67.63-2.02 1.63-3 2.21-1.69 1-3.11 2.33-3.11 2.88 0 .13 1.14.24 2.53.24 2.46 0 2.56-.02 3.6-.86m13.72.35c.57-.34 1.86-1.32 3.43-2.6.22-.17.78-.6 1.23-.92 2.34-1.68 4.91-3.7 5.72-4.48.5-.48 1.54-1.36 2.3-1.94 2.29-1.72 6.9-5.69 6.9-5.93 0-.12.34-.36.76-.54 1.2-.5 2.1-1.61 2.3-2.85.15-.91.1-1.15-.27-1.3-.65-.24-1.56.26-3.78 2.1-1.1.9-2.48 1.98-3.08 2.4s-1.39 1.07-1.75 1.45c-.37.39-1.08 1-1.57 1.37a36 36 0 0 0-2.4 2.05c-.83.76-1.6 1.38-1.7 1.38s-1 .7-1.96 1.53c-.97.85-2.54 2.12-3.48 2.84a53 53 0 0 0-4.6 3.82c-1 .88-1.91 1.6-2.05 1.6s-.23.13-.23.3c0 .42 3.43.2 4.23-.28m9.32-1.4c2.4-2.23 3.9-3.49 4.7-3.9.37-.2 1.3-.96 2.07-1.7.78-.74 1.61-1.46 1.86-1.6 1.4-.76 4.5-3.75 4.7-4.53.22-.86-.08-1.97-.53-1.97-.2 0-.72.33-1.15.73s-1.37 1.14-2.08 1.65a15 15 0 0 0-2.98 2.47c-.37.4-1.37 1.16-2.2 1.67a9 9 0 0 0-1.73 1.25c-.12.18-.58.56-1.03.85-.88.54-4.62 3.64-6.1 5.05-.48.45-1.06.9-1.28.98s-.4.28-.4.43c0 .16.86.27 2.19.27h2.18zm4.17 1.39q.93-.28 2.33-1.84a8 8 0 0 1 1.95-1.75c.3-.1.9-.57 1.33-1.06.9-1.03 1.58-1.31 2.28-.94.43.23.57.09 1.07-1.12 1.43-3.46.15-3.6-3.51-.35a47 47 0 0 1-3.13 2.55c-.7.49-1.26.99-1.26 1.11s-.15.22-.33.22-.99.6-1.78 1.32a11 11 0 0 1-1.63 1.33c-.1 0-.24.17-.32.4-.12.3.08.39.96.39.62 0 1.53-.12 2.04-.26m-52.83-20.33c.77-.7 2.09-1.67 2.92-2.14a8 8 0 0 0 2.08-1.63 8 8 0 0 1 1.63-1.47c.59-.39 1.49-1.12 2-1.63.52-.5 1.36-1.22 1.87-1.6s1.12-.87 1.36-1.1a55 55 0 0 1 4.37-3.62 9 9 0 0 0 1.6-1.42c.6-.72 4.48-3.75 6.29-4.91.43-.28 1.14-.84 1.58-1.26a26 26 0 0 1 1.73-1.44 72 72 0 0 0 5.48-4.68c1.8-1.75 2.99-2.78 3.17-2.78.25 0 2.32-1.7 2.82-2.32.26-.32.65-.6.85-.6s.57-.3.82-.67c.24-.38.84-.96 1.33-1.29 1.36-.92 3.02-2.54 2.87-2.78-.07-.12-1.12-.16-2.32-.1-2.83.18-3.09.32-7.57 4.25a7 7 0 0 1-1.52 1.13c-.13 0-.77.54-1.43 1.2s-1.72 1.56-2.38 2.02-1.75 1.35-2.44 1.98a7 7 0 0 1-1.45 1.15c-.12 0-.87.61-1.67 1.36-.8.74-2.05 1.74-2.77 2.21a23 23 0 0 0-2.8 2.28c-.81.78-2.05 1.84-2.77 2.35-1.22.88-2.9 2.24-4.36 3.54-.36.33-1.07.88-1.58 1.24-.51.35-1.53 1.18-2.26 1.83a40 40 0 0 1-4.13 3.44 40 40 0 0 0-2.55 2.02c-.88.74-1.87 1.55-2.21 1.79-.52.36-.64.73-.76 2.26-.12 1.68.1 2.66.6 2.66.1 0 .82-.57 1.6-1.27m-63.82-1.63a20 20 0 0 0 3.32-2.45c.8-.77 2.25-1.9 3.22-2.53a23 23 0 0 0 2.97-2.31 7 7 0 0 1 1.4-1.18c.28 0 4.65-3.36 5.17-3.97.58-.69 3.75-3.18 4.03-3.18.13 0 .24-.15.24-.33s.7-.82 1.52-1.43c.84-.61 2.7-2.1 4.17-3.31 1.45-1.21 4.22-3.38 6.15-4.82 1.92-1.44 3.5-2.71 3.5-2.83 0-.36-1.8-.58-3.23-.4-1.8.25-2.93.88-4.93 2.79a11 11 0 0 1-1.92 1.6c-.13 0-.89.6-1.7 1.33a8 8 0 0 1-1.7 1.32c-.13 0-1.35.92-2.7 2.05-1.36 1.13-3.01 2.4-3.66 2.82-.66.43-1.79 1.33-2.52 2-.72.66-2.03 1.68-2.9 2.26s-2.17 1.62-2.88 2.3a8 8 0 0 1-1.85 1.42 3 3 0 0 0-1.1.78c-.3.33-1.2 1.12-2.02 1.75q-4.62 3.6-4.86 4.28c-.17.48.08 3.1.3 3.1.06 0 .96-.48 1.98-1.06m95.22-2.03c1-.59 1.17-1.07.67-1.84-.6-.92-1.32-1.2-2.86-1.11l-1.38.08.07 1.3c.04.71.18 1.43.32 1.6.41.5 2.32.48 3.18-.03m-32.86-2.1c.33-.22.51-.54.41-.7q-.14-.25.13-.1c.18.11.85-.24 1.56-.81 1.71-1.38 1.61-1.3 3.2-2.48a46 46 0 0 0 4.93-4.12c.6-.6 1.6-1.4 2.21-1.79.61-.38 1.1-.8 1.1-.94s.77-.77 1.7-1.42c2.08-1.45 7.04-5.71 7.04-6.04 0-.13.27-.36.6-.5a13 13 0 0 0 2.57-1.8c.07-.1 1.09-.9 2.25-1.8 1.17-.9 2.73-2.2 3.47-2.91 1.63-1.56 2.12-1.95 2.44-1.95.13 0 .93-.66 1.78-1.46.84-.8 1.63-1.45 1.73-1.45.35 0 1.05-.83.9-1.06-.08-.13-1.2-.23-2.49-.24-1.95 0-2.46.08-3.01.51-.37.29-.72.52-.78.52s-.7.55-1.41 1.21a34 34 0 0 1-3.44 2.64 33 33 0 0 0-2.86 2.1 70 70 0 0 1-5.15 4.16c-.39.24-1.06.79-1.5 1.2-1.85 1.8-4.82 4.27-5.62 4.67-.47.24-.86.55-.86.68 0 .12-.8.73-1.78 1.35-.99.61-2.52 1.81-3.42 2.67a11 11 0 0 1-1.85 1.55c-.12 0-.58.33-1.02.74-.43.4-1.45 1.25-2.25 1.88-1.65 1.3-1.84 1.73-1.59 3.68.1.77.08 1.46-.04 1.53-.35.22-.25.9.12.9.19 0 .6-.19.93-.42m-61.8-2.67a47 47 0 0 0 3.51-2.75c.59-.55 1.7-1.37 2.48-1.82a12 12 0 0 0 2.37-1.89c.52-.58 1.37-1.31 1.89-1.62 1.07-.65.93-.53 4.2-3.44a62 62 0 0 1 3.97-3.25c.82-.58 1.92-1.44 2.44-1.92.52-.47 2.07-1.7 3.44-2.72s2.5-2.01 2.5-2.19c0-.79-4.6-.37-5.68.52a97 97 0 0 1-5.95 4.6c-.77.5-1.78 1.31-2.27 1.8-.48.48-1.18 1.07-1.56 1.32-.37.24-1.58 1.16-2.67 2.04s-2.34 1.84-2.78 2.12c-.95.62-1.47 1.02-2.88 2.24-.6.51-1.74 1.37-2.54 1.92s-1.92 1.37-2.48 1.86c-.96.81-1.03.97-1.08 2.45-.05 1.27.23 2.5.58 2.5.03 0 1.16-.8 2.51-1.77m93.09-.62c.27-.15.63-.5.78-.8.42-.78-.42-2.1-1.32-2.1-1.02 0-1.25.28-1.45 1.78l-.2 1.39h.84c.46 0 1.07-.12 1.35-.27m-30.6-4.33a9 9 0 0 0 1.78-1.42c.38-.43 1.24-1.17 1.91-1.66a5 5 0 0 0 1.23-1.1c0-.12.14-.22.32-.22s.73-.45 1.25-1 1.51-1.4 2.2-1.9a5 5 0 0 0 1.26-1.09c0-.1.62-.58 1.39-1.04s1.45-.93 1.52-1.02.73-.64 1.45-1.21a22 22 0 0 0 1.46-1.22c.26-.34 5.7-4.67 6.48-5.15.44-.28 1.5-1.14 2.38-1.93a17 17 0 0 1 2.38-1.83c.87-.45 1.99-1.54 1.99-1.93 0-.14-.97-.25-2.16-.25-1.83 0-2.34.1-3.3.66-.62.37-1.29.88-1.48 1.14s-.87.84-1.53 1.3c-.65.44-1.6 1.18-2.1 1.63-.5.46-1.54 1.26-2.32 1.8a6 6 0 0 0-1.4 1.18c0 .11-.33.38-.73.6-.4.2-1.32.92-2.05 1.59-.73.66-1.98 1.65-2.78 2.2a67 67 0 0 0-6.44 5.31c-.28.3-1.24 1.04-2.14 1.63a7 7 0 0 0-1.94 1.66c-.48 1-.62 2.8-.26 3.37.4.66.33.66 1.63-.1m-62.3-1.89c.94-.72 2.49-1.98 3.44-2.8a32 32 0 0 1 2.8-2.14c.59-.37 1.72-1.27 2.52-2 .8-.71 1.95-1.63 2.57-2.02.63-.39 1.4-.93 1.72-1.2a68 68 0 0 1 5.07-4.07c1.36-.9.9-1.1-2.25-.91-2.68.15-3.26.43-5.96 2.91a56 56 0 0 1-8.04 5.61 12 12 0 0 0-2.39 1.95c-.8.83-1.73 1.71-2.05 1.96-.45.36-.6.76-.62 1.72-.03 1.48.04 2.51.2 2.77.15.26 1.05-.27 3-1.78m62-4.55c.12-.18.96-.83 1.86-1.44 1.86-1.25 5.21-3.95 5.21-4.19 0-.08.63-.62 1.4-1.2a98 98 0 0 0 5.25-4.22c.67-.58 2.03-1.66 3.02-2.38.98-.73 2.1-1.71 2.48-2.19.38-.47.82-.86.98-.86s.45-.18.63-.4c.28-.33.2-.39-.6-.39-.5 0-1.44-.07-2.07-.16-.97-.13-1.32-.04-2.1.51-.5.37-1.51 1.03-2.24 1.47s-2.12 1.55-3.1 2.47-2.27 1.97-2.86 2.33c-.6.36-1.67 1.2-2.39 1.85-.71.65-1.78 1.54-2.38 1.98-1.91 1.41-3.82 3.11-4.12 3.68-.16.3-.35 1.4-.43 2.45l-.13 1.9.7-.43c.38-.25.78-.6.9-.78m-63.26-1.76c.61-.34 1.66-1.06 2.32-1.6 3.1-2.51 5.9-4.64 7.38-5.59a7 7 0 0 0 1.63-1.23c0-.67-5.54-.38-5.77.3-.05.16-.95.78-1.99 1.39s-2.7 1.9-3.7 2.9c-1.82 1.78-1.82 1.78-1.63 2.92s.32 1.54.53 1.54c.06 0 .61-.28 1.23-.63m64.07-5.49c.75-.7 1.67-1.42 2.03-1.6a8 8 0 0 0 1.45-1.1c.44-.4 1.48-1.22 2.32-1.82a7 7 0 0 0 1.52-1.27c0-.1.94-.8 2.08-1.54 3.34-2.17 3.46-2.72.62-2.66-1.72.03-1.83.08-3.67 1.47-1.04.8-2.1 1.67-2.35 1.96-.26.28-.7.5-.98.5s-1.07.59-1.75 1.3-1.6 1.48-2.05 1.7c-1.2.62-1.6 1.41-1.48 2.98.13 1.72.47 1.73 2.26.08m-65.04-.23c.09-.15.4-.27.69-.27s1.12-.6 1.85-1.32l1.32-1.32h-2.11c-2.23 0-2.45.1-2.6 1.31-.16 1.34.38 2.36.85 1.6m14.81-4.85c.44 0 1.93.03 3.31.07s6.15 0 10.58-.08c4.44-.08 13.46-.16 20.05-.18s12.02-.12 12.08-.22c.32-.5.02-12.47-.35-14.57-.02-.06-.35.2-.75.57-.97.91-2.68 1.8-3.14 1.62-.52-.2-.45-1.68.1-2.41.26-.34.81-.83 1.23-1.1l.75-.5-.76-.48c-.99-.62-1.18-.92-1-1.5.08-.26-.05-.77-.29-1.14a2.7 2.7 0 0 1-.35-1.5c.07-.75.2-.86.94-.93.53-.05 1.27.14 1.92.5.58.33 1.1.54 1.18.48.2-.21.14-12.37-.1-16.9-.13-2.4-.14-5.68-.02-7.28s.18-2.98.13-3.05c-.19-.3-.43-14.87-.26-15.86.15-.93.37-1.18 1.8-2.13a26 26 0 0 0 2.37-1.72c.4-.36.86-.66 1.02-.66.48 0 1.83-1.08 1.67-1.34-.08-.14-.6-.25-1.14-.25-1.12 0-1.62-.37-1.62-1.22 0-.43.2-.62.73-.73l1.58-.3c.87-.17 1.1-.48.58-.8-.15-.1-.38-.44-.5-.78q-.25-.6-1.12-.77c-1.03-.2-2.86-1.77-2.86-2.47 0-1.87 2.57-1.21 4.02 1.02.46.7.96 1.3 1.12 1.3s.55.07.88.16c.55.15.6.07.6-1.01 0-1.35.34-1.8 1.34-1.8.95 0 1.33.52 1.53 2.15.1.76.3 1.42.47 1.47s.83-.31 1.5-.82c.66-.5 1.84-1.21 2.61-1.57a9 9 0 0 0 2.19-1.48l.78-.82-1.77-1.65c-1.06-1-1.77-1.88-1.77-2.2 0-.29-.2-1.24-.43-2.1-.24-.87-.42-1.73-.41-1.92.22-5.26-.17-33.45-.47-33.75-.14-.14-.82-.23-1.52-.2s-3.72.03-6.7.01c-7.57-.04-19.98.3-20.4.56-.27.17-.36 2.93-.4 13.66-.05 7.4-.01 13.65.06 13.9.1.35.25.4.57.23.94-.52 2.7.68 2.7 1.85 0 1.23-1.55 1.34-2.8.19l-.58-.52v4.32c0 2.38-.02 4.5-.03 4.72-.06 1.17-3.63 3.96-5.08 3.96-.89 0-1.26.71-.99 1.9.13.57.3 7.13.37 14.58s.21 15.4.3 17.66c.25 6.76.26 6.5-.29 7.11-.56.62-1.54.74-1.94.23-.43-.55-.61-2.13-.34-3.07s.1-2.42-.29-2.42c-.12 0-.23.14-.23.31 0 .18-.32.65-.71 1.06-.7.74-2.04 1-3.1.58-.43-.16-.6-1.42-.2-1.42.11 0 .47-.47.8-1.05a6 6 0 0 1 1.24-1.56c.78-.61.78-.6.14-1.33l-.5-.59-.67.68c-.58.57-.92.67-2.27.67-1.23 0-1.64-.1-1.85-.46-.2-.34-.33-.38-.49-.15-.28.42-1.52.88-2.39.88-.38 0-1.2-.2-1.83-.44-1.06-.4-1.18-.4-1.62 0-1.55 1.4-4.33-.67-2.92-2.19.47-.5.76-.58 1.61-.47.58.08 1.2.36 1.4.62.34.47.37.47.92-.03.4-.36 1.06-.54 2.25-.62 1.55-.1 1.75-.05 2.4.6.7.7.71.7 1.08.18.23-.34.82-.6 1.58-.71 1.01-.16 1.34-.09 2.02.42.59.43.93.53 1.22.34q.98-.59-.07-1.13a3 3 0 0 1-1.1-1.27c-.4-.85-.4-.95 0-1.35.39-.4.53-.39 1.75.05.73.25 1.44.4 1.6.3q.25-.18.1-5.9c-.1-3.15-.2-9.25-.22-13.54-.02-4.3-.11-7.92-.21-8.07-.18-.27-6.82-.28-16.36-.02-18.44.5-17.46.37-19.45 2.41-2.15 2.2-2.72 3.65-2.92 7.4-.23 4.3-.27 33.55-.04 33.91.1.16.17 3.5.16 7.4v7.9c.02.44.08 4.6.14 9.26.1 7.9.14 8.49.61 8.87.4.32 1.48.42 5.5.48 2.75.04 5.06.14 5.14.22s1.03.05 2.13-.06 2.34-.2 2.77-.2m-4.4-16.27a2 2 0 0 1-1.03-.46c-.38-.46-.84-.49-1.24-.08-.17.16-.9.3-1.64.3-2.01 0-2.7-.83-1.6-1.92.66-.68 2.66-.74 3.3-.1.4.4.49.4 1.27-.02.58-.31 1.3-.43 2.27-.37 1.68.1 2.14.56 1.73 1.73-.2.6-.45.76-1.3.87-.59.08-1.38.1-1.77.05m-10.23-.33c-1-.21-.99-.2-1.22-.96-.22-.7.26-1.01 2-1.27 1.4-.21 2.34.15 2.34.9 0 .97-1.61 1.66-3.12 1.33m15.72-.12a1.12 1.12 0 0 1-.3-1.8c.5-.5 3.11-1.07 3.85-.84.3.1.72.46.95.8.39.6.38.7-.16 1.45-.55.77-.66.8-2.18.73a8 8 0 0 1-2.16-.34m6.84.13c-1.72-.64-1.24-2.21.77-2.51 1.6-.24 2.07-.1 2.54.73.37.67.36.76-.13 1.25-.58.58-2.3.87-3.18.53m5.7-.07c-.87-.44-1-1.56-.28-2.29.4-.4.88-.54 1.8-.54 1.4 0 1.7.14 2.12.93.39.73-.03 1.4-1.14 1.87-1.1.46-1.64.46-2.5.03m7.47.06c-1.8-.18-1.84-.2-1.92-.78-.17-1.21.02-1.56 1-1.83 1.6-.45 2.61-.34 3.42.35.64.55.7.73.48 1.36-.34.93-.93 1.11-2.98.9m4.59-.4c-.23-.23-.42-.82-.42-1.33 0-1.05.63-1.43 2.38-1.43 1.27 0 1.86.55 1.86 1.75 0 .74-.14.96-.68 1.17-1.04.4-2.67.31-3.14-.16m6 .1c-.83-.4-1.05-1.42-.46-2.07.54-.6 1.94-.92 2.91-.68.73.19 1.3 1.26 1.06 2-.3.94-2.26 1.35-3.52.74m6.34-.36c-.6-.42-.82-1.44-.3-1.44q.23-.02.12-.24c-.23-.37 1.6-.88 2.49-.69 1.07.24 1.4.7 1.09 1.54-.46 1.22-2.23 1.65-3.4.83M43.61 85.32c-.6-.21-.73-.42-.73-1.15 0-.48.19-1.07.42-1.3.97-.97 3.55-.04 3.55 1.28 0 1.27-1.5 1.81-3.24 1.17m5.06.14c-.52-.14-1.07-1.27-.86-1.8.08-.21.67-.59 1.32-.83.96-.37 1.37-.4 2.12-.17q.93.29 1.6.04c1.16-.44 2.94-.3 3.52.29 1.46 1.45-.08 2.86-2.6 2.38a5 5 0 0 0-2.2 0c-.89.26-2.11.3-2.9.09m10.17-.1c-1.19-.47-1.08-2.12.19-2.77 1.6-.84 3.17-.13 3.17 1.44 0 1.33-1.7 2-3.36 1.34m44.29-34.98c-1.6-.93-1.65-2.61-.09-2.8.52-.06.95.16 1.63.83 1.01 1.01 1.13 1.52.5 2.15-.54.54-.84.51-2.04-.18m-4.82-3.9c-.65-.7-.73-.9-.5-1.53.48-1.4 2.71-.78 3.13.88.39 1.55-1.36 1.97-2.63.64m-4.78-4c-.73-1.06-.74-1.1-.25-1.46 1.03-.75 2.6-.42 3.17.68.53 1.02-.06 1.86-1.3 1.86-.72 0-1-.18-1.62-1.08m15.2 86.43c.97-.64 2.08-1.46 2.46-1.82.38-.35 1.08-.91 1.55-1.25.77-.55.81-.64.41-.93a4.4 4.4 0 0 0-1.86-.35c-.77 0-1.51-.04-1.64-.07-.47-.1-1.58.56-2.45 1.48-1.39 1.46-1.68 4.09-.46 4.1a12 12 0 0 0 2-1.16m18.55-6.09c6.91-.08 17.75-.24 24.08-.34 11.73-.2 16.38-.19 17.33.04 1.09.27 1.15-.02 1.17-5.67.01-4.22-.17-30.59-.23-32.88-.02-.58-.79-.92-1.06-.47-.27.43-2.53.45-3.04.02-.54-.44-.52-1.05.05-1.49.66-.5 2.7-.46 3.28.06.45.4.5.39.76-.31.16-.42.23-1.18.15-1.7-.07-.5-.2-3.13-.28-5.83-.09-2.69-.22-5.52-.31-6.28s-.17-3.4-.19-5.83l-.04-4.44-1.04-1.31c-1.14-1.44-2.78-3.01-3.16-3.03-.13 0-1.03-.38-1.99-.85a8 8 0 0 0-2.67-.83c-9.96.09-30.03.04-30.21-.08-.14-.08-.55-.07-.92.02-.62.16-.66.25-.52 1.41.23 1.9.5 13.95.47 21.28-.01 3.88.08 6.6.23 6.7.14.08.61-.26 1.06-.77a9 9 0 0 1 1.7-1.45c.88-.51.9-.51 1.35-.03.64.72.31 1.64-.94 2.64-.58.46-1.06 1.05-1.06 1.32 0 .44 1.38 1.85 1.82 1.85.39 0 1.12 1.61.96 2.12-.3.92-1.98.71-3.3-.4-1.7-1.41-1.96-1.28-1.76.86.1.99.22 4.78.3 8.44.1 6.4.1 6.69-.43 7.35-.59.74-1.58.9-2.06.32-.22-.27-.24-2.69-.1-9.06a517 517 0 0 0 .17-11.35c-.26-21.8-.44-30.21-.66-30.61-.4-.76-1.45-.56-2.62.49-.58.53-1.65 1.33-2.37 1.78a143 143 0 0 0-9.07 6.32c-.9.72-2.24 1.65-2.97 2.07s-1.84 1.28-2.48 1.93L105.53 66l.16 5.78c.1 3.18.18 15.9.19 28.27 0 13.16.11 22.6.25 22.78q.24.3 4.42.21c2.29-.04 9.82-.14 16.73-.22m10.98-38.53c-.81-.24-1.45-.89-1.45-1.47 0-1.17 2.59-1.61 3.65-.62.72.67.73 1.16.05 1.84-.57.57-1 .62-2.25.25m4.51-.5c-1.07-1.18.43-2.65 2.29-2.25 1.15.24 1.54.58 1.54 1.34 0 1.27-2.89 1.95-3.83.91m5.61.19c-.54-.42-.8-1.53-.48-2.03.15-.24.85-.43 1.82-.5 1.33-.1 1.67-.03 2.12.43l.53.53.87-.64c1.2-.88 3.22-.9 3.8-.04.5.78.27 1.64-.56 2.02s-3.34.38-3.73 0c-.23-.23-.53-.2-1.22.12-1.08.52-2.55.57-3.15.1m-15.99-.36c-.27-.71.27-1.82.93-1.91 1.4-.2 2.52 1.45 1.39 2.06-.8.43-2.13.34-2.32-.15m26.9.08c-.84-.42-1.03-1.66-.34-2.2.34-.27.85-.34 1.74-.23 1.8.21 2.05.36 2.05 1.2 0 1.36-1.87 2.03-3.44 1.23m266.57 99.03a13 13 0 0 1-5.7-1.92c-.82-.52-2.1-1.15-2.85-1.4-.76-.24-1.8-.79-2.33-1.2a4 4 0 0 0-1.26-.77c-.16 0-1.66-.71-3.33-1.58-4.7-2.44-8.46-4.41-10.06-5.27-.8-.42-2.46-1.26-3.7-1.85a234 234 0 0 1-9.69-5.06 46 46 0 0 0-3.83-1.86c-.79-.3-2.03-.95-2.75-1.42a21 21 0 0 0-4.9-2.34c-.07-.02-1.04-.6-2.15-1.28a20 20 0 0 0-2.98-1.56 6 6 0 0 1-1.69-.9 7 7 0 0 0-1.64-.96c-.51-.2-1.21-.57-1.56-.84a2.3 2.3 0 0 0-1.09-.48c-.25 0-.92-.31-1.48-.7a9 9 0 0 0-1.83-.96 5 5 0 0 1-1.19-.6c-.62-.52-6.77-3.56-7.2-3.56-.22 0-.85-.36-1.4-.8a4 4 0 0 0-1.36-.79c-.33 0-2.09-.86-4.06-1.99a38 38 0 0 0-1.99-1c-.72-.34-1.8-.87-2.38-1.17s-1.83-.92-2.78-1.37-2.2-1.13-2.77-1.48a32 32 0 0 0-3.25-1.57c-1.2-.51-2.7-1.27-3.3-1.69-.62-.42-2.2-1.3-3.5-1.95l-3.84-1.94-3.84-1.92a16 16 0 0 1-3.25-2.07c-.48-.5-.95-.9-1.05-.9s-.67-.53-1.28-1.17c-.88-.93-1.15-1.45-1.29-2.45-.3-2.12-.22-3.39.22-4.25.24-.46.43-1 .43-1.2 0-.43 2.29-5.12 2.59-5.3.22-.15 2.25-4.15 3.64-7.19a24 24 0 0 1 1.53-2.9 40 40 0 0 0 3.14-6.09c.42-1 .86-1.9 1-1.98.12-.08.93-1.63 1.79-3.45a41 41 0 0 1 2.5-4.63c1.84-2.57 1.6-4.3-.8-5.92-.82-.55-2.33-1.4-3.35-1.88l-8.73-4.24c-3.78-1.84-7.9-3.81-9.13-4.37a30 30 0 0 1-2.96-1.5 9 9 0 0 0-1.72-.85c-.55-.2-2.64-1.15-4.65-2.12l-3.63-1.77.16-1.11c.09-.61.44-1.53.77-2.04.34-.5.82-1.37 1.08-1.92s.56-.99.68-.99.22-.15.22-.34.77-1.89 1.71-3.77a44 44 0 0 0 1.72-3.66 11 11 0 0 1 1-1.86 18 18 0 0 0 1.5-3.07c.27-.8.65-1.64.85-1.87s.36-.55.36-.72.36-.7.8-1.2c.43-.5.79-1.05.79-1.22s.24-.8.54-1.42c.3-.6.96-2.11 1.46-3.34s1.06-2.33 1.24-2.44c.88-.57 2.43-.12 3.62 1.05.2.2 1.27.81 2.38 1.36 2.42 1.2 3.8 1.95 3.99 2.15.07.08.95.49 1.95.9 1 .43 2.07.97 2.38 1.22.3.24 1.1.62 1.75.85.66.23 1.73.7 2.38 1.06.66.36 3.01 1.6 5.24 2.74 6.88 3.53 7.12 3.66 7.5 3.98.66.54 5.03 2.2 5.82 2.2q.77 0 1.67-.87c.77-.72.93-1.09 1.05-2.31l.14-1.49c.01-.02.34-.17.74-.34.76-.31 1.3-1.3 3.18-5.71.5-1.17 1.29-2.71 1.77-3.44s.96-1.62 1.07-1.99c.1-.36.34-.84.5-1.05.18-.22.66-1.17 1.09-2.12.42-.95.93-1.9 1.11-2.14.2-.23.34-.6.34-.82 0-.23.23-.7.5-1.04s.91-1.52 1.42-2.61c3.53-7.6 5.14-10.16 7.27-11.54a22 22 0 0 0 2.4-1.8c.84-.78.97-.82 2.92-.76 1.12.03 2.57.23 3.22.44 2.04.66 6.42 2.58 6.84 3 .22.22 1.42.87 2.67 1.44a113 113 0 0 1 7.16 3.57c1.82.94 3.6 1.87 3.97 2.08.36.21.86.38 1.11.39.25 0 .85.33 1.33.74s2.12 1.32 3.64 2.02c1.53.7 3.08 1.49 3.44 1.73.6.4 2.29 1.3 5.43 2.87.58.3 2.03.98 3.22 1.52s2.23 1.13 2.3 1.3c.07.19.79.61 1.6.95s1.48.7 1.48.83c0 .11.12.21.27.21.41 0 6.86 3.15 7.92 3.87.51.35 1.1.63 1.3.63.5 0 5.71 2.61 6.32 3.16.25.23 1.3.81 2.31 1.3 2.9 1.37 3.57 1.73 3.57 1.92 0 .09.35.24.76.32s.94.32 1.14.53a6 6 0 0 0 2.4 1.24c.2 0 1.36.57 2.6 1.28 5.2 2.98 10.22 5.6 10.72 5.6.2 0 .44-.17.56-.37.33-.58 2.12-.98 2.86-.64 1.2.54 1.05 1.58-.28 1.91-.36.09-.65.25-.65.36 0 .12.86.65 1.92 1.18l4.84 2.5a87 87 0 0 0 8.19 3.86c.44.15 1.79.94 3 1.75l2.81 1.88q2.01 1.33 2 1.74c0 .16.3.57.68.93 1.34 1.24 1.96 2.92 1.96 5.26 0 1.99-.09 2.33-1.32 5.08a26 26 0 0 1-1.72 3.4c-.22.23-.4.56-.4.72s-.15.45-.33.64c-.19.2-1.27 2.32-2.41 4.72s-2.32 4.78-2.63 5.3c-.63 1.05-2.78 5.19-4.8 9.25a19 19 0 0 1-1.83 3.14c-.24.2-.43.52-.43.72s-.46 1.22-1.03 2.28l-1.92 3.65c-.49.95-.98 1.76-1.09 1.8-.1.06-.2.3-.2.54s-.3.92-.65 1.5a49 49 0 0 0-2.92 5.95c-.11.36-.43.98-.7 1.38-.57.8-2.34 4.6-2.34 5 0 .14-.25.52-.55.84-.5.54-3.16 5.77-3.16 6.23 0 .1-.35.6-.78 1.11-.43.5-.79 1.16-.8 1.45 0 .3-.28.95-.61 1.46-.33.5-1.07 2-1.64 3.3a23 23 0 0 1-1.62 3.18c-.33.43-.85 1.39-1.16 2.11a8 8 0 0 1-1.06 1.85c-.27.3-1 1.6-1.6 2.91-1.6 3.42-3.41 7-4.13 8.14a4 4 0 0 0-.62 1.48c0 .27-.27.9-.6 1.4-.34.49-.98 1.6-1.42 2.48-1.9 3.74-3.3 6.28-3.67 6.65-.21.22-.4.51-.4.65 0 .13-.48 1.4-1.08 2.8-1.18 2.75-2.76 5.03-4.37 6.33-1.91 1.52-1.93 1.52-5 1.16m2.97-2.68c.5-.15 1.07-.61 1.37-1.1.3-.47.85-1.15 1.24-1.51s1.12-1.55 1.62-2.64c.95-2.06 4.08-8.37 4.73-9.53.2-.36 1.1-2.15 1.97-3.97 2-4.12 4-7.92 4.69-8.9a13 13 0 0 0 1.1-2.32c.32-.86.8-1.87 1.06-2.25.64-.9 2.19-3.99 2-3.99-.13 0 .11-.47 1.88-3.57.5-.88 1.2-2.18 1.56-2.91s.8-1.56.99-1.85c1.5-2.41 2.86-5.37 2.86-6.2 0-.42-.3-.51-1.92-.64-3.53-.27-10.05-.05-10.87.37-.83.42-2.86 3.95-3.52 6.12a7 7 0 0 1-.99 1.99c-.33.4-.7.97-.8 1.27-.1.29-.89 1.72-1.73 3.17a32 32 0 0 0-1.73 3.27c-.1.34-.52 1.11-.92 1.72s-1.08 1.81-1.52 2.68-1.06 2.13-1.4 2.78l-1.32 2.65c-.4.8-1.08 2.17-1.53 3.04l-1.7 3.3c-.48.95-1.06 1.93-1.28 2.18-.23.25-.57.9-.77 1.45-.2.56-.7 1.52-1.13 2.14s-.9 1.5-1.06 1.98c-.16.47-.6 1.33-.99 1.91-.38.59-.86 1.48-1.06 1.99-.2.5-.7 1.58-1.1 2.4-.81 1.65-.73 2.01.66 2.87 1.48.92 1.65.8 3.08-2.24.72-1.54 1.32-2.9 1.32-3.01 0-.13.26-.4.6-.62.35-.23.73-.9.93-1.65.18-.7.57-1.56.86-1.92.28-.37.52-.83.52-1.03s.47-1.12 1.05-2.05a10 10 0 0 0 1.06-1.96c0-.16.38-.92.84-1.7a56 56 0 0 0 1.74-3.25 61 61 0 0 1 1.14-2.24 34731.93 34731.93 0 0 1 5.93-11.5l4.12-8.1c.55-1.1 1.16-2.18 1.36-2.38.2-.21.51-.87.69-1.46.43-1.47 1.78-3.29 2.44-3.29.8 0 .66.7-.66 3.33-.65 1.3-1.18 2.49-1.19 2.65 0 .16-.46.94-1.03 1.75-.56.8-1.18 1.93-1.36 2.5a8 8 0 0 1-.79 1.68c-.25.36-1.06 1.88-1.8 3.38a46 46 0 0 1-2.1 3.83c-.42.62-.93 1.54-1.13 2.05s-.74 1.58-1.18 2.38c-.45.8-.98 1.96-1.18 2.58s-.47 1.12-.59 1.12-.22.18-.22.4-.1.4-.24.4-.37.33-.53.73-.47 1.02-.68 1.38c-.21.37-1.3 2.51-2.4 4.77-2.3 4.67-3.28 6.52-3.77 7.13-.59.74-3.25 6.73-3.17 7.14.04.22.33.53.64.68s.73.42.93.58c.7.58 2.55.6 4.38.04m-1.69-2.24c.09-.52.48-1.37.88-1.9.4-.51 2.16-3.8 3.92-7.31a142 142 0 0 1 4.32-8.1 10 10 0 0 0 1.11-2.05c0-.19.54-1.29 1.2-2.44s1.19-2.16 1.19-2.24.51-1.01 1.15-2.06a15 15 0 0 0 1.34-2.71c.1-.44.6-1.41 1.1-2.16s.9-1.54.9-1.74.43-1.07.96-1.94c.52-.86 1.49-2.82 2.14-4.35 1.38-3.21 1.92-4.3 2.22-4.5.11-.08.71-1.15 1.33-2.38 1.2-2.43 1.38-2.63 2.28-2.64.52 0 .58.1.48.89-.06.49-.4 1.3-.73 1.8-.34.5-.98 1.62-1.4 2.49-.44.86-.87 1.63-.97 1.7s-.27.48-.37.9-.6 1.48-1.08 2.33-1.12 2.12-1.42 2.8a9 9 0 0 1-1 1.77c-.26.3-.65.89-.89 1.32a313 313 0 0 0-4.86 9.4 33 33 0 0 0-1.98 4.3c0 .14-.3.75-.68 1.35a67 67 0 0 0-3.29 5.76c0 .11-.81 1.67-1.8 3.46-1 1.79-2.21 4.09-2.7 5.1-1.6 3.38-3.7 5.35-3.35 3.15m-8.8-5.8a39 39 0 0 1 2.16-4c.13-.08.52-.76.88-1.5.64-1.37 1.42-2.9 2.1-4.15.35-.64 2.06-4.1 3.53-7.14.39-.8.9-1.7 1.15-1.99.57-.66 3.27-6.12 3.48-7.01.09-.37.4-.94.72-1.27.3-.33.8-1.16 1.1-1.85q1.84-4.3 2.72-5.46c.34-.45.88-1.45 1.18-2.24.31-.78 1.17-2.54 1.9-3.9 1.45-2.7 1.47-2.59-.58-2.86-1.9-.26-2.25 0-3.65 2.77-.7 1.38-1.47 2.87-1.71 3.3-.24.44-.62 1.21-.84 1.72-.23.51-.58 1.23-.8 1.59-.2.36-.87 1.76-1.48 3.1-.6 1.35-1.2 2.46-1.32 2.46-.11 0-.9 1.37-1.74 3.04-2.53 5-2.6 5.15-3.07 5.61-.42.42-.49.42-.88.03-.4-.4-.38-.53.2-1.63l4.28-8.42c2-3.98 4.23-8.25 4.94-9.48.79-1.37 1.3-2.59 1.3-3.11l.02-.86h-1.54c-1.72 0-2.3.41-2.96 2.12-.2.5-.61 1.34-.92 1.85-.3.5-1.15 2.08-1.87 3.5-2.78 5.48-3.17 6.15-3.53 6.15-.66 0-.86-1.44-.3-2.22a78 78 0 0 0 2.62-5.08c1.18-2.41 2.32-4.54 2.54-4.73.23-.18.4-.62.4-.96 0-.6-.08-.63-1.6-.63-2 0-2.52.27-2.73 1.42-.1.5-.48 1.36-.86 1.91-.37.55-1.06 1.73-1.52 2.6l-1.14 2.14-1.3 2.6c-1.06 2.15-1.69 2.8-2.17 2.22-.19-.22-.1-.8.28-1.9.5-1.47.95-2.36 2.9-5.83a35 35 0 0 0 2.18-4.57c.18-.57.12-.6-1.49-.59-.92 0-1.85.12-2.06.26-.42.26-1.45 1.96-2.4 3.97-.78 1.63-1.4 2.87-2.94 5.85-1.36 2.64-2.3 3.56-2.93 2.92-.25-.25-.08-.8.8-2.52.61-1.21 1.11-2.3 1.11-2.41s.58-1.18 1.3-2.35c.7-1.18 1.61-2.8 2.02-3.57.72-1.38.73-1.44.25-1.79-.72-.53-2.6-.46-3.09.1a24 24 0 0 0-1.55 2.85 96 96 0 0 1-1.97 3.83c-.45.8-.98 1.87-1.2 2.38-.2.51-1.4 2.77-2.65 5.03a143 143 0 0 0-4.13 7.67 225 225 0 0 1-4.86 9.4c-.26.32-1.84 4.11-1.84 4.42 0 .1.49.45 1.09.75 1.06.55 1.1.55 1.57.08.26-.27.98-1.5 1.59-2.74a37 37 0 0 1 1.56-2.91c.25-.36.58-1.03.73-1.49s.62-1.34 1.02-1.98 1.37-2.41 2.15-3.94 1.59-2.92 1.82-3.09c.5-.37 1.17-.18 1.17.35 0 .42-2.39 5.25-3.3 6.68-.34.53-.77 1.43-.95 2.01a10 10 0 0 1-1.07 2.15c-.41.6-.95 1.61-1.2 2.25s-.8 1.78-1.2 2.54-.68 1.54-.6 1.72c.13.37 2.11 1.27 2.76 1.26.46 0 1.03-.9 2.36-3.7.52-1.09 1.2-2.4 1.51-2.9.31-.52.65-1.2.74-1.5.21-.7 1.38-1.51 1.9-1.32.56.22.44 1.14-.3 2.23a5 5 0 0 0-.65 1.19c0 .12-.34.72-.76 1.33-.9 1.31-2.68 5.03-2.68 5.58 0 .2.32.63.72.93s.9.68 1.1.86c.66.55 1.25-.41 4.76-7.71.38-.8.84-1.6 1.02-1.8s.33-.57.33-.82c0-1.12 1.5-2.14 2-1.34.25.4-.1 2.01-.53 2.45-.2.2-.73 1.12-1.17 2.05-.98 2.05-3.28 6.4-3.85 7.27-.23.34-.41.69-.41.76 0 .2 2.56 1.47 2.97 1.47.2 0 .5-.2.67-.46.27-.39 4.1-7.83 5.99-11.63.44-.9.7-1.11 1.28-1.12.88-.02.93.48.2 1.84-.28.5-.65 1.22-.83 1.58s-.47.84-.63 1.06-.47.82-.67 1.32-.43.99-.52 1.06c-.14.12-1.5 2.7-3.19 6.08-.56 1.13-.5 1.32.75 2.03 2.04 1.17 2.16 1.08 4.3-3.22m-8.57-15.12c-.28-.28-.2-1.06.2-2 .2-.47.93-2.35 1.62-4.17 1.94-5.15 2.26-5.92 2.71-6.43.77-.87 1.4-.44 2.47 1.67.56 1.09 1.12 2.11 1.26 2.27.51.61 3.5 7.34 3.42 7.72-.05.22-.32.55-.61.75-.87.57-1.73-.05-2.4-1.75-.32-.8-.83-1.58-1.13-1.74-.46-.23-1.63-.27-3.94-.13-.18.01-.5.66-.73 1.43a6 6 0 0 1-.95 1.99c-.5.55-1.55.76-1.92.4m6.33-6.9c-.24-1.8-1.12-2.21-1.53-.73-.3 1.1-.1 1.46.83 1.46.72 0 .79-.07.7-.73m-22.08 11.97a101 101 0 0 0 2-3.83c.53-1.1 1.25-2.32 1.58-2.74.34-.4.62-.96.62-1.22s.21-.75.48-1.1a10 10 0 0 0 1.37-2.8c0-.13.3-.65.68-1.15s1.92-3.45 3.44-6.56 3.15-6.26 3.62-7a32 32 0 0 0 1.64-3.1c.43-.94 1-2.03 1.26-2.41.37-.56.4-.76.13-.98-.26-.22-2.23-.26-3.43-.08-.1.02-.48.6-.82 1.29-.88 1.76-4.62 8.8-5.95 11.18-.6 1.09-1.76 3.23-2.56 4.76a701 701 0 0 1-4.24 7.94 34 34 0 0 0-1.3 2.71c-.29.7-.61 1.26-.73 1.26s-.21.15-.21.33-.3.98-.68 1.77c-.41.9-.61 1.69-.52 2.06.17.66 1.63 1.7 2.23 1.6.2-.04.83-.9 1.4-1.93m-5.34-1.32a58 58 0 0 1 2.9-4.9c.1-.07.35-.54.54-1.05a50 50 0 0 1 3.17-6.22c.39-.58 1.04-1.8 1.44-2.71a78 78 0 0 1 3.9-7.52c.27-.38.5-.87.5-1.07a8 8 0 0 1 .95-1.94c1.86-3.06 3.1-5.6 2.93-6.04-.12-.32-.52-.43-1.58-.43-1.63 0-2.15.41-2.96 2.38a12 12 0 0 1-1.25 2.18c-.42.55-.94 1.5-1.16 2.11-.22.62-.6 1.42-.84 1.8-.55.82-1.16 1.91-2.57 4.63l-4.1 7.8c-5.18 9.83-5.23 9.95-4.05 11.17q1.36 1.4 2.18-.19m-3.59-3.37c.52-1.06 1.52-3 2.2-4.33.7-1.32 1.4-2.7 1.56-3.04.26-.58 1.6-3.17 3.28-6.32.36-.68.9-1.6 1.21-2.01.3-.43.76-1.34 1.01-2.03.26-.7.58-1.26.71-1.26.14 0 .25-.19.25-.42s.95-2.23 2.12-4.43c1.16-2.2 2.06-4.15 1.99-4.34q-.13-.33-1.95-.33c-2.18 0-2.15-.03-4.03 3.56a74 74 0 0 1-1.97 3.58c-.32.51-.92 1.59-1.32 2.39s-.93 1.69-1.17 1.98c-.25.29-.74 1.18-1.1 1.98-.35.8-.8 1.64-1 1.87-.18.23-.8 1.47-1.37 2.75a22 22 0 0 1-1.39 2.76c-.19.24-.5.78-.69 1.22a42 42 0 0 1-2.71 5.1 6 6 0 0 0-.76 1.37c0 .13.57.49 1.26.8s1.43.68 1.65.8c.92.54 1.28.26 2.22-1.65m-5.92-1.33c.16-.18.97-1.7 1.81-3.37s2.2-4.27 3.03-5.78c.83-1.5 1.59-3.05 1.68-3.44.1-.38.44-1.06.76-1.5.67-.9 2.24-3.94 2.24-4.34 0-.15.84-1.73 1.87-3.51 2.57-4.46 2.66-5.23.6-5.24-1.47 0-2.1.42-3.02 2.03-.48.85-1.03 1.7-1.22 1.89-.2.2-.35.5-.35.69 0 .48-2.05 4.58-2.96 5.91a52 52 0 0 0-2.33 4.24 42 42 0 0 1-2.23 4c-.37.51-.68 1.03-.68 1.15 0 .43-2.74 5.75-2.96 5.75-.63 0-.07.78.91 1.25 1.32.63 2.44.74 2.85.27m-4.44-3.58c.66-.76 2.47-4.04 3.53-6.4a44 44 0 0 1 2-3.87c.53-.88 1.4-2.49 1.94-3.57l1.2-2.35 1.46-2.52c1.17-2.02 1.97-3.85 1.97-4.56.01-.4-1.77-.45-2.76-.07-.37.14-.8.57-.95.96a8 8 0 0 1-.85 1.52c-.33.46-1.13 1.86-1.78 3.13l-2.6 5.03a26 26 0 0 1-1.91 3.25c-.27.3-.86 1.43-1.31 2.52l-1.18 2.78c-.2.43-.49 1.24-.66 1.78-.18.55-.4 1-.51 1-.24 0-.92 1.84-.74 2.02.07.07.65.4 1.28.75l1.15.61.16-.78c.1-.43.35-.98.56-1.23m-4.16-1.69 1.38-2.38c.33-.56.97-1.97 1.41-3.14.45-1.16 1.1-2.45 1.44-2.85.35-.41 1.25-2.1 2.01-3.77a49 49 0 0 1 2.25-4.39c1.23-1.94 2.28-4.25 2.17-4.79-.06-.35-.4-.48-1.44-.54-1.22-.07-1.42 0-1.93.66a17 17 0 0 0-2.43 4.13 21 21 0 0 1-2.66 4.71c-.4.53-.97 1.48-1.26 2.12s-.69 1.46-.9 1.82c-.2.37-.77 1.53-1.25 2.58a9 9 0 0 1-1.04 1.92c-.08 0-.3.33-.48.73-.4.91-.9 1.73-1.36 2.3-.32.39-.28.52.31 1.07a5.5 5.5 0 0 0 2.72 1.17c.14.01.62-.6 1.06-1.35m-4.68-1.42c.17-.37.31-.88.31-1.13s.3-.89.65-1.41c.36-.53.94-1.6 1.28-2.38s.82-1.57 1.05-1.77.5-.72.6-1.19c.17-.77 2.51-5.49 4.6-9.24.58-1.04.82-1.8.77-2.38-.08-.84-.11-.86-1.4-.86h-1.33l-1.72 3.47a33 33 0 0 1-2.45 4.32c-.4.47-.73.98-.73 1.13 0 .54-1.42 3.53-1.99 4.18-1 1.15-3.12 5.6-2.98 6.27.04.2.44.57.87.8l1.2.62c.67.36.96.27 1.27-.43m-3.92-3.32c.36-.93.91-2.11 1.22-2.62s.72-1.34.92-1.84a81 81 0 0 1 3.55-7.02c.87-1.4 2.51-4.88 2.51-5.33 0-.38-1.25-.49-2.25-.2-.57.16-2.78 3.76-4.62 7.51-.6 1.24-1.86 3.74-2.8 5.56-.92 1.82-1.69 3.55-1.7 3.85-.01.82 1.47 2.05 2.24 1.86.15-.04.56-.83.93-1.77m-5.14-.7c.29-.2.81-1.13 1.75-3.11.28-.58.75-1.53 1.06-2.12 1.35-2.56 3.86-7.73 4.05-8.33.11-.36.42-.95.7-1.3.65-.83.62-1.25-.1-1.44-1.77-.48-1.93-.35-3.54 2.67a166 166 0 0 1-3 5.36 80 80 0 0 0-2.13 3.84c-.36.72-.8 1.5-.97 1.72s-.39.7-.48 1.06c-.14.57-.02.73.97 1.23 1.34.67 1.32.67 1.69.41m-3.98-2.9c.26-.4.69-.95.94-1.22.26-.28.61-1.11.79-1.85.18-.75.68-1.95 1.11-2.69.44-.73 1.14-2.09 1.56-3.02a13 13 0 0 1 1.55-2.59c.92-1.05.97-1.42.27-2.06-1.13-1.02-3.4.34-4.48 2.69-.5 1.1-.96 2-1.3 2.6-.16.28-.76 1.47-1.31 2.64a34 34 0 0 1-1.5 2.84c-.26.4-.49 1.1-.51 1.57-.03.74.1.93.89 1.32 1.25.62 1.45.6 2-.23m-4.28-2.85c.27-.58.72-1.25 1-1.5.28-.23.78-1.25 1.12-2.25a25 25 0 0 1 3-5.67c.77-.93.44-1.3-1.16-1.3-1.48 0-2.47.47-2.47 1.16 0 .16-.42.98-.92 1.83-.51.84-.93 1.7-.93 1.9s-.15.53-.33.72c-.6.67-2.45 4.51-2.37 4.94.13.69 1.15 1.39 1.88 1.3.5-.06.82-.36 1.18-1.13m-5.28-1.36c.23-.09.42-.31.42-.5 0-.18.6-1.1 1.32-2.02a9 9 0 0 0 1.32-2.02c0-.34 1.34-3 1.9-3.8.44-.6.08-1.29-.68-1.29-1.75 0-2.42.75-4.7 5.3-1.64 3.25-1.64 3.83-.04 4.48.02 0 .23-.06.46-.15m-2.91-3.7c.56-1 1.43-2.5 1.91-3.32 1.01-1.7 1.1-2.23.4-2.4-.48-.13-2.88.14-3.03.35-.41.53-1.5 2.65-1.5 2.91 0 .19-.26.86-.57 1.5l-.56 1.16.88.9c.49.5 1 .88 1.16.83s.74-.91 1.3-1.92m-5.12-1.2c.19-.45.63-1.12 1-1.48a3 3 0 0 0 .77-1.81l.14-1.17h-1.36c-1.52 0-1.92.28-2.88 2.03-.8 1.45-.75 1.96.27 2.65 1.18.8 1.66.75 2.06-.22m-4-2.8c.88-1.41.73-1.93-.55-1.93-.58 0-.9.21-1.29.86-.6 1-.65 1.4-.2 1.92.61.7 1.24.43 2.04-.85m-3.78-.76c.27-.68-.52-1.25-1.47-1.04-1.01.22-1.06.74-.1 1.12 1.06.41 1.4.4 1.57-.08m54.33-2.47c9.7.11 35.57-.01 36.45-.18.5-.1 1.01-.04 1.23.14.27.22 5.16.27 18.82.16 10.16-.08 18.54-.2 18.62-.3.09-.08-.14-.38-.5-.66l-.95-.73a6 6 0 0 0-1.32-.59 7 7 0 0 1-1.44-.65c-.42-.31-5.1-2.62-8.6-4.24a24 24 0 0 1-2.51-1.29 10 10 0 0 0-1.59-.82 8 8 0 0 1-1.32-.66 7 7 0 0 0-2.6-1.31c-.44 0-.56.19-.63 1-.07.83-.18 1-.74 1.06-.53.06-.73-.1-1.01-.8-1.01-2.49-1.28-2.95-2.05-3.54-1-.77-10.16-5.44-11.54-5.9-.53-.17-1.03-.47-1.1-.67-.13-.32-4.39-2.5-6.53-3.33-.5-.2-1.58-.74-2.38-1.2a255 255 0 0 0-8.07-4.3c-.58-.3-1.6-.75-2.25-1.01s-1.56-.75-2-1.08a4 4 0 0 0-1.07-.6c-.13 0-.68-.3-1.22-.67a4 4 0 0 0-1.24-.66c-.4 0-2.89-1.19-4.12-1.97a38 38 0 0 0-2.65-1.45c-.87-.44-1.77-.91-1.98-1.06-.22-.14-.94-.5-1.6-.79-.65-.29-1.9-.92-2.77-1.4a36 36 0 0 0-2.38-1.2c-.44-.18-1.63-.8-2.65-1.37s-3.16-1.68-4.76-2.47c-1.6-.78-3.8-1.97-4.9-2.62a29 29 0 0 0-3.24-1.7c-.7-.28-1.7-.94-2.22-1.48l-.96-.97.7-2.23a13 13 0 0 1 1.19-2.86c.27-.35.89-1.47 1.36-2.49a16 16 0 0 1 1.03-1.98c.44-.36 1.64-3.25 1.57-3.77-.07-.48-.28-.61-1.1-.68-1.16-.1-1.64.2-1.9 1.22-.09.4-.33.9-.52 1.11-.33.37-2.17 3.82-4.8 8.97-.62 1.23-1.07 2.33-1 2.46s.76.2 1.51.15c1.3-.07 1.37-.04 1.37.58 0 .69-.07.72-2.38 1.27-2.8.67-3.81.93-5.16 1.32-.8.24-1.57.5-1.72.6s-1.45.5-2.9.9c-1.46.4-3.13.88-3.71 1.07s-1.54.44-2.12.53c-2.7.45-5.98 1.31-7.6 2.02-.99.42-1.97.77-2.19.77-.69 0-.41.38.6.84 1.56.7 8.12 3.9 9.46 4.62.43.24 1.62.84 2.64 1.33s2.9 1.43 4.2 2.09c1.86.95 2.41 1.13 2.71.88.21-.17.32-.37.25-.44-.27-.28.43-1.12.94-1.12 1 0 1.56.5 1.56 1.4 0 1.52 1.63 3.36 2.97 3.36.2 0 1 .43 1.8.94 1.51.98 8.9 4.67 10.05 5.02.36.1.97.42 1.35.68s1.57.93 2.65 1.47c1.07.55 2.01 1.07 2.08 1.16.08.1.46.26.86.35.4.1 1.29.54 1.97.97s1.43.8 1.66.8.7.23 1.07.52c.36.28.8.52.99.52.66.01 1.65 1.16 1.65 1.9 0 .65-.1.75-.74.75-.4 0-.97-.17-1.26-.38-.28-.22-.67-.4-.87-.4s-.86-.35-1.47-.76a49 49 0 0 0-4.27-2.27 870 870 0 0 1-15.7-7.85l-3.54-1.81-.73.52c-.4.28-.96.95-1.23 1.49-.68 1.3-1.42 1.79-2.03 1.34q-.75-.55-.3-1.98c.17-.53.02-.67-1.3-1.26-.83-.37-1.48-.82-1.48-1.04 0-.65 1.04-1.02 2.42-.85.7.08 1.28.11 1.28.07 0-.05-1.7-.94-3.77-2l-4.16-2.13c-.22-.12-1.06-.48-1.86-.8s-1.7-.8-2-1.08-.65-.5-.79-.5a9 9 0 0 1-1.57-.64l-2.78-1.32a34 34 0 0 1-2.91-1.62c-1.8-1.14-2.58-1.19-2.93-.18-.14.4-.46 1.12-.72 1.58s-1.04 2-1.77 3.43c-.72 1.42-1.65 3.17-2.06 3.88-.87 1.5-.73 1.74 1.01 1.74 1.26 0 1.7.37 1.7 1.39 0 .57-.17.81-.72 1.03-.7.27-1.3.19-3.3-.47-.37-.12-.68.32-1.55 2.2-.6 1.28-1.22 2.64-1.4 3-.16.36-.37.72-.45.8-.09.07-.43.72-.76 1.45-.73 1.61-1.8 3.77-3.35 6.75-1.45 2.8-1.94 5.15-1.34 6.42.22.47.48 1.17.58 1.56.19.76 2.85 3.65 3.88 4.23.45.25 2.54.35 7.89.38 22.7.13 48.02.41 48.13.53.08.07.44.06.8-.04.38-.1 3.12-.14 6.1-.1m-50.9-26.76c-.99-.78-.88-1.84.23-2.15 2.6-.7 4.35-.16 4 1.23-.19.74-.72 1.03-2.42 1.32-.87.14-1.2.07-1.8-.4m6.98-.32c-.8-.4-.98-1.3-.37-1.8.58-.48 3.33-.49 3.9 0 .55.45.56 1.19.02 1.72-.5.51-2.6.55-3.55.08m6.37-.3c-.84-1 .84-2.3 2.41-1.84 1.05.3 1.52.98 1.11 1.62-.4.63-3.04.8-3.52.22m114.75 24.38c.28-.47.67-1.27.86-1.78.2-.51.61-1.34.93-1.85 1.79-2.94 2.28-3.87 2.42-4.52.08-.4.37-.98.64-1.28.76-.8.61-1.08-.57-1.08-.87 0-1.22.16-1.85.85-.43.47-.78 1-.78 1.18s-.84 1.98-1.85 4.02c-1.9 3.76-2.1 4.44-1.54 5 .55.56 1.21.35 1.74-.54m-3.03-2.44c2.36-3.99 3.35-5.8 3.63-6.64.17-.52.71-1.34 1.2-1.84.5-.5.9-1.13.9-1.42s.48-1.52 1.06-2.73a25 25 0 0 0 1.06-2.37c0-.1.34-.7.75-1.33.42-.62 1.26-2.15 1.88-3.38 1.27-2.56 1.39-2.8 1.88-3.7a78 78 0 0 0 3.33-6.7c.2-.56.58-1.34.85-1.73s.63-1.12.8-1.63.64-1.4 1.02-1.99c.76-1.15 3.4-6.23 4.1-7.93.25-.59.93-1.95 1.52-3.04a11 11 0 0 0 1.07-2.41c0-.25.4-1.03.89-1.74 1.32-1.92 1.39-2.33.59-3.55-.91-1.37-1.9-1.45-2.36-.18a75 75 0 0 1-3.56 7.01 23 23 0 0 0-1.38 2.84c-.17.51-.41 1-.55 1.08-.13.08-.61.94-1.07 1.92-1.34 2.87-2.95 6-3.16 6.14-.1.07-.8 1.38-1.55 2.9a117 117 0 0 1-2.54 4.9c-1.22 2.18-1.71 3.2-1.71 3.54s-1.42 2.97-2.47 4.58a9 9 0 0 0-.97 1.76c0 .48-2.22 4.94-2.83 5.68-.46.57-.61 1.09-.61 2.12 0 1.24-.08 1.41-.78 1.81a5 5 0 0 0-1.5 1.85c-.38.78-.78 1.47-.87 1.55-.1.07-.4.66-.68 1.32a10 10 0 0 1-.8 1.59c-.5.65-1.01 2.12-.81 2.32.32.33 1.84.82 2.38.77.3-.03.83-.59 1.3-1.37m-4.52-1.72c.26-.51.96-2 1.57-3.3 1.06-2.29 1.08-2.38.67-3.1-.42-.74-.37-1.5.1-1.57 1.6-.23 2.8-1.76 5.08-6.45.86-1.8 1.59-3.09 1.93-3.47.16-.18.44-.72.63-1.2a52 52 0 0 1 3.1-6.3c.34-.51.62-1.13.62-1.38s.16-.61.36-.8c.55-.56 1.75-2.93 1.75-3.47 0-.26.72-1.71 1.59-3.23a26 26 0 0 0 1.59-3c0-.26 1.71-3.4 2.14-3.9.36-.44 1.89-3.67 2.62-5.53.34-.87.94-2.07 1.32-2.65.94-1.42 2.65-5.1 2.65-5.7 0-.48-.23-.6-1.76-.9-.78-.16-.87-.09-1.91 1.56-.6.94-1.1 1.83-1.1 1.96s-.17.38-.38.56c-.2.17-.7 1.17-1.1 2.21a22 22 0 0 1-1.65 3.36c-.51.8-2 3.58-3.33 6.18-1.32 2.6-2.65 5.18-2.96 5.74-.3.56-.63 1.23-.71 1.49a22 22 0 0 1-1.23 2.33 54 54 0 0 0-1.64 3.04c-.54 1.14-1.44 2.92-2.33 4.63-.22.44-.47.85-.55.93-.08.07-.45.78-.82 1.58a236 236 0 0 1-4.53 9.13c-.48.88-1.28 2.51-1.78 3.64a9 9 0 0 1-1.1 2.05c-.09 0-.37.5-.61 1.13-.25.61-.8 1.67-1.22 2.33a5 5 0 0 0-.78 1.6c0 .47 2.04 1.55 2.78 1.48.31-.03.72-.44 1-.98m-4.1-3.5c1.25-2.4 1.2-3.12-.2-3.12-.6 0-.79-.12-.79-.5 0-.57.5-.82 1.6-.82 1.09 0 2-.48 2.4-1.29.2-.38.79-1.4 1.31-2.28 1.11-1.86 4.22-8.12 4.22-8.52 0-.15.4-.8.91-1.47a15 15 0 0 0 1.63-3.01c.4-1 .98-2.24 1.29-2.74.3-.51 1.2-2.18 1.96-3.7l1.61-3.18c.3-.58 1.2-2.64 1.59-3.64.18-.47.41-.86.5-.86s.58-.75 1.05-1.66l1.08-2.05c.12-.21.5-1.02.83-1.78.33-.77.69-1.4.8-1.4.1 0 .28-.38.37-.85.1-.47.56-1.52 1.04-2.32.47-.8 1.1-1.93 1.39-2.51l1.74-3.39c1.05-2 1.18-2.43.96-3.07-.26-.73-1.1-1.07-2.68-1.08-.43 0-1.79 1.8-1.79 2.37 0 .14-.6 1.28-1.33 2.52a27 27 0 0 0-1.73 3.38 6 6 0 0 1-1 1.78c-.66.73-1.22 1.85-1.9 3.78-.24.7-.7 1.6-1.03 1.99-.33.4-.72 1.07-.87 1.51s-.89 1.92-1.63 3.3a53 53 0 0 0-2.59 5.3c-.4.96-.68 1.54-1.6 3.3-.3.59-1.18 2.31-1.94 3.84a28 28 0 0 1-1.58 2.91c-.1.08-.48.73-.84 1.46s-1.35 2.63-2.2 4.23c-2 3.76-5.48 10.47-6.34 12.2-.97 1.95-.9 2.36.57 3.1.68.35 1.43.58 1.66.52s.92-1.07 1.53-2.24m-5.75-1.27c.68-.95.53-1.58-.37-1.58-.91 0-1.48-.26-1.48-.68 0-.5.45-.72 2.1-1.05l1.44-.3 1.8-3.02c.98-1.66 1.8-3.11 1.8-3.23 0-.1.3-.69.68-1.28s2.18-4.02 4-7.6a440 440 0 0 1 6.1-11.81c.17-.3.5-.95.72-1.46.22-.5.69-1.43 1.04-2.04.34-.6.58-1.15.53-1.2s.44-.97 1.09-2.03a15 15 0 0 0 1.36-2.63c.09-.38.74-1.78 1.45-3.1.7-1.33 1.29-2.55 1.29-2.73s.34-.76.76-1.3c.82-1.05 2.7-5.14 2.77-6 .03-.48-.18-.55-2.08-.71-1.16-.1-3.25-.12-4.63-.04-2.21.13-2.6.23-3.23.81-.4.37-.8 1.03-.89 1.47a10 10 0 0 1-.85 2.02c-.37.66-1.47 2.78-2.45 4.7-.98 1.9-2.12 4-2.54 4.62-.87 1.29-1.68 1.65-1.68.76 0-.8 3.88-9 4.26-9 .25 0 1.82-4.06 1.82-4.72 0-.52-.14-.58-1.42-.58-.99 0-1.53.14-1.78.44-.72.85-3.41 5.79-3.41 6.25 0 .37-2.95 5.5-3.59 6.24-.58.68-1.44.65-1.44-.04 0-.2.6-1.37 1.33-2.6a18 18 0 0 0 1.32-2.46c0-.29 2.32-4.9 3.15-6.25.3-.5.55-1.05.55-1.21 0-.4-2.43-.7-3.25-.39-.5.2-1 .94-1.92 2.85a20 20 0 0 1-1.87 3.27c-.34.37-.91 1.38-1.27 2.25a36 36 0 0 1-1.06 2.37c-.23.44-.41.92-.42 1.07 0 .4-1.72 2.24-2.08 2.24-.7 0-.12-1.5 2.8-7.35 3-5.96 3.1-6.2 2.6-6.57-.62-.45-2.16-.24-2.88.4-.27.23-.73.9-1.02 1.48s-.88 1.38-1.3 1.77c-.49.45-.76.98-.77 1.45 0 .87-.82 2.76-1.67 3.91-.33.45-1 1.64-1.49 2.66a60 60 0 0 1-2.17 4.23c-.4.73-1.51 2.93-2.47 4.9a151 151 0 0 1-3.31 6.48c-.46.87-1 1.77-1.2 2-.21.23-.38.6-.38.8 0 .22-.17.62-.37.91-.45.65-2.22 3.97-3.87 7.27-2.32 4.62-2.52 5.4-1.52 5.82.33.14.84.43 1.13.65.7.5.98.3 1.82-1.38.38-.76.81-1.39.95-1.39s.4-.5.57-1.12c.18-.62.64-1.6 1.03-2.18s1.56-2.79 2.6-4.9c1.05-2.1 2.01-4.01 2.16-4.23.25-.4 1.72-3.61 2.12-4.65.11-.3.69-1.3 1.27-2.2.6-.91 1.26-2.21 1.49-2.9.22-.67.7-1.59 1.04-2.02.54-.68.68-.74 1.06-.43.53.45.53.75-.01 1.75-.24.43-1.53 2.93-2.87 5.55-2.91 5.7-4.27 8.24-4.9 9.13a5 5 0 0 0-.64 1.45c-.1.44-.3.86-.41.93-.34.22-4.5 8.96-4.5 9.47 0 .47 1.77 1.64 2.48 1.64.22 0 .55-.28.74-.62l1.13-2.05c.43-.79.98-1.9 1.21-2.48.24-.59.88-1.76 1.43-2.62 1.07-1.66 3.58-6.93 3.58-7.53 0-.2.28-.7.6-1.1.33-.4.93-1.35 1.34-2.1.59-1.1.85-1.36 1.32-1.29.9.13.65 1.5-.72 3.75a83 83 0 0 0-2.78 5.22c-.89 1.8-2.16 4.3-2.83 5.53a20 20 0 0 0-1.46 3.28 6 6 0 0 1-.76 1.76c-.7.97-.67 1.15.3 1.95 1.02.87 1.71.87 2.44 0 .31-.39.9-1.05 1.29-1.49.55-.6.68-.96.56-1.55-.11-.58.07-1.08.78-2.15a43 43 0 0 0 3.23-6.5c.1-.32.47-.94.82-1.36.36-.43.89-1.31 1.18-1.97.86-1.95 1.59-2.46 2.1-1.5.23.42.14.75-.42 1.66-.4.62-.81 1.17-.94 1.21s-.22.25-.22.44c0 .18-.4 1-.9 1.83-.49.81-1.09 2.07-1.32 2.8-.24.72-.78 1.83-1.21 2.47-1.34 1.98-1.6 3.36-.64 3.36.7 0 .42 1.5-.43 2.38-1 1.02-1 1.48 0 1.68 1.2.24 1.6-.04 2.3-1.63.35-.8.98-1.95 1.4-2.56s.85-1.46.96-1.88c.1-.43.64-1.43 1.18-2.23s1.25-2.05 1.58-2.77c.32-.73 1.26-2.7 2.07-4.37 1.31-2.67 1.57-3.04 2.15-3.04.82 0 1.05 1 .4 1.72-.24.26-1.09 1.77-1.88 3.35l-2.49 4.85a39 39 0 0 0-1.45 3.09c-.24.6-.6 1.24-.8 1.42-.22.17-.51.78-.66 1.34s-.39 1.03-.51 1.03c-.13 0-.44.62-.69 1.39a7 7 0 0 1-.95 1.93c-.78.87-.61 1.41.63 1.98 1.5.67 1.66.65 2.32-.28m.1-25.4c-.7-.27-.82-.9-.87-4.45-.02-1.55-.1-3.9-.2-5.21-.2-3.08-.1-3.19 3.1-3.12 2.92.06 3.8.47 4.26 1.96.3 1.03.2 1.94-.4 3.42q-.14.4.7.93c.99.62 1.62 2.2 1.39 3.46a4 4 0 0 1-1.03 1.73c-.78.8-1.12.94-3.12 1.23-2.56.37-3.05.37-3.83.06m5.23-2.62c.68-.84.61-1.58-.22-2.45-.58-.6-.94-.75-1.95-.75-1.66 0-2.18.57-1.96 2.15.27 1.94.22 1.9 2.02 1.77 1.28-.1 1.72-.24 2.1-.72m-1.61-5.32q.52-.28.51-1.14c0-1.37-.48-1.81-1.86-1.71-1.15.08-1.18.1-1.26 1.06q-.18 2.06 1.3 2.06c.44 0 1.03-.12 1.3-.27m5.63 4.64c-.21-.57.11-1.68.67-2.28.27-.28.98-1.5 1.6-2.7.6-1.19 1.45-2.72 1.86-3.4s.82-1.6.89-2.02c.07-.43 1-2.43 2.05-4.45l2.54-4.84c.34-.65.62-1.43.62-1.74s.37-1.13.82-1.81c.6-.91.98-1.24 1.46-1.24.35 0 .7.17.79.38.17.46-1.25 3.54-2.12 4.57-.66.8-1.75 3.09-1.75 3.69 0 .2-.1.36-.23.36-.12 0-.54.74-.94 1.65s-.8 1.84-.92 2.05l-.55 1.06c-.56 1.07-.72 1.36-1.8 3.3a25 25 0 0 0-1.43 3.05c-.22.66-.69 1.63-1.03 2.15a31 31 0 0 0-1.09 1.79c-.48.88-1.18 1.09-1.44.43m15.35 23.34c.53-1.06.96-2.03.96-2.17 0-.13.22-.48.49-.78s.65-.97.84-1.47c.2-.51.7-1.28 1.1-1.7.41-.44.75-1.01.75-1.3 0-.67.6-1.94 2.3-4.85a21 21 0 0 0 1.4-2.68c0-.37 2.35-5.03 2.62-5.2.12-.08.5-.83.83-1.67s.75-1.7.93-1.92c.17-.22.46-.84.63-1.38a9 9 0 0 1 .92-1.86c.91-1.35 2.37-4.28 3.95-7.94.62-1.43.81-2.94.46-3.6q-.63-1.18-.95.26c-.19.83-1.42 3.43-1.75 3.67-.1.08-.67 1.18-1.27 2.45s-1.69 3.42-2.42 4.76a79 79 0 0 0-2.4 4.9c-.6 1.36-1.61 3.27-2.25 4.24s-1.28 2.2-1.42 2.73a4 4 0 0 1-.88 1.6c-.34.34-.7 1.03-.8 1.53s-.44 1.27-.77 1.72-.9 1.47-1.25 2.27c-.36.8-.98 1.98-1.39 2.63s-.73 1.32-.73 1.5-.12.36-.26.4c-.3.1-1.83 3.9-2.04 5.06-.13.66-.06.73.65.73.7 0 .88-.19 1.75-1.93m-48.08-6.48 1.03-1.65c.33-.5.8-1.52 1.07-2.25.26-.73.8-1.82 1.22-2.43.4-.6.74-1.23.74-1.4 0-.45 1.55-3.4 2.54-4.84a10 10 0 0 0 1.16-2.3c.15-.54.58-1.45.95-2 .69-1 2.23-4.1 2.23-4.48 0-.1.23-.5.5-.9a47 47 0 0 0 2.97-5.33 89 89 0 0 1 4.5-8.55 6 6 0 0 0 1.03-2.25c0-.39.24-1.06.53-1.5a3 3 0 0 0 .52-1.39c0-.55-.11-.6-1.52-.6-.83.01-1.67.11-1.86.23-.36.23-1.73 2.7-3.4 6.12-.54 1.1-1.3 2.48-1.71 3.08s-1.65 2.98-2.75 5.29a130 130 0 0 1-3.73 7.38l-1.14 2.25c-.12.21-.73 1.46-1.37 2.77a25 25 0 0 1-1.33 2.52c-.1.07-.47.73-.83 1.45l-1.82 3.58c-.63 1.25-1.56 3.12-2.06 4.17l-.9 1.91.64.7c1.2 1.3 2.17 1.44 2.79.42m-4.67-2.44c.18-.44.42-.8.53-.8s.29-.32.39-.7c.1-.4.4-1.04.69-1.44s.5-.8.5-.9c0-.33 1.91-4.21 2.43-4.95.28-.4 1.14-1.94 1.91-3.44l1.96-3.78c.3-.58.88-1.77 1.28-2.65s.81-1.65.93-1.73c.12-.07.76-1.32 1.43-2.77a86 86 0 0 1 1.5-3.17 65 65 0 0 0 2.89-5.77 10 10 0 0 1 1.06-2c.62-.8 2.35-4.44 2.35-4.97 0-.26-.42-.36-1.55-.36-2.02 0-2.13.13-4.96 5.7a70 70 0 0 1-1.97 3.56c-.57.95-1.12 1.95-1.22 2.22s-.47 1.05-.83 1.72l-1.44 2.68c-.76 1.42-3.65 6.88-4.33 8.2-.19.37-.38.96-.43 1.33-.05.36-.41 1.09-.8 1.61s-.73 1.07-.73 1.21c0 .15-.36.77-.8 1.37s-1.27 2.14-1.86 3.4a14 14 0 0 1-1.31 2.46c-.28.17-1.06 2.24-1.06 2.8 0 .46 2.04 1.96 2.66 1.96.25 0 .6-.34.78-.8m-4.96-2.05c.33-.38 2.85-5.48 2.85-5.77 0-.05.4-.78.89-1.63q2.29-3.96 2.28-4.3c0-.13.74-1.56 1.65-3.18 2.08-3.7 2.9-5.25 4.66-8.74.77-1.53 1.54-3.01 1.7-3.3l1.58-3 1.51-2.9c.6-1.12 1.94-4.3 1.84-4.39a8 8 0 0 0-1.48-.25c-1.32-.15-1.4-.12-2.35.87-.94.97-2.55 3.8-4.17 7.36-.42.9-.86 1.64-.98 1.64s-.36.45-.53 1c-.18.54-.72 1.66-1.21 2.48-.5.82-.9 1.57-.9 1.66 0 .1-.41.83-.92 1.63s-1.28 2.19-1.71 3.1c-.44.9-.9 1.82-1.04 2.04-.13.22-.57 1.17-.97 2.12-.4.94-.95 2.03-1.22 2.42s-.49.8-.49.94c0 .27-3.08 6.37-3.92 7.77-.57.94-.57.96-.07 1.42.47.42 2.05 1.36 2.43 1.44.09.02.34-.18.57-.43m-3.93-4.27c.66-1.15 1.4-2.29 1.63-2.52s.65-1.05.92-1.81c.72-2.03 2.23-4.98 3.01-5.89.38-.44.69-.94.69-1.11 0-.44 4.1-8.42 4.75-9.26.3-.37.54-.84.54-1.03 0-.45.65-1.83 2.57-5.4l1.93-3.61c1.12-2.12.98-2.48-.96-2.48-1.42 0-1.56.07-2.5 1.07a4.6 4.6 0 0 0-1.12 1.97c-.14.83-1.11 2.54-1.58 2.74-.1.05-.2.24-.2.42s-.35.8-.78 1.36a5 5 0 0 0-.8 1.28c0 .26-2.7 5.78-2.93 5.98a52 52 0 0 0-1.69 3.3 37 37 0 0 1-1.73 3.32c-.3.22-1.5 2.68-2.38 4.89a10 10 0 0 1-1.22 2.41c-.2.16-.37.4-.37.53s-.37.93-.81 1.77c-1.07 2.03-1 3.05.28 3.69.5.25 1.06.46 1.23.46s.85-.94 1.52-2.08m-4.93-2c.48-.85.94-1.84 1.03-2.2.09-.35.54-1.14 1-1.75a16 16 0 0 0 1.56-2.81c.4-.95.84-1.9.97-2.12.25-.4 1.48-2.56 2.04-3.57.16-.3.98-1.96 1.81-3.7a52 52 0 0 1 1.97-3.84c.25-.37.6-1.14.79-1.72.18-.59.78-1.84 1.34-2.78 1.2-2 2.53-4.85 2.78-5.89.17-.69.13-.73-.74-.73-1.64 0-2.52.48-2.87 1.55a7 7 0 0 1-.92 1.76c-.32.44-.78 1.21-1.01 1.72-.61 1.34-1.7 3.2-2.15 3.71-.22.24-.4.5-.4.6 0 .2-3.42 7.24-4.2 8.66-.28.5-.77 1.52-1.08 2.24a58 58 0 0 1-3.2 6.15 11 11 0 0 0-1.05 2.38c-.19.7-.5 1.5-.7 1.79-.58.87-.4 1.36.65 1.8.54.22 1.1.37 1.25.34.15-.04.66-.75 1.13-1.6m-4.43-1.54c0-.14.16-.62.37-1.08l1.1-2.49c.39-.91.81-1.65.94-1.65s.7-.99 1.29-2.19c1.32-2.7 5.42-10.52 6.44-12.26a20 20 0 0 0 1.39-3.31c.35-1.11.86-2.3 1.13-2.65.27-.34.63-1.07.81-1.62s.43-1 .57-1 .24-.29.24-.65c0-.6-.1-.67-1.04-.67-2.1 0-2.66.57-3.94 3.91a9 9 0 0 1-.8 1.69c-1.62 1.95-2.12 2.81-2.69 4.6a8 8 0 0 1-.79 1.71c-.92 1.33-3.44 6.37-3.44 6.9 0 .29-.17.6-.38.67-.22.09-.47.4-.56.72s-.65 1.53-1.22 2.7c-.97 1.93-2.6 6.03-2.6 6.51 0 .12.5.43 1.12.71 1.01.45 1.18.46 1.6.1.25-.22.46-.51.46-.65m-4.36-2.58c1.4-2.94 2.66-5.4 2.9-5.66.16-.16.73-1.3 1.29-2.54a49 49 0 0 1 1.68-3.42c.37-.64 1.38-2.6 2.24-4.36a63 63 0 0 1 2.66-5.15c1.89-3.28 2.6-4.69 2.52-5.03-.09-.48-1.43-.88-2.34-.68-.66.14-2.63 2.7-2.63 3.42 0 .18-.3.67-.66 1.09s-.66.9-.66 1.07c0 .25-1.63 3.24-2.64 4.86-.14.22-.8 1.59-1.46 3.04-1.56 3.4-1.52 3.33-2.2 3.78-.94.63-1.01-.25-.17-2 .4-.83 1-2.27 1.34-3.18.32-.92.78-1.96 1.01-2.31.77-1.17 1.74-3 1.74-3.28 0-.15.59-1.26 1.3-2.48a13 13 0 0 0 1.4-2.98c.07-.74.03-.78-1.07-.86-1.32-.1-1.93.31-2.43 1.62a22 22 0 0 1-2.37 4.41c-.4.51-.92 1.47-1.17 2.12a7 7 0 0 1-.81 1.59 3 3 0 0 0-.54 1.03c-.1.35-.53 1.21-.95 1.92-.93 1.57-4.63 9.14-4.86 9.92-.09.32-.34.72-.55.9-.73.6-.44 1.29.8 1.9.76.36 1.29.48 1.44.32.14-.14 1.04-1.79 2-3.67 1.8-3.57 2.36-4.38 2.96-4.38.66 0 .37 1.58-.68 3.65-1.68 3.32-2.4 4.9-2.4 5.24 0 .44 1.6 1.4 2.23 1.34.33-.03.72-.48 1.08-1.24m-9.04-3.64a33 33 0 0 0 1.75-3.6c0-.1.36-.66.8-1.27.43-.6.8-1.22.8-1.38s.36-.82.8-1.47.97-1.8 1.2-2.56.55-1.5.73-1.65c.3-.25.9-1.48 2.12-4.35.24-.55.96-1.8 1.6-2.77 1.65-2.52 1.75-4.37.23-4.1-1.06.2-1.24.4-2.6 2.94a29 29 0 0 1-1.58 2.69c-.19.21-2.13 3.94-4.32 8.28a214 214 0 0 1-4.3 8.28c-.4.49-.06.87 1.15 1.32 1.22.44 1.19.45 1.62-.36m-2.8-3.96a60 60 0 0 0 2.73-5.49c.13-.3.83-1.6 1.54-2.92 2.44-4.46 3.46-6.58 3.46-7.18 0-.83-1.3-1.5-2.23-1.16-.81.31-1.5 1.37-3.41 5.34-.82 1.7-1.6 3.13-1.72 3.18s-.84 1.34-1.6 2.87a44 44 0 0 1-2.3 4.1 6 6 0 0 0-.91 1.65c0 .45-.7.42-.88-.04-.08-.2.08-.76.35-1.25.28-.5.86-1.6 1.3-2.48s1.3-2.48 1.89-3.57c.59-1.1 1.31-2.58 1.6-3.3.3-.74.89-1.87 1.31-2.54s.91-1.62 1.08-2.12.51-1.2.76-1.57c.91-1.32.9-1.79-.05-2.38-.5-.3-1.22-.5-1.67-.47-.69.07-.83.23-1.19 1.4-.22.73-.73 1.87-1.13 2.54a8 8 0 0 0-.73 1.4c0 .11-.35.72-.79 1.35s-.8 1.28-.8 1.43c0 .31-1.28 2.8-2.26 4.4-.36.57-.94 1.66-1.28 2.4a6 6 0 0 1-.92 1.54c-.5.31-.34 1.8.28 2.45.32.34.72.61.89.61s.78.32 1.34.71c.57.4 1.45.86 1.96 1.05 1.8.66 1.97.56 3.37-1.95m-43.53 1.02c.4-.16.72-.49.73-.75 0-.26.24-.83.53-1.27.3-.43.74-1.2.98-1.72.24-.5.52-.98.62-1.06.33-.25 2.63-5.11 2.63-5.57 0-.26.1-.5.2-.55.38-.16 2.05-3.17 3.1-5.59a14 14 0 0 1 1.37-2.6c.2-.17.35-.47.35-.68 0-.3-.34-.36-1.52-.3-1.44.08-1.53.12-1.78.9-.15.45-.43 1-.62 1.24a23 23 0 0 0-1.38 2.48 94 94 0 0 1-1.7 3.26 5 5 0 0 0-.67 1.62c0 .24-.17.58-.38.75s-.99 1.53-1.74 3a44 44 0 0 1-1.6 2.98c-.12.15-.57 1.18-1 2.3-.95 2.46-.78 2.6 1.88 1.56m-3.85-.76c.7-1.37 1.44-2.77 1.71-3.24a20 20 0 0 0 .64-1.32c.22-.51.8-1.76 1.29-2.78l1.95-4.12a13 13 0 0 1 1.61-2.75c.71-.64 2.2-3.71 2.09-4.3-.07-.35-.4-.5-1.22-.56-1.28-.09-1.66.19-2.13 1.54-.18.51-.62 1.38-.99 1.93-.36.55-.78 1.26-.92 1.59-.13.32-.36.76-.5.98a37 37 0 0 0-1.11 2.25 17 17 0 0 1-1.6 2.77c-.41.5-.75 1.22-.75 1.59 0 .36-.17.96-.38 1.33-.97 1.7-1.23 2.54-1.08 3.44.4 2.33.48 2.64.67 2.64.12 0 .44-.44.72-.99m8.28-.4c1.7-.62 2.02-.95 3.02-3.03.55-1.13 1.21-2.48 1.48-2.99 1.79-3.36 4.76-9.6 4.76-9.99 0-.15.16-.33.37-.41.59-.23 1.07-1.97.68-2.44-.75-.9-1.7-.23-1.63 1.14.08 1.23-.43 1.79-1.38 1.55-.64-.16-1.48.36-1.48.92 0 .48-2.65 5.83-3.33 6.72-.37.49-1.08 1.86-1.59 3.06-.5 1.2-1.1 2.54-1.34 3-.81 1.55-.89 1.74-.89 2.27 0 .62.1.64 1.33.2m30.41-4c.18-.52.44-1.03.59-1.12s.48-.65.76-1.26a48 48 0 0 1 1.87-3.6l1.26-2.39 1.99-3.8c.52-1 .95-2.08.95-2.4 0-.53-.11-.57-1.52-.52-.84.03-1.71.06-1.95.08s-.6.36-.8.76-.81 1.4-1.36 2.23a9 9 0 0 0-.98 1.75c0 .13-.3.76-.66 1.4a14 14 0 0 0-1.25 2.69c-.15.4-.38.72-.5.72-.13 0-.24.18-.24.4s-.09.4-.2.4c-.1 0-.53.74-.95 1.65s-.92 2-1.12 2.4c-.55 1.11-.47 1.44.49 1.93.47.24 1.14.66 1.48.93.62.48.63.48 1.22-.4.34-.49.75-1.32.92-1.84M346.5 78.8c1.1-.29 1.98-1.1 1.98-1.84 0-.23-.25-.68-.55-1-.85-.9-.48-1.7.8-1.7 1.2 0 1.26-.07 2.55-2.64.54-1.1 1.2-2.27 1.48-2.62.27-.34.49-.83.49-1.07s.35-.92.78-1.49.8-1.14.8-1.26.2-.63.43-1.13c.48-1 .33-2.08-.32-2.33a3 3 0 0 0-1.42.14c-.8.24-1.11.54-1.68 1.65-.38.75-.99 1.84-1.35 2.42l-.65 1.06.54 1.53c.3.84.47 1.7.38 1.92-.24.63-.93.75-1.48.25-.28-.25-.68-.4-.88-.32-.27.1-3.64 6.45-4.64 8.76-.11.25 1.06.1 2.74-.33m4.03-1.26c-.09-.08-.32-.1-.5-.02q-.32.14.15.16c.28.01.44-.05.35-.14m-21.3-.56c.44-.5 1.08-1.67 2.2-4.04a46 46 0 0 1 1.68-3.44c.13-.22.46-.93.72-1.59a7 7 0 0 1 .64-1.32 9 9 0 0 0 1.62-3.44c.09-.9.06-.93-.89-1-.84-.08-1.1.05-1.93.92a5 5 0 0 0-1.11 1.66c-.45 1.77-2.05 4.64-4.67 8.34-.2.3-.44 1.05-.52 1.67-.12 1-.04 1.24.63 1.92.88.9 1.08.94 1.63.32m35.45-1.33c.17-.4.46-.9.63-1.12.18-.22.82-1.53 1.43-2.91.6-1.38 1.3-2.7 1.56-2.91.26-.22.75-1.11 1.09-1.99s.95-2.05 1.36-2.63c1-1.4 1-2.15-.04-2.35-.43-.09-1-.09-1.25 0-.67.24-1.66 1.18-1.66 1.57 0 .18-.3.68-.66 1.12-.37.43-.66.92-.66 1.1 0 .47-2 3.77-2.62 4.34-.3.28-.56.64-.56.8s-.42 1.1-.93 2.08c-.5.98-.92 1.95-.92 2.15 0 .4 1.67 1.39 2.45 1.45.28.02.6-.26.78-.7m-38.78-1c.74-.56.89-.85.89-1.7 0-.63.31-1.6.83-2.56.46-.85 1.3-2.5 1.88-3.67a20 20 0 0 1 1.44-2.55c.21-.24.35-.78.3-1.2-.07-.64-.21-.75-1.01-.82-1.21-.09-2.52.72-2.76 1.7-.2.83-1.2 3.13-2 4.6-1.24 2.25-2.65 5.15-2.65 5.45s1.47 1.36 1.96 1.4c.13.01.64-.28 1.12-.65m30.6-2.8c.36-.66.97-1.7 1.35-2.3s.69-1.36.69-1.68.18-.78.4-1.02c.22-.25.88-1.39 1.45-2.54.96-1.9 1.01-2.11.6-2.41-.86-.66-2.64-.26-3.55.8-.28.32-.8 1.18-1.15 1.9-.36.73-.77 1.5-.91 1.73-.83 1.23-2.66 4.9-2.58 5.14.05.15.5.28 1 .28.84 0 .9.06.98.93.12 1.52.3 1.77.7 1.04zm-3.78 1.49c0-.22-.12-.4-.27-.4-.14 0-.26.18-.26.4s.12.4.26.4.27-.18.27-.4m-31.22-.52c0-.17.46-1.2 1.02-2.28a24 24 0 0 0 1.22-2.63c.11-.36.43-.91.72-1.22.28-.32.55-.73.58-.93a8 8 0 0 1 1.17-2.4c.81-.97-.56-1.75-2.12-1.2-.63.21-1.04.8-2.24 3.2a25 25 0 0 1-1.7 3.1c-.14.08-.52.86-.86 1.74-.7 1.77-.6 2.15.74 2.85.8.4 1.47.3 1.47-.23m-4.2-1.9c.27-.24.5-.55.5-.68 0-.42 1.63-3.76 2.42-4.94.44-.65.8-1.56.83-2.11.05-.96.05-.96-1.14-1.04l-1.2-.08-1.08 1.67c-1.98 3.05-3.05 5.18-2.96 5.92.05.5.36.86 1 1.2 1.12.6 1.04.6 1.64.06m-3.11-4c.55-1.13 1.28-2.61 1.64-3.3.35-.7.64-1.32.64-1.4 0-.28-1.66-.1-2.37.26-.8.41-3.19 4.5-3.19 5.45 0 .59.68 1.02 1.6 1.03.59.01.82-.27 1.68-2.04m-4.67-.31c.33-.28.6-.69.6-.91s.26-.94.57-1.59c.68-1.4.52-2.15-.43-1.91-1.94.49-2.43 1.06-2.88 3.3-.3 1.55.89 2.16 2.14 1.1m-3.66-2.01c1.54-1.75.77-2.87-1.55-2.24-.85.22-1.06.42-1.21 1.11-.16.71-.08.94.52 1.45.95.82 1.27.78 2.24-.32m82.58-2.13c0-.5-.18-.65-.96-.8-1.56-.29-1.76.91-.24 1.48.77.28 1.2.04 1.2-.68m-87.18.28c0-.14-.45-.3-1-.34-.93-.08-1.23.14-.8.58.28.27 1.8.08 1.8-.24m.66-2.34c.5.02 3.19.02 5.95 0h11.11c44.24.1 57.95.06 58.16-.14.14-.14-.5-.64-1.58-1.23-1-.54-2.28-1.26-2.87-1.59a19 19 0 0 0-2.76-1.15 8 8 0 0 1-2.39-1.19 9 9 0 0 0-1.46-1.04 59 59 0 0 0-6.05-2.7c-.38-.1-.7-.27-.7-.39s-.68-.48-1.52-.81-1.84-.8-2.22-1.03c-4.9-2.88-5.32-3-6.03-1.8-.78 1.31-2.74 3.38-3.2 3.38-.65 0-1.05.56-1.05 1.47 0 1.77-1.68 1.9-1.98.15-.29-1.7-1.32-2.5-5.3-4.03a9 9 0 0 1-1.93-.96c-.2-.18-.52-.34-.72-.34s-1.77-.7-3.49-1.55c-1.71-.85-3.9-1.91-4.84-2.36s-5.13-2.48-9.3-4.53c-4.16-2.05-7.69-3.73-7.84-3.73-.26 0-2.5 4.35-2.82 5.47-.1.31-.42.9-.73 1.29-.31.4-1.62 2.8-2.92 5.36a71 71 0 0 1-2.86 5.3 2.4 2.4 0 0 0-.51 1.16c0 .29-.24.82-.53 1.2-.3.36-.53.81-.53 1 0 .17-.18.47-.4.65-.54.45-1.98 3.17-1.98 3.73 0 .59.73.73 2.77.53.88-.08 2-.14 2.52-.12m43.99-.9c-.6-.59-1.25-2.54-1.04-3.09.5-1.29 2.56.34 2.56 2.03 0 1.25-.79 1.8-1.52 1.07m49.93.6c5.46-.07 10.28-.1 10.72-.1 1.39.05 3.59.05 7.8.02 9.51-.06 29.57-.03 45.78.07 8.3.06 9.52 0 9.52-.39 0-.28-2.26-1.44-4.88-2.5-1.2-.48-3-1.32-4-1.88-5-2.73-4.74-2.65-8.5-2.44q-2.78.17-1.32-1.33c.4-.4.71-.82.71-.92s-.68-.49-1.52-.87c-1.44-.65-6.8-3.3-8.8-4.36-.5-.26-2-.97-3.3-1.57-1.31-.6-2.8-1.38-3.31-1.72s-1.47-.81-2.12-1.04-2.27-1-3.58-1.73a23 23 0 0 0-2.58-1.33c-.12 0-.65-.3-1.19-.66a4 4 0 0 0-1.35-.67c-.2 0-.74-.27-1.2-.6-1.06-.79-3.96-2.3-4.42-2.32-.2 0-1.02-.42-1.82-.92-1.65-1.03-4.48-2.5-4.81-2.5-.13 0-.72-.32-1.32-.7s-4.44-2.36-8.53-4.41a209 209 0 0 1-8.15-4.21 8 8 0 0 0-1.58-.79 5 5 0 0 1-1.27-.61c-.22-.18-1.25-.64-2.29-1.03a8 8 0 0 1-2.38-1.26c-.27-.3-1.62-1.09-3-1.74l-4.64-2.2c-3.5-1.66-4.63-1.93-6.39-1.57a9.2 9.2 0 0 0-5.62 3.3c-.6.8-1.21 1.77-1.37 2.18-.33.9-4.92 10.15-5.21 10.52-.57.72-2.46 4.24-2.61 4.85-.1.39-.38 1-.63 1.37-1.2 1.74-5.52 10.34-5.39 10.7.12.3 1.7 1.16 3.41 1.85 1.65.67 8.13 3.93 8.83 4.45.7.51 1.89.62 1.89.17 0-.15.7-.99 1.56-1.85 1.62-1.61 2.11-1.75 2.87-.81.48.59.41.96-.33 1.84-.37.44-.66.86-.66.95s.52.16 1.16.16c1.29 0 1.88.48 1.62 1.3-.1.35-.5.6-1.08.7-.77.15-.87.24-.6.56.17.22.74.62 1.26.9s1.12.63 1.34.77 1.59.8 3.04 1.47l4.5 2.11c2.56 1.22 2.46 1.2 4.24 1.04.87-.08 6.05-.19 11.5-.25m-21.93-6.72c-.57-.37-.14-1.58.64-1.77 1-.25 1.98.08 1.98.67 0 .97-1.7 1.68-2.62 1.1m4.83-.03c-.81-.32-.92-.63-.46-1.28.49-.7 2.48-.81 3.02-.17.59.71-.08 1.72-1.13 1.7-.47 0-1.12-.12-1.43-.25m6-.07c-.95-.48-1.03-1.44-.14-1.78 2.07-.79 3.75.12 3.15 1.7-.2.52-2.05.56-3.02.08m11.97 0c-1.02-.32-1.37-1.13-.75-1.74.54-.54 2.8-.59 3.42-.07.66.55.54 1.48-.24 1.84-.79.36-1.26.35-2.43-.02m-7.11-.3q-.46-1.21 1-1.59c1.87-.46 3.47.52 2.59 1.58-.44.53-3.39.53-3.6 0m13.28-.04c-.56-.56-.53-.97.11-1.51.63-.54 2.06-.59 2.71-.1.54.42.6 1.24.15 1.7-.47.47-2.48.4-2.97-.1m6.26.14c-1.37-.55-.24-2.1 1.53-2.1 1.09 0 1.58.37 1.58 1.23 0 1-1.63 1.46-3.11.87m6.35-.03c-.18-.18-.33-.66-.33-1.05 0-.6.15-.75.81-.9.47-.1 1.15-.04 1.6.15.67.28.78.45.71 1.15-.07.77-.15.82-1.27.9-.7.04-1.33-.06-1.52-.25m5.4-.14c-.1-.1-.17-.43-.17-.75 0-.7.95-1.19 2.36-1.19q1.89 0 1.35 1.42c-.24.64-.38.7-1.81.7-.85 0-1.63-.08-1.73-.18m12.44 0c-.35-.35-.18-1.62.24-1.78 1.16-.44 3.02.18 3.02 1.02 0 .63-2.75 1.27-3.26.76m4.65-.1c-.65-.25-.79-1.01-.28-1.52.4-.4 1.92-.42 2.61-.05.28.16.51.5.51.79 0 .92-1.49 1.33-2.84.78m5.94.1c-.34-.1-.46-.34-.4-.84.07-.57.27-.75 1.07-.95 1.4-.34 2.38.13 2.27 1.11-.08.66-.18.73-1.27.77-.66.02-1.41-.02-1.67-.1m-17.02-.49c-.22-.56.34-1.13 1.38-1.42 1.7-.47 3.06.42 2.21 1.44-.45.55-3.38.53-3.6-.02m-421 67.05a10 10 0 0 1-4.6-2.2c-.73-.7-.85-1.1-1.15-4.12-.24-2.36-.2-2.9.34-3.69.25-.37.58-.92.73-1.2.14-.3.8-.8 1.45-1.13.66-.33 1.51-.84 1.9-1.12 1.63-1.2 4.36-1.14 6.8.13 1.4.74 1.64 1.22 1.09 2.26-.52.97-1.18 1.1-2.7.5-1-.4-1.77-.53-2.7-.44-1.12.1-1.46.28-2.33 1.21-.98 1.06-1.01 1.14-.84 2.49.16 1.34 1.11 3.4 1.75 3.8.54.34 3.71.12 4.35-.3.77-.5 2.05-.5 2.47 0s.1 2.42-.53 3.04c-.5.5-2.7 1.08-3.91 1.03-.4-.02-1.34-.13-2.11-.26m500.94-.7a8 8 0 0 1-4.73-2.56 10 10 0 0 1-1.5-3.01c-.51-1.7-.54-2.05-.25-3.3.46-1.95.86-2.62 2.3-3.9 1.73-1.53 2.6-1.85 5.1-1.85 3.25 0 4.74.8 4.76 2.56 0 .59-.2 1-.65 1.36-.66.52-.67.52-2.19-.1-1.66-.69-3.31-.8-4.21-.3-1.15.64-2.2 2.3-2.2 3.46 0 1.55 1.74 4.07 2.88 4.17 1.42.12 3.48-.23 3.97-.67.53-.49 1.42-.55 2.16-.15.7.38.7 2.18 0 2.89-1.13 1.12-3 1.6-5.44 1.4m-20.77-4.56a5 5 0 0 0-1.87-.26c-1.65 0-2.1-.3-2.1-1.39 0-.62.2-.84 1.17-1.3 1.06-.52 1.27-.54 2.37-.24 1.54.43 1.8.77 1.7 2.17q-.12 1.8-1.27 1.02m-10-.33c-.64-.16-.85-.37-.85-.8.01-1.23.95-1.78 3.02-1.78 1.27 0 1.52.08 1.9.66.4.61.4.7 0 1.32-.24.36-.58.67-.76.69-1.56.12-2.6.1-3.31-.09m-460.6-.2c-1.09-.44-.98-2.08.16-2.5 1.49-.56 1.95-.62 2.64-.38 1.07.37 1.44 1.94.66 2.73-.46.45-2.5.54-3.47.15m453.63.04c-.8-.25-1.02-.6-.73-1.15.42-.8 1.61-1.18 3.17-1.02 1.25.13 1.42.22 1.64.91.37 1.1-.28 1.5-2.22 1.43-.82-.03-1.66-.1-1.86-.17m19.79-.26c-1.05-1.15-.22-2.16 2.07-2.52.9-.14 1.15-.06 1.8.56.67.64.79.67 1.07.3.81-1.1 3.01-1.3 4.24-.37.76.56.37 1.66-.76 2.13-1.23.52-3.27.5-3.47-.02-.09-.21-.27-.4-.41-.4s-.44.19-.65.4c-.6.6-3.33.54-3.9-.08m-466.86-.05c-.49-.11-1-.32-1.15-.47-.44-.44-.12-1.48.58-1.85.95-.5 3.63-.26 4.11.38 1.23 1.62-.62 2.63-3.54 1.94m6.3-.2c-.5-.25-.95-.65-1-.89-.19-1.04 2.17-2.07 3.56-1.54.9.34 1.14.69 1.15 1.63 0 1.28-1.92 1.7-3.7.8m5.56-.4c-1.15-1.23-.11-2.15 2.28-2 1.13.08 1.32.18 1.54.82q.56 1.57-1.97 1.68c-1.06.05-1.43-.05-1.85-.5M297.15 107l-.66-.34v-6.56c0-3.62.07-6.7.17-6.86.28-.44 6.69-.87 7.5-.5.89.4.89 1.59 0 2.42-.59.55-.8.6-2.36.44-1.25-.13-1.76-.09-1.92.16a2.2 2.2 0 0 0-.21 1.74c.13.59.25.62 2.05.57 2.59-.07 2.55-.08 2.82.64.53 1.38-.33 2.16-2.24 2.04a4 4 0 0 0-1.53.22c-.7.27-.71.3-.71 2.74 0 2.12-.08 2.55-.54 3.05q-.91.98-2.37.24m9.76-6.43c-.29-.36-.28-.54.04-1.11.5-.89 1.85-1.27 2.83-.8.92.44 1.04 1.09.35 1.78s-2.69.76-3.22.12m5.59-.01c-1.9-.8-.33-2.59 1.8-2.06 1.03.25 1.43 1.1.85 1.81-.43.52-1.73.63-2.65.25m4.28-.42a1.3 1.3 0 0 1-.32-.78c0-.58 2.02-1.2 2.64-.82.53.33.67 1.4.23 1.69-.53.33-2.19.27-2.55-.09m-47.55-6.3c-.26-.29-.8-.53-1.21-.53-1.99 0-2.06-2.5-.1-3.33 1.04-.43 1.81-.3 2.63.42.3.26.78.55 1.09.64 1.03.31 1.39 2.03.61 2.96-.48.58-2.45.48-3.02-.16M1.65 91.15l-.89-.25.18-3.63c.11-2.17.07-4.5-.1-5.83-.23-1.78-.21-2.37.09-3.08.53-1.27 1.14-1.52 2.82-1.16 1.02.21 1.74.22 2.73 0 2.36-.52 3.7.35 3.24 2.11-.33 1.24-.57 1.38-2.34 1.36-1.98-.03-2.86.32-2.86 1.14 0 .75.44.91 2.57.91 1.92 0 2.43.34 2.44 1.64.02 1.08-.85 1.54-2.92 1.54H4.86l-.17 2.43a11 11 0 0 1-.37 2.62c-.38.35-1.8.46-2.67.2m258.02-.09c-1.41-.98-.54-3.05 1.29-3.05 1.8 0 2.63 1.45 1.64 2.85-.49.7-2.06.81-2.93.2m11.57-.7q-.55-.21-.55-.9c0-.78.33-1.18 1.39-1.65.65-.28.7-.38.4-.86-.28-.44-.27-.66.07-1.26.31-.56.63-.74 1.43-.8 1.06-.1 1.46.2 1.47 1.1 0 .57-.48 1.1-1.24 1.34-.5.15-.53.26-.27.93.54 1.45-1.06 2.7-2.7 2.1m-71.6-.5a6 6 0 0 0-1.74-.24c-1.96-.03-2.2-.5-1.92-3.65.12-1.42.2-2.89.18-3.25l-.18-3.75c-.15-3.4-.12-3.48 1.46-3.94 1.01-.29 6.47-.37 7.16-.1.65.24 1.15 2 .77 2.69-.48.9-1.9 1.42-3.04 1.1a7 7 0 0 0-1.97-.18c-.88.07-.99.16-1.06.9-.13 1.31.44 1.59 2.47 1.18 1.55-.3 1.78-.3 2.55.16 1.07.63 1.41 1.72.77 2.5-.47.59-.64.6-4.35.42q-1.92-.09-1.34 1.59c.24.66.38.74 1.45.72.65-.01 1.67-.11 2.28-.23.99-.19 1.18-.13 1.79.47.8.8.92 2.35.27 3.3-.38.53-.63.58-2.71.56a13 13 0 0 1-2.83-.25m64.9-.02c-.58-.33-.6-1.38-.04-1.85.3-.25.38-.63.3-1.31-.19-1.33.17-1.84 1.26-1.84 1.07 0 1.52.63 1.29 1.8-.09.45-.03.86.14.96.49.3.32 1.35-.33 1.95-.65.62-1.85.75-2.62.3m-5.1-2.8c-.3-.3-.4-.68-.29-1.23.24-1.16.68-1.57 1.5-1.4.97.19 1.12-.05.52-.82-.77-.97-.27-1.92 1.02-1.92.54 0 .6-.1.48-.74-.19-.96.33-2.12 1.12-2.52.38-.19.74-.68.87-1.2.22-.84.26-.86 1.47-.79 1.24.08 1.25.1 1.25 1 0 .8-.13 1-.86 1.31-1.25.56-1.14 1.46.26 2.07.57.25.73.5.73 1.12 0 .77-.04.8-1.21.8-1 0-1.24-.1-1.36-.53-.17-.65-.6-.7-.6-.06 0 .7-1 2.18-1.48 2.18q-.46-.02-.23.46c.1.26.25.84.32 1.29.1.73.02.86-.74 1.12-1.22.43-2.26.38-2.77-.14m9.55-.5c-.7-.7-.45-1.56.5-1.75.42-.08.52-.28.46-.91-.09-.9.25-1.3 1.3-1.56.55-.13.8-.04 1.12.43.36.52.37.69.07 1.14-.2.3-.64.61-.99.7-.52.12-.62.29-.55.97.06.61-.06.9-.45 1.11-.7.38-.97.36-1.46-.13M12.2 86.32c-1.04-.46-.73-2.1.46-2.4.37-.1 1-.4 1.4-.69.93-.66 1.43-.64 1.94.08.83 1.19.17 3.06-1.1 3.15-1.59.1-2.24.07-2.7-.14m5.62-.2c-.87-.43-1.05-1.56-.34-2.14.81-.65 3.19-.64 3.79.02.6.67.54 1.53-.15 2.01-.67.47-2.43.52-3.3.1m5.8-.37a1.24 1.24 0 0 1 0-2.09c.75-.53 2.3-.53 3.06 0 .55.4.67.38 1.53-.12 1.7-1.01 3.28-.53 3.28.99 0 1.36-1.87 1.85-3.48.9-.77-.45-.8-.45-1.28.14-.58.71-2.22.8-3.12.18m9.85-.77c-.76-.76-.8-1.01-.24-1.58.5-.5 2.93-.57 3.93-.11.97.44 1.15 1.27.42 1.86-.4.33-1.03.48-2.03.48-1.17 0-1.55-.12-2.08-.65m145-1.13c-.7-.17-.92-.55-.92-1.55 0-.77.07-.84 1.46-1.17 1.9-.45 2.86-.16 2.98.89.17 1.42-1.57 2.32-3.52 1.83m-4.9-.4c-1.52-.8-.73-2.08 1.4-2.26 1.65-.13 1.95.19 1.56 1.66-.19.7-.34.8-1.25.87a4 4 0 0 1-1.7-.28m10.12.17c-.65-.3-.36-1.61.52-2.36.75-.63 1.02-.7 2.29-.6 1 .09 1.55.28 1.8.62.52.71.44 1.64-.19 1.98-.6.32-3.9.6-4.42.36m6.09-.24c-1.43-1.01-.23-3.03 1.57-2.67 1.52.3 2.38 1.75 1.47 2.48-.65.52-2.4.63-3.04.19m86.19-.53c-.2-.23-.77-.4-1.36-.4-.83 0-1.09-.12-1.32-.62-.47-1.02.1-1.75 1.33-1.75.58 0 1.16.17 1.35.4.18.21.56.39.84.39 1.3 0 2.04 1.25 1.22 2.06-.44.45-1.67.4-2.06-.08M268.04 80c0-1.86 1.84-2.15 2.46-.4.24.67-.5 1.27-1.55 1.27-.85 0-.9-.06-.9-.87m9-1.5c-.5-.92-.3-1.79.55-2.5.93-.79 1.6-.87 2.2-.27.67.66.51 1.67-.4 2.52-.95.89-1.95 1-2.34.25m-5.4-.43c-.9-.88-.25-2.5 1-2.5q1.22 0 1.22 1.5c0 1.28-1.35 1.88-2.23 1m-3.81-2.81c-.18-.18-.32-.65-.32-1.05 0-1.54 2.97-2.05 3.34-.58.1.37.04.95-.12 1.3-.25.54-.49.65-1.44.65-.63 0-1.29-.15-1.46-.32m6.9.14c-.93-.37.12-2.28 1.18-2.15 1.1.13 1.36.85.6 1.65-.6.65-1.08.79-1.79.5m7.7-1.81c-.1-.22-.1-.7-.04-1.06.13-.66-.15-.9-.46-.4-.09.15-.57.27-1.07.27-.9 0-.91-.01-.91-1.14 0-1.05.08-1.19 1.03-1.72 1.46-.82 2.4-.41 2.4 1.05 0 .58.15.72.93.87.84.16.93.26.93 1.04 0 .68-.15.94-.68 1.18-.93.43-1.95.39-2.14-.1m-10.2-1.3c-.39-.87-.2-1.25.95-1.85 1.32-.7 2.4-.36 2.4.76 0 1.47-2.76 2.37-3.35 1.09m13.74-.89c-.27-.05-.46-.33-.46-.67 0-.95.38-1.28 1.34-1.2.8.08.9.18.9.87 0 .6-.14.81-.66.94-.36.09-.87.12-1.12.06m-9.13-1.97c-.67-.84.02-2.18 1.26-2.45 1.7-.37 3.05 1.27 1.96 2.36-.5.5-2.84.57-3.22.09m7.6-1.4c0-1.57 2.52-2.7 3.19-1.43.22.4.2.64-.04.94a4 4 0 0 1-2.47 1.16c-.55 0-.68-.13-.68-.68m5.4-.17c-.53-.25-.89-1.31-.9-2.63 0-.48 1.05-1.03 1.97-1.03.43 0 .7.22.9.73.31.8.24 2.37-.12 2.7-.43.4-1.29.5-1.86.23m-8.9-1.03c-.28-.17-.46-.6-.46-1.07 0-.66.16-.86.91-1.18 1.23-.51 1.82-.48 2.38.13.52.58.36 1.47-.34 1.84-.8.42-2.02.56-2.5.28m4.05-2.07c-.2-.37-.15-.6.21-.92.96-.87 1.94-.2 1.35.9a.87.87 0 0 1-1.56.02m3.97-1.87c-.74-.74-.34-1.52.91-1.75 1.12-.21 1.6-.05 1.97.65.24.45.18.6-.31.93q-1.67 1.08-2.57.17m213.63-4.97c-.87-.06-1.7-.21-1.83-.35s-.27-1.7-.3-3.49c-.01-1.78-.13-4.69-.24-6.45-.2-3.19-.2-3.22.4-3.54.33-.18 1.97-.43 3.63-.55 2.67-.2 3.1-.18 3.64.23.78.57 1.03 1.48.62 2.25-.47.9-.72.97-3.08.98-2.41 0-2.74.23-2.27 1.55.24.68.3.7 2.5.7 2.54 0 3.15.28 3.15 1.46 0 1.1-.58 1.38-2.97 1.49-1.19.05-2.24.19-2.34.3-.45.5-.5 1.62-.07 2.04.36.37.78.41 2.61.26 2-.17 2.23-.14 2.74.38.66.66.72 1.53.15 2.35-.38.53-.61.58-2.58.53-1.2-.02-2.88-.09-3.76-.14m-30.79-5.5c-1.35-1.15-.52-2.24 1.71-2.24 1.19 0 1.44.1 1.82.68.43.65.42.72-.03 1.26-.72.85-.93.96-1.86.96a2.7 2.7 0 0 1-1.64-.67m5.99.37c-.7-.39-.56-1.32.35-2.3.9-.94 1.34-.94 2.7 0 .9.64.96 1.65.12 2.1-.76.42-2.58.53-3.17.2m5.03.01c-.27-.16-.47-.58-.47-1.02 0-.59.22-.88.94-1.31 1.12-.66 1.91-.7 2.7-.15.59.41.77 1.3.4 1.87-.56.83-2.6 1.18-3.57.61m5.42-.04c-.94-.45-.83-1.92.19-2.44 1-.52 1.62-.51 2.75.03.85.4 1 .4 2 0 1.42-.57 2.08-.55 3.15.1 1.04.64 1.07 1.52.05 2.03-.77.39-3.4.45-3.96.1-.24-.16-.64-.11-1.1.13-.86.44-2.23.46-3.08.05m-22.38-.11c-.39-.39-.16-1.67.34-1.93.77-.42 2.56-.34 3.04.14.51.51.51.64 0 1.37-.34.49-.66.6-1.8.6-.77 0-1.48-.09-1.58-.18M341.28 46.6c-.33-.72-.1-1.44.52-1.65.48-.16 1.42.97 1.33 1.6-.13.92-1.44.96-1.85.05m-.84-2.7a8 8 0 0 1-1.23-3.28c0-.59.15-.79.69-.92.88-.22 1.24.17 1.82 1.96.43 1.33.43 1.43 0 1.92-.49.53-.96.65-1.28.32m-2.05-5.97c-.87-.67-1.66-2.83-1.03-2.83.15 0 .27-.17.27-.37 0-.38.54-.7 1.22-.7.38 0 .95 1.08 1.3 2.45.12.5.02.83-.38 1.24-.64.63-.8.66-1.38.21M79.06 31.27c-.8-.96-.9-1.52-.38-1.95.91-.76 3.36.5 3.36 1.74 0 1.4-1.88 1.53-2.98.21m257.31.58a10 10 0 0 1-.75-1.73c-.57-1.64-.35-2.26.86-2.38 1.27-.13 1.81.83 1.7 3.04-.05 1.08-1.24 1.8-1.8 1.07m-261-3.52c-1.09-.59-1.4-1.33-.88-2.12.32-.5.65-.64 1.43-.64 1.12 0 1.74.5 2.03 1.66.34 1.39-1 1.96-2.59 1.1M60.6 26.77c-.23-.28-.28-1.22-.18-3.32.1-1.98.02-3.64-.23-5.1-.83-4.69-.13-6.35 2.3-5.5.46.15 1.8.29 2.98.29 1.68 0 2.42.13 3.46.62 1.44.67 3.3 2.53 3.3 3.3 0 .25.16.61.33.8.2.18.33 1.02.34 1.96 0 1.3-.16 1.95-.76 3.1-1.2 2.33-2.16 3.15-4.53 3.9-1.55.48-6.59.45-7-.05m7.32-2.94a4.8 4.8 0 0 0 2.05-3.4c.2-2.17-1.25-3.72-4-4.25-.63-.13-.97-.04-1.35.34-.43.43-.53 1.03-.66 3.79-.13 2.99-.1 3.31.35 3.7.59.51 2.67.4 3.61-.18m266.8 2.2c-.63-.32-1.28-1.67-1.32-2.73-.02-.7.84-1.5 1.48-1.39.6.11 1.72 2.25 1.62 3.1-.11.93-.97 1.42-1.77 1.01m-1.97-5.36c-.23-.24-.43-.7-.43-1.02 0-1.35-.41-1.5-3.95-1.52-4.36 0-4.67-.2-3.9-2.41.47-1.34.58-1.4 1.43-.85.76.5 1.53.53 14.13.62 2.9.02 3.43.1 3.97.54.6.49.6.55.22 1.26-.35.65-.6.76-1.98.9-.87.09-2.63.04-3.92-.1-3.09-.34-3.56-.14-3.67 1.58-.07 1.15-.14 1.28-.77 1.35-.38.05-.89-.11-1.13-.35m-4.88-7.19c-.16-.3-.22-1.55-.15-3 .06-1.38.1-3.75.06-5.28l-.06-3.79c0-1.07.48-1.61 1.17-1.34.21.09 1.74.2 3.38.24 2.83.08 3.05.12 4.28.92 2.89 1.85 3.73 3.55 3.34 6.79-.29 2.46-1.06 3.61-3.2 4.74-1.79.94-1.96.98-5.2 1.1-3.1.12-3.37.1-3.62-.38m7.78-2.67c.22-.3.54-.71.72-.9.93-.98 1.02-1.79.4-3.7-.75-2.32-1.44-2.88-3.74-3.04-.9-.07-1.79-.01-1.97.12-.5.34-.51 7.7-.01 8.04.19.14 1.22.2 2.28.14 1.6-.09 2-.2 2.32-.66"/>
</svg>
