<?xml version="1.0" encoding="utf-8"?>
<svg xmlns="http://www.w3.org/2000/svg" xmlns:svg="http://www.w3.org/2000/svg" version="1.1" viewBox="0 0 246 383">
  <title>A full-page image of dozens of circles. Their arrangement appears to be random. Most circles contains either a letter or a number, with the numbers ranging from 1 to 36. Eight or nine circles instead contain a short, irregularly-shaped line. Words are placed in between the circles, arranged in a loop through the entire image, reading clockwise “England expects every man to do his duty.”</title>
  <path d="M187.48 382.63c-2.23-.27-3.86-1.13-5.66-2.98-1.72-1.76-2.31-3.07-2.68-5.91-.32-2.51.9-5.38 3.16-7.45 1.87-1.7 3.53-2.3 6.37-2.3 1.99.01 4.9.72 4.9 1.2 0 .1.32.33.72.5.77.34 2.81 2.73 3.2 3.76.96 2.51 1.03 3.47.42 6.04a9.4 9.4 0 0 1-10.43 7.14m4.3-2.14c2.79-1.06 4.34-3 4.92-6.1a7.6 7.6 0 0 0-.97-4.98 10 10 0 0 0-4.22-3.71 8.2 8.2 0 0 0-8.45 1.82c-3.9 3.88-2.52 10.87 2.57 13.08 1.4.61 4.42.56 6.16-.1m-5.8-2.2c-.07-.22.05-1.68.28-3.25.23-1.58.42-3.42.42-4.1 0-1.46.2-2.06.67-2.06.2 0 1.45 1.28 2.8 2.84 1.34 1.57 2.66 3 2.93 3.2.63.44.61 1.28-.03 1.62-.97.52-1.3.29-3.23-2.3a6 6 0 0 0-1.26-1.4c-.12 0-.3 1.2-.41 2.67-.18 2.5-.23 2.67-.85 2.9-.89.35-1.14.32-1.31-.13m-127.1 2.76a9.26 9.26 0 0 1-7.96-9.22c-.04-4.13 2.55-7.8 6.27-8.93 1.67-.5 4.77-.47 6.4.05a9.2 9.2 0 0 1 6.01 6.72c.83 3.4.04 6.11-2.56 8.73-2.34 2.37-4.61 3.1-8.15 2.65m4.79-2.16c2.96-1.36 4.31-3.57 4.33-7.1.01-1.98-.08-2.43-.74-3.7-.88-1.68-1.84-2.58-3.83-3.6a8 8 0 0 0-6.49-.1 7.8 7.8 0 0 0-4.06 4.48c-1.18 3.97.24 7.62 3.82 9.83 1.95 1.21 4.59 1.28 6.97.19m-6.22-2.57c-.08-.13-.03-1.43.1-2.88.15-1.45.25-3.43.25-4.38-.02-2.34.32-2.79 1.49-1.93.37.27.48.65.44 1.52-.06 1.38.04 1.54 1.38 2.16l1.03.48.83-.81c.46-.45 1.03-.8 1.27-.8 1.42 0 1.74 1.18.51 1.9-.8.49-5.4 4.42-5.55 4.76-.12.29-1.57.27-1.75-.02m2.8-3.4q.36-.45.03-.24c-.18.1-.33.07-.33-.08s-.12-.28-.25-.28c-.14 0-.23.23-.21.53q.06.96.75.08m167.97 5.3a15 15 0 0 1-4.54-2.23c-1.26-1-2.06-2.3-2.8-4.57-.7-2.15-.74-3.3-.18-5.08a9.5 9.5 0 0 1 4.15-5.57c1.7-1.1 4.9-1.63 7.1-1.17 3.01.62 6.16 3.47 7.05 6.37.77 2.52.25 6.68-.98 7.8-.3.26-.54.6-.54.75 0 .4-1.8 1.92-3.19 2.67-1.03.56-4.19 1.28-5.14 1.17zm4.1-1.7c1.3-.32 4.04-2.7 4.7-4.07 1.6-3.33 1.08-6.75-1.41-9.32-3.97-4.06-10.29-3.02-12.91 2.14-.84 1.65-.89 1.88-.78 3.84.1 1.62.28 2.34.8 3.24 2.12 3.57 5.74 5.15 9.6 4.17m-5.13-1.36-1.07-2.84c-.47-1.24-1.08-2.81-1.36-3.5-1.02-2.48-.66-2.58 3-.82 1.42.68 2.64 1.17 2.72 1.09.15-.15-.53-1.83-1.62-3.98-.69-1.36-.79-1.93-.38-2.18.25-.16 6.74 2.59 7.27 3.07.14.13.47.23.73.23.63 0 .9.69.47 1.2-.44.53-1.33.5-2.55-.1-1.79-.87-3-1.36-3-1.2 0 .08.42 1.1.93 2.27 1.02 2.32 1 3.02-.06 3.3-.5.12-1.24-.12-2.82-.92a11 11 0 0 0-2.24-.98c-.05.05.25.8.69 1.65 1.02 2 1.24 3.05.8 3.76-.45.72-1.23.7-1.5-.05m-110.97 1.53c-1.74-.49-4.04-1.93-4.97-3.1a15 15 0 0 1-1.49-2.5c-1-2.18-1.03-5.43-.08-7.37a12 12 0 0 1 3.71-4.23c4.12-2.6 9.88-1.59 12.77 2.24a9.4 9.4 0 0 1-1.7 13.24c-2.09 1.65-5.77 2.42-8.24 1.72m6.3-2.36a8.1 8.1 0 0 0 4.1-6.72c0-1.45-1.02-4.15-2-5.3a9 9 0 0 0-5.87-2.8 9.3 9.3 0 0 0-5.67 2.04c-1.4 1.23-2.39 3.59-2.4 5.74 0 3.67 2.07 6.45 5.85 7.85 1.53.56 4.08.22 5.98-.81m-2.51.1c0-.14.12-.26.26-.26s.27.12.27.26-.12.27-.27.27a.3.3 0 0 1-.26-.27m-3.2-2.44c-.53-.2-.64-.64-.3-1.18.11-.17.85-.35 1.65-.4 1.42-.08 1.45-.1 1.45-.87 0-.79-.01-.8-1.52-.8-1.77-.03-2.25-.33-1.8-1.16.32-.6.4-.63 2.1-.56l1.17.05-.18-1.7c-.2-1.9.09-2.43 1.2-2.27.6.09.62.17.77 4.06.09 2.18.06 4.16-.06 4.4-.17.34-.67.47-2.1.54-1.03.04-2.1 0-2.38-.1m-87.42-2.16c-.73-.2-1.34-.36-1.36-.33-.16.2-2.88-1.93-3.65-2.86-1-1.22-1.99-3.68-2-4.97 0-.4-.12-.73-.27-.73-.14 0-.26-.24-.26-.53s.12-.53.28-.53.26-.27.24-.6-.02-.68 0-.79l.13-.4c.11-.41.7-1.8 1-2.41.49-.94 2.57-2.92 3.68-3.5 1.55-.79 4.43-1.16 6.22-.8 1.82.36 5.03 2.2 5.44 3.1.16.35.37.64.47.64s.27-.85.36-1.88c.47-5 3.97-8.15 9.16-8.23 3.72-.05 7.5 2.43 8.74 5.74 1.15 3.08.58 7.24-1.27 9.26-2.08 2.27-4.1 3.38-6.72 3.7-2.12.27-4.76-.58-6.78-2.19a5 5 0 0 0-1.2-.8c-.05.04-.22.74-.4 1.54-.17.8-.63 2.17-1.03 3.05a5.8 5.8 0 0 1-2.28 2.74c-.86.63-2.06 1.32-2.65 1.53-1.6.57-4.3.68-5.85.25m4.9-1.64a7.2 7.2 0 0 0 3.87-2.52c3.17-4.18 1.8-9.78-2.98-12.13-2.83-1.4-5.25-1.33-7.72.2-1.22.77-2.97 3.11-2.97 3.99 0 .3-.1.6-.23.67-.56.35-.57 2.73-.02 4.5.46 1.5.8 2.03 2.14 3.35 2.32 2.28 4.75 2.88 7.9 1.94m-3.66-2.28a1.4 1.4 0 0 1-.32-.88c0-.31-.16-1.12-.36-1.79-.27-.89-.29-1.25-.07-1.34.55-.23-1.27.03-2.54.36-.69.18-1.43.26-1.65.17-.56-.21-.5-.97.13-1.75.3-.37 1.33-1.89 2.3-3.38 1.72-2.66 2.24-3.08 2.93-2.4.54.55.36 1.21-.72 2.64-1.53 2.02-1.52 2.2.08 2.2 1.12 0 1.39.1 1.64.6.16.33.38.51.48.4.26-.25-.12.78-.44 1.2-.14.17-.15.32-.02.32.12 0 .64-.63 1.15-1.4 1.4-2.12 2.07-2.73 2.6-2.4.73.46.7 1.59-.07 2.35-.37.38-.67.74-.67.82 0 .24-2.07 3.13-2.77 3.87-.76.8-1.19.9-1.68.41m19.63-3.67a7.2 7.2 0 0 0 4.24-2.22 8.2 8.2 0 0 0 1.86-8.11c-.56-1.7-2.5-3.74-4.48-4.72-2.77-1.37-6.4-.65-8.78 1.74-1.75 1.77-2.25 2.9-2.3 5.26-.05 2.68.95 4.65 3.43 6.73.5.43 3.45 1.57 4.1 1.6.22 0 1.1-.12 1.93-.28M46.44 358c-.37-.13-.88-.6-1.15-1.05-.43-.74-.44-.85-.04-1.45.54-.83.75-.81 1.56.15.7.84.9.91 1.43.57.27-.17.2-.55-.33-1.72-.76-1.74-.82-2.54-.26-3.62.5-.96 2.06-1.47 3.2-1.04 1.1.42 1.95 1.3 1.95 2.04 0 1.47-1.11 2.22-1.56 1.06a4 4 0 0 0-.8-1.11c-.52-.47-.6-.48-1-.08-.39.4-.38.53.15 1.75.77 1.8.75 3.47-.05 4.22-.65.61-1.9.73-3.1.28m163.2-6.86a10 10 0 0 1-6.43-5.18c-.68-1.39-.76-1.82-.74-3.97.02-2.2.1-2.56.9-4.05.97-1.84 3.01-3.83 4.62-4.52 2.33-1 5.81-.89 8.19.27 1.19.57 2.9 2.08 3.74 3.3 1.63 2.36 1.84 6.14.5 8.87-1.32 2.66-2.21 3.52-5.03 4.85-1.22.58-4.26.8-5.76.43m4.69-1.34a7.9 7.9 0 0 0 5.11-5.16c.78-2.72.33-4.9-1.58-7.7-1.14-1.67-3.7-2.86-6.17-2.85-3.17 0-6 1.71-7.23 4.36-2.05 4.44.09 9.42 4.84 11.29 1.03.4 3.68.43 5.03.06m-6.02-5.22c-1.13-1.87-2.05-3.6-2.05-3.82 0-.86 1.08-.77 4.37.37 3.25 1.12 4.04 1.2 3.25.3a9 9 0 0 1-.95-1.54c-.3-.6-.73-1.23-.96-1.42-.62-.51-.5-1.22.24-1.56.5-.23.73-.22.94.03.59.66 4.22 6.68 4.22 7 0 .17-.23.44-.51.59-.41.22-1.27.02-4.03-.92l-3.56-1.2c-.15 0 .9 1.88 1.68 3.03 1.03 1.51 1.06 2.37.07 2.48-.59.07-.88-.3-2.7-3.34m-87.68 3.3c-1.24-1.04-1.66-2.11-1.37-3.44.44-1.93 2.56-3.41 4.27-2.98 1.87.47 3.17 2.7 2.59 4.45a3.5 3.5 0 0 1-3.28 2.53c-1.22.1-1.5.03-2.21-.56m2.93-1.07c1.93-.8 1.36-3.61-.73-3.59q-1.63 0-1.93 1.53c-.13.68-.02.96.64 1.63.93.93.86.91 2.02.43m4.69 1.49c-.46-.15-.37-1.3.11-1.49a4 4 0 0 1 1.08-.16h.66l-.19-2.1c-.24-2.8-.05-3.51.89-3.4.72.08.72.08.85 2.72s.13 2.65.83 2.68c.38.01.89.1 1.12.19.5.19.58 1.2.1 1.36-.47.15-5.09.32-5.45.2m23.33-1.5a9 9 0 0 1-4-2.64c-.92-1-2.17-3.16-2.17-3.75 0-.1-.2-.33-.44-.5q-.45-.33-.23-.83c.12-.27.23-1.21.26-2.09.05-1.24.25-1.94.93-3.17 1.44-2.64 2.86-3.84 5.77-4.9 1.99-.72 4.09-.62 6.56.3 1.76.66 4.16 2.85 4.96 4.53a9.9 9.9 0 0 1-.19 8.34c-.86 1.7-3.3 3.88-5.12 4.56a12 12 0 0 1-6.33.15m5.89-1.5a7.7 7.7 0 0 0 5.07-6.88c.2-2.63-.42-4.21-2.43-6.2-1.37-1.37-1.86-1.68-3.32-2.08-5.33-1.49-10.33 2.21-10.32 7.63 0 2.27.7 3.97 2.36 5.66a7.8 7.8 0 0 0 8.64 1.87m-6.36-2.68c-.1-.35-.47-5.42-.52-7.2-.02-.93.07-1.09.72-1.32 1-.35 1.23.08 1.05 1.87-.14 1.3-.1 1.4.49 1.55.34.09 1.28.06 2.08-.06l1.46-.2-.1-1.78c-.08-1.74-.07-1.77.64-1.95 1.07-.27 1.48.44 1.4 2.4-.05.88.02 2.61.13 3.86.18 1.89.14 2.33-.2 2.6-.7.6-1.34.25-1.41-.77-.04-.5-.14-1.31-.22-1.8l-.14-.87-1.88.14c-1.03.08-1.9.18-1.93.22-.04.03.02.72.13 1.52.25 1.83.14 2.12-.83 2.12-.42 0-.81-.15-.87-.33m38.28 3.12a11.5 11.5 0 0 1-4.67-3.14 6 6 0 0 1-.95-1.32c0-.12-.25-.77-.56-1.46a8.4 8.4 0 0 1-.25-5.57c.43-1.53 1.83-3.87 2.69-4.47.26-.19.64-.5.84-.7.89-.89 2.71-1.54 4.7-1.67 3.76-.26 6.95 1.23 8.94 4.18 1.14 1.7 1.37 2.56 1.37 5.14 0 2.09-.59 4.33-1.4 5.33-.79.99-2.26 2.29-3.23 2.87a10.8 10.8 0 0 1-7.48.8m6.45-1.75a9 9 0 0 0 4.18-4.49c1.9-5.3-3.16-11.71-8.68-10.96-1.69.23-4.11 1.43-4.99 2.47-2.38 2.83-2.76 6.86-.91 9.58.33.5.68 1.1.77 1.32.19.5 2.85 2.32 3.87 2.65 1.28.41 4.35.11 5.76-.57m-3.46-3.15c-.63-.7-.34-1.33.61-1.33.88 0 1.45-.55 1.32-1.25-.08-.4-.38-.47-1.99-.47-2.58 0-3.36-.55-3.47-2.45-.06-1.12.02-1.44.53-1.92 1.28-1.22 2.88-1.4 3.54-.4.49.75.28 1.29-.42 1.06-.85-.27-1.84.15-2.02.86-.23.92.22 1.12 2.5 1.12 1.74 0 2 .08 2.58.7 1.2 1.3.51 3.45-1.37 4.23-1.14.48-1.25.47-1.81-.15m-102.94 0c-1.8-.82-4.06-2.87-4.71-4.25a17 17 0 0 1-1.24-4.72c0-1.4 1.08-4.12 2.21-5.58a8 8 0 0 1 3.15-2.5c1.88-.96 2.19-1.03 4.11-1 2.97.03 4.8.77 6.75 2.73 1.93 1.93 2.62 3.45 2.78 6.1.23 3.82-.96 6.32-3.93 8.3-2.87 1.9-6.26 2.25-9.12.93m5.56-.9c3.83-1.02 6.22-4.07 6.22-7.91 0-1.85-.84-4-2.07-5.32-1.14-1.22-4.15-2.55-5.78-2.55-3.6 0-6.5 1.94-7.64 5.1-1.16 3.22-.75 5.5 1.41 7.88 1.6 1.76 2.46 2.3 4.42 2.8 1.73.42 1.89.42 3.44 0m.25-3.07c-.3-.12-.76-.56-1.03-.97-.26-.42-.71-1.02-1-1.34l-.53-.58-1.22 1.31c-.9.97-1.4 1.3-1.96 1.3-1.38 0-1.18-.7.7-2.61l1.77-1.78-1.13-1.44c-.62-.8-1.22-1.5-1.33-1.58-.1-.08-.27-.53-.37-1-.16-.8-.12-.84.6-.84 1 0 1.15.13 2.32 1.92a6 6 0 0 0 1.2 1.52c.12 0 .67-.57 1.23-1.26 1.25-1.55 1.38-1.64 2.29-1.65 1.25 0 .94 1-.86 2.78-.87.86-1.59 1.65-1.59 1.75 0 .16.94 1.37 2.38 3.08.48.57.48 1.38 0 1.38-.12 0-.38.06-.57.12-.2.06-.6.01-.9-.1m-87.83 3.6c-2.54-.83-5.13-3.05-5.56-4.76-.1-.38-.27-.7-.39-.7-.1 0-.29-.44-.39-.99-.1-.54-.26-1.1-.34-1.25-.4-.64.21-4.25 1-5.87.7-1.48 2.61-3.25 4.42-4.1 1.62-.77 1.87-.82 4.01-.69 2.98.18 4.99.98 6.68 2.65a9 9 0 0 1 2.61 7.94c-.26 1.94-.95 3.9-1.36 3.9-.12 0-.22.16-.22.36 0 .59-2.06 2.28-3.63 3-1.77.81-5.16 1.07-6.83.52m4.92-1.38c2.16-.64 3.19-1.33 4.27-2.88a7.94 7.94 0 0 0-4.2-12.3 8.6 8.6 0 0 0-6.06.67 7.6 7.6 0 0 0-3.47 3.8 7.6 7.6 0 0 0 .46 6.76c1.3 2.36 2.44 3.28 5.01 4a5.8 5.8 0 0 0 3.99-.05m-4.91-3.71c-2.96-1.08-4.24-5.4-1.6-5.4q.39.02.4.65c0 .8.93 2.41 1.54 2.68 1.65.73 3.61.03 4.01-1.44q.52-1.89-1.53-3.31c-1.18-.82-1.25-.98-.83-1.77.75-1.4 3.5.32 4.18 2.63a4.9 4.9 0 0 1-.24 3.86c-.48 1.08-.76 1.34-2 1.89-1.63.72-2.42.76-3.93.21m107.22-1.44c-2.65-.44-3.85-1.03-5.57-2.72-1.58-1.56-1.83-1.98-2.53-4.17-.74-2.33-.1-6.12 1.37-7.94l.97-1.21c.56-.7 2.33-1.8 3.58-2.22.58-.2 2.06-.36 3.3-.35 1.92 0 2.49.12 3.83.76a9.4 9.4 0 0 1 5.3 10.59 10 10 0 0 1-4.76 6.28c-1.04.53-3.45 1.28-3.97 1.22zm4.02-1.86q4.89-2.22 4.9-7.39c0-1.09-.09-2.32-.2-2.73-.18-.65-.27-.7-.62-.41-.47.39-.87.63-2.5 1.52-.99.54-1.37.6-2.87.47-3-.27-4.46-.64-6.17-1.54-1.18-.63-1.65-1.03-1.65-1.4 0-.82.75-.78 2.63.12 1.26.6 2.39.9 4.13 1.1 2.35.25 2.44.24 3.77-.46.76-.4 1.67-.8 2.03-.9.66-.2.65-.2-.67-1.5a8.4 8.4 0 0 0-11.53-.3c-1.02.88-2.17 3.28-2.38 4.97a7 7 0 0 0 .37 3.27c.8 2.65 2.61 4.4 5.75 5.54 1 .37 3.87.16 5-.36M65.5 325a11 11 0 0 1-4.03-2.65c-.9-1.07-2-3.4-2.2-4.72l-.17-1.06-2.16-.18c-2.38-.2-4.56-1.03-5.81-2.22-1.2-1.13-2.56-3.11-2.56-3.7 0-.3-.1-.62-.24-.7-.5-.3-.59-3.15-.15-4.65.23-.8.49-1.78.57-2.18.08-.42.86-1.45 1.8-2.38 2.07-2.09 3.7-2.72 7.02-2.7 1.94 0 2.45.1 3.75.75 1.65.83 3.27 2.2 4.16 3.53.46.68 1.32 3.65 1.34 4.64 0 .1 1.03.2 2.28.2 2.02 0 2.45.09 3.96.84a9.28 9.28 0 0 1-.8 17.12c-1.9.71-5.04.74-6.76.06m6.53-1.52c2.75-1.15 4.9-4.08 4.92-6.7.04-4.74-3.05-8.21-7.7-8.65-1.93-.18-2.69.06-2.69.85 0 .2-.23.99-.52 1.76-.62 1.64-2.62 3.8-4.4 4.73-1.14.6-1.19.68-1.04 1.56.4 2.33 2.55 5.24 4.64 6.26a9 9 0 0 0 6.79.19m-5.36-2.52c-.72-.35-1.43-1.84-1.43-3.01 0-1.62 1.66-5.18 2.58-5.54.57-.22 1.12.15 1.11.74 0 .32-.36.98-.8 1.49-.42.5-.78 1-.78 1.12s.49.21 1.08.21c1.47 0 2.36.9 2.36 2.39 0 .6-.12 1.31-.27 1.6-.58 1.09-2.59 1.6-3.85 1m2.11-1.63c1-.73-.06-2.53-1.1-1.87-.64.4-.72 1.1-.18 1.7.55.6.66.62 1.28.17m4.58.68c-.07-.11-.2-.8-.3-1.53-.33-2.4-.4-2.89-.7-4.56-.37-2.03-.22-2.51.75-2.4.72.08.73.1 1.31 3.92.32 2.11.52 4.05.45 4.3-.14.46-1.28.66-1.51.27m-14.26-5.15c.17-.18.32-.5.32-.73 0-.81 1.27-3.12 2.32-4.22.6-.62 1.7-1.45 2.48-1.86 1.27-.66 1.41-.82 1.38-1.56-.06-1.22-1.48-4.05-2.58-5.16a10 10 0 0 0-2.09-1.54c-1.33-.68-4.32-.95-5.88-.52-1.39.37-3.35 1.65-3.19 2.08.07.18 0 .3-.17.26-.36-.07-1.58 1.74-2 3-.45 1.3-.4 3.62.08 5.04a9.6 9.6 0 0 0 4.01 4.5c1.99.95 4.7 1.32 5.32.7m-5.87-4.78a3 3 0 0 1-1.4-1.47c-.35-.83-.35-1.03.04-1.88.4-.88.4-1.02 0-1.82-1.14-2.27 1-4.57 3.47-3.75.75.25.9.43.9 1.06 0 .97-.36 1.18-1.35.77-.67-.27-.86-.26-1.2.07-.32.32-.33.52-.06 1.1.17.38.46.7.64.7.7 0 .61.81-.15 1.6-.43.44-.79.88-.78.99 0 .58.6.96 1.5.97.89 0 1 .09 1 .66q.01.65-.79 1.1c-.76.42-.84.42-1.82-.1m5.4-3.88c0-2.17.07-4.13.15-4.36.1-.23.45-.42.8-.42.63 0 .63.01.63 2.98 0 1.63-.08 3.6-.17 4.36-.15 1.24-.24 1.39-.8 1.39h-.62Zm4.36 6.63c1.26-1.2 1.79-2.03 2.09-3.29.17-.7.14-.73-.43-.42a5.6 5.6 0 0 0-2.82 2.9c-.6 1.17-.72 1.58-.42 1.47.24-.1.35-.05.25.1-.08.15-.33.26-.54.26-.2 0-.38.12-.38.26 0 .47 1.02-.11 2.25-1.28m161.8 7.7c-3.36-1.37-5.06-3.07-6.07-6.07a8.7 8.7 0 0 1 1.13-8.11c2.04-3.07 4.38-4.25 8.1-4.09 1.78.08 2.57.25 3.74.82 1.85.9 3.76 2.8 4.61 4.61 1.29 2.7 1.1 6.48-.41 8.77a15 15 0 0 1-4.36 3.93c-1.24.66-5.26.74-6.75.13m5.87-1.4a9.3 9.3 0 0 0 4.26-3.82c.47-.87.57-1.5.57-3.59 0-2.16-.09-2.71-.63-3.78-1.5-2.9-4.85-4.87-7.76-4.55-1.81.2-2.99.58-3.96 1.26-2.37 1.65-3.95 5.4-3.4 8.11.15.78.54 1.96.87 2.61a9.3 9.3 0 0 0 4.24 3.87c1.66.58 4.15.54 5.8-.11m-1.51-5.64a4 4 0 0 1-1.16-.78c-.27-.33-.61-.4-1.35-.28-1.22.2-1.98-.18-2.54-1.26-.47-.91-.37-1.67.44-3.27 1.12-2.22 1.08-2.2 2.96-1.2.9.48 2.58 1.34 3.7 1.9 1.14.57 2.13 1.2 2.2 1.39.23.57-1.27 2.73-2.3 3.32-1.12.63-.95.62-1.95.18m1.52-1.86c.69-.52.56-1.15-.32-1.6-.73-.39-.8-.38-1.06.1-.36.67-.35 1.16.04 1.55.4.4.76.4 1.34-.05m-3.48-1.03c.71-.54.87-1.48.35-2.06-.63-.7-1.3-.64-1.66.17q-.6 1.3.01 1.92c.4.4.76.39 1.3-.03M163.23 317a9.3 9.3 0 0 1-4.08-3.78 7.6 7.6 0 0 1-1.06-6.12c.86-4.18 3.54-7.06 7.28-7.81a9.46 9.46 0 0 1 10.56 5.3c.74 1.53.82 1.96.82 4.1-.01 1.94-.13 2.62-.63 3.65a11 11 0 0 1-4.84 4.68c-1.47.7-1.95.8-4.08.8-2.2 0-2.57-.09-3.97-.82m7.91-1.31c1.49-.75 2.8-1.9 2.83-2.45 0-.12.28-.57.6-1.02.53-.7.6-1.12.6-3.5 0-2.48-.05-2.78-.77-4-.94-1.63-2-2.61-3.73-3.45-1.06-.53-1.73-.65-3.46-.65-1.92 0-2.32.09-3.75.85a7.94 7.94 0 0 0-1.82 12.87c2.59 2.54 6.14 3.04 9.5 1.35m-6.88-3.22c-.16-.2-.37-.7-.48-1.14a6 6 0 0 0-1.6-2.15c-.98-.94-1.43-1.57-1.43-2.03 0-.69.62-1.12 1.15-.8.44.28 2.6 2.67 3.14 3.48l.45.69.44-1.05c.75-1.84 1.54-2.45 3.45-2.65 2.24-.24 3.01-.03 3.01.81 0 .36-.08.67-.2.69-.1.01-.94.05-1.85.07-1.9.06-1.99.13-3.44 2.54-1.07 1.78-2 2.31-2.64 1.54m33.6 3.1a11 11 0 0 1-4.76-4.6c-.64-1.31-.73-1.8-.73-4 0-2.33.07-2.64.85-4.1 1.37-2.56 2.7-3.76 5.18-4.66 2.17-.8 3.58-.89 5.5-.35 5.93 1.65 8.87 7.39 6.58 12.82a8 8 0 0 1-3.36 4.02c-1.84 1.26-2.84 1.53-5.62 1.5-1.78 0-2.54-.14-3.63-.63m7.23-1.25c3.12-1.51 4.71-4.01 4.7-7.37 0-2.34-.61-3.9-2.17-5.48-2.1-2.16-3.93-2.88-6.67-2.64-4.26.4-7.76 4.51-7.28 8.59.42 3.62 2.28 6.07 5.49 7.22 2.16.78 3.87.69 5.93-.32m-5.05-1.28a109 109 0 0 1-2.45-6.56c-.59-1.64-.63-1.97-.31-2.18.84-.55 1.33-.14 1.94 1.63.92 2.62 1.8 4.47 2.15 4.47.17 0 .69-.41 1.15-.93.71-.77.93-.88 1.37-.65.86.46.6 1.03-1.27 2.8-1.78 1.68-2.26 1.94-2.58 1.42m5.67-5.35c-.22-.18-1.57-1.55-3-3.04-2.54-2.61-2.61-2.73-2.27-3.37.2-.37.44-.67.54-.67s1.49 1.32 3.08 2.92c1.62 1.64 3.07 2.88 3.28 2.83.2-.06.29-.05.18 0-.11.07-.2.27-.2.45 0 .32-.81 1.21-1.1 1.21-.07 0-.3-.15-.51-.33m-186.9 2.08c-.88-.18-1.96-.52-2.4-.75-1.14-.6-3.56-2.82-3.56-3.27 0-.2-.1-.37-.21-.37-.12 0-.5-.79-.84-1.74-.77-2.2-.66-5.19.25-6.99a13 13 0 0 1 4.08-4.34c2.45-1.43 6.24-1.51 8.97-.18 1.3.63 3.22 2.42 3.8 3.55 1.44 2.77 1.8 6.02.91 8a14 14 0 0 1-3.31 4.44 9.9 9.9 0 0 1-7.7 1.65m4.5-1.57c1.4-.54 3.19-1.86 4-2.96 1-1.33 1.42-2.77 1.42-4.92a8.3 8.3 0 0 0-4.82-7.23c-1.21-.5-3.44-.76-4.68-.55a11 11 0 0 0-4.23 2.44 7.96 7.96 0 0 0-.6 10c.84 1.23 2.92 2.87 4.1 3.25 1.14.37 3.83.35 4.81-.03m-5.26-2.73c-.32-.33-.16-1.27.62-3.51.42-1.22.71-2.33.64-2.45-.08-.12.02-.22.2-.22q.4.01-.04-.25c-.33-.22-.33-.27.05-.42.24-.09.5-.35.6-.58q.17-.45-.19-.14c-.34.27-2.4 1.45-3.72 2.12-.59.3-.81.31-1.13.05-.84-.7-.32-1.4 2-2.67 4.47-2.45 5.2-2.71 5.64-2.04.2.32.13.78-.32 1.81-.32.76-.53 1.44-.45 1.52s0 .4-.17.7a5 5 0 0 0-.46 1.16c-.04.1-.05.29-.03.4.01.1-.11.2-.28.2q-.27.01-.14.16c.09.1.04.4-.12.7-.24.46-.22.51.16.36.25-.09.5-.17.58-.17s.04-.14-.07-.3q-.15-.28.08-.15c.15.1.96-.19 1.8-.63 1.82-.94 2.61-.93 2.73.04.07.6-.16.8-2.12 1.82-1.2.64-2.5 1.35-2.86 1.59-1.37.9-2.61 1.28-3 .9m58.17-.87a9.8 9.8 0 0 1-6.2-4.78c-1.25-2.43-1.19-6.67.12-8.74.36-.57.66-1.13.67-1.24.02-.38 2.8-2.44 3.98-2.96 1.72-.75 4.3-.95 6.14-.47 5.37 1.4 8.22 6.65 6.54 12.06-.6 1.96-1.56 3.2-3.74 4.86-1.72 1.31-5.04 1.87-7.51 1.27m4.46-1.33c.97-.22 2.97-1.44 3.89-2.37.73-.74 1.8-3.29 1.99-4.68.34-2.74-1.3-5.9-3.88-7.47-1.16-.7-3.4-1.36-4.67-1.36-2.37-.01-5.69 2.25-6.97 4.76a8 8 0 0 0 .1 6.58c.94 1.84 1.51 2.55 2.74 3.39a8.4 8.4 0 0 0 6.8 1.15m-2.1-3.1c-.49-.53-.64-.98-.64-1.92 0-1.1.13-1.37 1.13-2.41.62-.65 1.39-1.35 1.72-1.57.82-.54.74-.74-.44-1.06-.95-.25-1.35-.67-1.35-1.38 0-.45 2.34-.1 4.08.6 1.65.68 2.1 1.2 1.3 1.47-1.3.46-3.77 2.35-4.32 3.32-.57 1.01-.57 1.06-.11 1.57.38.42.68.5 1.45.37 1.14-.2 1.41.07 1.04 1.04-.23.62-.39.68-1.73.68-1.25 0-1.57-.1-2.12-.7m-6.02-2.11q-.8-.82 1.3-1.79c1.33-.6 1.72-1.21.78-1.21-.5 0-1.73-1.52-1.73-2.15 0-1.38 1.53-2.88 2.92-2.88.87 0 2.05.81 2.4 1.63.7 1.7-.73 4.47-2.99 5.76-1.35.78-2.31 1-2.68.64m3.9-4.4c.57-.43.48-1.47-.18-1.88-1.03-.65-2.09 1.15-1.1 1.87.27.2.55.35.64.35.1 0 .38-.16.64-.35m66.83 9.5a9.2 9.2 0 0 1-5.4-2.93c-1.53-1.53-2.54-3.64-2.54-5.31 0-.5-.09-.91-.2-.9-.1 0-.61.6-1.12 1.32-3.3 4.69-10.26 5.24-14.38 1.13-2.7-2.7-3.66-5.97-2.7-9.16.5-1.62 2.3-4.2 3.55-5.06a11.6 11.6 0 0 1 5.21-1.74h1.13l-.03-2.19c-.03-1.87.07-2.41.71-3.82 1.14-2.5 4.56-5.37 6.4-5.37 1.3 0 1.38-.15.93-1.85-1.2-4.6 2.4-9.94 7.4-10.99 2.23-.47 3.84-.22 6.17.96 1.86.94 2.58 1.54 3.6 3.02 2.48 3.61 2.4 7.48-.2 10.8-1.72 2.18-3.64 3.43-5.62 3.67-.57.07-.65.19-.56.87.05.44.11 1.75.13 2.91.02 1.83-.08 2.33-.72 3.63a8 8 0 0 1-1.15 1.84c-.34.28-.01.4 1.89.67 2.74.4 4.5 1.26 6.03 2.98 2.23 2.5 3 5.56 2.17 8.67-.92 3.47-3.05 5.65-6.6 6.73-1.8.55-1.78.55-4.1.12m5.18-1.82c.45-.23.97-.61 1.16-.84s.5-.41.68-.41c.53 0 2.14-2.43 2.35-3.56.32-1.7.22-3.7-.26-5.15-.6-1.82-2.52-3.92-4.52-4.93a6 6 0 0 0-3.53-.77c-1.83 0-2.12.08-3.73 1.05-.97.57-2.01 1.4-2.33 1.84l-1.25 1.73c-.66.89-.67 1.02-.5 3.44.16 2.23.28 2.68 1.09 4a8.4 8.4 0 0 0 5.2 4.11c1.06.32 4.68 0 5.64-.5m-1.81-3.58c-1.07-.66-1.43-2.17-.86-3.66.24-.62.73-1.56 1.08-2.09s.64-1 .64-1.06-.6-.12-1.34-.12c-1.3 0-1.34-.02-1.25-.73l.08-.73 2.62-.08c1.44-.04 2.74.04 2.88.18.15.16-.27.87-1.15 1.93-1.83 2.2-2.48 3.64-2.06 4.56.36.8 1.02.87 2.1.23.72-.42.8-.42 1.21-.01.37.37.39.5.09.87a3.2 3.2 0 0 1-4.04.71m-7.6-.2c0-.4 3.29-7.39 3.76-7.99.3-.36 1.26.01 1.26.5 0 .27-1.54 3.7-2.29 5.07-.63 1.16-.32 1.5 1.36 1.5 1.38 0 1.46.04 1.46.67v.66h-2.77c-2.33 0-2.78-.07-2.78-.4m-9.07-.34a7.7 7.7 0 0 0 4.51-6.95c.15-2.43-.09-2.94-1.56-3.43a10 10 0 0 1-4.54-3.72l-.85-1.33-1.93.13c-4.27.3-7.14 3.14-7.4 7.32-.24 3.8 2.2 7.24 6.02 8.5 1.22.4 4.54.1 5.75-.52m-4.48-6.6a50 50 0 0 1 .01-4.36c.12-.54 1.32-.64 1.5-.13.15.47.33 7.67.2 8.07-.06.18-.45.33-.86.33h-.75zm11.29-1.84c.37-.54.67-1.07.67-1.17 0-.14-1.64-.02-1.75.13-.07.1.23 2.03.31 2.03.06 0 .4-.45.77-1m3.12-3.2c3-1.36 4.47-3.52 4.65-6.84.05-1.04-.04-2.3-.2-2.81-.28-.84-.43-.94-1.55-1.1-2.13-.31-3.95-1.32-5.75-3.2-1.83-1.91-1.9-1.92-4.23-.88-2.93 1.3-5.23 5.18-4.78 8.04.24 1.53.6 1.94 2.4 2.8 1.66.78 3.31 2.32 4.31 4 .4.67.57.74 1.97.74 1.12 0 1.98-.2 3.18-.75m-5.62-3.65c0-.69 2.3-7.77 2.67-8.21.41-.5.96-.45 1.26.11.18.34-.03 1.3-.79 3.49-.64 1.85-.95 3.11-.8 3.26s.74.14 1.5-.02c1.56-.33 1.93-.2 1.78.6-.16.8-.36.88-3.24 1.1-2.23.16-2.39.14-2.38-.33m-1.07 3.33c-.3-.55-3.14-2.9-3.5-2.9-.57 0 .77 1.7 1.99 2.5 1.58 1.07 1.92 1.16 1.51.4M143 273.3c-.62-1.18-2.15-2.26-4.26-3q-2.3-.8-.56 1c1.16 1.2 1.54 1.42 3.4 2.1 1.71.61 1.8.6 1.42-.1m4.76-.24c2.72-1.17 4.59-4.29 4.59-7.67 0-4.79-5.1-8.96-9.65-7.9-2.9.69-4.46 1.85-5.9 4.36-.69 1.18-.77 1.56-.75 3.57.01 2.52.35 3.44 1.26 3.44 2.1 0 5.03 1.67 6.7 3.8 1.08 1.4 1.35 1.43 3.75.4m-5.16-4.06q-.44-1.2 1.22-1.2c1 0 1.07-.04 1.07-.77 0-.65-.15-.82-.92-1.07a3.1 3.1 0 0 1-2.11-2.55c-.16-.85-.08-1.07.68-1.85.97-1.01 2.13-1.33 3.6-.98.82.19 1.01.36 1.08.95.1.8-.57 1.27-1.08.76-.75-.75-2.58-.13-2.58.88q.01 1.46 2 1.46h1.18v2.22c0 2.56.01 2.54-2.41 2.54-1.16 0-1.62-.1-1.73-.4m-99.33 30.28c-1.28-1.54-1.3-1.57-1.3-3.07 0-1.25.08-1.43 1.05-2.31 1.13-1.02 2.18-1.22 3.58-.7 1.05.4 2.76 1.93 2.77 2.47 0 .6-4.1 4.68-4.73 4.68-.25 0-.87-.48-1.37-1.07m3.27-2.57c.94-.97.97-1.05.52-1.45-.65-.6-1.77-.99-2.38-.83-.84.22-1.45 1.5-1.12 2.37.36.94 1.05 1.45 1.58 1.17.22-.12.85-.69 1.4-1.26m183.04-1.37a8 8 0 0 1-1.87-.94c-.25-.22-.54-.4-.65-.4-.46 0-2.29-2.24-2.89-3.53a7.5 7.5 0 0 1-.7-5.12c.54-3.47 2.14-5.75 5.16-7.31 1.46-.76 1.8-.82 4.1-.82 1.97.01 2.77.13 3.7.56 1.54.71 3.42 2.1 3.63 2.67a7 7 0 0 0 .79 1.28c1.08 1.44 1.5 3.1 1.33 5.4-.25 3.68-1.92 6.2-5.17 7.81a10.6 10.6 0 0 1-7.43.4m5.77-.93a11 11 0 0 0 3.57-2.35c.87-.87 2-3.9 2-5.37.02-2.31-.7-4-2.38-5.67-2.16-2.14-3.04-2.5-6.1-2.5-2.49 0-2.56.02-4.03 1a8.4 8.4 0 0 0-3.5 4.48c-1.64 4.91 2.56 10.8 7.7 10.8.9 0 2.13-.18 2.74-.4m-3.94-2.77c-2.3-.7-3.97-2.25-3.97-3.68 0-.34.36-.98.8-1.42.78-.78.89-.8 2.6-.68 2.64.19 5.12 1.62 5.43 3.15.42 2.12-2.08 3.48-4.86 2.63m2.9-1.73c.75-.9-.27-1.89-2.6-2.52-1.35-.36-2.29-.2-2.53.43-.2.54.72 1.59 1.83 2.08 1.09.48 2.9.49 3.3.01m.93-4.07c-.29-.05-.79-.34-1.1-.63-.43-.39-.78-.49-1.29-.36-.96.24-2.37-.27-2.88-1.04-.93-1.42-.2-3.83 1.16-3.83 1.02 0 1.18.32.54 1.13-.6.76-.68 1.52-.21 1.99.46.46.93.4 1.55-.23.79-.78 1.62-.57 1.9.48.17.68.35.86.88.86.67 0 .74-.1 1.02-1.39q.16-.72.65-.73c1.18 0 1.3 1.46.26 2.95-.48.69-1.44 1-2.48.8m-197.4 7.25a3.46 3.46 0 0 1-.97-5.84c1.5-1.33 3.64-1.08 5.1.59.77.86.82 1.05.66 2.15-.1.67-.33 1.42-.51 1.68-.99 1.4-2.88 2.03-4.29 1.42m2.53-1.73c.77-.77.94-1.75.42-2.53-.88-1.35-2.26-1.37-3.18-.06-.59.84-.5 1.72.24 2.46.79.79 1.81.84 2.52.13m162.06-.34c-3.26-3.54-3.15-3.37-2.7-3.83.38-.37.73-.39 3-.1 1.4.17 2.6.26 2.67.2a5 5 0 0 0-1.1-1.4c-1.28-1.37-1.46-1.86-.78-2.13.3-.11 1.05.46 2.51 1.93 1.14 1.15 2.08 2.24 2.09 2.41 0 .18-.14.62-.3 1-.28.6-.36.63-.74.28-.41-.37-3.97-1.07-4.52-.89-.14.05.29.72.96 1.48 1.22 1.4 1.38 2.18.43 2.18-.26 0-.94-.5-1.52-1.13m6.9-7.23c-1.3-.64-2.5-1.17-2.68-1.17-.5 0-.9-.64-.66-1.03.21-.35 1.2-.32 2.13.06.22.1.73-.1 1.14-.44.72-.6.73-.61.31-1.6-.46-1.1-.2-1.75.67-1.75.35 0 .72.75 1.55 3.1 1.23 3.5 1.26 3.66.68 3.88-.59.23-.52.25-3.14-1.05m1.44-1.3a.4.4 0 0 0-.4-.4c-.41 0-.52.32-.22.62s.62.2.62-.22m-170.4-.33a9.25 9.25 0 0 1-8.22-7.61c-.3-1.67.03-4.14.8-5.82.63-1.37 3.03-3.62 4.62-4.35 3.14-1.43 7.7-.72 10.16 1.58 1.73 1.61 2.96 4.68 2.96 7.4 0 4.26-3.59 8.17-7.97 8.68-.92.1-1.98.16-2.34.12m4.27-1.75c.52-.25 1.55-1 2.3-1.65 1.5-1.33 2.01-2.43 2.43-5.2.4-2.63-.23-4.33-2.37-6.3-3.46-3.17-7.65-3.3-11.13-.31-4.53 3.87-2.9 11.57 2.9 13.74 1.26.47 4.62.31 5.87-.28m-4.26-1.95c-1.24-.63-1.61-2.04-.87-3.3.53-.93 1.94-2 2.84-2.19 2.28-.45 2.45-.6 1.35-1.19-.36-.19-.71-.51-.8-.72-.2-.54.32-1.4.86-1.4.49 0 4.03 3.23 4.03 3.67 0 .15-.45.34-1 .43-3.68.56-5.13 1.07-5.62 1.99-.23.43-.16.65.38 1.19.36.36.9.66 1.2.66.6 0 .71.51.22 1-.45.45-1.52.4-2.59-.14M36 274.34c-1.45-1.45-1.21-3.3.52-4.03.68-.29.91-.57 1.05-1.3.44-2.33 3.85-2.76 5.11-.64.36.6.37.83.08 1.52s-.41.77-.83.55c-.28-.15-.5-.44-.5-.65s-.3-.58-.67-.82q-1.36-.9-1.5 1.44l-.08 1.23h-1.03c-1.49 0-1.88.73-.87 1.6q.74.66.66 1.25c-.13.92-.93.86-1.94-.15m155.7 7.52c-2.16-.55-4.75-2.74-5.83-4.93-.57-1.16-.64-1.66-.63-4.23.01-3.34.3-4.12 2.34-6.4 1.62-1.8 3.31-2.52 6.25-2.67 2.74-.14 3.89.15 5.97 1.52a9.5 9.5 0 0 1 3.91 5.37c.44 1.71.17 4.7-.57 6.34-.62 1.35-2.19 3.21-3.18 3.76-2.36 1.3-2.99 1.47-5.3 1.44a21 21 0 0 1-2.95-.2m6.36-1.36a9.2 9.2 0 0 0 4.78-6.21c.22-1.14-.3-3.86-1.02-5.28-1.44-2.87-5.76-4.79-9.15-4.07a9 9 0 0 0-4.9 3.23c-1.02 1.48-1.71 3.96-1.51 5.42a9.4 9.4 0 0 0 6.04 7.3c1.51.56 4.28.37 5.76-.38m-5.1-2.13c-.25-.15-.46-.4-.46-.55s-.78-1.52-1.73-3.04c-1.86-2.95-2.09-3.93-.94-3.93.49 0 .85.37 1.65 1.68a14 14 0 0 1 1.02 1.85c0 .1.42.8.93 1.56 1 1.49 1.16 2.3.5 2.55-.5.2-.4.2-.96-.12m3.9-3.14c-1.21-.5-1.57-1.28-1.67-3.61a11 11 0 0 0-.21-2.23c-.06 0-.6.25-1.19.55-1.1.56-1.82.4-1.82-.42 0-.34 2.42-1.98 2.92-1.98.14 0 .5-.23.78-.52.3-.3.7-.46.95-.36.35.13.38.38.2 1.51-.38 2.37-.25 4.57.3 5.18.67.74 1.58.69 2.1-.12.24-.36.67-.66.96-.66.8 0 .66 1.12-.24 2.09-.8.85-1.9 1.05-3.07.57m18.05 4.48a5 5 0 0 0-1.26-1.06c-.13 0-.25-.16-.25-.35 0-.2-.3-.7-.66-1.13-.77-.88-.77-1.8 0-1.89.56-.07 2.27 1.36 2.66 2.22.2.43.24.4.32-.25.06-.41-.05-.93-.24-1.17-.32-.37-.21-.4 1.03-.28.77.07 1.4.04 1.4-.07a.4.4 0 0 0-.2-.3c-.12-.04-.6-.6-1.1-1.21-.9-1.17-.95-1.92-.1-1.92.47 0 4.57 4.28 4.57 4.76 0 .49-.87.71-1.95.5-2.03-.39-2-.4-1.83 1.25.11 1.11.06 1.54-.22 1.72-.67.42-1.15.24-2.17-.82m-152.86-3c-3-1.07-5.73-4.1-6.36-7.03-.62-2.92-.04-6 1.45-7.65 1.8-1.98 2.62-2.52 5.16-3.35a9.7 9.7 0 0 1 6.04.3c1.08.5 3.33 1.96 3.46 2.26.05.1.48.7.95 1.32 3.69 4.84.99 12.44-5.03 14.2-1.4.4-4.47.38-5.67-.05m4.5-.96c1.18 0 .85-.31-1.3-1.18-1.88-.76-5.3-1.22-5.3-.72 0 .68 4.01 2.24 5.16 2 .29-.05.94-.1 1.44-.1m4.13-2.16a8.6 8.6 0 0 0 2.04-7.9c-.6-2.6-.68-2.65-4.26-2.65-2.45 0-3.27-.1-4.13-.5-2.25-1.05-3.67-1.61-4.1-1.61-.6 0-1.95 1.45-2.68 2.9-.46.9-.63 1.76-.7 3.45-.08 1.96-.02 2.4.53 3.44l.63 1.19 1.7-.08c2.28-.11 6.77.98 8.4 2.04 1.29.84 1.6.8 2.57-.28m-1.22-12.55c-.47-.56-1.81-1.09-3.62-1.42-1.5-.28-3.49-.12-3.07.24.74.63 4 1.43 6.4 1.56.54.03.58-.02.29-.38M16.59 271.9a9 9 0 0 1-2.15-.92c-.41-.29-.85-.53-.97-.53-.13 0-.7-.6-1.28-1.32a7 7 0 0 0-1.23-1.32c-.44 0-1.15-3.17-1.15-5.17 0-2.03.05-2.2 1.13-4.03 1.42-2.39 2.32-3.3 4.26-4.28 1.52-.78 4.7-1 6.7-.47 1.44.38 2 .7 4.02 2.36 1.13.94 2.41 3.37 2.82 5.37.3 1.45.28 1.77-.26 3.52-1.05 3.38-3.44 5.89-6.33 6.65-1.88.5-4.1.55-5.56.14m5.58-1.44c1.8-.68 4.17-2.9 4.82-4.5.67-1.67.63-4.51-.08-6.16a10.7 10.7 0 0 0-4.14-4.3c-.84-.42-1.59-.52-3.62-.52-2.54.01-2.57.02-4.07 1.06-4.2 2.88-5.1 7.8-2.17 11.64a7.9 7.9 0 0 0 9.26 2.78m-4.77-3.38c-.34-.06-.74-.4-.9-.75s-.38-.64-.48-.64-.56-.37-1.03-.81c-1-.96-.98-1.67.06-1.79.55-.06.98.15 1.7.85.91.9 1.58 1.04 1.3.28q-.14-.35.24-.2c.55.2.5-.8-.08-1.3a4 4 0 0 0-.93-.55q-.45-.17-.46-.97c0-.71.09-.8.77-.8.57 0 .99.25 1.56.95.68.82.86.91 1.33.66q1.5-.78-.11-2.2c-.54-.48-1.11-.95-1.27-1.06-.39-.25.12-1.1.73-1.22.24-.04 1.04.46 1.79 1.13a8 8 0 0 0 1.55 1.2c.33 0 .55.81.33 1.21-.28.5-2.55 3.1-4.17 4.76-1 1.03-1.47 1.33-1.93 1.25m197.02.48c-3.24-1.1-4.29-2-5.81-5-.83-1.64-.9-1.94-.89-4.28.01-2.3.08-2.65.85-4.13a9.1 9.1 0 0 1 9.73-4.94c.94.16 2.28.56 2.98.88 1.81.85 3.81 3.03 4.61 5.02l.66 1.65.32-1.26c1.08-4.3 4.29-6.89 8.91-7.2 1.7-.12 2.05-.06 3.67.7 2.24 1.03 2.87 1.52 4.15 3.24 1.56 2.1 2.17 3.95 1.98 6.06-.26 2.92-.76 3.93-3.15 6.39-1.59 1.63-3.03 2.28-5.53 2.5a9.8 9.8 0 0 1-6.02-1.36 11 11 0 0 1-3.66-4.64c-.43-1.16-.57-1.35-.72-.92-.73 2.2-1.67 3.99-2.56 4.9-2.3 2.37-6.48 3.42-9.52 2.4m6.01-1.5c1.88-.79 3.48-2.46 4.53-4.77.84-1.83.73-3.52-.4-6a8 8 0 0 0-4.1-4.2 6 6 0 0 0-3.55-.78c-1.75 0-2.24.12-3.7.86a8 8 0 0 0-3.85 4.4c-.66 1.65-.6 4.55.1 5.96 1.4 2.76 3.57 4.53 6.32 5.13 1.74.37 2.52.27 4.65-.6m-6.95-3.04c-1.68-1.08-1.36-3.66.55-4.57 1.94-.92 4.72.42 6.43 3.1q1.13 1.76-.3 1.76-.69 0-.91-.6a4 4 0 0 0-.92-1.23c-.67-.62-.7-.63-.7-.1 0 .3-.34.92-.76 1.37-.93 1-2.11 1.09-3.4.27m2.35-1.47c.96-.87.3-2.16-.95-1.84-.86.21-1.13 1.1-.53 1.77.56.62.86.63 1.48.07m3.03-4.08c-.56-.44-.91-.52-1.74-.38-2.64.45-4.4-2.04-2.9-4.13.33-.47.78-.76 1.16-.76.77 0 1 .52.5 1.18-.2.28-.36.84-.36 1.24 0 .56.16.78.65.9.74.19 1.2-.02 1.2-.53 0-.47.74-.74 1.24-.46.21.12.53.51.7.86q.33.64.98.64c.56 0 .67-.14.74-.92.1-1.15.36-1.43 1.08-1.2 1.33.42.76 2.9-.84 3.66-1.21.58-1.56.56-2.41-.1m18.93 8.37c3.63-.61 6.59-4.62 6.22-8.43a8.6 8.6 0 0 0-4.86-7.1c-1.64-.77-1.9-.82-3.83-.69-2.52.18-3.86.87-5.6 2.9-2.07 2.44-2.56 6.06-1.18 8.7.77 1.49 2.45 3.28 3.58 3.83 1.12.54 3.7 1.16 4.3 1.03zm-6.48-7.2c-.34-.35-.17-1.3.4-2.21.32-.51.77-1.28 1-1.72.52-1 1.57-1.17 2.63-.42.85.61 4.58 2.4 4.99 2.4.5 0 .92.8.75 1.46-.22.86-1.15.88-2.48.04-.55-.35-1.7-.97-2.58-1.39l-1.77-.85c-.1-.05-.52.57-.92 1.39-.54 1.1-.86 1.47-1.28 1.47-.31 0-.64-.08-.74-.18m-155.8 2.58c-2.67-1.06-4.19-2.43-5.65-5.12-.69-1.26-.76-1.61-.72-3.77.03-2.32.54-4.15 1.49-5.37.5-.66 2.12-2.2 2.71-2.6.86-.59 4.06-1.42 5.4-1.42 2.65 0 6.08 1.7 7.28 3.61 1.07 1.68 1.44 1.93 1.44.94 0-1.4.98-4 1.96-5.2a10.5 10.5 0 0 1 6.51-3.26c2.05-.15 4.54.42 6.04 1.36 1.36.86 2.84 2.61 3.7 4.4.6 1.23.7 1.78.69 3.57-.04 2.92-.32 3.87-1.67 5.55-1.98 2.47-3.44 3.35-6.39 3.82-1.89.3-3.29.07-5.41-.9-1.3-.6-3.42-2.43-4-3.44q-.74-1.33-1 .54a8 8 0 0 1-2.56 4.87 8.8 8.8 0 0 1-6.44 2.8c-1.66.08-2.42 0-3.38-.38m6.21-1.38a6.9 6.9 0 0 0 4.3-4.06c.7-1.55.83-2.15.8-3.58-.08-3.02-.9-4.57-3.4-6.48a8.03 8.03 0 0 0-12.12 2.82c-1.13 2.23-1.24 3.65-.48 6.06a6.5 6.5 0 0 0 2.08 3.42 9 9 0 0 0 2.66 1.9c1.7.63 4.39.6 6.16-.08m-2.43-1.99c-.91-.64-1.45-2.07-1.05-2.82a6.1 6.1 0 0 1 4.26-2.95c.97-.21.92-.52-.21-1.22-.68-.41-.92-.73-.86-1.14.13-.92.9-.8 2.48.4.82.64 1.72 1.27 2 1.41.81.43.57.9-.63 1.2-3.58.92-5.23 1.78-5.22 2.7s.62 1.53 1.55 1.53c.86 0 1.08.43.5 1-.45.46-2.1.4-2.82-.11m-6.06-4.8c-.54-.18-.37-.55 1-2.2 1.43-1.71 1.48-1.83 1.03-2.28-.41-.42-.05-.87.7-.87.37 0 .97-.38 1.5-.94.8-.84.93-.9 1.4-.56.48.36.47.4-.36 1.53-.77 1.05-.8 1.18-.4 1.42.25.15.63.48.86.73.23.26.58.46.78.46s.32.23.27.6c-.07.44-.32.63-1.01.75-.51.1-1.95.46-3.19.82s-2.4.6-2.58.54m4.12-2.67q.11-.34-.35-.26c-.26.05-.53.25-.6.45q-.1.35.36.26c.26-.05.53-.25.6-.45m22.87 5.4a9 9 0 0 0 4.31-4.1c.65-1.3.71-1.65.6-3.6-.08-1.74-.24-2.39-.83-3.39a9.3 9.3 0 0 0-4.11-3.84 8.9 8.9 0 0 0-6.64-.07c-2.2 1-4.58 3.98-4.94 6.23-.22 1.31.35 4.04 1.12 5.36.88 1.52 2.87 3.2 4.32 3.65 2 .61 4.55.52 6.17-.24m-4.11-1.9c-.3-.31-.2-1.8.18-2.35.2-.29.48-.88.64-1.32l.83-2.24c1.7-4.5-.95-2.97-3.58 2.07-.75 1.42-1.7 2.15-2.55 1.96-.62-.14-.58-.75.08-1.61a65 65 0 0 0 3.59-5.14c.41-.79 1.86-1.52 3-1.52.87 0 1.74.9 1.98 2.03.14.63.02 1.14-.44 1.99a53 53 0 0 0-2.43 5.84c-.14.45-.96.63-1.3.28m-48.67 4.4c-3.32-.85-6.28-3.65-6.96-6.61-.49-2.16-.16-4.26 1.1-7.04 1.31-2.88 4.82-4.88 8.52-4.87 1.4 0 4.22.95 5.13 1.72.44.37.87.66.98.66.32 0 2.32 3.25 2.67 4.33.44 1.36.4 4.26-.09 5.63a9.5 9.5 0 0 1-5.07 5.56c-1.55.7-4.7 1.02-6.28.62m6.02-1.84a8.16 8.16 0 0 0 4.1-9.97q-.59-1.77-1.09-1.88c-.27-.07-.5-.26-.5-.42 0-.43-1.83-2-2.9-2.49-1.29-.58-5.1-.58-6.42 0a11 11 0 0 0-4.45 4.5c-1.56 3.55-.08 7.78 3.48 9.97a7.7 7.7 0 0 0 7.78.29m-6.64-1c-.5-.34-.9-1.32-.9-2.2 0-1.91 2.04-3.24 4.1-2.66.73.2 1.1.2 1.21 0 .1-.17.25-.1.36.2.16.4.22.42.43.09s.25-.32.25.07c0 .25.14.46.3.46q.3-.01.15-.94c-.2-1.18 0-1.7.62-1.7.61 0 .72.18 1.2 1.99.44 1.72.5 3.3.1 3.3-.15 0-1.02-.35-1.94-.78s-2.22-.92-2.9-1.1c-1.1-.27-1.31-.25-1.77.17-.66.6-.65.74.14 1.9.49.73.57 1.03.33 1.18-.41.26-1.3.27-1.68.01m-1.27-6.78c-.9-.84-1-1.06-.85-1.8.39-1.94 2.43-3.12 5.41-3.12 1.81-.01 2 .04 2.75.8.68.68.78.94.65 1.75a3 3 0 0 1-.56 1.4c-.77.84-2.68 1.58-4.54 1.75l-1.85.18zm5.52-1.45c1.15-.67 1.18-1.3.08-1.75-.77-.32-1.14-.33-2.4-.03-.82.19-1.68.5-1.9.68-.53.44-.5 1.23.07 1.58.63.4 3.16.1 4.15-.48m90.49-1.88a10 10 0 0 1-4.95-3.08c-1.36-1.78-1.71-2.6-1.98-4.6a9.28 9.28 0 0 1 10.9-10.57c1.09.17 2.27.56 2.85.93.54.35 1.1.64 1.23.64.32 0 1.73 1.62 2.58 2.96 2.23 3.53 1.7 7.7-1.36 10.99-1.32 1.41-1.88 1.8-3.38 2.34a11 11 0 0 1-5.89.4m5.99-1.74c3.42-1.74 5.27-5.65 4.35-9.19-1.04-3.95-3.85-6.11-7.95-6.1-4.44.01-7.26 2.4-8.1 6.86a7.8 7.8 0 0 0 1.68 6.2c.45.52 2.3 1.95 3.06 2.35 1.8.94 4.96.89 6.96-.12m-4.13-3.07c-1.63-.81-2.03-3.23-.95-5.69.77-1.76 2.15-3.12 2.91-2.88.81.26.68.97-.37 1.99-1.2 1.16-1.2 1.59.03 1.59 1.26 0 2.48 1.24 2.48 2.52s-1.45 2.78-2.67 2.75a4 4 0 0 1-1.43-.28m2.07-1.67c.5-.5.27-1.67-.37-1.87-.73-.24-1.57.32-1.57 1.06a1.13 1.13 0 0 0 1.94.8m28.94 5.4a9 9 0 0 1-4.46-3.2c-1.46-2-1.8-3.05-1.8-5.66 0-2.1.09-2.57.77-4.03 1.6-3.38 4.77-5.33 8.7-5.35a9.2 9.2 0 0 1 5.96 2.18c1.21.96 2.59 3.04 3.03 4.59.77 2.66.06 6.36-1.57 8.25-.42.47-.76.95-.76 1.05 0 .45-2.64 1.93-4.09 2.3a9.6 9.6 0 0 1-5.78-.14m6.62-1.54a8.5 8.5 0 0 0 3.73-3.59c.6-1.15.7-1.67.7-3.6 0-2.9-.83-4.79-2.83-6.37-1.92-1.51-2.93-1.87-5.28-1.88-1.71-.01-2.26.1-3.44.71a7.4 7.4 0 0 0-3.72 3.71 8 8 0 0 0 1.41 9.17c1.86 1.97 3.49 2.61 6.33 2.5a7 7 0 0 0 3.1-.65m-5.08-2.95c-.1-.14-.5-.26-.9-.26s-.96-.25-1.23-.55c-.67-.73-.84-3.43-.31-4.94.44-1.26.35-1.35-.6-.6q-1.72 1.35-1.17-.71c.21-.78 1.94-1.32 4.89-1.55 1.98-.15 2.4-.1 3.3.36 1.79.93 2.38 2.32 2.26 5.26-.03.71-1.41 2.34-2.43 2.87-.84.44-3.57.52-3.81.12m3.34-1.78c1.6-.95 1.58-3.68-.03-4.83-1.85-1.31-4.24 0-4.24 2.32 0 .98.15 1.32.9 2.07 1.04 1.03 2.12 1.18 3.37.44m-107.7 3.7c-1.06-.31-1.84-.82-3.09-1.98-1.96-1.84-2.7-3.23-3.05-5.74-.7-5.12 2.82-9.6 8.15-10.37a9 9 0 0 1 8.2 3.05c1.58 1.76 1.91 2.46 2.2 4.71.42 3.41-.33 5.84-2.5 8.04-2.36 2.4-6.37 3.33-9.9 2.29m6.03-1.18a7.7 7.7 0 0 0 4.86-4.88c.7-2.35.73-2.9.32-4.47a9 9 0 0 0-5.16-5.93 9.6 9.6 0 0 0-5.57-.24 8.7 8.7 0 0 0-4.52 4c-.73 1.44-.84 1.92-.85 3.77 0 1.7.12 2.37.62 3.42 1.04 2.13 2.93 3.66 5.84 4.73.9.33 2.88.15 4.46-.4m-2.35-2.03c-.6-.32-1-.78-1.15-1.3-.54-1.86.63-3.46 3.16-4.3l1.72-.57-.97-.84c-.9-.78-.95-.9-.61-1.43.2-.33.46-.59.58-.59.34 0 2.56 1.65 2.56 1.9 0 .12.16.22.36.22.52 0 1.32.98 1.15 1.41-.08.2-.71.46-1.42.57-2.6.38-5.11 1.73-5.11 2.73 0 .5.78 1.09 1.47 1.1.8.01 1.2.52.89 1.1-.34.64-1.45.64-2.63 0m-4.9-3.99c-.73-.3-1.09-.78-1.3-1.78-.23-1.08.24-1.98 1.44-2.79q.91-.61 1-1.33c.2-1.71 3.12-2.46 4.44-1.13.49.49.64.92.64 1.78 0 1.27-.52 2.06-1.64 2.53-.44.2-.79.6-.9 1.05-.35 1.49-2.13 2.3-3.68 1.67m2.2-2.01c.04-.3-.15-.75-.44-1.01-.44-.4-.6-.42-1.07-.12-.66.42-.7.83-.12 1.4.58.58 1.53.42 1.63-.27m2.02-2.13c.6-.23.53-1.5-.1-1.89-.7-.43-1.3-.16-1.5.67-.25.94.61 1.6 1.6 1.22m29.44 9.84c-3.9-1.38-6.27-4.87-6.27-9.22 0-1.88.5-3.27 1.86-5.1 3.37-4.55 9.78-5.08 14.23-1.16.66.57 1.24 1 1.3.93a5 5 0 0 0-.16-1.47c-.94-4.34.73-8 4.57-10 1.24-.65 1.61-.72 4.4-.72 2.96 0 3.08.02 4.71.9a10 10 0 0 1 4.95 6.24c.1.43.16 1.61.15 2.62-.08 4.22-3.69 8.14-8.17 8.86-2.54.4-5.96-.75-8.06-2.74a8 8 0 0 0-1.1-.94c-.07 0 0 .39.13.86.75 2.64-.13 6.27-2.07 8.42a9.5 9.5 0 0 1-10.47 2.52m5.66-.91a8 8 0 0 0 5.53-10.45 8.7 8.7 0 0 0-5.3-5.06c-3.2-.92-6.23-.3-8.28 1.66-1.36 1.32-2.56 3.97-2.56 5.7a8 8 0 0 0 2.23 5.85c1.53 1.6 2.13 1.96 4 2.42 1.8.45 2.37.43 4.38-.12m-1.05-2.4c-.55-.34-.2-1.32 1.58-4.55a28 28 0 0 0 1.56-3.1c0-.45.88-.6 1.27-.21.33.33.18.79-1.15 3.51-1.55 3.18-2.39 4.6-2.71 4.6-.1-.01-.35-.12-.55-.25m-6.64-3.62c0-.23.22-.74.49-1.12a14 14 0 0 0 .97-1.72c.37-.81.4-1.06.13-1.23-.58-.36-.1-1.59.61-1.59.43 0 .72-.25.99-.86.24-.54.6-.9.97-.94.81-.12 1 .5.47 1.54-.57 1.1-.43 1.39 1.03 2.07.67.32 1.21.75 1.21.97 0 .23-.6.67-1.38 1.02s-2.18 1-3.14 1.45c-1.98.95-2.35 1.01-2.35.41m3.8-2.65c.24-.08.36-.26.28-.4-.23-.37-.84-.27-1 .17q-.27.63.73.23m22.2-.75c2.97-1.51 4.16-3.38 4.36-6.83.1-1.84.04-2.21-.6-3.54-1.01-2.05-3.07-3.98-4.76-4.46-2.55-.71-3.15-.73-5.18-.12-1.7.5-2.15.78-3.56 2.2-1.82 1.83-2.24 2.92-2.24 5.78.01 5.71 6.75 9.64 11.97 6.97m-1.74-2.86c-.39-.28-.41-.54-.2-1.82.13-.81.27-2.48.3-3.7.07-2.46.29-3.14 1.01-3.14.82 0 1.17.66.87 1.64-.15.48-.33 2.16-.41 3.74-.17 3.35-.51 4.07-1.57 3.28m-5.97-.55q-.3-.33-.04-1.22c.14-.48.33-2.26.43-3.95.17-2.88.34-3.46 1.03-3.46.88 0 .92.36.53 4.45a40 40 0 0 1-.54 4.29c-.23.36-1.07.3-1.41-.1m106.12.11c-3.6-1.33-5.52-3.6-6.17-7.3a8.2 8.2 0 0 1 .79-5.57c3.05-6.46 12.56-7.13 16.42-1.16 1.37 2.12 1.71 3.51 1.51 6.12-.2 2.52-.88 3.92-2.84 5.78a8 8 0 0 1-6.07 2.57 8 8 0 0 1-3.64-.44m6.74-1.44a7.1 7.1 0 0 0 3.78-3.73c.78-1.58.84-1.88.75-3.77-.17-3.62-2-6.27-5.14-7.5a8.2 8.2 0 0 0-10.28 4.06c-.84 1.69-.93 4.62-.21 6.67a9 9 0 0 0 4.57 4.6c1.95.77 4.64.64 6.53-.33m-6.16-5.5c-.74-.36-1.43-1.58-1.43-2.54 0-1 1.06-2.09 2.4-2.45 1.97-.53 4.4.83 6.28 3.5.45.62.26 1.15-.47 1.34-.44.12-.75-.1-1.41-1.01-.9-1.23-1.51-1.5-1.51-.67 0 .92-.32 1.36-1.26 1.75-1.06.44-1.81.47-2.6.08m2.14-1.81c.4-.44.43-.65.18-1.2-.33-.71-.61-.8-1.39-.38-.58.31-.71 1.72-.18 1.93.62.25.9.18 1.39-.35m-162.72 6.1a9.8 9.8 0 0 1-6.6-5.42c-.67-1.42-.72-1.74-.62-4.09.13-3.3.63-4.43 2.97-6.7a11 11 0 0 1 5.14-2.6c2.96-.7 8.21 2 9.29 4.77.2.51.55 1.15.78 1.42.67.8.55 5.49-.2 7.07a12.5 12.5 0 0 1-3.75 4.35 10 10 0 0 1-7.01 1.2m5.1-1.53a5 5 0 0 0 2.62-1.77 8 8 0 0 0 2.37-5.27c.1-1.3 0-1.85-.42-2.68a5 5 0 0 1-.54-1.46c0-.22-.3-.73-.66-1.12s-.67-.84-.67-1c0-.15-.3-.41-.66-.58s-.66-.4-.66-.5c0-.41-3.03-1.33-4.5-1.36a8.7 8.7 0 0 0-5.69 2.13 7.9 7.9 0 0 0-2.32 5.9c0 1.83.08 2.18.94 3.7 1.1 1.96 1.98 2.85 3.61 3.67 2.1 1.06 3.85 1.15 6.58.34m-7.81-5.01c-.19-.07-.33-.35-.33-.6 0-.95.62-1.1 4-1.02l3.27.08v-1.52c0-1.76.6-2.67 1.4-2.15.38.25.44.65.38 2.51a20 20 0 0 1-.2 2.54c-.08.25-1.14.33-4.15.31a42 42 0 0 1-4.37-.15m-54.89 5.6c-.4-.88-.04-1.25 1.3-1.32.55-.04 1.07-.08 1.15-.1s.08-.54 0-1.16l-.15-1.12H9.76c-1.59 0-1.8-.14-1.57-1.05.14-.55.33-.67 1.03-.68.47 0 1.9-.18 3.18-.4 2.44-.43 2.83-.38 2.83.37 0 .65-.52 1.1-1.3 1.1-1.1 0-1.35.3-1.17 1.4.17 1.03.19 1.04 1.78 1.08.66.02 1.13.19 1.31.48.46.72-.08 1.03-2.24 1.27-1.07.12-2.29.35-2.7.5-1.17.46-1.75.35-2.08-.38m142.4-3.6c-3.95-.64-6.91-3.67-7.67-7.84-.28-1.58-.16-3.34.26-3.9.11-.15.29-.68.4-1.17.25-1.17 3.18-4.11 4.85-4.87.97-.45 1.76-.57 3.75-.57 2.17 0 2.7.08 4.01.7 2.12.98 3.7 2.55 4.6 4.52.64 1.38.76 1.99.75 3.79a9.2 9.2 0 0 1-4.38 8.04c-1.13.7-4.06 1.64-4.85 1.56zm4.42-1.59c1.16-.42 1.92-.96 3.16-2.24 1.45-1.49 1.67-1.87 2.02-3.4.84-3.66-.7-7.15-4.05-9.19-1.38-.84-1.57-.88-3.96-.87-2.4 0-2.59.05-4.02.92-2.68 1.63-3.93 3.98-3.92 7.37.01 3.72 1.77 6.08 5.69 7.62 1.25.5 3.4.4 5.08-.21m-5.13-3.4c-2.4-1.45-1.63-3.8 1.65-5.02 2.55-.96 4.83-.63 5.64.8.83 1.49-.8 3.59-3.35 4.3-2.01.57-2.91.55-3.94-.08m3.48-1.36c1.42-.36 2.38-1.29 2.13-2.07-.38-1.19-4.17-.48-5.1.95-.34.54-.31.61.38.99.9.49 1.12.5 2.59.13m-6.38-5.4c-.3-.77.13-1.08 2.32-1.69l3.92-1.1c1.24-.36 1.8-.42 2.05-.2.32.26.5 1.27.23 1.27-.15 0-2.15.54-5.3 1.44-2.8.79-3.02.8-3.22.28M7.87 214.43c.08-.65.22-.74 1.4-.92.74-.1 2.05-.32 2.92-.48 1.85-.34 2.51-.17 2.51.65 0 .54-.21.62-2.98 1.03-3.98.6-3.95.6-3.85-.28m-.64-3.83c-.65-.8-.62-2.49.05-2.84 1.03-.56 1.39-.36 1.3.7-.13 1.36.59 1.51 1.05.23.4-1.1 1.45-2 2.34-2 1.01 0 1.94 1.11 1.94 2.33 0 1.13-.48 1.74-1.25 1.59-.37-.08-.45-.3-.38-1.08.07-.86 0-.99-.48-.99-.4 0-.69.31-1.05 1.15-.27.64-.7 1.23-.94 1.33-.93.35-2.12.16-2.58-.42m167.81-2.04c-2.52-.52-4.95-2.49-6.23-5.05a10.7 10.7 0 0 1-.4-7.65c.63-1.65 2.29-3.55 4.33-4.94 1.18-.8 3.92-1.28 5.73-1.02 2.12.3 5.84 2.59 6.23 3.83.24.74.62.65.82-.2.58-2.45 2.33-4.83 4.79-6.51 1.55-1.06 4.35-1.42 6.74-.87 2.75.64 4.74 2.25 6.58 5.32.55.93.63 1.4.63 3.7 0 2.44-.06 2.76-.76 3.98-1.08 1.88-2.43 3.46-3.48 4.08a10.5 10.5 0 0 1-8.09.92 8.7 8.7 0 0 1-4.05-2.69l-1.14-1.19-.3 1.38c-.6 2.78-2.38 4.87-5.45 6.36a6 6 0 0 1-3.32.76c-.94-.01-2.12-.11-2.63-.21m4.66-1.28a9 9 0 0 0 4.76-3.97c.62-1.04.76-1.64.85-3.54.1-2.15.06-2.39-.74-4.02a8 8 0 0 0-1.52-2.21c-.37-.26-.98-.74-1.37-1.05-1.95-1.58-5.63-1.82-8.1-.53a7 7 0 0 0-3.63 3.68q-2.46 4.92 1.38 9.24c1.69 1.9 2.84 2.4 6.54 2.83.18.02 1-.17 1.83-.43m-5.51-3.42c-.98-.62-1.34-1.73-1-3.03.25-.9.38-1.02 1.08-1.02h.79l-.17 1.3c-.16 1.14-.11 1.33.38 1.6.72.38 1.62-.06 1.62-.8 0-.77 1.38-.71 1.73.08.18.43.48.6 1.05.6.76 0 .8-.05.8-1.2 0-1.03.07-1.2.59-1.27 1.36-.2 1.46 2.62.12 3.67-.56.44-.93.53-1.77.4a10 10 0 0 0-3.31-.01c-.87.1-1.39.01-1.91-.32m-.03-5.97c-1.77-1.42-.7-5.1 1.14-3.91.33.21.34.35.07.79-.44.72-.42 1.73.05 2.12.55.45 1.4.1 1.58-.66.23-.89 1.5-.93 1.88-.06.16.37.54.63.99.68.7.08.73.04.73-1.12s.03-1.21.77-1.21c.56 0 .83.15.95.55.26.81-.1 2.31-.68 2.9-.6.6-2.34.7-3.16.19-.42-.26-.64-.26-1.05 0-.85.53-2.43.4-3.27-.27m23.78 4.8a9 9 0 0 0 4.72-4.72c.37-1.04.46-1.79.35-3.01-.23-2.41-.62-3.48-1.86-5-2.42-2.97-6.08-3.77-9.7-2.11a7.8 7.8 0 0 0-4.25 4.29 8.3 8.3 0 0 0 4.04 10.43c1.79.89 4.51.94 6.7.12m-6.43-3.57c-.73-.57-.86-.84-.85-1.78.01-1.83 1.2-2.83 3.35-2.82 1.58.01 3.03.66 4.58 2.06 1 .9 1.14 1.14.9 1.55-.17.27-.5.53-.73.57-.42.09-1.23-.5-1.23-.9 0-.26-.87-.88-1.26-.9-.18 0-.33.3-.33.68 0 .4-.32 1-.77 1.46-1.02 1.02-2.44 1.05-3.66.08m2.53-1.22c.43-.42.4-1.4-.05-1.77-.58-.48-1.75.08-1.75.84 0 .72.45 1.25 1.06 1.25.23 0 .56-.14.74-.32m-3.25-5.98c-.08-.08-.14-.41-.14-.75v-.62h8.73v.66c0 .36-.09.67-.2.69-.75.1-8.29.12-8.4.02m-147.9 14.94q-4.63-1.56-6.16-5.8a9.46 9.46 0 0 1 3.73-11.28c2.25-1.55 6.44-1.79 9.17-.52a10.8 10.8 0 0 1 4.73 4.71c.6 1.29.7 1.8.68 4.12 0 2.23-.1 2.82-.6 3.8a15 15 0 0 1-4.65 4.58c-1.34.69-5.34.92-6.9.39m5.87-1.53c2.77-1.03 4.49-3.44 4.87-6.83.2-1.81.16-2.1-.45-3.43a8.7 8.7 0 0 0-3.45-4.18c-1.29-.85-1.68-.97-3.55-1.08-3.74-.22-6.28 1.2-7.84 4.36-.64 1.32-.75 1.84-.73 3.65.01 1.51.16 2.39.5 3.04.62 1.2 2.95 3.64 3.98 4.18a8.8 8.8 0 0 0 6.67.29m-6.68-2.36c-.43-.69.2-2.27 1.42-3.57 1.21-1.3 1.26-1.4 1.57-3.7.35-2.63.9-3.65 2-3.78.88-.1.95.6.18 1.86-.37.61-.53 1.34-.54 2.46 0 2.14-.15 2.57-1.08 3.1-.48.28-1 .95-1.34 1.72-.84 1.93-1.72 2.7-2.2 1.91m100.76-4.06c-4-1.31-6.4-4.36-6.64-8.43-.1-1.78-.19-2.07-.55-1.95l-1.88.67a9.32 9.32 0 0 1-12.37-7.95c-.16-2 .57-4.92 1.53-6.14.53-.67.53-.71.07-.87-3.3-1.15-5.11-2.7-6.46-5.52-.65-1.35-.77-1.9-.77-3.78 0-1.85.12-2.44.76-3.83 2.03-4.39 7.04-6.68 11.28-5.16q4.42 1.6 6.02 5.17a10 10 0 0 1-.75 8.86l-.65 1 .6.22 1.6.58c1.42.5 3.63 2.57 4.5 4.2a8 8 0 0 1 .9 3.61c.1 1.23.25 2.23.36 2.23s.77-.27 1.48-.6c1.04-.47 1.76-.58 3.8-.58 2.2 0 2.68.09 3.84.7 1.9 1 3.59 2.58 4.47 4.21.66 1.22.79 1.8.9 4.02.13 2.74.1 2.89-1.28 5.11-.87 1.4-2.94 3.2-4.42 3.83-1.54.66-4.9.88-6.34.4m6.4-1.67a7.5 7.5 0 0 0 4.31-5.72c.43-2.11-.27-5.31-1.41-6.45-.2-.2-.52-.57-.7-.82-.71-.94-2.77-2.11-4.26-2.42a8 8 0 0 0-5.48.71 6.7 6.7 0 0 0-3.05 2.89c-1.61 2.51-1.83 4.56-.78 7.24a8.7 8.7 0 0 0 6.08 5.28c1.37.32 3.9-.02 5.3-.7m-8.8-3.44c-.42-.16-.42-.79.01-1.06.49-.3 2.14-2.7 2.55-3.7.42-1.04.16-2.38-.5-2.6-.28-.08-.88.04-1.34.28-1 .52-1.59.36-1.4-.38.17-.6 1.04-1.24 2.05-1.5.51-.13.98.01 1.73.51.87.57 1.07.87 1.21 1.86.15.97.06 1.42-.53 2.59-.39.77-.88 1.6-1.1 1.85-.52.57-.1.82 1.05.6.63-.11 1.01-.04 1.3.26.39.38.51.32 1.4-.7 1.8-2.1 2.6-4.3 1.84-5.07-.53-.53-1.42-.54-2.1-.02-.73.55-.94.49-.94-.3 0-1.44 2.37-2.23 3.83-1.27.75.49 1.23 1.76 1.08 2.88-.1.81-1.31 3.18-1.75 3.46-.62.38-.12.65 1.2.65 1.28 0 1.46.06 1.46.52a1 1 0 0 1-.49.78c-.27.14-2.58.26-5.17.26-2.57 0-4.76.05-4.86.11s-.34.05-.52-.01m-6.38-5.8q2.48-.98 3.3-2.7c.25-.53.53-1.03.63-1.1 1.3-.99 1.47-4.27.38-7.01a6.7 6.7 0 0 0-1.92-2.81c-1.62-1.43-2.35-1.78-4.13-1.99-1.26-.15-1.57-.1-2.07.36-.56.5-1.92 1.02-4.33 1.64-1.33.35-2.33 1.55-2.91 3.52-1.62 5.44 2.74 11.07 8.27 10.67.89-.07 2.14-.33 2.78-.58m-7.9-3.53c-.43-.19-.6-.48-.6-1.07v-.8l1.27.16c.99.13 1.35.08 1.62-.25.3-.36.28-.53-.08-1.09-.24-.36-.67-.66-.96-.66-.81 0-.74-1.52.07-1.64.42-.06.62-.29.68-.8.1-.88-.63-1.33-1.8-1.1-.8.17-.84.14-.75-.6.08-.72.15-.76 1.6-.84 1.25-.06 1.6.02 2.07.5.5.49.56.79.45 2.04-.07.95.02 1.83.27 2.47.46 1.15.3 2.05-.54 3.02-.66.76-2.29 1.09-3.3.66m4.96-.51c0-.3.17-.62.37-.74.47-.27 2.46-3.52 2.68-4.37.08-.34.03-.96-.13-1.37-.24-.64-.38-.72-1-.57-.4.1-.94.38-1.2.6-.58.53-1.07.14-.94-.75.12-.86 1.17-1.34 2.59-1.2 1.36.14 2.02.77 2.28 2.19.2 1.02-.42 2.96-1.28 4.07l-.51.66 1.28.13c1.16.12 1.3.2 1.37.86.04.4-.02.74-.14.74l-2.8.15c-2.44.12-2.57.1-2.57-.4m-4.97-11.65c1.25-.64 2.56-1.1 3.49-1.22 1.73-.21 2.2-.66 3.1-2.99 1.48-3.84-.33-8.64-3.94-10.4-1.67-.81-5.48-.89-7-.13a8.2 8.2 0 0 0-4.62 6.22c-.48 4.1 2 7.97 5.87 9.2l1.08.34a52 52 0 0 0 2.02-1.02m-.45-3.77a7 7 0 0 1-.2-1.28l-.07-.92-1.65-.08c-1.95-.1-2.05-.33-.85-1.98l1.86-2.55a9 9 0 0 0 1.04-1.66c0-.12.24-.21.53-.21.48 0 .53.17.53 2.18 0 1.9.07 2.23.53 2.52.65.4.68 1.08.06 1.53q-.47.33-.46 1.48c0 1-.08 1.16-.6 1.23-.33.05-.65-.07-.72-.26m-.3-4.1c.1-.23.12-.49.04-.56-.17-.17-.94.46-.94.77 0 .41.74.25.9-.2M236.49 193c-1.38-.94-1.41-.95-2.9-.67-1.75.32-1.92.27-1.92-.59 0-.7.33-.84 2.12-.9 1.02-.05 1.35-.22 2.39-1.23q1.86-1.84 2.28-.76c.1.26-.2.78-.84 1.43l-1 1.03.9.54c.5.3.99.55 1.1.55.1 0 .2.36.2.8 0 1.06-.55 1.01-2.33-.2m-209.2-2.99c-.74-.08-2.05-.52-2.94-.98-1.43-.74-2.18-1.4-3.96-3.53-.76-.92-1.3-3.98-1.06-6.13.33-3.13 2.7-6.17 5.82-7.46 2.43-1 6.1-.74 8.2.58a10 10 0 0 1 1.2.84c.08.09.47.37.87.63.4.25.72.62.72.82s.18.5.4.69.66.88.97 1.55c.47 1.01.57 1.7.56 3.92-.01 2.52-.06 2.79-.8 3.97a12 12 0 0 1-4.62 4.33c-1.74.93-2.78 1.08-5.37.77m4.53-1.83c1.66-.73 3-1.65 3-2.05 0-.18.16-.41.35-.53.5-.3 1.46-2.9 1.66-4.5.38-3.03-2.13-6.86-5.19-7.9a10 10 0 0 0-6-.02c-1.72.59-4.06 3.02-4.7 4.88-.96 2.83-.22 5.74 2.17 8.45.3.33.62.6.74.6s.6.3 1.07.66c1.7 1.3 4.52 1.46 6.9.4m-.06-6.21c-.09-.35-.31-.7-.5-.77-.17-.07-2.19-.21-4.47-.32-2.28-.1-4.21-.3-4.29-.41-.07-.12-.05-.52.04-.9l.17-.68 4.14.15c5.26.19 5.71.26 6.37 1.1.94 1.2.58 2.47-.7 2.47q-.6.01-.76-.64m199.12 4.48q0-.65.72-1.03c.9-.48 1.92-1.42 1.92-1.78 0-.15-.5-.26-1.12-.23-1.75.07-1.83.04-1.74-.6.08-.56.3-.62 3.22-.94 3.54-.39 3.88-.29 3.88 1.16 0 1.92-1.26 3.07-2.75 2.5-.4-.15-.77-.27-.81-.27s-.55.41-1.11.92c-1.24 1.12-2.21 1.24-2.21.27m5.29-2.78c0-.39-.18-.53-.66-.53q-1.08 0-.35.74c.5.49 1 .38 1-.21m-5.68-4.48a9 9 0 0 1-.31-1.82c-.2-2-.14-2.04 3.8-2.28l2.98-.18v.87c0 .48.08 1.32.17 1.87.16.93.13 1-.51 1-.6 0-.71-.16-.9-1.13-.18-.9-.35-1.14-.85-1.22-.59-.08-.62-.02-.47.93.2 1.2-.08 1.77-.78 1.63-.37-.07-.51-.36-.58-1.23-.07-1-.15-1.13-.66-1.05-.48.06-.58.25-.58 1.14 0 .58-.1 1.2-.21 1.38-.25.4-.88.44-1.1.1m-222-4.55c-2.52-.45-5.45-2.29-6.57-4.13-1.3-2.13-2-6.32-1.27-7.66.16-.31.34-.8.38-1.1.1-.6 1.78-2.77 2.93-3.76l.78-.68-1.25-1.02a8.7 8.7 0 0 1-2.98-5.9 10 10 0 0 0-.4-2.24q-.22-.46.04-.46c.15 0 .28-.22.28-.48s.14-.62.31-.8c.18-.17.23-.31.11-.31-.46 0 1.3-2.52 2.7-3.86a7.7 7.7 0 0 1 4.6-2.3c.4-.04.78-.14.86-.22.31-.31 3.62.27 4.94.88 1.48.67 3.94 2.76 3.94 3.33 0 .17.1.32.2.32.52 0 1.25 3.08 1.2 5.04-.08 2.87-.85 4.77-2.66 6.54l-1.44 1.4 1.43 1.38a7.8 7.8 0 0 1 2.69 5.7c.18 2.98-.31 4.7-1.95 6.74a8 8 0 0 1-3.08 2.58c-1.82.9-4.1 1.3-5.78 1m3.97-1.61q1.56-.44 3.22-1.88c.3-.27.95-1.32 1.41-2.34.72-1.54.85-2.14.83-3.66a6.6 6.6 0 0 0-1.3-4.37c-.68-1.05-2.67-2.78-3.2-2.78-.14 0-.6.14-1 .3-.66.26-1.89.28-5.74.12-2.03-.1-3.82 1.98-4.56 5.27-.39 1.75-.07 4.44.6 5.12.2.19.35.43.36.52 0 .1.5.74 1.12 1.41a8 8 0 0 0 4.82 2.61c1.4.2 1.73.17 3.44-.32M5.31 167c-.27-.86.16-3.5.66-4.03a2.8 2.8 0 0 1 2.73-.66c.57.2.84.15 1.23-.2.64-.57 2.41-.81 3.14-.43.75.4 1.16 1.93 1.06 4l-.09 1.72-4.28.07c-4.1.07-4.28.05-4.45-.47m7.01-1.34c.33-.25.28-.3.4-.47-.2-1.03-.13-.78-.62-1.72-.24-.47-.56-.38-.94-.1-.53.39-.86 2.04-.46 2.29.47.29 1.62.29 1.62 0m-4.5-.4c0-.22-.1-.34-.22-.27-.13.08-.18-.18-.11-.58.09-.56.05-.63-.17-.32-.42.6-.36 1.59.1 1.59a.4.4 0 0 0 .4-.42m1.06-.14c0-.15-.12-.2-.26-.1-.15.09-.27.28-.27.42 0 .15.12.2.27.1.14-.08.26-.28.26-.42m-1.32-8.96c1.04-.2 4.25-.15 5.5.1 1.11.22 1.16.2 2.31-1 1.86-1.94 2.5-3.46 2.5-5.9 0-1.72-.11-2.3-.72-3.52-2.12-4.22-6.72-5.96-10.6-4-1.47.75-3.45 2.63-3.62 3.45-.05.22-.29.8-.53 1.27a7 7 0 0 0-.45 2.78 7.7 7.7 0 0 0 1.92 5.32c.89 1.04 2.4 2.04 2.74 1.82.16-.1.59-.24.95-.32m-2.18-4.04c-.3-.9.16-1.28 2.48-1.97 1.45-.44 2.22-.79 2.02-.92-.19-.1-.35-.33-.37-.48l-.07-.5c-.01-.13-.6-.39-1.29-.58-1.82-.5-2.44-.97-2.44-1.85 0-1.04.38-1.17 1.6-.54.57.3 1.04.46 1.05.35q.02-.15.2.1c.16.24 3.36 1.8 3.76 1.83.07 0 .4.16.73.34s.6.25.6.15.23.03.52.3c1.06.95.84 1.13-2.9 2.34-1.1.36-2.57.9-3.27 1.2-1.44.63-2.46.72-2.62.23m229.65 20.15c-.26-.15-1.62-.57-3.03-.92s-2.6-.7-2.67-.77c-.29-.3.25-.89 1.18-1.3.56-.26 1.96-.95 3.1-1.53 1.85-.94 2.13-1.02 2.48-.67.56.56.28.86-1.67 1.8-.94.45-1.76.92-1.83 1.03s.6.36 1.5.56q2.85.64 2.45 1.63c-.2.51-.8.58-1.51.17m-190.46-4.04c-1.99-.82-2.93-1.52-4.03-3.03-1.48-2.02-2.12-4.03-1.95-6.12.15-1.73.88-4.12 1.49-4.82 1.4-1.63 1.88-2.08 2.8-2.68a9.63 9.63 0 0 1 14.02 4.56c1 2.6.95 5.34-.12 7.23a13 13 0 0 1-3.45 3.95c-2.12 1.58-6.12 2-8.76.9m5.41-.87c1.88-.27 5.2-2.8 5.2-3.94 0-.21.12-.39.27-.39.14 0 .26-.33.26-.73s.12-1.14.27-1.65c.35-1.21-.13-3.73-.98-5.2-1.8-3.14-6.1-4.86-9.37-3.76-2.39.8-4.98 3.72-5.49 6.18a6.8 6.8 0 0 0 .32 4.24 7.6 7.6 0 0 0 3.4 4.28c1.4.87 3.76 1.5 4.67 1.24.2-.06.85-.18 1.45-.27m-3.33-3.45c-.38-.1-.46-.43-.46-1.8 0-.9.18-2.16.4-2.78.48-1.37.48-1.4.06-1.16-.18.1-.1-.07.17-.38.72-.83.53-.79-1.65.3-1.24.62-1.85.56-2.21-.24q-.5-1.14.95-1.16c1.03-.01 2.72-.66 3.94-1.52 1.8-1.26 2.28-.78 1.25 1.25-.92 1.8-1.37 4.29-1.05 5.73.25 1.1.22 1.3-.18 1.6-.25.19-.53.33-.6.3zm140.96 3.4c-2.18-.82-3.18-1.56-4.35-3.23-1.2-1.72-1.52-2.51-1.86-4.77-.55-3.68 1.87-7.95 5.5-9.68 1.25-.6 1.88-.72 3.78-.73 2-.02 2.48.07 3.97.77 2.65 1.25 3.86 2.4 5.08 4.88.74 1.52.84 1.96.81 3.84-.04 3.81-1.86 6.8-5.12 8.42-1.49.74-2.02.86-4.1.92-1.82.05-2.7-.05-3.71-.43m6.9-1.32c3.22-1.64 4.75-4.25 4.64-7.92-.07-2.23-.32-2.92-1.75-4.75-1.82-2.3-4.56-3.35-7.7-2.93a7.3 7.3 0 0 0-5.15 2.9c-1.25 1.59-1.7 2.98-1.68 5.24a7.5 7.5 0 0 0 2.25 5.43 7.8 7.8 0 0 0 6.59 2.68 8 8 0 0 0 2.8-.65m-1.18-4.55c-1.27-1.58-2.18-1.96-4.73-1.97-3.34-.02-3.28-.16 1.39-4 2.34-1.92 2.84-2.17 3.51-1.74.54.34.18.85-1.8 2.55-2 1.73-2.01 1.64.2 2.23a5 5 0 0 1 3.16 2.6c.71 1.71-.45 1.93-1.73.33m35.57 3.64c-.3-.98-.34-3.36-.06-3.59.43-.34 6.27-.94 6.52-.67.3.33.52 3.13.28 3.52-.4.63-1.2.2-1.28-.7s-.65-1.55-1.1-1.28c-.15.1-.28.7-.28 1.35 0 .99-.08 1.17-.51 1.17-.61 0-.95-.46-.87-1.19.1-.85-.37-1.37-.91-1.03-.35.22-.45.58-.39 1.52.07 1.17.04 1.23-.61 1.23-.38 0-.74-.15-.8-.33M210.63 164c-1.52-.5-3.01-1.5-4.28-2.89-1.06-1.15-2.2-3.2-2.2-3.96 0-.2-.11-.48-.24-.61-.39-.42.19-4.1.9-5.84 1.35-3.21 4.92-5.4 8.82-5.4 1.3 0 4.16.97 5.33 1.8a10 10 0 0 1 3.9 7.28 7 7 0 0 1-.57 3.87 10.8 10.8 0 0 1-4.45 5.16c-1.05.6-1.63.74-3.7.83-1.62.08-2.82 0-3.51-.24m6.74-1.97a8 8 0 0 0 3.77-4.42c.18-.58.32-1.9.32-2.94-.02-1.74-.1-2.04-1.14-3.79-1.75-2.94-4.09-4.27-7.43-4.24-4.87.05-8.72 5.05-7.5 9.74a8 8 0 0 0 2.73 4.63c1.24 1.11 2.03 1.48 3.96 1.85 1.39.27 3.85-.12 5.29-.83m-8.93-3.4c-.56-.24-.36-.8.53-1.53 4.65-3.77 4.2-3.6 8-3.05 1.97.28 2.7.72 2.42 1.45-.15.4-.43.42-2.22.25l-2.88-.27c-.85-.07-1.22.16-3.66 2.33-1.08.95-1.48 1.1-2.19.81m-55.5 3.89a9.4 9.4 0 0 1-4.29-2.62c-2-1.96-2.54-3.6-2.38-7.25.15-3.18.21-3.34 2.37-5.58 1.52-1.57 2.18-1.97 4.5-2.7 1.94-.59 3.96-.43 6.31.52a8.8 8.8 0 0 1 4.76 4.42c.83 1.56.9 1.86.88 4.06 0 2.04-.1 2.6-.73 3.9a12 12 0 0 1-4.28 4.59c-.96.56-3.83 1.19-5.28 1.15-.3-.01-1.13-.23-1.87-.5m5.23-1.25c3-.84 5.38-3.9 5.7-7.31.27-3-1.9-6.67-4.7-7.95-.92-.42-1.75-.55-3.58-.56-2.1 0-2.53.08-3.7.71-2.46 1.34-3.57 2.73-4.18 5.23q-1.1 4.56 2.38 7.99c2.23 2.17 4.87 2.8 8.08 1.9m-4.22-4.73c-.82-.82-.92-1.05-.78-1.88.08-.53.34-1.16.57-1.42.38-.42.38-.54-.02-1.38-.41-.87-.4-.96.13-2 .44-.88.76-1.15 1.6-1.38 1.36-.37 2.27-.12 2.92.8.63.87.68 1.86.14 2.89-.34.65-.34.86-.02 1.5q.78 1.6-.82 3.01c-1.3 1.14-2.5 1.1-3.72-.14m2.94-1.5c.22-.37.17-.59-.28-1.03-.7-.7-1.68-.48-1.68.39 0 1.19 1.34 1.62 1.96.63m.15-3.63c.15-.28.2-.7.1-.94-.23-.6-1.77-.44-1.9.2-.2 1.1 1.28 1.7 1.8.74m59.71-6.75c-2.43-.89-4.67-2.92-5.57-5.04a8.6 8.6 0 0 1-.58-5.71c.58-3.1 2.21-5.23 5.16-6.75 1.24-.64 1.74-.74 3.84-.76 2.78-.02 4 .3 5.83 1.5 2.57 1.7 4.27 5 4.2 8.16-.07 3.3-2.95 7.26-6.16 8.48q-3.44 1.3-6.72.12m5.92-1.02a8.7 8.7 0 0 0 4.98-4.82c.45-1.2.53-4.09.15-5.38a8.7 8.7 0 0 0-6.27-5.73 5.2 5.2 0 0 0-3.4 0c-2.85.75-4.4 1.92-5.48 4.17-1 2.11-1.22 3.5-.82 5.4a7.2 7.2 0 0 0 2.2 4.28 8 8 0 0 0 8.64 2.08m-5.41-4.35c-1.39-1.07-1.74-1.72-1.74-3.2 0-.73.22-1.21.86-1.91l2.26-2.49c1.3-1.42 1.46-1.52 2.05-1.24.36.16.65.48.65.71s-.76 1.17-1.69 2.08c-2.84 2.8-3.03 3.44-1.45 4.78 1.3 1.09 2.56.47 4.68-2.31.83-1.09 1.09-1.27 1.76-1.2.5.05.83.25.88.52.08.43-3.13 3.91-4.43 4.8q-1.68 1.13-3.83-.54m-75.6 4.25c.18-.08.41-.07.5.02.09.08-.07.15-.35.14q-.46-.04-.16-.16m-83.41-5.13a9.5 9.5 0 0 1-4.66-3.69c-.9-1.28-1.3-2.92-1.3-5.56-.01-2.88.67-4.46 2.87-6.6 1.75-1.72 3.1-2.31 5.84-2.55 7.1-.62 12.48 7.25 9.4 13.75a11.7 11.7 0 0 1-4.54 4.54c-1.58.77-5.9.83-7.61.11m5.29-.8c2.61-.47 4.32-1.89 5.7-4.72.75-1.53.82-1.87.68-3.44-.26-3.16-1.24-4.93-3.75-6.78-1.97-1.46-4.58-1.82-7.29-1.02-3.12.93-5.84 5.14-5.43 8.4a8.7 8.7 0 0 0 6.81 7.56c1.6.32 1.53.32 3.28 0m-2.68-4.52a25 25 0 0 0-2.7-1.45c-1.5-.67-1.9-1.2-1.39-1.82.61-.73 2.18-.39 3.84.84 1.69 1.24 2.59 1.3 3.67.22 1.77-1.77 3.81-2.71 4.27-1.97.2.32-.55 1.58-.94 1.58-.31 0-2.7 1.63-3.9 2.68-.48.42-1.02.76-1.2.76a6 6 0 0 1-1.65-.84m22.62-1.67c-2.95-.6-4.68-1.82-6.27-4.46-2.94-4.88-1.02-10.84 4.32-13.43a7 7 0 0 1 3.62-.8c1.11 0 2.14.06 2.29.15s.56-.29.91-.84a10 10 0 0 1 4-3.57c1.82-.83 6.04-.87 7.82-.08a9.7 9.7 0 0 1 4.72 4.64c.61 1.27.7 1.78.7 4.1 0 2.5-.05 2.72-.89 4.23a10 10 0 0 1-4.5 4.33c-1.27.6-1.85.7-3.87.7h-2.38l-.7 1.08a10.6 10.6 0 0 1-6.85 4.16c-.65.07-1.96-.02-2.92-.21m4.79-1.5c1.4-.49 4.48-3.05 4.48-3.74 0-.08-.5-.44-1.12-.8-1.31-.78-3.28-2.67-3.76-3.62-.64-1.27-.99-3.46-.9-5.63l.1-2.18-2 .01c-1.76.01-2.15.11-3.56.92-2.6 1.48-3.93 3.26-4.33 5.74a7 7 0 0 0 .86 5 8 8 0 0 0 3.01 3.4 8.5 8.5 0 0 0 7.22.9m-5.68-3.29c-.81-.8-.37-1.43 1-1.43 1.76 0 1.53-1.96-.25-2.17-.9-.1-1.15-.8-.53-1.42.81-.82.32-1.87-.74-1.61l-1.32.32c-.44.12-.67.03-.8-.3-.22-.57.27-1.16 1.35-1.61 1.27-.53 1.89-.44 2.74.42.59.58.78 1.01.78 1.78 0 .73.15 1.11.52 1.34.28.18.71.7.95 1.17.65 1.25.18 2.59-1.17 3.35-1.22.68-1.96.73-2.53.16m17.37-2.07a9.4 9.4 0 0 0 4.2-4.33 8.2 8.2 0 0 0-.08-6.44c-.64-1.4-2.42-3.4-3.02-3.4-.17 0-.45-.18-.62-.4-.18-.2-1-.58-1.82-.82a8.3 8.3 0 0 0-5.7.42c-1.4.63-3.34 2.24-3.34 2.78 0 .2-.15.4-.33.46-.43.14.22.99.76.99.48 0 3.44 2.97 3.66 3.68.1.3.34.55.54.55.27 0 .19-.41-.32-1.65-.88-2.15-.92-2.95-.16-3.06.69-.1 1.11.61 1.8 3 .25.87.66 2.06.92 2.64.85 1.9.88 2.19.27 2.51-.76.41-1.1.08-1.7-1.7-.27-.81-.6-1.47-.73-1.47-.12 0-.06.32.14.72.43.86.55 3.75.2 5.15-.28 1.21-.15 1.29 2.1 1.17a8 8 0 0 0 3.23-.8m-1.03-4.7c-.75-.37-1.24-1.57-1.08-2.66.1-.67-.01-1-.5-1.45-.74-.69-.87-2.45-.23-3.08.22-.22.4-.59.4-.82 0-.32.3-.41 1.34-.41 1.14 0 1.46.12 2.15.8.7.7.78.94.64 1.81-.13.84-.05 1.1.48 1.6q1.22 1.15.68 2.8c-.5 1.5-2.31 2.16-3.88 1.4m2.14-1.44c.52-.2.54-1.26.03-1.68-.6-.5-1.59-.23-1.69.47-.17 1.22.45 1.68 1.66 1.21m-1.04-4.34c0-.8-.09-.93-.7-1-.5-.06-.8.07-.99.42-.37.69.34 1.7 1.12 1.6.46-.07.57-.27.57-1.02m-6.4 9.4a8.4 8.4 0 0 0-.63-4.89c-.96-2.24-4.14-4.67-4.78-3.66a8 8 0 0 0-.22 2.2c0 1.62.13 2.1 1 3.83.8 1.57 1.28 2.17 2.3 2.86.7.48 1.46.83 1.69.79s.5-.53.63-1.14m20.71 1.7c-2.99-.75-6.13-3.68-7.04-6.56a7.7 7.7 0 0 1-.1-5.14c.83-3.24 2.22-4.9 5.27-6.31a7.4 7.4 0 0 1 3.87-.87c1.7-.01 2.28.1 3.7.78a9.7 9.7 0 0 1 4.78 4.49c1.37 2.78 1.45 6.01.2 8.43-.74 1.42-2.22 3.23-3 3.66-2.57 1.42-3.03 1.58-4.8 1.68a12 12 0 0 1-2.88-.16m5.74-1.97c5.5-2.7 6.12-9.99 1.18-13.97-2.22-1.79-4.92-2.2-7.87-1.2-5.9 2-7.46 9.83-2.75 13.81.57.48 1.39 1.07 1.83 1.32 2.09 1.17 5.26 1.19 7.6.04m-9.17-3.27c-.25-.28-.37-.68-.27-.93.14-.36.4-.4 1.45-.27 1.21.16 1.28.14 1.45-.5.2-.83 0-1.2-.83-1.52-.7-.27-.93-1.58-.28-1.58.6 0 1.03-.73.86-1.45-.15-.58-.3-.66-1.23-.62-1.96.08-2.03-1.16-.1-1.52 2.16-.4 3.77 1.7 2.76 3.58-.18.34-.14.73.16 1.33.53 1.06.33 2.5-.46 3.35-.76.8-2.82.89-3.5.13m8.44.16c-.07-.18-.15-.8-.2-1.39-.07-1.04-.09-1.06-1.13-1.09-1.86-.06-1.98-.09-1.98-.52 0-.39.97-1.8 2.17-3.15a16 16 0 0 0 1.08-1.45c.34-.53.83-.93 1.12-.93.46 0 .51.2.52 2.2 0 1.82.08 2.25.47 2.46.6.34.58.63-.1 1.27-.45.41-.53.7-.4 1.37.1.5.04 1-.13 1.2-.37.45-1.27.47-1.42.03m-.14-4.46c0-.47-.06-.5-.4-.23-.21.18-.4.43-.4.56s.19.23.4.23c.23 0 .4-.24.4-.56m27.02 7.46a8.3 8.3 0 0 1-3.53-2.2c-4.88-4.65-3.66-12.72 2.34-15.46 3.58-1.64 8.45-.85 10.98 1.8 2.28 2.37 3.01 4.24 2.97 7.57-.03 2.93-2.54 6.54-5.48 7.9-2.07.94-5.32 1.12-7.28.39m6.06-1.33c2.2-.69 3.72-2.07 4.8-4.4.74-1.57.8-1.9.65-3.4-.24-2.38-.84-3.91-2.06-5.3a8 8 0 0 0-4.95-2.78 6.6 6.6 0 0 0-3.57.15c-1.65.4-2.08.65-3.44 1.94-1.8 1.7-2.48 3.02-2.71 5.25a8.2 8.2 0 0 0 3.45 7.36c1.35.98 1.79 1.17 3.73 1.57 1.73.36 1.63.37 4.1-.4m-.67-3.75a7 7 0 0 0-1.85-.2c-2.17.08-2.22-.1-.43-1.83 1.56-1.51 2.68-3.25 2.68-4.16 0-.9-1.03-1.4-2-.96s-1.17.38-1.17-.34c0-.88.93-1.47 2.32-1.47q2.42 0 2.44 2.52c0 1.4-.26 1.98-1.5 3.36a4 4 0 0 0-.88 1.26c0 .15.46.26 1.02.26 1.17 0 1.75.51 1.5 1.31-.2.6-.8.67-2.13.25m-6.94-.98c-.24-.15-.26-.7-.06-2.3.6-4.96 1-6.48 1.68-6.48.49 0 .65.45.53 1.46l-.37 3.57a63 63 0 0 1-.41 3.37c-.13.6-.75.78-1.37.38m-131.5 2.98c-2.45-2.53-2.45-2.51-.61-4.17 1.22-1.1 2-1.36 3.5-1.16 2.07.28 3.43 2.83 2.49 4.65-.56 1.07-2.36 2.95-2.82 2.94-.2 0-1.36-1.02-2.56-2.26m3.5-.54c.8-1.21-.02-3.28-1.3-3.28-.67 0-1.74.7-1.73 1.14 0 .37 2.06 2.83 2.37 2.83.11 0 .41-.31.66-.7m45.91-.19q-3.22-1.15-4.54-3.2c-2.3-3.55-2.45-6.9-.49-10.39a9 9 0 0 1 4.5-4.12c1.17-.47 1.96-.6 3.97-.59 2.94 0 4.18.48 6.33 2.41 1.92 1.72 2.75 3.58 2.88 6.46.1 2.19.07 2.4-.8 4.25-1.72 3.65-4.31 5.43-8.28 5.68-1.48.1-2.2 0-3.57-.5m6.22-1.2c1.56-.51 3.5-2.3 4.37-4a8.4 8.4 0 0 0-1.87-9.9c-1.36-1.24-2.33-1.66-4.7-2.02-1.75-.27-1.96-.25-3.67.42-2.94 1.16-4.47 3.03-5.11 6.24a7.6 7.6 0 0 0 1.05 5.77 7.3 7.3 0 0 0 3.37 3.18c2.17 1.1 3.98 1.18 6.56.32m-5.3-2.7c-.26-.42.1-2.08 1.06-4.85 1.06-3.03.92-3.14-1.62-1.33q-2.75 1.95-2.95.46-.08-.58.53-.96l3.35-2.14c1.5-.98 2.92-1.74 3.15-1.7.74.15 1 .9.67 2a64 64 0 0 1-1.41 4.17c-.63 1.5-.6 2.03.08 1.45.18-.15 1.15-.76 2.16-1.36l1.83-1.09.5.6c.26.34.39.72.27.84-.32.32-3.28 2.07-3.5 2.07-.1 0-.82.48-1.6 1.06-1.42 1.06-2.2 1.3-2.52.79m153.72 2.54c-.78-.78-.84-1.75-.14-2.19.45-.27.57-.2 1.05.6.88 1.5 1.45 1.08 1.03-.76a2.6 2.6 0 0 1 .25-1.99c.4-.8.62-.97 1.42-1.04s1.08.06 1.67.76c.84 1 .82 1.93-.04 2.05-.43.06-.68-.11-.9-.6-.17-.37-.49-.68-.7-.68-.3 0-.34.23-.2 1 .27 1.6.22 2.15-.23 2.84-.6.93-2.3.93-3.21.01m-36.46-.7c-3.53-1.2-5.6-3.24-6.66-6.56-.94-2.93.04-7 2.22-9.19 2-2 5.1-3.17 7.88-2.96 1.81.14 4.49 1.34 5.97 2.7 1.98 1.8 3.01 4.85 2.8 8.23a5 5 0 0 1-1.02 3.18c-1.68 2.48-3.38 3.87-5.66 4.6a7.7 7.7 0 0 1-5.53 0M186 116c1.6-.56 3.81-2.53 4.6-4.08 1.6-3.14.97-7.42-1.37-9.45-.41-.36-.92-.82-1.11-1.01s-1.05-.67-1.9-1.04c-3.68-1.64-8.4.21-10.34 4.06-1.54 3.03-.7 7.26 1.92 9.7A8.1 8.1 0 0 0 186 116m-4.78-3.7c-.45-.4-1.32-1.07-1.92-1.47q-1.89-1.32-.36-1.65c3.45-.72 5.3-1.52 5.65-2.43.29-.77-.1-1.64-.76-1.7l-.72-.1-.6-.1c-.55-.05-.36-.78.33-1.24.85-.56 2.23-.13 3.17.99 1.22 1.44.7 3.08-1.4 4.42-.7.46-1.47.83-1.7.83s-.63.08-.88.18c-.4.15-.3.31.57 1.05.87.73 1 .95.75 1.34-.45.72-1.21.68-2.13-.12m48.41 4.56a10 10 0 0 1-6.57-6.02c-.6-1.62-.44-6.3.24-7.05.23-.25.42-.55.42-.65 0-.3 1.13-1.79 1.99-2.62 1.9-1.82 5.74-2.83 8.39-2.2a8.8 8.8 0 0 1 4.65 2.4c1.1 1.02 1.52 1.67 2.2 3.4.92 2.4 1 3.67.38 6.03a9.6 9.6 0 0 1-3.14 4.82 8 8 0 0 1-4.43 1.99c-2.14.37-2.4.36-4.13-.1m5.38-1.5c5.05-1.88 6.95-8.29 3.72-12.54a9 9 0 0 0-6.94-3.55c-3.67 0-7.32 3.45-7.91 7.48-.28 1.86.64 4.58 2.14 6.38a8 8 0 0 0 9 2.24m-2.96-2.98c-.39-.58-.39-.71 0-1.44.6-1.18.5-1.67-.5-2.48-1.07-.85-1.17-.86-2.37-.3-.9.44-2.28.35-2.28-.14 0-.28 1.38-1.1 4.65-2.8 1.3-.67 2.47-1.34 2.61-1.47.4-.39 1.47-.3 1.64.14.14.37-.7 3.38-1.79 6.43-.27.77-.5 1.62-.5 1.9 0 .4-.47.8-.94.8-.06 0-.3-.28-.52-.64m1.3-5.24c.36-1.36.15-1.54-.86-.77-.58.45-.59.5-.17.92.59.6.84.56 1.03-.15m-212.7 8.17c-.43-.2-1.43-1.04-2.2-1.86-1.17-1.23-1.4-1.61-1.26-2.15.3-1.16 1.2-.82 2.8 1.06.8.94 1.65 1.71 1.87 1.72.45 0 1.57-.93 1.57-1.3 0-.46-1.37-1.87-1.65-1.7q-.24.14-.1-.1c.08-.15-.2-.64-.65-1.08-.94-.9-.94-1.73-.02-1.86 1.18-.16 4.01 3.17 4.01 4.72 0 1.1-1.41 2.58-2.64 2.77a3.5 3.5 0 0 1-1.72-.22m192.01-1.55c-.55-.55-.35-.9 1.4-2.55.95-.88 1.73-1.76 1.73-1.95 0-.2-.25-.56-.55-.82-.68-.58-.55-1.08.3-1.18.83-.1 4.12 3.1 3.86 3.76-.21.57-1.04.53-1.8-.09l-.62-.5-1.36 1.4c-1.8 1.86-2.55 2.35-2.96 1.93m-4.62-4.43a5 5 0 0 1-1.24-1.84c-.3-.93-.3-1.21.1-2.27.58-1.5 1.28-1.97 3.15-2.17 1.44-.15 1.45-.14 2.68 1.09 1.32 1.31 1.49 2.1.58 2.64-.4.24-.55.2-.8-.23-.72-1.24-1.7-2-2.62-2-1.14 0-1.78.69-1.78 1.9 0 1.05.52 1.65 1.8 2.1q1.34.45.53 1.25c-.53.53-1.47.35-2.4-.47m-181.1-1.23-1.57-1.76-.69.46c-.76.5-1.78.34-1.78-.27 0-.52 3.58-3.82 4.14-3.82.86 0 1.03 1.37.21 1.69-.73.28-.36 1.09 1.24 2.7 1.29 1.3 1.58 1.74 1.44 2.19-.34 1.07-1.3.69-3-1.2m6.47-3.61a10 10 0 0 1-.98-1.2c-.3-.47-.8-.67-2.2-.9-1.87-.3-2.36-.7-1.76-1.42.23-.27.71-.38 1.55-.32l1.22.07-.1-1.16c-.1-1.24.18-1.6 1.22-1.61.55 0 .6.11.6 1.54 0 1.27.13 1.71.73 2.5.4.53.93 1.04 1.19 1.12.47.17.6.83.26 1.34-.43.61-1.15.63-1.73.04m168.57-.79c-1.4-1.29-1.4-1.31.36-3.13.63-.64 1.47-1.56 1.87-2.03s.94-.86 1.2-.86c.69 0 2.81 2.24 2.62 2.76-.24.62-.99.5-1.82-.3-.69-.66-.78-.68-1.18-.29s-.35.5.47 1.23c.73.66.84.89.61 1.26-.47.77-.87.72-1.72-.18-.75-.8-.83-.83-1.25-.42-.42.42-.4.5.43 1.26.48.45.83 1.01.78 1.25-.15.84-1.1.62-2.37-.55m-5.6-5.14c-.46-.46 0-1.19 2.04-3.2a18 18 0 0 1 2.46-2.18c.49 0 1.89 1.74 2.06 2.55.37 1.78-2.18 3.07-3.58 1.8-.55-.5-.56-.5-1.26.35-.66.82-1.32 1.08-1.72.68m5.07-2.37c-.13-.69-.97-1.1-1.27-.64-.3.5.15 1.07.84 1.07q.52 0 .43-.43m-7.85-.33c-.28-.18-.32-.62-.17-1.87l.19-1.63-1.65.08c-1.32.06-1.7-.01-1.94-.37-.43-.66-.06-.86 1.9-1l1.76-.14.08-1.8c.08-1.79.09-1.8.8-1.72.7.08.7.12.62 1.64l-.1 1.57 1.47-.16c1.09-.1 1.55-.05 1.78.23.6.71.08 1.17-1.3 1.17-1.94 0-2.16.14-2.16 1.45 0 2.38-.37 3.12-1.28 2.55M48.3 90.9a10 10 0 0 1-5.8-5.65c-.88-2.1-.71-5.37.4-7.58a9 9 0 0 1 4.77-4.45c2.26-.91 3.37-1.05 5.36-.7q5.68 1.05 7.45 6.03 1.64 4.66-1.14 8.8c-.9 1.35-1.8 2.06-3.86 3.08-1.85.9-5.34 1.13-7.17.47m7.05-1.77c1.9-1.16 2.7-2 3.67-3.9a7.9 7.9 0 0 0-.62-7.8 9.4 9.4 0 0 0-4.41-3.28c-1.48-.44-5-.28-5.94.26-2.76 1.6-3.86 3.02-4.6 5.95a6.2 6.2 0 0 0 .74 5.12c.37.59.68 1.18.68 1.3 0 .4 1.75 1.83 2.98 2.46a6.4 6.4 0 0 0 4.2.92 5.6 5.6 0 0 0 3.3-1.03m-5.82-3.96c-1.02-1.84-2.5-4.1-2.82-4.3-.14-.1-.26-.5-.26-.91 0-.58.18-.82.79-1.07a5 5 0 0 0 1.45-1c.52-.52 1-.68 2.32-.78 1.43-.11 1.78-.04 2.56.5 1.96 1.34 2.58 3.24 1.76 5.37-.34.89-.84 1.48-2.04 2.38-2.18 1.63-2.78 1.6-3.76-.2m2.69-.92c1.56-1 1.93-1.8 1.59-3.4-.18-.87-.42-1.2-1.25-1.66a5 5 0 0 0-1.38-.57c-.3 0-2.24.9-2.56 1.2-.08.07.8 1.79 1.41 2.74.15.23.48.81.74 1.28.54 1 .51 1 1.45.4m-39.37 5.76c-2.06-.4-4.88-2.23-5.91-3.86-1.43-2.25-1.8-6.15-.82-8.89a9 9 0 0 1 2.3-3.36c.27-.2.7-.58.95-.86 1.56-1.67 7.07-2.2 9.67-.93 1.84.9 3.35 2.24 4.43 3.92.88 1.37.89 1.42.88 4.44 0 2.76-.07 3.18-.72 4.5-.84 1.73-3.42 4.13-5.05 4.7-1.37.46-4.16.63-5.73.34m3.44-1.27c0-.1.36-.22.8-.25.93-.07 3.23-1.35 3.02-1.7q-.1-.19.25-.08c.56.22 1.93-1.78 2.45-3.56.44-1.5.4-4.95-.07-5.29-.13-.1-.27-.35-.31-.56-.32-1.55-3.25-4.05-5.28-4.52a8 8 0 0 0-7.25 1.7c-1.01.85-2.3 2.57-2.3 3.08 0 .07-.14.49-.3.93-.38.97-.26 5.1.15 5.36.17.1.46.5.67.89.5.93 1.87 2.46 2.7 3 .39.25 1.2.62 1.83.8 1.23.4 3.64.52 3.64.2m-2.65-4.83a54 54 0 0 0-2.82-2.45 4 4 0 0 1-1.22-1.28c-.29-1.04.96-1.74 1.64-.93.17.2.53.31.8.24.44-.11.5-.33.4-1.65-.1-1.26-.03-1.6.4-1.99.79-.71 1.24-.35 1.44 1.17.16 1.22.08 2.1.43 3 0 .11 1.3.14 2.89.06 2.87-.15 3.33-.03 3.04.73-.23.6-1.34.98-2.9.98-.78 0-1.5.13-1.58.27-.1.15-.3.2-.46.1q-.25-.16-.1.12c.22.35-.12.41-.53.11-.14-.11.2.23.77.75 1.21 1.13 1.3 2.18.19 2.3-.5.04-1.1-.34-2.39-1.53m172.91 5.27c-.65-.6-1.2-1.32-1.2-1.6 0-.64 3.96-4.45 4.64-4.45.74 0 2.57 1.9 2.36 2.46-.24.64-.9.54-1.74-.26-.61-.59-.8-.65-1.14-.37-.58.49-.5.94.25 1.44.37.24.67.67.67.96 0 .81-.96.64-1.84-.34l-.76-.86-.34.74c-.3.67-.26.8.5 1.6 1 1.01 1.02 1.12.32 1.5-.44.23-.71.1-1.72-.82m-6.94-5.14c-2.89-.7-5.46-3.09-6.7-6.21-.77-1.98-.63-5.03.34-7.18a9.5 9.5 0 0 1 5.32-4.94c.99-.33 2.44-.58 3.28-.58 1.46 0 1.49-.02.9-.43-1.14-.8-3.35-6.38-2.85-7.2.08-.12.22-.79.31-1.48.5-3.74 3.72-6.8 7.93-7.59 2.3-.42 5.11.28 7.24 1.82 1.37 1 1.84 1.59 2.9 3.63 3.09 5.97-1.09 13.03-8.02 13.55l-1.97.15 1.08 1.22c1.86 2.12 2.18 2.98 2.19 5.98.01 3.23-.43 4.36-2.53 6.44a9.3 9.3 0 0 1-5 2.86c-1.8.4-2.65.4-4.42-.04m5.09-1.47c5.83-1.8 7.45-9.37 2.97-13.94-.6-.62-1.3-1.12-1.56-1.12-.25 0-.52-.11-.6-.25a5 5 0 0 0-1.67-.69c-2.45-.7-5.21-.06-7.5 1.75-2.14 1.7-3.13 5.5-2.23 8.6.4 1.38 1.63 3.37 2.38 3.86l1.28.92c1.92 1.42 4.2 1.7 6.93.87m-5.37-3.22c-.89-1.07-.45-3.15.85-4.07 1.86-1.32 1.88-1.33 1.5-1.8-.2-.23-.75-.61-1.23-.84-1.01-.48-1.2-.8-.89-1.63.28-.74.52-.74 1.33-.04.35.3 1.06.77 1.58 1.04 1.34.7 2.68 2.02 2.58 2.56-.06.29-.46.53-1.12.67-1.41.3-3 1.23-3.17 1.87-.07.29-.07.86.01 1.26.11.56.02.8-.4 1.02-.67.36-.7.36-1.04-.04m13.66-13.83c1.57-.72 2.95-1.85 2.95-2.42 0-.18.16-.42.36-.54.78-.46 1.73-3.25 1.62-4.72-.1-1.2-.62-3.27-1.04-4.05a11 11 0 0 0-3.32-3.14c-5.34-3.1-12.17 1.07-12.17 7.43a8.7 8.7 0 0 0 4.71 7.35c2.6 1.2 4.4 1.22 6.89.09m-2.87-3.17c0-.58.2-1.13.55-1.47.3-.3.5-.75.46-1-.1-.55-1.81-1.41-2.9-1.46-.72-.04-.85.08-1.24 1.12q-.8 2.13-1.76 1.35c-.57-.47-.49-.78 1.27-4.76 1.38-3.13 1.5-3.31 2.28-3.4 1.13-.1 1.25.43.43 2.04a9 9 0 0 0-.68 1.58c0 .21 2.86 1.63 3.3 1.63.1 0 .47-.65.84-1.45.77-1.68.96-1.85 1.68-1.46.73.39.68.8-.37 2.86a19 19 0 0 0-1.62 3.76c-.26.95-.9 1.58-1.62 1.58-.53 0-.62-.13-.62-.92M68.04 83.33c-.05-.19-.46-1.49-.92-2.9-.45-1.4-.75-2.74-.66-2.97s.47-.5.86-.57c.38-.09 1.04-.27 1.46-.4 1.14-.36 1.49-.3 1.49.25 0 .57-.44 1-1.17 1.13-.71.14-1.16.92-.75 1.33.25.25.46.24.95-.02.85-.45 1.63-.27 1.63.38 0 .37-.28.61-.93.82-1 .33-1.3.9-.7 1.38.28.24.58.22 1.3-.08.81-.34.98-.34 1.25 0 .5.6.21.93-1.33 1.46-1.7.59-2.36.64-2.48.19m65.73-1.79a9.4 9.4 0 0 1-7.5-6.94 9.5 9.5 0 0 1 2.13-8.46l.95-.98-.78-.74a14 14 0 0 1-1.74-2.33c-1.75-2.92-1.5-7 .61-10.13.42-.63.77-1.2.77-1.28s-.23-.44-.51-.8a11 11 0 0 1-1.1-2.4c-1.68-5.04 1.37-10.4 6.77-11.87 1.83-.5 2.96-.46 5.06.19a9.7 9.7 0 0 1 4.35 2.72c.42.5.44.5 1.02-.09a9.62 9.62 0 0 1 13.91 1.92c1.68 2.54 2 6.39.76 9.34-.57 1.38-2.88 3.7-4.45 4.5a9.9 9.9 0 0 1-8.91-.24l-1.23-.67.36 1.5c.8 3.32.06 6.73-1.9 8.88l-.92 1 .82.83a10 10 0 0 1 2.67 4.83 9.64 9.64 0 0 1-6.57 10.93 7.7 7.7 0 0 1-4.57.29m5.72-1.95a9.2 9.2 0 0 0 3.91-4.5c.63-1.65.48-5.23-.26-6.41-.98-1.57-2.28-3.02-2.71-3.01-.25 0-1.32.3-2.4.66-2.42.82-4.03.83-6.23.03l-1.72-.62-.52.56c-1.73 1.86-2.54 5.37-1.9 8.24.52 2.31 2.64 4.55 5.28 5.57 1.6.6 4.9.35 6.55-.52m-8.45-2.47c-.07-.11-.22-2.09-.33-4.38l-.2-4.16h.69c.83 0 .88.16 1.15 3.7.35 4.7.34 4.88-.48 4.98-.38.04-.76-.02-.83-.14m4.06-.54q-.57-.47-.4-.93c.15-.4.39-.44 1.43-.3 1.36.18 2.13-.27 2.13-1.22 0-.6-.67-1.31-1.27-1.35-1.94-.11-1.76.1-1.85-2.26l-.07-2.17 1.7-.18c1.89-.2 2.29-.08 2.29.69 0 .4-.19.51-.86.51-1.2 0-1.58.32-1.48 1.2.08.65.24.8 1.15.98.58.12 1.26.48 1.51.8.95 1.23.35 3.77-1.04 4.4-.96.44-2.59.35-3.24-.17m2.62-11.01c.65-.2 1.22-.48 1.28-.65.2-.62-1.84-1.16-3.96-1.04-1.93.1-3.7.76-3.26 1.21.78.8 4 1.06 5.94.48m-6.6-1.76c.28-.15 1.13-.44 1.9-.64l1.4-.38-2.3-.02c-1.28 0-2.32-.1-2.32-.19 0-.1.46-.78 1.03-1.52 1.95-2.56 2.6-4.36 1.82-5.13-.38-.39-1.7-.42-1.93-.05-.09.14-.4.26-.67.26-.88 0-.65-1.13.34-1.72.47-.29 1.04-.49 1.26-.46q.4.06-.1-.27c-.29-.18-.91-.67-1.4-1.08-.52-.45-1.05-.7-1.3-.6-.53.2-1.75 2.88-2 4.4-.33 2.09.67 5.16 2.23 6.8.87.92 1.24 1.03 2.04.6m10.48-.99a8.8 8.8 0 0 0 1.3-8.45c-.7-1.91-1.27-2.15-2.9-1.24-1.29.72-1.3.73-.62.96.78.26 1.53 1.62 1.52 2.75-.04 2.68-3.45 7.01-4.13 5.24-.1-.25.24-.8.93-1.5.6-.61 1.1-1.19 1.1-1.3 0-.1-.47-.26-1.04-.36q-2.52-.41-2.15-3.04c.03-.22.3-.67.6-1l.56-.6h-1.68c-1.57 0-1.65.04-1.26.47.22.26.49.97.6 1.59.15.98.06 1.34-.77 2.85a12 12 0 0 0-.95 1.99c0 .14.6.25 1.32.25 1.22 0 1.32.05 1.32.63 0 .55.16.65 1.26.8.7.1 1.67.35 2.18.54 1.54.58 1.97.49 2.81-.58m-2.13-5.62-.3-1.06c-.2-.71-1.36-.99-1.9-.45-.35.35-.36.54-.07 1.23.3.7.46.8 1.38.8s1.02-.06.9-.52m12.72-3.62a8.8 8.8 0 0 0 4.92-4.09c1.64-3.38 1.06-6.79-1.62-9.5-2.53-2.57-5.82-3.24-8.93-1.83-.62.29-1.23.52-1.36.52s-.45.23-.71.52c-.4.43-.42.65-.19 1.26.54 1.36.92 4.05.77 5.44-.08.76-.51 2.11-.96 3.02-.45.9-.82 1.73-.82 1.85 0 .38 1.3 1.64 2.2 2.13a8.6 8.6 0 0 0 6.7.68m-.63-3.56c-.72-.2-.86-.37-.86-1.03 0-.65.1-.79.6-.79.34 0 .74.13.9.28.15.16.58.2.96.1 2.05-.5 1.36-2.44-1-2.81-.59-.1-.74-1.18-.47-3.33l.14-1.14 2.01.08c1.97.07 2.02.1 2.1.79s.03.71-1.32.8c-1.23.06-1.42.15-1.5.67-.06.49.14.69 1.1 1.1 1.24.53 1.5 1 1.5 2.68 0 1.1-.54 1.96-1.58 2.5-.86.45-1.33.46-2.58.1m-6.02-.66c-.23-.24-.39-.62-.34-.86.07-.34.35-.41 1.33-.34 1.14.08 1.28.02 1.57-.63s.26-.76-.52-1.4c-1.06-.87-1.07-1.24-.06-1.76 1.36-.7.9-1.99-.71-1.99-.75 0-.87-.09-.87-.64q-.01-1.2 2.1-.81 1.88.3 1.86 2.49c0 .73-.14 1.13-.46 1.31-.44.25-.44.3 0 1.05.26.43.46 1.06.46 1.39 0 .8-1.03 2.29-1.71 2.47-1.02.27-2.22.15-2.65-.28m-6.21 3.14c.78-.4 1.46-.86 1.51-1.02.2-.65-3.99-2.48-5.67-2.48-1.02 0-3.96.92-4.71 1.48-.52.39-.51.42.4 1.18 1.22 1.03 2.9 1.53 5.17 1.55a5.7 5.7 0 0 0 3.3-.7m-8.78-3.22a9.6 9.6 0 0 1 8.76-.18c.78.38 1.48.63 1.56.56q.09-.13-.25-.14-.44.02-.03-.22c.28-.18.29-.46.03-1.48-.17-.69-.47-1.31-.66-1.38s-.27-.3-.2-.52c.09-.21-.2-.04-.63.4-.92.92-2.54 1.33-3.33.84-.42-.27-.57-.26-.77.03q-.28.4-.1-.13c.09-.27.16-.7.16-.98 0-.43.16-.47 1.4-.34 1.6.17 2.13-.2 2-1.42-.1-.75-.38-.91-2.16-1.28l-.73-.14.07-2.18.08-2.18 1.74-.07c1.32-.06 1.83.02 2.09.33.48.59-.1 1.2-1.15 1.2-1.88.01-1.93 1.14-.1 2a3 3 0 0 1 1.54 1.4l.41.88.37-1.15c.2-.63.65-1.61 1-2.19.8-1.28.69-1.5-1.5-2.97a7.2 7.2 0 0 0-6.09-1.16c-1.25.28-3.47 1.41-3.47 1.79 0 .06.12.04.26-.05.14-.1.65-.09 1.13 0 1.01.19 2.05 1.5 2.05 2.57 0 .83-.86 2.91-1.59 3.83-.69.88-.48 1.14.94 1.14 1 0 1.18.08 1.18.52 0 .3-.09.54-.2.55-3.42.26-4.59.22-4.74-.16-.08-.22.02-.6.23-.86.2-.25.89-1.31 1.51-2.36.97-1.63 1.1-2.02.89-2.65-.24-.7-.33-.73-1.86-.73-1.52 0-1.62.04-2 .8-1.06 2.1-1.2 3.61-.58 6.01.37 1.42 1.05 2.58 1.53 2.58.12 0 .66-.23 1.21-.5m12.69-.48c.99-2.62 1.06-3.14.73-5.07a6 6 0 0 0-.71-2.29c-.35-.35-.47-.25-1.04.87-.55 1.07-.65 1.64-.65 3.68 0 2.01.09 2.52.5 2.98.66.73.84.7 1.17-.17M73.36 78.6c-.54-1.61-.9-3.04-.83-3.17q.48-.75 3.16.95c2.06 1.32 2.36 1.19 1.6-.68-.64-1.62-.55-2.1.38-2.1.65 0 .82.13.94.73.09.4.46 1.56.82 2.58.97 2.71 1.02 3 .5 3.2-.54.21-2.81-.9-4.17-2.06-.55-.46-1.07-.76-1.15-.68-.09.09.09.86.4 1.72.71 2.03.7 2.45-.07 2.45-.54 0-.72-.32-1.58-2.94m9.72-1c-.8-.49-1.7-1.95-1.7-2.78 0-.23.2-.9.43-1.48.91-2.3 4.86-3.32 4.86-1.27 0 .45-.55.62-1.54.49-.2-.03-.76.26-1.26.64-1.14.88-1.18 1.75-.13 2.8.82.83 1.33.94 2.15.5.66-.35.66-.78.02-.78-.28 0-.66-.2-.85-.43-.3-.36-.27-.5.27-.94.39-.3.94-.48 1.41-.43.66.07.84.26 1.17 1.23.49 1.46.35 1.8-1.04 2.43-1.43.65-2.75.65-3.8.02m7.91-1.55c-.34-.22-1.72-4.6-1.77-5.62-.03-.51.11-.68.6-.75q1.06-.14 1.08 1.21c0 .33.11.81.25 1.06s.32.76.4 1.12c.28 1.28.49 1.4 1.7 1.04.97-.3 1.17-.28 1.56.1.39.4.4.5.04.85-.22.22-1.08.57-1.92.8-1.77.45-1.55.43-1.94.19m5.48-2.63c0-.4.11-1.93.24-3.38.18-1.99.35-2.71.7-2.96.62-.46 1.14-.13 2.4 1.55a24 24 0 0 0 1.93 2.23c.92.9 1 1.75.16 1.9-.33.07-.76-.2-1.21-.75-.68-.83-.74-.85-1.66-.54-.87.28-.96.4-1.04 1.42-.07.99-.15 1.12-.8 1.2s-.73-.01-.72-.67m2.37-3.5c0-.14-.12-.33-.26-.42s-.27.02-.27.25.12.41.27.41c.14 0 .26-.1.26-.25m5.72 1.23-.93-2.93c-.66-2.03-.78-2.69-.54-2.98.45-.54.83-.46 2 .39.58.41 1.56 1.08 2.19 1.47l1.14.72-.19-.88a5 5 0 0 0-.57-1.49c-.56-.88-.37-1.77.38-1.77.52 0 .72.34 1.48 2.51.49 1.39.97 2.7 1.07 2.94.1.25.01.56-.23.76-.35.29-.6.27-1.47-.13a5 5 0 0 1-1.34-.81 10 10 0 0 0-2.48-1.43c-.06 0 .13.71.43 1.59s.47 1.77.39 1.98c-.19.48-1.21.53-1.33.06m7.67-5.46c-.52-1.59-.95-3-.95-3.14 0-.3 2.76-1.12 3.8-1.12 2.68 0 4.05 3.57 2.13 5.58a7 7 0 0 1-3.57 1.57c-.34 0-.69-.73-1.4-2.89m3.78.45c1.03-1.05 1.04-1.63.02-2.64-.68-.68-.94-.78-1.65-.64-1.19.24-1.26.4-.86 1.88.7 2.61 1.09 2.84 2.49 1.4m-85.64.48a12 12 0 0 1-4.32-2.53c-.51-.48-2.16-3.13-2.31-3.71-.06-.22-.12-1.6-.14-3.08-.02-1.88.08-2.9.36-3.44.61-1.2 1.92-3.12 2.29-3.35.18-.11.5-.36.7-.56s1.06-.7 1.92-1.12c1.41-.68 1.85-.76 4.22-.76h2.65l-.1-2.39c-.08-2.28-.04-2.47.87-4.4a7 7 0 0 1 2.47-3.17c2.33-1.79 3.2-2.1 5.94-2.1 2.3 0 4.97.57 4.97 1.08 0 .13.21.3.47.38.92.29 2.54 2.16 3.34 3.85.73 1.52.82 1.99.8 3.97 0 1.94-.12 2.5-.82 4-.45.97-1.29 2.24-1.87 2.81-1.97 1.98-5.54 3.18-8 2.7-1.86-.35-1.85-.36-1.56.61.15.48.27 1.6.27 2.49a9.4 9.4 0 0 1-2.99 6.52c-2.66 2.18-6.04 2.99-9.16 2.2m6.03-1.7a8.5 8.5 0 0 0 4-3.91c.8-1.83.98-5 .35-6.21a5 5 0 0 0-.8-1.17c-1.8-1.44-2.59-2.25-2.88-2.94-.3-.71-.59-.89-2.1-1.3-2.76-.75-5-.1-7.74 2.26-2.08 1.78-3.01 6.33-1.79 8.68.2.39.37.84.37 1.01s.6.96 1.32 1.75a7.4 7.4 0 0 0 4.1 2.41c1.03.26 3.99-.07 5.17-.57m-5.43-3.6a4 4 0 0 1-2.51-3.12c-.32-1.43-.3-1.57.35-2.9.85-1.75 2.48-2.93 3.88-2.8.79.06.93.17.93.71 0 .5-.19.7-.87.87-.54.14-.8.34-.69.52q.17.27-.12.1c-.46-.28-1.9 1.28-1.9 2.07 0 1.58 1.5 3.34 2.85 3.34.69 0 2.78-1.53 2.64-1.93-.06-.18-.57-.32-1.14-.32-1.39 0-1.55-.82-.37-1.82 1.2-1 1.65-.89 2.6.65.97 1.56.98 1.62.38 2.57-.6.93-1.02 1.27-2.37 1.91a4.2 4.2 0 0 1-3.66.14m3.93-2.74c.1-.15.03-.34-.15-.41q-.36-.14-.02-.16c.45-.03.67.44.3.67q-.27.16-.13-.1m13.28-5.64c2.05-.77 4.62-3.69 4.62-5.24 0-.29.12-.6.27-.69.14-.09.26-.82.26-1.63 0-1.71-1.04-4.13-2.45-5.68a7.9 7.9 0 0 0-7.2-2.29c-3.04.53-4.64 1.77-6.01 4.7a7 7 0 0 0-.83 3.56c-.03 2.26.37 3.05 2.22 4.38.7.51 1.53 1.38 1.84 1.92.3.55.58 1 .6 1 .04 0 .53.18 1.12.4 1.3.49 3.58.3 5.56-.43m-4.01-3.15c-.32-.12-.91-.68-1.33-1.24-.41-.55-.88-1.13-1.03-1.27-.72-.68-1.7-2.27-1.7-2.75 0-1.34 1.5-.99 2.37.55.89 1.57 2.62 3.39 3.23 3.39.72 0 2.07-1.42 2.06-2.17 0-.33-.6-1.39-1.33-2.33-2.32-3.01-2.24-2.85-1.7-3.45.26-.28.61-.52.78-.52.34 0 1.46 1.1 1.46 1.42 0 .19 1.53 2.26 1.88 2.55.39.32.77 1.35.77 2.09 0 2.65-3.02 4.72-5.46 3.73M224.39 60.4c-4.13-.77-7.55-5-7.55-9.37 0-2.01.4-3.27 1.67-5.22 1.16-1.8 2.29-2.68 4.54-3.58 1.54-.62 2.03-.7 3.95-.6 2.83.16 4.63 1 6.48 3.01a9.6 9.6 0 0 1 1.88 10.04 9.7 9.7 0 0 1-5.08 5.11 13 13 0 0 1-5.9.61m4.29-1.39c3.79-1.22 6.45-5.12 5.88-8.61-.32-1.99-.47-2.43-1.28-3.68a9 9 0 0 0-6.87-3.8c-2.4 0-3.97.67-5.78 2.5-1.25 1.28-1.73 1.98-2.05 3.06a9 9 0 0 0-.04 5.2c.97 2.75 4 5.29 6.72 5.64.83.1 1.54.2 1.58.22s.87-.22 1.84-.53m-5.3-3.84c-.37-.36-.17-1.25.44-2.05a5 5 0 0 0 .68-1.08c.03-.15.24-.47.47-.72.34-.38.36-.65.11-1.64-.36-1.43-.39-3.5-.05-3.71.38-.24 1.6.42 1.62.89.04.76.27 2.51.35 2.6.05.04.81-.19 1.7-.51 1.58-.57 1.63-.57 2.17-.09.7.64.41.92-1.76 1.7-1.84.67-2.3 1.1-3.51 3.26-.65 1.16-1 1.53-1.45 1.53-.33 0-.68-.08-.78-.18M64.7 57.74c-2-.4-4.12-1.88-5.25-3.67-1.36-2.16-2-4.32-1.81-6.2a9.63 9.63 0 0 1 14-7.9 6.7 6.7 0 0 1 3.07 2.6c1.72 2.28 2.29 4.06 2.05 6.39a9.8 9.8 0 0 1-5.19 7.77 10.3 10.3 0 0 1-6.87 1.01M70.4 56a8.8 8.8 0 0 0 4.33-4.93c.67-1.99.69-3.6.06-5.41-.58-1.7-1.57-2.85-3.58-4.2a5.2 5.2 0 0 0-3.25-1.14c-4.74-.3-8.45 2.8-8.9 7.44a10 10 0 0 0 1.44 5.6c.6.9 2.77 2.53 3.34 2.53.18 0 .33.1.33.24 0 .33.82.47 3 .51A6 6 0 0 0 70.4 56m-1.8-3.22c-.21-.26-.59-.84-.82-1.3-.23-.45-.67-.88-.97-.97-.54-.14-.56-.24-.38-3 .18-2.92.48-3.68 1.34-3.35.27.1.37.66.37 2.06 0 1.68.12 2.17.92 3.75 1 1.99 1.15 2.86.51 3.1-.55.22-.5.24-.96-.3m33.88 1.12c-3.94-1-6.45-4.1-6.98-8.66-.41-3.49 1.84-7.28 5.3-8.93a9.62 9.62 0 0 1 13.52 5.55c.63 1.73.37 4.76-.58 6.75-.95 2.02-3.04 4.14-4.76 4.85-1.8.75-4.57.93-6.5.44m3.76-.94c3.62-.82 5.96-3.02 6.86-6.47a6 6 0 0 0-.67-5.13c-1.2-2.2-1.72-2.76-3.54-3.81-1.35-.78-1.65-.84-3.85-.84-2.26 0-2.47.04-3.9.9-3.13 1.9-4.64 5-4.11 8.4.61 3.98 3.29 6.41 7.89 7.2.07 0 .66-.1 1.32-.25m-4.94-3.35c-.3-.2-.44-.7-.38-1.36.02-.28.3-.32 1.18-.19.89.13 1.23.08 1.5-.26.3-.36.3-.54-.03-1.13-.22-.4-.62-.7-.89-.7s-.62-.22-.78-.47c-.24-.39-.16-.58.47-1.08.58-.46.72-.74.58-1.17-.22-.71-1.02-.98-1.75-.59-.71.38-1.31.16-1.31-.5q-.01-1.2 2.26-1.21c1.89-.02 2.37.45 2.37 2.32 0 .82.17 1.66.42 2.04.9 1.4.83 2.42-.26 3.67-.4.46-.9.66-1.81.74-.7.06-1.4 0-1.57-.1m7.18-1.22a40 40 0 0 1-.52-2.7c-.22-1.3-.53-3-.7-3.75-.37-1.74-.19-2.26.75-2.15.83.1.86.2 1.55 4.76.25 1.7.4 3.25.31 3.47-.19.5-1.25.78-1.4.37m93.02 3.9c-2.32-.66-5.16-3.04-6-5.03-1.27-3.04-1.4-5.58-.42-7.78a10.5 10.5 0 0 1 6.45-5.59 9.5 9.5 0 0 1 12.22 8.9c.04 1.46-.22 2.7-.97 4.74-.5 1.38-3.06 3.71-4.75 4.34-2.05.77-4.7.94-6.53.42m5.3-1.2c1.74-.53 3.8-2.38 4.71-4.25 1.04-2.13 1.13-3.93.33-6.33-1-3-3.12-4.88-6.2-5.52a5.6 5.6 0 0 0-3.31.15c-2.3.61-3.52 1.4-4.59 2.94a8.9 8.9 0 0 0-1.56 7.32c.52 2.22 3.06 4.85 5.4 5.59 1.4.44 3.91.49 5.21.1m-5.92-4.9c-.38-.38-.16-1.4.72-3.3.5-1.07 1.1-2.58 1.35-3.35.58-1.78 1.17-1.97 3.02-.97 1.84 1 2.26 1.54 2.23 2.84-.03.84-.2 1.23-.77 1.72-.64.55-.95.62-2.09.52a15 15 0 0 1-1.68-.23c-.21-.06-.59.47-.97 1.35-.59 1.38-1.3 1.93-1.8 1.42m5.22-4.39c.55-.77.53-.86-.27-1.38-.64-.43-.71-.42-1.19 0-.63.58-.65 1.15-.04 1.6.66.5 1.04.45 1.5-.22M9.68 45a4 4 0 0 1-1.35-.65c-.23-.2-.5-.37-.6-.37-.27 0-2.64-1.76-3.08-2.3a8.3 8.3 0 0 1-2-5.43c-.23-4.46 2.19-8.28 6.08-9.63 2.28-.79 4.28-.81 6.67-.08 3.02.93 4.55 2.35 5.87 5.45.85 2.01.81 5.28-.08 7.1a9 9 0 0 0-.67 1.58c-.02.4-1.32 1.8-2.51 2.71a10.7 10.7 0 0 1-8.33 1.61m6.24-2.2c4.08-2.04 5.71-6.85 3.6-10.66-.75-1.37-1.08-1.7-1.47-1.46q-.21.11-.08-.14c.24-.39-1-1.52-2.47-2.24-.94-.47-1.64-.6-3.31-.58-2.99 0-4.36.67-6.03 2.92-1.95 2.6-2.23 3.8-1.64 6.86.23 1.2 1.45 3.57 1.84 3.57.2 0 .42.17.5.38.14.39 1.72 1.33 3.21 1.91.44.17 1.52.32 2.41.33 1.34.02 1.94-.13 3.44-.89m-4.43-2.75a24 24 0 0 1-1.36-1.92c-.4-.64-1.15-1.76-1.65-2.48A6 6 0 0 1 7.56 34c0-.18.55-.75 1.23-1.26.96-.74 1.47-.94 2.34-.94 1.5 0 2.51.96 2.51 2.38 0 .96.04 1 1.55 1.55.85.31 1.67.57 1.82.57.46 0 .89.7.71 1.16-.27.71-1.39.82-2.59.23-1.23-.6-2.8-1-2.8-.72 0 .1.36.83.81 1.62.66 1.15.76 1.5.5 1.82-.52.62-1.48.45-2.15-.37m.15-5.15c.21-.34.15-.56-.26-.98-.47-.46-.6-.48-1.03-.17-.48.35-.48.38.01 1.05.55.76.85.78 1.28.1m209.15-9c-2.7-.76-4.35-2.2-5.95-5.18-.7-1.29-.77-1.67-.74-3.7.06-4.2 1.99-7.3 5.56-8.95 1.35-.62 1.86-.7 3.98-.68 2.01.02 2.69.15 4 .73 1.88.85 3.71 2.64 4.73 4.64.66 1.3.74 1.73.74 4.1 0 2.28-.08 2.8-.62 3.82-.92 1.73-3.1 3.89-4.7 4.67-1.7.84-5.07 1.1-7 .56m5.85-1.37a7.7 7.7 0 0 0 4.17-3.84c.7-1.38.85-1.95.85-3.42 0-2.86-.59-4.37-2.4-6.14-1.9-1.87-3.6-2.48-6.31-2.28-4.42.32-7.4 3.59-7.46 8.17a7.8 7.8 0 0 0 5.58 7.55c1.36.44 4.27.42 5.57-.04m-6.27-4.8c-.28-.72 2.4-8.04 2.93-8.02s3.9 1.25 4.18 1.52c.4.41-.02 1.38-.6 1.38a5 5 0 0 1-1.48-.4c-1.23-.51-1.22-.51-1.6.3-.38.83-.24 1.16.48 1.16.97 0 2.4.75 2.3 1.22-.15.79-.9 1.05-1.86.67-1.74-.7-1.7-.72-2.24.93-.44 1.32-.62 1.56-1.23 1.63q-.71.09-.88-.38M158.9 19c-4.76-1.05-8.12-6.4-7.02-11.16.6-2.56 1.76-4.25 4.17-6.02 1.5-1.1 2.98-1.52 5.45-1.53 1.98-.01 2.41.08 4.1.89a8.4 8.4 0 0 1 4.43 4.2c1 1.98 1.16 3.12.77 5.66-.33 2.19-.69 3.11-1.77 4.53-.73.97-3.44 3.08-4.04 3.16-.22.03-.82.18-1.33.34-1.16.37-2.88.34-4.76-.07m6-2.04c2.84-1.31 4.24-3.36 4.5-6.6.2-2.43-.58-4.39-2.54-6.42-1.33-1.38-1.67-1.59-3.4-2.04-1.61-.43-2.18-.46-3.44-.23-2.32.43-4.65 2.01-5.8 3.93-1.56 2.64-1.35 6.9.44 8.83l1.16 1.27a8.4 8.4 0 0 0 3.8 2.05c1.49.35 3.45.06 5.28-.79m-4.78-3.3c-.1-.25-.04-1.75.12-3.34.16-1.6.22-3.07.15-3.28q-.16-.38-1.32-.38c-1.25 0-1.68-.52-1.18-1.4.2-.38.67-.42 3.6-.28 3.58.17 4.22.4 3.9 1.39-.15.48-.38.56-1.61.56h-1.44l-.03 2.05c-.01 1.13-.1 2.7-.2 3.5-.16 1.4-.2 1.46-1 1.54-.57.06-.87-.05-.99-.36m-21.97 5.13c-.71-.14-2.08-.7-3.04-1.27-3.45-2.02-4.92-5.16-4.5-9.59.25-2.57.17-2.2.59-2.64.18-.19.6-.76.9-1.27.8-1.32 1.83-2.2 3.63-3.18 1.44-.77 1.78-.84 4-.84 5.13 0 7.74 1.7 9.6 6.24 1.24 3.06.26 7.37-2.23 9.79a13 13 0 0 1-5.34 2.77c-1.59.34-1.8.34-3.6 0m4.7-1.71a7.6 7.6 0 0 0 4.64-3.8c2.32-4.46.6-9.3-4.03-11.34-1.9-.83-5.02-.8-6.74.07a8.3 8.3 0 0 0-4.47 7.73 8.8 8.8 0 0 0 2.4 5.4 11 11 0 0 0 5.68 2.35c.63.01 1.76-.18 2.51-.41M139.98 14c-.12-.36-.56-3.87-.94-7.45-.28-2.68-.14-3.06 1.18-3.06h.85v2.18c0 1.2.15 3.53.35 5.19.3 2.56.3 3.03-.02 3.23-.54.34-1.3.3-1.42-.09"/>
</svg>

