<?xml version="1.0" encoding="utf-8"?>
<svg xmlns="http://www.w3.org/2000/svg" xmlns:svg="http://www.w3.org/2000/svg" version="1.1" viewBox="0 0 492 766">
	<title>A full-page image of dozens of circles. Their arrangement appears to be random. Most circles contains either a letter or a number, with the numbers ranging from 1 to 36. Eight or nine circles instead contain a short, irregularly-shaped line. Words are placed in between the circles, arranged in a loop through the entire image, reading clockwise “England expects every man to do his duty.”</title>
	<path d="M374.98 765.26c-4.46-.54-7.72-2.26-11.32-5.96-3.44-3.52-4.62-6.14-5.36-11.82-.64-5.02 1.8-10.76 6.32-14.9 3.74-3.4 7.06-4.6 12.74-4.6 3.98.02 9.8 1.44 9.8 2.4 0 .2.64.66 1.44 1 1.54.68 5.62 5.46 6.4 7.52 1.92 5.02 2.06 6.94.84 12.08a18.8 18.8 0 0 1-20.86 14.28m8.6-4.28c5.58-2.12 8.68-6 9.84-12.2a15.2 15.2 0 0 0-1.94-9.96 20 20 0 0 0-8.44-7.42 16.4 16.4 0 0 0-16.9 3.64c-7.8 7.76-5.04 21.74 5.14 26.16 2.8 1.22 8.84 1.12 12.32-.2m-11.6-4.4c-.14-.44.1-3.36.56-6.5.46-3.16.84-6.84.84-8.2 0-2.92.4-4.12 1.34-4.12.4 0 2.9 2.56 5.6 5.68 2.68 3.14 5.32 6 5.86 6.4 1.26.88 1.22 2.56-.06 3.24-1.94 1.04-2.6.58-6.46-4.6a12 12 0 0 0-2.52-2.8c-.24 0-.6 2.4-.82 5.34-.36 5-.46 5.34-1.7 5.8-1.78.7-2.28.64-2.62-.26m-254.2 5.52a18.5 18.5 0 0 1-15.92-18.44c-.08-8.26 5.1-15.6 12.54-17.86 3.34-1 9.54-.94 12.8.1a18.4 18.4 0 0 1 12.02 13.44c1.66 6.8.08 12.22-5.12 17.46-4.68 4.74-9.22 6.2-16.3 5.3m9.58-4.32c5.92-2.72 8.62-7.14 8.66-14.2.02-3.96-.16-4.86-1.48-7.4-1.76-3.36-3.68-5.16-7.66-7.2a16 16 0 0 0-12.98-.2 15.6 15.6 0 0 0-8.12 8.96c-2.36 7.94.48 15.24 7.64 19.66 3.9 2.42 9.18 2.56 13.94.38m-12.44-5.14c-.16-.26-.06-2.86.2-5.76.3-2.9.5-6.86.5-8.76-.04-4.68.64-5.58 2.98-3.86.74.54.96 1.3.88 3.04-.12 2.76.08 3.08 2.76 4.32l2.06.96 1.66-1.62c.92-.9 2.06-1.6 2.54-1.6 2.84 0 3.48 2.36 1.02 3.8-1.6.98-10.8 8.84-11.1 9.52-.24.58-3.14.54-3.5-.04m5.6-6.8q.72-.9.06-.48c-.36.2-.66.14-.66-.16s-.24-.56-.5-.56c-.28 0-.46.46-.42 1.06q.12 1.92 1.5.16m335.94 10.6a30 30 0 0 1-9.08-4.46c-2.52-2-4.12-4.6-5.6-9.14-1.4-4.3-1.48-6.6-.36-10.16a19 19 0 0 1 8.3-11.14c3.4-2.2 9.8-3.26 14.2-2.34 6.02 1.24 12.32 6.94 14.1 12.74 1.54 5.04.5 13.36-1.96 15.6-.6.52-1.08 1.2-1.08 1.5 0 .8-3.6 3.84-6.38 5.34-2.06 1.12-8.38 2.56-10.28 2.34zm8.2-3.4c2.6-.64 8.08-5.4 9.4-8.14 3.2-6.66 2.16-13.5-2.82-18.64-7.94-8.12-20.58-6.04-25.82 4.28-1.68 3.3-1.78 3.76-1.56 7.68.2 3.24.56 4.68 1.6 6.48 4.24 7.14 11.48 10.3 19.2 8.34m-10.26-2.72-2.14-5.68c-.94-2.48-2.16-5.62-2.72-7-2.04-4.96-1.32-5.16 6-1.64 2.84 1.36 5.28 2.34 5.44 2.18.3-.3-1.06-3.66-3.24-7.96-1.38-2.72-1.58-3.86-.76-4.36.5-.32 13.48 5.18 14.54 6.14.28.26.94.46 1.46.46 1.26 0 1.8 1.38.94 2.4-.88 1.06-2.66 1-5.1-.2-3.58-1.74-6-2.72-6-2.4 0 .16.84 2.2 1.86 4.54 2.04 4.64 2 6.04-.12 6.6-1 .24-2.48-.24-5.64-1.84a22 22 0 0 0-4.48-1.96c-.1.1.5 1.6 1.38 3.3 2.04 4 2.48 6.1 1.6 7.52-.9 1.44-2.46 1.4-3-.1m-221.94 3.06c-3.48-.98-8.08-3.86-9.94-6.2a30 30 0 0 1-2.98-5c-2-4.36-2.06-10.86-.16-14.74a24 24 0 0 1 7.42-8.46c8.24-5.2 19.76-3.18 25.54 4.48a18.8 18.8 0 0 1-3.4 26.48c-4.18 3.3-11.54 4.84-16.48 3.44m12.6-4.72a16.2 16.2 0 0 0 8.2-13.44c0-2.9-2.04-8.3-4-10.6a18 18 0 0 0-11.74-5.6 18.6 18.6 0 0 0-11.34 4.08c-2.8 2.46-4.78 7.18-4.8 11.48 0 7.34 4.14 12.9 11.7 15.7 3.06 1.12 8.16.44 11.96-1.62m-5.02.2c0-.28.24-.52.52-.52s.54.24.54.52-.24.54-.54.54a.6.6 0 0 1-.52-.54m-6.4-4.88c-1.06-.4-1.28-1.28-.6-2.36.22-.34 1.7-.7 3.3-.8 2.84-.16 2.9-.2 2.9-1.74 0-1.58-.02-1.6-3.04-1.6-3.54-.06-4.5-.66-3.6-2.32.64-1.2.8-1.26 4.2-1.12l2.34.1-.36-3.4c-.4-3.8.18-4.86 2.4-4.54 1.2.18 1.24.34 1.54 8.12.18 4.36.12 8.32-.12 8.8-.34.68-1.34.94-4.2 1.08-2.06.08-4.2 0-4.76-.2M58.84 739.7a20 20 0 0 0-2.72-.66c-.32.4-5.76-3.86-7.3-5.72-2-2.44-3.98-7.36-4-9.94 0-.8-.24-1.46-.54-1.46-.28 0-.52-.48-.52-1.06s.24-1.06.56-1.06.52-.54.48-1.2a10 10 0 0 1 0-1.58l.26-.8c.22-.82 1.4-3.6 2-4.82.98-1.88 5.14-5.84 7.36-7 3.1-1.58 8.86-2.32 12.44-1.6 3.64.72 10.06 4.4 10.88 6.2.32.7.74 1.28.94 1.28s.54-1.7.72-3.76c.94-10 7.94-16.3 18.32-16.46 7.44-.1 15 4.86 17.48 11.48 2.3 6.16 1.16 14.48-2.54 18.52-4.16 4.54-8.2 6.76-13.44 7.4-4.24.54-9.52-1.16-13.56-4.38a10 10 0 0 0-2.4-1.6c-.1.08-.44 1.48-.8 3.08a36 36 0 0 1-2.06 6.1 11.6 11.6 0 0 1-4.56 5.48 27 27 0 0 1-5.3 3.06c-3.2 1.14-8.6 1.36-11.7.5m9.8-3.28a14.4 14.4 0 0 0 7.74-5.04c6.34-8.36 3.6-19.56-5.96-24.26-5.66-2.8-10.5-2.66-15.44.4-2.44 1.54-5.94 6.22-5.94 7.98 0 .6-.2 1.2-.46 1.34-1.12.7-1.14 5.46-.04 9 .92 3 1.6 4.06 4.28 6.7 4.64 4.56 9.5 5.76 15.8 3.88m-7.32-4.56a2.8 2.8 0 0 1-.64-1.76c0-.62-.32-2.24-.72-3.58-.54-1.78-.58-2.5-.14-2.68 1.1-.46-2.54.06-5.08.72-1.38.36-2.86.52-3.3.34-1.12-.42-1-1.94.26-3.5.6-.74 2.66-3.78 4.6-6.76 3.44-5.32 4.48-6.16 5.86-4.8 1.08 1.1.72 2.42-1.44 5.28-3.06 4.04-3.04 4.4.16 4.4 2.24 0 2.78.2 3.28 1.2.32.66.76 1.02.96.8.52-.5-.24 1.56-.88 2.4-.28.34-.3.64-.04.64.24 0 1.28-1.26 2.3-2.8 2.8-4.24 4.14-5.46 5.2-4.8 1.46.92 1.4 3.18-.14 4.7a7 7 0 0 0-1.34 1.64c0 .48-4.14 6.26-5.54 7.74-1.52 1.6-2.38 1.8-3.36.82m39.26-7.34a14.4 14.4 0 0 0 8.48-4.44 16.4 16.4 0 0 0 3.72-16.22c-1.12-3.4-5-7.48-8.96-9.44-5.54-2.74-12.8-1.3-17.56 3.48-3.5 3.54-4.5 5.8-4.6 10.52-.1 5.36 1.9 9.3 6.86 13.46 1 .86 6.9 3.14 8.2 3.2.44 0 2.2-.24 3.86-.56M92.9 716a5.4 5.4 0 0 1-2.3-2.1c-.86-1.48-.88-1.7-.08-2.9 1.08-1.66 1.5-1.62 3.12.3 1.4 1.68 1.8 1.82 2.86 1.14.54-.34.4-1.1-.66-3.44-1.52-3.48-1.64-5.08-.52-7.24 1-1.92 4.12-2.94 6.4-2.08 2.2.84 3.9 2.6 3.9 4.08 0 2.94-2.22 4.44-3.12 2.12a8 8 0 0 0-1.6-2.22c-1.04-.94-1.2-.96-2-.16-.78.8-.76 1.06.3 3.5 1.54 3.6 1.5 6.94-.1 8.44-1.3 1.22-3.8 1.46-6.2.56m326.4-13.72a20 20 0 0 1-12.86-10.36c-1.36-2.78-1.52-3.64-1.48-7.94.04-4.4.2-5.12 1.8-8.1 1.94-3.68 6.02-7.66 9.24-9.04 4.66-2 11.62-1.78 16.38.54 2.38 1.14 5.8 4.16 7.48 6.6 3.26 4.72 3.68 12.28 1 17.74-2.64 5.32-4.42 7.04-10.06 9.7-2.44 1.16-8.52 1.6-11.52.86m9.38-2.68a15.8 15.8 0 0 0 10.22-10.32c1.56-5.44.66-9.8-3.16-15.4-2.28-3.34-7.4-5.72-12.34-5.7-6.34 0-12 3.42-14.46 8.72-4.1 8.88.18 18.84 9.68 22.58 2.06.8 7.36.86 10.06.12m-12.04-10.44c-2.26-3.74-4.1-7.2-4.1-7.64 0-1.72 2.16-1.54 8.74.74 6.5 2.24 8.08 2.4 6.5.6a18 18 0 0 1-1.9-3.08c-.6-1.2-1.46-2.46-1.92-2.84-1.24-1.02-1-2.44.48-3.12 1-.46 1.46-.44 1.88.06 1.18 1.32 8.44 13.36 8.44 14 0 .34-.46.88-1.02 1.18-.82.44-2.54.04-8.06-1.84l-7.12-2.4c-.3 0 1.8 3.76 3.36 6.06 2.06 3.02 2.12 4.74.14 4.96-1.18.14-1.76-.6-5.4-6.68m-175.36 6.6c-2.48-2.08-3.32-4.22-2.74-6.88.88-3.86 5.12-6.82 8.54-5.96 3.74.94 6.34 5.4 5.18 8.9a7 7 0 0 1-6.56 5.06c-2.44.2-3 .06-4.42-1.12m5.86-2.14c3.86-1.6 2.72-7.22-1.46-7.18q-3.26 0-3.86 3.06c-.26 1.36-.04 1.92 1.28 3.26 1.86 1.86 1.72 1.82 4.04.86m9.38 2.98c-.92-.3-.74-2.6.22-2.98a8 8 0 0 1 2.16-.32h1.32l-.38-4.2c-.48-5.6-.1-7.02 1.78-6.8 1.44.16 1.44.16 1.7 5.44s.26 5.3 1.66 5.36c.76.02 1.78.2 2.24.38 1 .38 1.16 2.4.2 2.72-.94.3-10.18.64-10.9.4m46.66-3a18 18 0 0 1-8-5.28c-1.84-2-4.34-6.32-4.34-7.5 0-.2-.4-.66-.88-1q-.9-.66-.46-1.66c.24-.54.46-2.42.52-4.18.1-2.48.5-3.88 1.86-6.34 2.88-5.28 5.72-7.68 11.54-9.8 3.98-1.44 8.18-1.24 13.12.6 3.52 1.32 8.32 5.7 9.92 9.06a19.8 19.8 0 0 1-.38 16.68c-1.72 3.4-6.6 7.76-10.24 9.12a24 24 0 0 1-12.66.3m11.78-3a15.4 15.4 0 0 0 10.14-13.76c.4-5.26-.84-8.42-4.86-12.4-2.74-2.74-3.72-3.36-6.64-4.16-10.66-2.98-20.66 4.42-20.64 15.26 0 4.54 1.4 7.94 4.72 11.32a15.6 15.6 0 0 0 17.28 3.74m-12.72-5.36c-.2-.7-.94-10.84-1.04-14.4-.04-1.86.14-2.18 1.44-2.64 2-.7 2.46.16 2.1 3.74-.28 2.6-.2 2.8.98 3.1.68.18 2.56.12 4.16-.12l2.92-.4-.2-3.56c-.16-3.48-.14-3.54 1.28-3.9 2.14-.54 2.96.88 2.8 4.8-.1 1.76.04 5.22.26 7.72.36 3.78.28 4.66-.4 5.2-1.4 1.2-2.68.5-2.82-1.54-.08-1-.28-2.62-.44-3.6l-.28-1.74-3.76.28c-2.06.16-3.8.36-3.86.44-.08.06.04 1.44.26 3.04.5 3.66.28 4.24-1.66 4.24-.84 0-1.62-.3-1.74-.66m76.56 6.24a23 23 0 0 1-9.34-6.28 12 12 0 0 1-1.9-2.64c0-.24-.5-1.54-1.12-2.92a16.8 16.8 0 0 1-.5-11.14c.86-3.06 3.66-7.74 5.38-8.94.52-.38 1.28-1 1.68-1.4 1.78-1.78 5.42-3.08 9.4-3.34 7.52-.52 13.9 2.46 17.88 8.36 2.28 3.4 2.74 5.12 2.74 10.28 0 4.18-1.18 8.66-2.8 10.66a29 29 0 0 1-6.46 5.74 21.6 21.6 0 0 1-14.96 1.6m12.9-3.5a18 18 0 0 0 8.36-8.98c3.8-10.6-6.32-23.42-17.36-21.92-3.38.46-8.22 2.86-9.98 4.94-4.76 5.66-5.52 13.72-1.82 19.16.66 1 1.36 2.2 1.54 2.64.38 1 5.7 4.64 7.74 5.3 2.56.82 8.7.22 11.52-1.14m-6.92-6.3c-1.26-1.4-.68-2.66 1.22-2.66 1.76 0 2.9-1.1 2.64-2.5-.16-.8-.76-.94-3.98-.94-5.16 0-6.72-1.1-6.94-4.9-.12-2.24.04-2.88 1.06-3.84 2.56-2.44 5.76-2.8 7.08-.8.98 1.5.56 2.58-.84 2.12-1.7-.54-3.68.3-4.04 1.72-.46 1.84.44 2.24 5 2.24 3.48 0 4 .16 5.16 1.4 2.4 2.6 1.02 6.9-2.74 8.46-2.28.96-2.5.94-3.62-.3m-205.88 0c-3.6-1.64-8.12-5.74-9.42-8.5a34 34 0 0 1-2.48-9.44c0-2.8 2.16-8.24 4.42-11.16a16 16 0 0 1 6.3-5c3.76-1.92 4.38-2.06 8.22-2 5.94.06 9.6 1.54 13.5 5.46 3.86 3.86 5.24 6.9 5.56 12.2.46 7.64-1.92 12.64-7.86 16.6-5.74 3.8-12.52 4.5-18.24 1.86m11.12-1.8c7.66-2.04 12.44-8.14 12.44-15.82 0-3.7-1.68-8-4.14-10.64-2.28-2.44-8.3-5.1-11.56-5.1-7.2 0-13 3.88-15.28 10.2-2.32 6.44-1.5 11 2.82 15.76 3.2 3.52 4.92 4.6 8.84 5.6 3.46.84 3.78.84 6.88 0m.5-6.14a6 6 0 0 1-2.06-1.94 22 22 0 0 0-2-2.68l-1.06-1.16-2.44 2.62c-1.8 1.94-2.8 2.6-3.92 2.6-2.76 0-2.36-1.4 1.4-5.22l3.54-3.56-2.26-2.88c-1.24-1.6-2.44-3-2.66-3.16a5 5 0 0 1-.74-2c-.32-1.6-.24-1.68 1.2-1.68 2 0 2.3.26 4.64 3.84a12 12 0 0 0 2.4 3.04c.24 0 1.34-1.14 2.46-2.52 2.5-3.1 2.76-3.28 4.58-3.3 2.5 0 1.88 2-1.72 5.56-1.74 1.72-3.18 3.3-3.18 3.5 0 .32 1.88 2.74 4.76 6.16.96 1.14.96 2.76 0 2.76-.24 0-.76.12-1.14.24-.4.12-1.2.02-1.8-.2m-175.66 7.2c-5.08-1.66-10.26-6.1-11.12-9.52-.2-.76-.54-1.4-.78-1.4-.2 0-.58-.88-.78-1.98-.2-1.08-.52-2.2-.68-2.5-.8-1.28.42-8.5 2-11.74 1.4-2.96 5.22-6.5 8.84-8.2 3.24-1.54 3.74-1.64 8.02-1.38 5.96.36 9.98 1.96 13.36 5.3a18 18 0 0 1 5.22 15.88c-.52 3.88-1.9 7.8-2.72 7.8-.24 0-.44.32-.44.72 0 1.18-4.12 4.56-7.26 6-3.54 1.62-10.32 2.14-13.66 1.04m9.84-2.76c4.32-1.28 6.38-2.66 8.54-5.76a15.88 15.88 0 0 0-8.4-24.6 17.2 17.2 0 0 0-12.12 1.34 15.2 15.2 0 0 0-6.94 7.6 15.2 15.2 0 0 0 .92 13.52c2.6 4.72 4.88 6.56 10.02 8a11.6 11.6 0 0 0 7.98-.1m-9.82-7.42c-5.92-2.16-8.48-10.8-3.2-10.8q.78.04.8 1.3c0 1.6 1.86 4.82 3.08 5.36 3.3 1.46 7.22.06 8.02-2.88q1.04-3.78-3.06-6.62c-2.36-1.64-2.5-1.96-1.66-3.54 1.5-2.8 7 .64 8.36 5.26a9.8 9.8 0 0 1-.48 7.72c-.96 2.16-1.52 2.68-4 3.78-3.26 1.44-4.84 1.52-7.86.42m214.44-2.88c-5.3-.88-7.7-2.06-11.14-5.44-3.16-3.12-3.66-3.96-5.06-8.34-1.48-4.66-.2-12.24 2.74-15.88l1.94-2.42c1.12-1.4 4.66-3.6 7.16-4.44 1.16-.4 4.12-.72 6.6-.7 3.84 0 4.98.24 7.66 1.52a18.8 18.8 0 0 1 10.6 21.18 20 20 0 0 1-9.52 12.56c-2.08 1.06-6.9 2.56-7.94 2.44zm8.04-3.72q9.78-4.44 9.8-14.78c0-2.18-.18-4.64-.4-5.46-.36-1.3-.54-1.4-1.24-.82-.94.78-1.74 1.26-5 3.04-1.98 1.08-2.74 1.2-5.74.94-6-.54-8.92-1.28-12.34-3.08-2.36-1.26-3.3-2.06-3.3-2.8 0-1.64 1.5-1.56 5.26.24 2.52 1.2 4.78 1.8 8.26 2.2 4.7.5 4.88.48 7.54-.92 1.52-.8 3.34-1.6 4.06-1.8 1.32-.4 1.3-.4-1.34-3a16.8 16.8 0 0 0-23.06-.6c-2.04 1.76-4.34 6.56-4.76 9.94a14 14 0 0 0 .74 6.54c1.6 5.3 5.22 8.8 11.5 11.08 2 .74 7.74.32 10-.72M131.02 650a22 22 0 0 1-8.06-5.3c-1.8-2.14-4-6.8-4.4-9.44l-.34-2.12-4.32-.36c-4.76-.4-9.12-2.06-11.62-4.44-2.4-2.26-5.12-6.22-5.12-7.4 0-.6-.2-1.24-.48-1.4-1-.6-1.18-6.3-.3-9.3.46-1.6.98-3.56 1.14-4.36.16-.84 1.72-2.9 3.6-4.76 4.14-4.18 7.4-5.44 14.04-5.4 3.88 0 4.9.2 7.5 1.5 3.3 1.66 6.54 4.4 8.32 7.06.92 1.36 2.64 7.3 2.68 9.28 0 .2 2.06.4 4.56.4 4.04 0 4.9.18 7.92 1.68a18.56 18.56 0 0 1-1.6 34.24c-3.8 1.42-10.08 1.48-13.52.12m13.06-3.04c5.5-2.3 9.8-8.16 9.84-13.4.08-9.48-6.1-16.42-15.4-17.3-3.86-.36-5.38.12-5.38 1.7 0 .4-.46 1.98-1.04 3.52-1.24 3.28-5.24 7.6-8.8 9.46-2.28 1.2-2.38 1.36-2.08 3.12.8 4.66 5.1 10.48 9.28 12.52a18 18 0 0 0 13.58.38m-10.72-5.04c-1.44-.7-2.86-3.68-2.86-6.02 0-3.24 3.32-10.36 5.16-11.08 1.14-.44 2.24.3 2.22 1.48 0 .64-.72 1.96-1.6 2.98-.84 1-1.56 2-1.56 2.24s.98.42 2.16.42c2.94 0 4.72 1.8 4.72 4.78 0 1.2-.24 2.62-.54 3.2-1.16 2.18-5.18 3.2-7.7 2m4.22-3.26c2-1.46-.12-5.06-2.2-3.74-1.28.8-1.44 2.2-.36 3.4 1.1 1.2 1.32 1.24 2.56.34m9.16 1.36c-.14-.22-.4-1.6-.6-3.06-.66-4.8-.8-5.78-1.4-9.12-.74-4.06-.44-5.02 1.5-4.8 1.44.16 1.46.2 2.62 7.84.64 4.22 1.04 8.1.9 8.6-.28.92-2.56 1.32-3.02.54m-28.52-10.3c.34-.36.64-1 .64-1.46 0-1.62 2.54-6.24 4.64-8.44 1.2-1.24 3.4-2.9 4.96-3.72 2.54-1.32 2.82-1.64 2.76-3.12-.12-2.44-2.96-8.1-5.16-10.32a20 20 0 0 0-4.18-3.08c-2.66-1.36-8.64-1.9-11.76-1.04-2.78.74-6.7 3.3-6.38 4.16.14.36 0 .6-.34.52-.72-.14-3.16 3.48-4 6-.9 2.6-.8 7.24.16 10.08a19.2 19.2 0 0 0 8.02 9c3.98 1.9 9.4 2.64 10.64 1.4m-11.74-9.56a6 6 0 0 1-2.8-2.94c-.7-1.66-.7-2.06.08-3.76.8-1.76.8-2.04 0-3.64-2.28-4.54 2-9.14 6.94-7.5 1.5.5 1.8.86 1.8 2.12 0 1.94-.72 2.36-2.7 1.54-1.34-.54-1.72-.52-2.4.14-.64.64-.66 1.04-.12 2.2.34.76.92 1.4 1.28 1.4 1.4 0 1.22 1.62-.3 3.2-.86.88-1.58 1.76-1.56 1.98 0 1.16 1.2 1.92 3 1.94 1.78 0 2 .18 2 1.32q.02 1.3-1.58 2.2c-1.52.84-1.68.84-3.64-.2m10.8-7.76c0-4.34.14-8.26.3-8.72.2-.46.9-.84 1.6-.84 1.26 0 1.26.02 1.26 5.96 0 3.26-.16 7.2-.34 8.72-.3 2.48-.48 2.78-1.6 2.78h-1.24zm8.72 13.26c2.52-2.4 3.58-4.06 4.18-6.58.34-1.4.28-1.46-.86-.84a11.2 11.2 0 0 0-5.64 5.8c-1.2 2.34-1.44 3.16-.84 2.94.48-.2.7-.1.5.2-.16.3-.66.52-1.08.52-.4 0-.76.24-.76.52 0 .94 2.04-.22 4.5-2.56m323.6 15.4c-6.72-2.74-10.12-6.14-12.14-12.14a17.4 17.4 0 0 1 2.26-16.22c4.08-6.14 8.76-8.5 16.2-8.18 3.56.16 5.14.5 7.48 1.64 3.7 1.8 7.52 5.6 9.22 9.22 2.58 5.4 2.2 12.96-.82 17.54a30 30 0 0 1-8.72 7.86c-2.48 1.32-10.52 1.48-13.5.26m11.74-2.8a18.6 18.6 0 0 0 8.52-7.64c.94-1.74 1.14-3 1.14-7.18 0-4.32-.18-5.42-1.26-7.56-3-5.8-9.7-9.74-15.52-9.1-3.62.4-5.98 1.16-7.92 2.52-4.74 3.3-7.9 10.8-6.8 16.22.3 1.56 1.08 3.92 1.74 5.22a18.6 18.6 0 0 0 8.48 7.74 18.7 18.7 0 0 0 11.6-.22m-3.02-11.28a8 8 0 0 1-2.32-1.56c-.54-.66-1.22-.8-2.7-.56-2.44.4-3.96-.36-5.08-2.52-.94-1.82-.74-3.34.88-6.54 2.24-4.44 2.16-4.4 5.92-2.4 1.8.96 5.16 2.68 7.4 3.8 2.28 1.14 4.26 2.4 4.4 2.78.46 1.14-2.54 5.46-4.6 6.64-2.24 1.26-1.9 1.24-3.9.36m3.04-3.72c1.38-1.04 1.12-2.3-.64-3.2-1.46-.78-1.6-.76-2.12.2-.72 1.34-.7 2.32.08 3.1.8.8 1.52.8 2.68-.1m-6.96-2.06c1.42-1.08 1.74-2.96.7-4.12-1.26-1.4-2.6-1.28-3.32.34q-1.2 2.6.02 3.84c.8.8 1.52.78 2.6-.06M326.48 634a18.6 18.6 0 0 1-8.16-7.56 15.2 15.2 0 0 1-2.12-12.24c1.72-8.36 7.08-14.12 14.56-15.62a18.9 18.9 0 0 1 21.12 10.6c1.48 3.06 1.64 3.92 1.64 8.2-.02 3.88-.26 5.24-1.26 7.3a22 22 0 0 1-9.68 9.36c-2.94 1.4-3.9 1.6-8.16 1.6-4.4 0-5.14-.18-7.94-1.64m15.82-2.62c2.98-1.5 5.6-3.8 5.66-4.9 0-.24.56-1.14 1.2-2.04 1.06-1.4 1.2-2.24 1.2-7 0-4.96-.1-5.56-1.54-8-1.88-3.26-4-5.22-7.46-6.9-2.12-1.06-3.46-1.3-6.92-1.3-3.84 0-4.64.18-7.5 1.7a15.88 15.88 0 0 0-3.64 25.74c5.18 5.08 12.28 6.08 19 2.7m-13.76-6.44c-.32-.4-.74-1.4-.96-2.28a12 12 0 0 0-3.2-4.3c-1.96-1.88-2.86-3.14-2.86-4.06 0-1.38 1.24-2.24 2.3-1.6.88.56 5.2 5.34 6.28 6.96l.9 1.38.88-2.1c1.5-3.68 3.08-4.9 6.9-5.3 4.48-.48 6.02-.06 6.02 1.62 0 .72-.16 1.34-.4 1.38-.2.02-1.88.1-3.7.14-3.8.12-3.98.26-6.88 5.08-2.14 3.56-4 4.62-5.28 3.08m67.2 6.2a22 22 0 0 1-9.52-9.2c-1.28-2.62-1.46-3.6-1.46-8 0-4.66.14-5.28 1.7-8.2 2.74-5.12 5.4-7.52 10.36-9.32 4.34-1.6 7.16-1.78 11-.7 11.86 3.3 17.74 14.78 13.16 25.64a16 16 0 0 1-6.72 8.04c-3.68 2.52-5.68 3.06-11.24 3-3.56 0-5.08-.28-7.26-1.26m14.46-2.5c6.24-3.02 9.42-8.02 9.4-14.74 0-4.68-1.22-7.8-4.34-10.96-4.2-4.32-7.86-5.76-13.34-5.28-8.52.8-15.52 9.02-14.56 17.18.84 7.24 4.56 12.14 10.98 14.44 4.32 1.56 7.74 1.38 11.86-.64m-10.1-2.56a218 218 0 0 1-4.9-13.12c-1.18-3.28-1.26-3.94-.62-4.36 1.68-1.1 2.66-.28 3.88 3.26 1.84 5.24 3.6 8.94 4.3 8.94.34 0 1.38-.82 2.3-1.86 1.42-1.54 1.86-1.76 2.74-1.3 1.72.92 1.2 2.06-2.54 5.6-3.56 3.36-4.52 3.88-5.16 2.84m11.34-10.7c-.44-.36-3.14-3.1-6-6.08-5.08-5.22-5.22-5.46-4.54-6.74.4-.74.88-1.34 1.08-1.34s2.98 2.64 6.16 5.84c3.24 3.28 6.14 5.76 6.56 5.66.4-.12.58-.1.36 0-.22.14-.4.54-.4.9 0 .64-1.62 2.42-2.2 2.42-.14 0-.6-.3-1.02-.66m-373.8 4.16a23 23 0 0 1-4.8-1.5c-2.28-1.2-7.12-5.64-7.12-6.54 0-.4-.2-.74-.42-.74-.24 0-1-1.58-1.68-3.48-1.54-4.4-1.32-10.38.5-13.98a26 26 0 0 1 8.16-8.68c4.9-2.86 12.48-3.02 17.94-.36 2.6 1.26 6.44 4.84 7.6 7.1 2.88 5.54 3.6 12.04 1.82 16a28 28 0 0 1-6.62 8.88 19.8 19.8 0 0 1-15.4 3.3m9-3.14c2.8-1.08 6.38-3.72 8-5.92 2-2.66 2.84-5.54 2.84-9.84a16.6 16.6 0 0 0-9.64-14.46c-2.42-1-6.88-1.52-9.36-1.1a22 22 0 0 0-8.46 4.88 15.9 15.9 0 0 0-1.2 20c1.68 2.46 5.84 5.74 8.2 6.5 2.28.74 7.66.7 9.62-.06m-10.52-5.46c-.64-.66-.32-2.54 1.24-7.02.84-2.44 1.42-4.66 1.28-4.9-.16-.24.04-.44.4-.44q.8.02-.08-.5c-.66-.44-.66-.54.1-.84.48-.18 1-.7 1.2-1.16q.34-.9-.38-.28c-.68.54-4.8 2.9-7.44 4.24-1.18.6-1.62.62-2.26.1-1.68-1.4-.64-2.8 4-5.34 8.94-4.9 10.4-5.42 11.28-4.08.4.64.26 1.56-.64 3.62-.64 1.52-1.06 2.88-.9 3.04s0 .8-.34 1.4a10 10 0 0 0-.92 2.32c-.08.2-.1.58-.06.8.02.2-.22.4-.56.4q-.54.02-.28.32c.18.2.08.8-.24 1.4-.48.92-.44 1.02.32.72.5-.18 1-.34 1.16-.34s.08-.28-.14-.6q-.3-.56.16-.3c.3.2 1.92-.38 3.6-1.26 3.64-1.88 5.22-1.86 5.46.08.14 1.2-.32 1.6-4.24 3.64-2.4 1.28-5 2.7-5.72 3.18-2.74 1.8-5.22 2.56-6 1.8m116.34-1.74a19.6 19.6 0 0 1-12.4-9.56c-2.5-4.86-2.38-13.34.24-17.48a14 14 0 0 0 1.34-2.48c.04-.76 5.6-4.88 7.96-5.92 3.44-1.5 8.6-1.9 12.28-.94 10.74 2.8 16.44 13.3 13.08 24.12-1.2 3.92-3.12 6.4-7.48 9.72-3.44 2.62-10.08 3.74-15.02 2.54m8.92-2.66c1.94-.44 5.94-2.88 7.78-4.74 1.46-1.48 3.6-6.58 3.98-9.36.68-5.48-2.6-11.8-7.76-14.94-2.32-1.4-6.8-2.72-9.34-2.72-4.74-.02-11.38 4.5-13.94 9.52a16 16 0 0 0 .2 13.16c1.88 3.68 3.02 5.1 5.48 6.78a16.8 16.8 0 0 0 13.6 2.3m-4.2-6.2c-.98-1.06-1.28-1.96-1.28-3.84 0-2.2.26-2.74 2.26-4.82 1.24-1.3 2.78-2.7 3.44-3.14 1.64-1.08 1.48-1.48-.88-2.12-1.9-.5-2.7-1.34-2.7-2.76 0-.9 4.68-.2 8.16 1.2 3.3 1.36 4.2 2.4 2.6 2.94-2.6.92-7.54 4.7-8.64 6.64-1.14 2.02-1.14 2.12-.22 3.14.76.84 1.36 1 2.9.74 2.28-.4 2.82.14 2.08 2.08-.46 1.24-.78 1.36-3.46 1.36-2.5 0-3.14-.2-4.24-1.4m-12.04-4.22q-1.6-1.64 2.6-3.58c2.66-1.2 3.44-2.42 1.56-2.42-1 0-3.46-3.04-3.46-4.3 0-2.76 3.06-5.76 5.84-5.76 1.74 0 4.1 1.62 4.8 3.26 1.4 3.4-1.46 8.94-5.98 11.52-2.7 1.56-4.62 2-5.36 1.28m7.8-8.8c1.14-.86.96-2.94-.36-3.76-2.06-1.3-4.18 2.3-2.2 3.74.54.4 1.1.7 1.28.7.2 0 .76-.32 1.28-.7m133.66 19a18.4 18.4 0 0 1-10.8-5.86c-3.06-3.06-5.08-7.28-5.08-10.62 0-1-.18-1.82-.4-1.8-.2 0-1.22 1.2-2.24 2.64-6.6 9.38-20.52 10.48-28.76 2.26-5.4-5.4-7.32-11.94-5.4-18.32 1-3.24 4.6-8.4 7.1-10.12a23 23 0 0 1 10.42-3.48h2.26l-.06-4.38c-.06-3.74.14-4.82 1.42-7.64 2.28-5 9.12-10.74 12.8-10.74 2.6 0 2.76-.3 1.86-3.7-2.4-9.2 4.8-19.88 14.8-21.98 4.46-.94 7.68-.44 12.34 1.92 3.72 1.88 5.16 3.08 7.2 6.04 4.96 7.22 4.8 14.96-.4 21.6-3.44 4.36-7.28 6.86-11.24 7.34-1.14.14-1.3.38-1.12 1.74.1.88.22 3.5.26 5.82.04 3.66-.16 4.66-1.44 7.26a16 16 0 0 1-2.3 3.68c-.68.56-.02.8 3.78 1.34 5.48.8 9 2.52 12.06 5.96 4.46 5 6 11.12 4.34 17.34-1.84 6.94-6.1 11.3-13.2 13.46-3.6 1.1-3.56 1.1-8.2.24m10.36-3.64a9 9 0 0 0 2.32-1.68c.38-.46 1-.82 1.36-.82 1.06 0 4.28-4.86 4.7-7.12.64-3.4.44-7.4-.52-10.3-1.2-3.64-5.04-7.84-9.04-9.86a12 12 0 0 0-7.06-1.54c-3.66 0-4.24.16-7.46 2.1-1.94 1.14-4.02 2.8-4.66 3.68l-2.5 3.46c-1.32 1.78-1.34 2.04-1 6.88.32 4.46.56 5.36 2.18 8a16.8 16.8 0 0 0 10.4 8.22c2.12.64 9.36 0 11.28-1m-3.62-7.16c-2.14-1.32-2.86-4.34-1.72-7.32a27 27 0 0 1 2.16-4.18c.7-1.06 1.28-2 1.28-2.12s-1.2-.24-2.68-.24c-2.6 0-2.68-.04-2.5-1.46l.16-1.46 5.24-.16c2.88-.08 5.48.08 5.76.36.3.32-.54 1.74-2.3 3.86-3.66 4.4-4.96 7.28-4.12 9.12.72 1.6 2.04 1.74 4.2.46 1.44-.84 1.6-.84 2.42-.02.74.74.78 1 .18 1.74a6.4 6.4 0 0 1-8.08 1.42m-15.2-.4c0-.8 6.58-14.78 7.52-15.98.6-.72 2.52.02 2.52 1 0 .54-3.08 7.4-4.58 10.14-1.26 2.32-.64 3 2.72 3 2.76 0 2.92.08 2.92 1.34v1.32h-5.54c-4.66 0-5.56-.14-5.56-.8m-18.14-.68a15.4 15.4 0 0 0 9.02-13.9c.3-4.86-.18-5.88-3.12-6.86a20 20 0 0 1-9.08-7.44l-1.7-2.66-3.86.26c-8.54.6-14.28 6.28-14.8 14.64-.48 7.6 4.4 14.48 12.04 17 2.44.8 9.08.2 11.5-1.04m-8.96-13.2a100 100 0 0 1 .02-8.72c.24-1.08 2.64-1.28 3-.26.3.94.66 15.34.4 16.14-.12.36-.9.66-1.72.66h-1.5zm22.58-3.68a11 11 0 0 0 1.34-2.34c0-.28-3.28-.04-3.5.26-.14.2.46 4.06.62 4.06.12 0 .8-.9 1.54-2m6.24-6.4c6-2.72 8.94-7.04 9.3-13.68.1-2.08-.08-4.6-.4-5.62-.56-1.68-.86-1.88-3.1-2.2-4.26-.62-7.9-2.64-11.5-6.4-3.66-3.82-3.8-3.84-8.46-1.76-5.86 2.6-10.46 10.36-9.56 16.08.48 3.06 1.2 3.88 4.8 5.6a21 21 0 0 1 8.62 8c.8 1.34 1.14 1.48 3.94 1.48 2.24 0 3.96-.4 6.36-1.5m-11.24-7.3c0-1.38 4.6-15.54 5.34-16.42.82-1 1.92-.9 2.52.22.36.68-.06 2.6-1.58 6.98-1.28 3.7-1.9 6.22-1.6 6.52s1.48.28 3-.04c3.12-.66 3.86-.4 3.56 1.2-.32 1.6-.72 1.76-6.48 2.2-4.46.32-4.78.28-4.76-.66m-2.14 6.66c-.6-1.1-6.28-5.8-7-5.8-1.14 0 1.54 3.4 3.98 5 3.16 2.14 3.84 2.32 3.02.8m19.52-23.94c-1.24-2.36-4.3-4.52-8.52-6q-4.6-1.6-1.12 2c2.32 2.4 3.08 2.84 6.8 4.2 3.42 1.22 3.6 1.2 2.84-.2m9.52-.48c5.44-2.34 9.18-8.58 9.18-15.34 0-9.58-10.2-17.92-19.3-15.8-5.8 1.38-8.92 3.7-11.8 8.72-1.38 2.36-1.54 3.12-1.5 7.14.02 5.04.7 6.88 2.52 6.88 4.2 0 10.06 3.34 13.4 7.6 2.16 2.8 2.7 2.86 7.5.8M285.22 538q-.88-2.4 2.44-2.4c2 0 2.14-.08 2.14-1.54 0-1.3-.3-1.64-1.84-2.14a6.2 6.2 0 0 1-4.22-5.1c-.32-1.7-.16-2.14 1.36-3.7 1.94-2.02 4.26-2.66 7.2-1.96 1.64.38 2.02.72 2.16 1.9.2 1.6-1.14 2.54-2.16 1.52-1.5-1.5-5.16-.26-5.16 1.76q.02 2.92 4 2.92h2.36v4.44c0 5.12.02 5.08-4.82 5.08-2.32 0-3.24-.2-3.46-.8M86.56 598.54c-2.56-3.08-2.6-3.14-2.6-6.14 0-2.5.16-2.86 2.1-4.62 2.26-2.04 4.36-2.44 7.16-1.4 2.1.8 5.52 3.86 5.54 4.94 0 1.2-8.2 9.36-9.46 9.36-.5 0-1.74-.96-2.74-2.14m6.54-5.14c1.88-1.94 1.94-2.1 1.04-2.9-1.3-1.2-3.54-1.98-4.76-1.66-1.68.44-2.9 3-2.24 4.74.72 1.88 2.1 2.9 3.16 2.34.44-.24 1.7-1.38 2.8-2.52m366.08-2.74a16 16 0 0 1-3.74-1.88c-.5-.44-1.08-.8-1.3-.8-.92 0-4.58-4.48-5.78-7.06a15 15 0 0 1-1.4-10.24c1.08-6.94 4.28-11.5 10.32-14.62 2.92-1.52 3.6-1.64 8.2-1.64 3.94.02 5.54.26 7.4 1.12 3.08 1.42 6.84 4.2 7.26 5.34a14 14 0 0 0 1.58 2.56c2.16 2.88 3 6.2 2.66 10.8-.5 7.36-3.84 12.4-10.34 15.62a21.2 21.2 0 0 1-14.86.8m11.54-1.86a22 22 0 0 0 7.14-4.7c1.74-1.74 4-7.8 4-10.74.04-4.62-1.4-8-4.76-11.34-4.32-4.28-6.08-5-12.2-5-4.98 0-5.12.04-8.06 2a16.8 16.8 0 0 0-7 8.96c-3.28 9.82 5.12 21.6 15.4 21.6 1.8 0 4.26-.36 5.48-.8m-7.88-5.54c-4.6-1.4-7.94-4.5-7.94-7.36 0-.68.72-1.96 1.6-2.84 1.56-1.56 1.78-1.6 5.2-1.36 5.28.38 10.24 3.24 10.86 6.3.84 4.24-4.16 6.96-9.72 5.26m5.8-3.46c1.5-1.8-.54-3.78-5.2-5.04-2.7-.72-4.58-.4-5.06.86-.4 1.08 1.44 3.18 3.66 4.16 2.18.96 5.8.98 6.6.02m1.86-8.14a5.4 5.4 0 0 1-2.2-1.26c-.86-.78-1.56-.98-2.58-.72-1.92.48-4.74-.54-5.76-2.08-1.86-2.84-.4-7.66 2.32-7.66 2.04 0 2.36.64 1.08 2.26-1.2 1.52-1.36 3.04-.42 3.98.92.92 1.86.8 3.1-.46 1.58-1.56 3.24-1.14 3.8.96.34 1.36.7 1.72 1.76 1.72 1.34 0 1.48-.2 2.04-2.78q.32-1.44 1.3-1.46c2.36 0 2.6 2.92.52 5.9-.96 1.38-2.88 2-4.96 1.6m-394.8 14.5a6.92 6.92 0 0 1-1.94-11.68c3-2.66 7.28-2.16 10.2 1.18 1.54 1.72 1.64 2.1 1.32 4.3-.2 1.34-.66 2.84-1.02 3.36-1.98 2.8-5.76 4.06-8.58 2.84m5.06-3.46c1.54-1.54 1.88-3.5.84-5.06-1.76-2.7-4.52-2.74-6.36-.12-1.18 1.68-1 3.44.48 4.92 1.58 1.58 3.62 1.68 5.04.26m324.12-.68c-6.52-7.08-6.3-6.74-5.4-7.66.76-.74 1.46-.78 6-.2 2.8.34 5.2.52 5.34.4a10 10 0 0 0-2.2-2.8c-2.56-2.74-2.92-3.72-1.56-4.26.6-.22 2.1.92 5.02 3.86 2.28 2.3 4.16 4.48 4.18 4.82a7 7 0 0 1-.6 2c-.56 1.2-.72 1.26-1.48.56-.82-.74-7.94-2.14-9.04-1.78-.28.1.58 1.44 1.92 2.96 2.44 2.8 2.76 4.36.86 4.36-.52 0-1.88-1-3.04-2.26m13.8-14.46c-2.6-1.28-5-2.34-5.36-2.34-1 0-1.8-1.28-1.32-2.06.42-.7 2.4-.64 4.26.12.44.2 1.46-.2 2.28-.88 1.44-1.2 1.46-1.22.62-3.2-.92-2.2-.4-3.5 1.34-3.5.7 0 1.44 1.5 3.1 6.2 2.46 7 2.52 7.32 1.36 7.76-1.18.46-1.04.5-6.28-2.1m2.88-2.6a.8.8 0 0 0-.8-.8c-.82 0-1.04.64-.44 1.24s1.24.4 1.24-.44m-340.8-.66a18.5 18.5 0 0 1-16.44-15.22c-.6-3.34.06-8.28 1.6-11.64 1.26-2.74 6.06-7.24 9.24-8.7 6.28-2.86 15.4-1.44 20.32 3.16 3.46 3.22 5.92 9.36 5.92 14.8 0 8.52-7.18 16.34-15.94 17.36-1.84.2-3.96.32-4.68.24m8.54-3.5c1.04-.5 3.1-2 4.6-3.3 3-2.66 4.02-4.86 4.86-10.4.8-5.26-.46-8.66-4.74-12.6-6.92-6.34-15.3-6.6-22.26-.62-9.06 7.74-5.8 23.14 5.8 27.48 2.52.94 9.24.62 11.74-.56m-8.52-3.9c-2.48-1.26-3.22-4.08-1.74-6.6 1.06-1.86 3.88-4 5.68-4.38 4.56-.9 4.9-1.2 2.7-2.38a4 4 0 0 1-1.6-1.44c-.4-1.08.64-2.8 1.72-2.8.98 0 8.06 6.46 8.06 7.34 0 .3-.9.68-2 .86-7.36 1.12-10.26 2.14-11.24 3.98-.46.86-.32 1.3.76 2.38.72.72 1.8 1.32 2.4 1.32 1.2 0 1.42 1.02.44 2-.9.9-3.04.8-5.18-.28m-8.76-8.2c-2.9-2.9-2.42-6.6 1.04-8.06 1.36-.58 1.82-1.14 2.1-2.6.88-4.66 7.7-5.52 10.22-1.28.72 1.2.74 1.66.16 3.04s-.82 1.54-1.66 1.1c-.56-.3-1-.88-1-1.3s-.6-1.16-1.34-1.64q-2.72-1.8-3 2.88l-.16 2.46h-2.06c-2.98 0-3.76 1.46-1.74 3.2q1.48 1.32 1.32 2.5c-.26 1.84-1.86 1.72-3.88-.3m311.4 15.04c-4.32-1.1-9.5-5.48-11.66-9.86-1.14-2.32-1.28-3.32-1.26-8.46.02-6.68.6-8.24 4.68-12.8 3.24-3.6 6.62-5.04 12.5-5.34 5.48-.28 7.78.3 11.94 3.04a19 19 0 0 1 7.82 10.74c.88 3.42.34 9.4-1.14 12.68-1.24 2.7-4.38 6.42-6.36 7.52-4.72 2.6-5.98 2.94-10.6 2.88a42 42 0 0 1-5.9-.4m12.72-2.72a18.4 18.4 0 0 0 9.56-12.42c.44-2.28-.6-7.72-2.04-10.56-2.88-5.74-11.52-9.58-18.3-8.14a18 18 0 0 0-9.8 6.46c-2.04 2.96-3.42 7.92-3.02 10.84a18.8 18.8 0 0 0 12.08 14.6c3.02 1.12 8.56.74 11.52-.76m-10.2-4.26c-.5-.3-.92-.8-.92-1.1s-1.56-3.04-3.46-6.08c-3.72-5.9-4.18-7.86-1.88-7.86.98 0 1.7.74 3.3 3.36a28 28 0 0 1 2.04 3.7c0 .2.84 1.6 1.86 3.12 2 2.98 2.32 4.6 1 5.1-1 .4-.8.4-1.92-.24m7.8-6.28c-2.42-1-3.14-2.56-3.34-7.22a22 22 0 0 0-.42-4.46c-.12 0-1.2.5-2.38 1.1-2.2 1.12-3.64.8-3.64-.84 0-.68 4.84-3.96 5.84-3.96.28 0 1-.46 1.56-1.04.6-.6 1.4-.92 1.9-.72.7.26.76.76.4 3.02-.76 4.74-.5 9.14.6 10.36 1.34 1.48 3.16 1.38 4.2-.24.48-.72 1.34-1.32 1.92-1.32 1.6 0 1.32 2.24-.48 4.18-1.6 1.7-3.8 2.1-6.14 1.14m36.1 8.96a10 10 0 0 0-2.52-2.12c-.26 0-.5-.32-.5-.7 0-.4-.6-1.4-1.32-2.26-1.54-1.76-1.54-3.6 0-3.78 1.12-.14 4.54 2.72 5.32 4.44.4.86.48.8.64-.5a3.5 3.5 0 0 0-.48-2.34c-.64-.74-.42-.8 2.06-.56 1.54.14 2.8.08 2.8-.14a.8.8 0 0 0-.4-.6c-.24-.08-1.2-1.2-2.2-2.42-1.8-2.34-1.9-3.84-.2-3.84.94 0 9.14 8.56 9.14 9.52 0 .98-1.74 1.42-3.9 1-4.06-.78-4-.8-3.66 2.5.22 2.22.12 3.08-.44 3.44-1.34.84-2.3.48-4.34-1.64m-305.72-6c-6-2.14-11.46-8.2-12.72-14.06-1.24-5.84-.08-12 2.9-15.3 3.6-3.96 5.24-5.04 10.32-6.7a19.4 19.4 0 0 1 12.08.6c2.16 1 6.66 3.92 6.92 4.52.1.2.96 1.4 1.9 2.64 7.38 9.68 1.98 24.88-10.06 28.4-2.8.8-8.94.76-11.34-.1m9-1.92c2.36 0 1.7-.62-2.6-2.36-3.76-1.52-10.6-2.44-10.6-1.44 0 1.36 8.02 4.48 10.32 4 .58-.1 1.88-.2 2.88-.2m8.26-4.32a17.2 17.2 0 0 0 4.08-15.8c-1.2-5.2-1.36-5.3-8.52-5.3-4.9 0-6.54-.2-8.26-1-4.5-2.1-7.34-3.22-8.2-3.22-1.2 0-3.9 2.9-5.36 5.8-.92 1.8-1.26 3.52-1.4 6.9-.16 3.92-.04 4.8 1.06 6.88l1.26 2.38 3.4-.16c4.56-.22 13.54 1.96 16.8 4.08 2.58 1.68 3.2 1.6 5.14-.56M139 522.1c-.94-1.12-3.62-2.18-7.24-2.84-3-.56-6.98-.24-6.14.48 1.48 1.26 8 2.86 12.8 3.12 1.08.06 1.16-.04.58-.76M33.2 543.8a18 18 0 0 1-4.3-1.84 7 7 0 0 0-1.94-1.06c-.26 0-1.4-1.2-2.56-2.64a14 14 0 0 0-2.46-2.64c-.88 0-2.3-6.34-2.3-10.34 0-4.06.1-4.4 2.26-8.06 2.84-4.78 4.64-6.6 8.52-8.56 3.04-1.56 9.4-2 13.4-.94 2.88.76 4 1.4 8.04 4.72 2.26 1.88 4.82 6.74 5.64 10.74.6 2.9.56 3.54-.52 7.04-2.1 6.76-6.88 11.78-12.66 13.3-3.76 1-8.2 1.1-11.12.28m11.16-2.88c3.6-1.36 8.34-5.8 9.64-9 1.34-3.34 1.26-9.02-.16-12.32a21.4 21.4 0 0 0-8.28-8.6c-1.68-.84-3.18-1.04-7.24-1.04-5.08.02-5.14.04-8.14 2.12-8.4 5.76-10.2 15.6-4.34 23.28a15.8 15.8 0 0 0 18.52 5.56m-9.54-6.76a2.8 2.8 0 0 1-1.8-1.5c-.32-.7-.76-1.28-.96-1.28s-1.12-.74-2.06-1.62c-2-1.92-1.96-3.34.12-3.58 1.1-.12 1.96.3 3.4 1.7 1.82 1.8 3.16 2.08 2.6.56q-.28-.7.48-.4c1.1.4 1-1.6-.16-2.6a8 8 0 0 0-1.86-1.1q-.9-.34-.92-1.94c0-1.42.18-1.6 1.54-1.6 1.14 0 1.98.5 3.12 1.9 1.36 1.64 1.72 1.82 2.66 1.32q3-1.56-.22-4.4a42 42 0 0 0-2.54-2.12c-.78-.5.24-2.2 1.46-2.44.48-.08 2.08.92 3.58 2.26a16 16 0 0 0 3.1 2.4c.66 0 1.1 1.62.66 2.42-.56 1-5.1 6.2-8.34 9.52-2 2.06-2.94 2.66-3.86 2.5m394.04.96c-6.48-2.2-8.58-4-11.62-10-1.66-3.28-1.8-3.88-1.78-8.56.02-4.6.16-5.3 1.7-8.26a18.2 18.2 0 0 1 19.46-9.88 29 29 0 0 1 5.96 1.76c3.62 1.7 7.62 6.06 9.22 10.04l1.32 3.3.64-2.52c2.16-8.6 8.58-13.78 17.82-14.4 3.4-.24 4.1-.12 7.34 1.4 4.48 2.06 5.74 3.04 8.3 6.48 3.12 4.2 4.34 7.9 3.96 12.12-.52 5.84-1.52 7.86-6.3 12.78-3.18 3.26-6.06 4.56-11.06 5a19.6 19.6 0 0 1-12.04-2.72 22 22 0 0 1-7.32-9.28c-.86-2.32-1.14-2.7-1.44-1.84-1.46 4.4-3.34 7.98-5.12 9.8-4.6 4.74-12.96 6.84-19.04 4.8m12.02-3c3.76-1.58 6.96-4.92 9.06-9.54 1.68-3.66 1.46-7.04-.8-12a16 16 0 0 0-8.2-8.4 12 12 0 0 0-7.1-1.56c-3.5 0-4.48.24-7.4 1.72a16 16 0 0 0-7.7 8.8c-1.32 3.3-1.2 9.1.2 11.92 2.8 5.52 7.14 9.06 12.64 10.26 3.48.74 5.04.54 9.3-1.2m-13.9-6.08c-3.36-2.16-2.72-7.32 1.1-9.14 3.88-1.84 9.44.84 12.86 6.2q2.26 3.52-.6 3.52-1.38 0-1.82-1.2a8 8 0 0 0-1.84-2.46c-1.34-1.24-1.4-1.26-1.4-.2 0 .6-.68 1.84-1.52 2.74-1.86 2-4.22 2.18-6.8.54m4.7-2.94c1.92-1.74.6-4.32-1.9-3.68-1.72.42-2.26 2.2-1.06 3.54 1.12 1.24 1.72 1.26 2.96.14m6.06-8.16c-1.12-.88-1.82-1.04-3.48-.76-5.28.9-8.8-4.08-5.8-8.26.66-.94 1.56-1.52 2.32-1.52 1.54 0 2 1.04 1 2.36a5 5 0 0 0-.72 2.48c0 1.12.32 1.56 1.3 1.8 1.48.38 2.4-.04 2.4-1.06 0-.94 1.48-1.48 2.48-.92a5 5 0 0 1 1.4 1.72q.66 1.28 1.96 1.28c1.12 0 1.34-.28 1.48-1.84.2-2.3.72-2.86 2.16-2.4 2.66.84 1.52 5.8-1.68 7.32-2.42 1.16-3.12 1.12-4.82-.2m37.86 16.74c7.26-1.22 13.18-9.24 12.44-16.86a17.2 17.2 0 0 0-9.72-14.2c-3.28-1.54-3.8-1.64-7.66-1.38-5.04.36-7.72 1.74-11.2 5.8-4.14 4.88-5.12 12.12-2.36 17.4 1.54 2.98 4.9 6.56 7.16 7.66 2.24 1.08 7.4 2.32 8.6 2.06zm-12.96-14.4c-.68-.7-.34-2.6.8-4.42a62 62 0 0 0 2-3.44c1.04-2 3.14-2.34 5.26-.84 1.7 1.22 9.16 4.8 9.98 4.8 1 0 1.84 1.6 1.5 2.92-.44 1.72-2.3 1.76-4.96.08-1.1-.7-3.4-1.94-5.16-2.78l-3.54-1.7c-.2-.1-1.04 1.14-1.84 2.78-1.08 2.2-1.72 2.94-2.56 2.94-.62 0-1.28-.16-1.48-.36m-311.6 5.16c-5.34-2.12-8.38-4.86-11.3-10.24-1.38-2.52-1.52-3.22-1.44-7.54.06-4.64 1.08-8.3 2.98-10.74 1-1.32 4.24-4.4 5.42-5.2 1.72-1.18 8.12-2.84 10.8-2.84 5.3 0 12.16 3.4 14.56 7.22 2.14 3.36 2.88 3.86 2.88 1.88 0-2.8 1.96-8 3.92-10.4a21 21 0 0 1 13.02-6.52c4.1-.3 9.08.84 12.08 2.72 2.72 1.72 5.68 5.22 7.4 8.8 1.2 2.46 1.4 3.56 1.38 7.14-.08 5.84-.64 7.74-3.34 11.1-3.96 4.94-6.88 6.7-12.78 7.64-3.78.6-6.58.14-10.82-1.8-2.6-1.2-6.84-4.86-8-6.88q-1.48-2.66-2 1.08a16 16 0 0 1-5.12 9.74 17.6 17.6 0 0 1-12.88 5.6c-3.32.16-4.84 0-6.76-.76m12.42-2.76a13.8 13.8 0 0 0 8.6-8.12c1.4-3.1 1.66-4.3 1.6-7.16-.16-6.04-1.8-9.14-6.8-12.96a16.06 16.06 0 0 0-24.24 5.64c-2.26 4.46-2.48 7.3-.96 12.12a13 13 0 0 0 4.16 6.84 18 18 0 0 0 5.32 3.8c3.4 1.26 8.78 1.2 12.32-.16m-4.86-3.98c-1.82-1.28-2.9-4.14-2.1-5.64a12.2 12.2 0 0 1 8.52-5.9c1.94-.42 1.84-1.04-.42-2.44-1.36-.82-1.84-1.46-1.72-2.28.26-1.84 1.8-1.6 4.96.8a39 39 0 0 0 4 2.82c1.62.86 1.14 1.8-1.26 2.4-7.16 1.84-10.46 3.56-10.44 5.4s1.24 3.06 3.1 3.06c1.72 0 2.16.86 1 2-.9.92-4.2.8-5.64-.22m-12.12-9.6c-1.08-.36-.74-1.1 2-4.4 2.86-3.42 2.96-3.66 2.06-4.56-.82-.84-.1-1.74 1.4-1.74.74 0 1.94-.76 3-1.88 1.6-1.68 1.86-1.8 2.8-1.12.96.72.94.8-.72 3.06-1.54 2.1-1.6 2.36-.8 2.84.5.3 1.26.96 1.72 1.46.46.52 1.16.92 1.56.92s.64.46.54 1.2c-.14.88-.64 1.26-2.02 1.5-1.02.2-3.9.92-6.38 1.64s-4.8 1.2-5.16 1.08m8.24-5.34q.22-.68-.7-.52c-.52.1-1.06.5-1.2.9q-.2.7.72.52c.52-.1 1.06-.5 1.2-.9m45.74 10.8a18 18 0 0 0 8.62-8.2c1.3-2.6 1.42-3.3 1.2-7.2-.16-3.48-.48-4.78-1.66-6.78a18.6 18.6 0 0 0-8.22-7.68 17.8 17.8 0 0 0-13.28-.14c-4.4 2-9.16 7.96-9.88 12.46-.44 2.62.7 8.08 2.24 10.72 1.76 3.04 5.74 6.4 8.64 7.3 4 1.22 9.1 1.04 12.34-.48m-8.22-3.8c-.6-.62-.4-3.6.36-4.7.4-.58.96-1.76 1.28-2.64l1.66-4.48c3.4-9-1.9-5.94-7.16 4.14-1.5 2.84-3.4 4.3-5.1 3.92-1.24-.28-1.16-1.5.16-3.22a130 130 0 0 0 7.18-10.28c.82-1.58 3.72-3.04 6-3.04 1.74 0 3.48 1.8 3.96 4.06.28 1.26.04 2.28-.88 3.98a106 106 0 0 0-4.86 11.68c-.28.9-1.92 1.26-2.6.56m-97.34 8.8c-6.64-1.7-12.56-7.3-13.92-13.22-.98-4.32-.32-8.52 2.2-14.08 2.62-5.76 9.64-9.76 17.04-9.74 2.8 0 8.44 1.9 10.26 3.44.88.74 1.74 1.32 1.96 1.32.64 0 4.64 6.5 5.34 8.66.88 2.72.8 8.52-.18 11.26a19 19 0 0 1-10.14 11.12c-3.1 1.4-9.4 2.04-12.56 1.24m12.04-3.68a16.3 16.3 0 0 0 8.2-19.94q-1.18-3.54-2.18-3.76c-.54-.14-1-.52-1-.84 0-.86-3.66-4-5.8-4.98-2.58-1.16-10.2-1.16-12.84 0a22 22 0 0 0-8.9 9c-3.12 7.1-.16 15.56 6.96 19.94a15.4 15.4 0 0 0 15.56.58m-13.28-2c-1-.68-1.8-2.64-1.8-4.4 0-3.82 4.08-6.48 8.2-5.32 1.46.4 2.2.4 2.42 0 .2-.34.5-.2.72.4.32.8.44.84.86.18s.5-.64.5.14c0 .5.28.92.6.92q.6-.02.3-1.88c-.4-2.36 0-3.4 1.24-3.4 1.22 0 1.44.36 2.4 3.98.88 3.44 1 6.6.2 6.6-.3 0-2.04-.7-3.88-1.56a43 43 0 0 0-5.8-2.2c-2.2-.54-2.62-.5-3.54.34-1.32 1.2-1.3 1.48.28 3.8.98 1.46 1.14 2.06.66 2.36-.82.52-2.6.54-3.36.02m-2.54-13.56c-1.8-1.68-2-2.12-1.7-3.6.78-3.88 4.86-6.24 10.82-6.24 3.62-.02 4 .08 5.5 1.6 1.36 1.36 1.56 1.88 1.3 3.5a6 6 0 0 1-1.12 2.8c-1.54 1.68-5.36 3.16-9.08 3.5l-3.7.36zm11.04-2.9c2.3-1.34 2.36-2.6.16-3.5-1.54-.64-2.28-.66-4.8-.06-1.64.38-3.36 1-3.8 1.36-1.06.88-1 2.46.14 3.16 1.26.8 6.32.2 8.3-.96m180.98-3.76a20 20 0 0 1-9.9-6.16c-2.72-3.56-3.42-5.2-3.96-9.2a18.56 18.56 0 0 1 21.8-21.14c2.18.34 4.54 1.12 5.7 1.86 1.08.7 2.2 1.28 2.46 1.28.64 0 3.46 3.24 5.16 5.92 4.46 7.06 3.4 15.4-2.72 21.98-2.64 2.82-3.76 3.6-6.76 4.68a22 22 0 0 1-11.78.8m11.98-3.48c6.84-3.48 10.54-11.3 8.7-18.38-2.08-7.9-7.7-12.22-15.9-12.2-8.88.02-14.52 4.8-16.2 13.72a15.6 15.6 0 0 0 3.36 12.4c.9 1.04 4.6 3.9 6.12 4.7 3.6 1.88 9.92 1.78 13.92-.24m-8.26-6.14c-3.26-1.62-4.06-6.46-1.9-11.38 1.54-3.52 4.3-6.24 5.82-5.76 1.62.52 1.36 1.94-.74 3.98-2.4 2.32-2.4 3.18.06 3.18 2.52 0 4.96 2.48 4.96 5.04s-2.9 5.56-5.34 5.5a8 8 0 0 1-2.86-.56m4.14-3.34c1-1 .54-3.34-.74-3.74-1.46-.48-3.14.64-3.14 2.12a2.26 2.26 0 0 0 3.88 1.6m57.88 10.8a18 18 0 0 1-8.92-6.4c-2.92-4-3.6-6.1-3.6-11.32 0-4.2.18-5.14 1.54-8.06 3.2-6.76 9.54-10.66 17.4-10.7a18.4 18.4 0 0 1 11.92 4.36c2.42 1.92 5.18 6.08 6.06 9.18 1.54 5.32.12 12.72-3.14 16.5-.84.94-1.52 1.9-1.52 2.1 0 .9-5.28 3.86-8.18 4.6a19 19 0 0 1-11.56-.28m13.24-3.08a17 17 0 0 0 7.46-7.18c1.2-2.3 1.4-3.34 1.4-7.2 0-5.8-1.66-9.58-5.66-12.74-3.84-3.02-5.86-3.74-10.56-3.76-3.42-.02-4.52.2-6.88 1.42a14.8 14.8 0 0 0-7.44 7.42 16 16 0 0 0 2.82 18.34c3.72 3.94 6.98 5.22 12.66 5a14 14 0 0 0 6.2-1.3m-10.16-5.9c-.2-.28-1-.52-1.8-.52s-1.92-.5-2.46-1.1c-1.34-1.46-1.68-6.86-.62-9.88.88-2.52.7-2.7-1.2-1.2q-3.44 2.7-2.34-1.42c.42-1.56 3.88-2.64 9.78-3.1 3.96-.3 4.8-.2 6.6.72 3.58 1.86 4.76 4.64 4.52 10.52-.06 1.42-2.82 4.68-4.86 5.74-1.68.88-7.14 1.04-7.62.24m6.68-3.56c3.2-1.9 3.16-7.36-.06-9.66-3.7-2.62-8.48 0-8.48 4.64 0 1.96.3 2.64 1.8 4.14 2.08 2.06 4.24 2.36 6.74.88m-215.4 7.4c-2.12-.62-3.68-1.64-6.18-3.96-3.92-3.68-5.4-6.46-6.1-11.48-1.4-10.24 5.64-19.2 16.3-20.74a18 18 0 0 1 16.4 6.1c3.16 3.52 3.82 4.92 4.4 9.42.84 6.82-.66 11.68-5 16.08-4.72 4.8-12.74 6.66-19.8 4.58m12.06-2.36a15.4 15.4 0 0 0 9.72-9.76c1.4-4.7 1.46-5.8.64-8.94a18 18 0 0 0-10.32-11.86 19 19 0 0 0-11.14-.48 17.4 17.4 0 0 0-9.04 8c-1.46 2.88-1.68 3.84-1.7 7.54 0 3.4.24 4.74 1.24 6.84 2.08 4.26 5.86 7.32 11.68 9.46 1.8.66 5.76.3 8.92-.8m-4.7-4.06c-1.2-.64-2-1.56-2.3-2.6-1.08-3.72 1.26-6.92 6.32-8.6l3.44-1.14-1.94-1.68c-1.8-1.56-1.9-1.8-1.22-2.86.4-.66.92-1.18 1.16-1.18.68 0 5.12 3.3 5.12 3.8 0 .24.32.44.72.44 1.04 0 2.64 1.96 2.3 2.82-.16.4-1.42.92-2.84 1.14-5.2.76-10.22 3.46-10.22 5.46 0 1 1.56 2.18 2.94 2.2 1.6.02 2.4 1.04 1.78 2.2-.68 1.28-2.9 1.28-5.26 0m-9.8-7.98c-1.46-.6-2.18-1.56-2.6-3.56-.46-2.16.48-3.96 2.88-5.58q1.82-1.22 2-2.66c.4-3.42 6.24-4.92 8.88-2.26.98.98 1.28 1.84 1.28 3.56 0 2.54-1.04 4.12-3.28 5.06-.88.4-1.58 1.2-1.8 2.1-.7 2.98-4.26 4.6-7.36 3.34m4.4-4.02c.08-.6-.3-1.5-.88-2.02-.88-.8-1.2-.84-2.14-.24-1.32.84-1.4 1.66-.24 2.8 1.16 1.16 3.06.84 3.26-.54m4.04-4.26c1.2-.46 1.06-3-.2-3.78-1.4-.86-2.6-.32-3 1.34-.5 1.88 1.22 3.2 3.2 2.44m58.88 19.68c-7.8-2.76-12.54-9.74-12.54-18.44 0-3.76 1-6.54 3.72-10.2 6.74-9.1 19.56-10.16 28.46-2.32 1.32 1.14 2.48 2 2.6 1.86a10 10 0 0 0-.32-2.94c-1.88-8.68 1.46-16 9.14-20 2.48-1.3 3.22-1.44 8.8-1.44 5.92 0 6.16.04 9.42 1.8a20 20 0 0 1 9.9 12.48c.2.86.32 3.22.3 5.24-.16 8.44-7.38 16.28-16.34 17.72-5.08.8-11.92-1.5-16.12-5.48a16 16 0 0 0-2.2-1.88c-.14 0 0 .78.26 1.72 1.5 5.28-.26 12.54-4.14 16.84a19 19 0 0 1-20.94 5.04m11.32-1.82a16 16 0 0 0 11.06-20.9 17.4 17.4 0 0 0-10.6-10.12c-6.4-1.84-12.46-.6-16.56 3.32-2.72 2.64-5.12 7.94-5.12 11.4a16 16 0 0 0 4.46 11.7c3.06 3.2 4.26 3.92 8 4.84 3.6.9 4.74.86 8.76-.24m-2.1-4.8c-1.1-.68-.4-2.64 3.16-9.1a56 56 0 0 0 3.12-6.2c0-.9 1.76-1.2 2.54-.42.66.66.36 1.58-2.3 7.02-3.1 6.36-4.78 9.2-5.42 9.2a4 4 0 0 1-1.1-.5m-13.28-7.24c0-.46.44-1.48.98-2.24a28 28 0 0 0 1.94-3.44c.74-1.62.8-2.12.26-2.46-1.16-.72-.2-3.18 1.22-3.18.86 0 1.44-.5 1.98-1.72.48-1.08 1.2-1.8 1.94-1.88 1.62-.24 2 1 .94 3.08-1.14 2.2-.86 2.78 2.06 4.14 1.34.64 2.42 1.5 2.42 1.94 0 .46-1.2 1.34-2.76 2.04s-4.36 2-6.28 2.9c-3.96 1.9-4.7 2.02-4.7.82m7.6-5.3c.48-.16.72-.52.56-.8-.46-.74-1.68-.54-2 .34q-.54 1.26 1.46.46m44.4-1.5c5.94-3.02 8.32-6.76 8.72-13.66.2-3.68.08-4.42-1.2-7.08-2.02-4.1-6.14-7.96-9.52-8.92-5.1-1.42-6.3-1.46-10.36-.24-3.4 1-4.3 1.56-7.12 4.4-3.64 3.66-4.48 5.84-4.48 11.56.02 11.42 13.5 19.28 23.94 13.94m-3.48-5.72c-.78-.56-.82-1.08-.4-3.64.26-1.62.54-4.96.6-7.4.14-4.92.58-6.28 2.02-6.28 1.64 0 2.34 1.32 1.74 3.28-.3.96-.66 4.32-.82 7.48-.34 6.7-1.02 8.14-3.14 6.56m-11.94-1.1q-.6-.66-.08-2.44c.28-.96.66-4.52.86-7.9.34-5.76.68-6.92 2.06-6.92 1.76 0 1.84.72 1.06 8.9a80 80 0 0 1-1.08 8.58c-.46.72-2.14.6-2.82-.2m212.24.22c-7.2-2.66-11.04-7.2-12.34-14.6a16.4 16.4 0 0 1 1.58-11.14c6.1-12.92 25.12-14.26 32.84-2.32 2.74 4.24 3.42 7.02 3.02 12.24-.4 5.04-1.76 7.84-5.68 11.56a16 16 0 0 1-12.14 5.14 16 16 0 0 1-7.28-.88m13.48-2.88a14.2 14.2 0 0 0 7.56-7.46c1.56-3.16 1.68-3.76 1.5-7.54-.34-7.24-4-12.54-10.28-15a16.4 16.4 0 0 0-20.56 8.12c-1.68 3.38-1.86 9.24-.42 13.34a18 18 0 0 0 9.14 9.2 17 17 0 0 0 13.06-.66m-12.32-11c-1.48-.72-2.86-3.16-2.86-5.08 0-2 2.12-4.18 4.8-4.9 3.94-1.06 8.8 1.66 12.56 7 .9 1.24.52 2.3-.94 2.68-.88.24-1.5-.2-2.82-2.02-1.8-2.46-3.02-3-3.02-1.34 0 1.84-.64 2.72-2.52 3.5-2.12.88-3.62.94-5.2.16m4.28-3.62c.8-.88.86-1.3.36-2.4-.66-1.42-1.22-1.6-2.78-.76-1.16.62-1.42 3.44-.36 3.86 1.24.5 1.8.36 2.78-.7m-325.44 12.2a19.6 19.6 0 0 1-13.2-10.84c-1.34-2.84-1.44-3.48-1.24-8.18.26-6.6 1.26-8.86 5.94-13.4a22 22 0 0 1 10.28-5.2c5.92-1.4 16.42 4 18.58 9.54.4 1.02 1.1 2.3 1.56 2.84 1.34 1.6 1.1 10.98-.4 14.14a25 25 0 0 1-7.5 8.7 20 20 0 0 1-14.02 2.4m10.2-3.06a10 10 0 0 0 5.24-3.54 16 16 0 0 0 4.74-10.54c.2-2.6 0-3.7-.84-5.36a10 10 0 0 1-1.08-2.92c0-.44-.6-1.46-1.32-2.24s-1.34-1.68-1.34-2c0-.3-.6-.82-1.32-1.16s-1.32-.8-1.32-1c0-.82-6.06-2.66-9-2.72a17.4 17.4 0 0 0-11.38 4.26 15.8 15.8 0 0 0-4.64 11.8c0 3.66.16 4.36 1.88 7.4 2.2 3.92 3.96 5.7 7.22 7.34 4.2 2.12 7.7 2.3 13.16.68m-15.62-10.02c-.38-.14-.66-.7-.66-1.2 0-1.9 1.24-2.2 8-2.04l6.54.16v-3.04c0-3.52 1.2-5.34 2.8-4.3.76.5.88 1.3.76 5.02a40 40 0 0 1-.4 5.08c-.16.5-2.28.66-8.3.62a84 84 0 0 1-8.74-.3M17.7 445.88c-.8-1.76-.08-2.5 2.6-2.64 1.1-.08 2.14-.16 2.3-.2s.16-1.08 0-2.32l-.3-2.24h-2.76c-3.18 0-3.6-.28-3.14-2.1.28-1.1.66-1.34 2.06-1.36.94 0 3.8-.36 6.36-.8 4.88-.86 5.66-.76 5.66.74 0 1.3-1.04 2.2-2.6 2.2-2.2 0-2.7.6-2.34 2.8.34 2.06.38 2.08 3.56 2.16 1.32.04 2.26.38 2.62.96.92 1.44-.16 2.06-4.48 2.54-2.14.24-4.58.7-5.4 1-2.34.92-3.5.7-4.16-.76m284.8-7.2c-7.9-1.28-13.82-7.34-15.34-15.68-.56-3.16-.32-6.68.52-7.8.22-.3.58-1.36.8-2.34.5-2.34 6.36-8.22 9.7-9.74 1.94-.9 3.52-1.14 7.5-1.14 4.34 0 5.4.16 8.02 1.4 4.24 1.96 7.4 5.1 9.2 9.04 1.28 2.76 1.52 3.98 1.5 7.58a18.4 18.4 0 0 1-8.76 16.08c-2.26 1.4-8.12 3.28-9.7 3.12zm8.84-3.18c2.32-.84 3.84-1.92 6.32-4.48 2.9-2.98 3.34-3.74 4.04-6.8 1.68-7.32-1.4-14.3-8.1-18.38-2.76-1.68-3.14-1.76-7.92-1.74-4.8 0-5.18.1-8.04 1.84-5.36 3.26-7.86 7.96-7.84 14.74.02 7.44 3.54 12.16 11.38 15.24 2.5 1 6.8.8 10.16-.42m-10.26-6.8c-4.8-2.9-3.26-7.6 3.3-10.04 5.1-1.92 9.66-1.26 11.28 1.6 1.66 2.98-1.6 7.18-6.7 8.6-4.02 1.14-5.82 1.1-7.88-.16m6.96-2.72c2.84-.72 4.76-2.58 4.26-4.14-.76-2.38-8.34-.96-10.2 1.9-.68 1.08-.62 1.22.76 1.98 1.8.98 2.24 1 5.18.26m-12.76-10.8c-.6-1.54.26-2.16 4.64-3.38l7.84-2.2c2.48-.72 3.6-.84 4.1-.4.64.52 1 2.54.46 2.54-.3 0-4.3 1.08-10.6 2.88-5.6 1.58-6.04 1.6-6.44.56m-279.5 13.7c.16-1.3.44-1.48 2.8-1.84 1.48-.2 4.1-.64 5.84-.96 3.7-.68 5.02-.34 5.02 1.3 0 1.08-.42 1.24-5.96 2.06-7.96 1.2-7.9 1.2-7.7-.56m-1.28-7.66c-1.3-1.6-1.24-4.98.1-5.68 2.06-1.12 2.78-.72 2.6 1.4-.26 2.72 1.18 3.02 2.1.46.8-2.2 2.9-4 4.68-4 2.02 0 3.88 2.22 3.88 4.66 0 2.26-.96 3.48-2.5 3.18-.74-.16-.9-.6-.76-2.16.14-1.72 0-1.98-.96-1.98-.8 0-1.38.62-2.1 2.3-.54 1.28-1.4 2.46-1.88 2.66-1.86.7-4.24.32-5.16-.84m335.62-4.08c-5.04-1.04-9.9-4.98-12.46-10.1a21.4 21.4 0 0 1-.8-15.3c1.26-3.3 4.58-7.1 8.66-9.88 2.36-1.6 7.84-2.56 11.46-2.04 4.24.6 11.68 5.18 12.46 7.66.48 1.48 1.24 1.3 1.64-.4 1.16-4.9 4.66-9.66 9.58-13.02 3.1-2.12 8.7-2.84 13.48-1.74 5.5 1.28 9.48 4.5 13.16 10.64 1.1 1.86 1.26 2.8 1.26 7.4 0 4.88-.12 5.52-1.52 7.96-2.16 3.76-4.86 6.92-6.96 8.16a21 21 0 0 1-16.18 1.84 17.4 17.4 0 0 1-8.1-5.38l-2.28-2.38-.6 2.76c-1.2 5.56-4.76 9.74-10.9 12.72a12 12 0 0 1-6.64 1.52 37 37 0 0 1-5.26-.42m9.32-2.56a18 18 0 0 0 9.52-7.94c1.24-2.08 1.52-3.28 1.7-7.08.2-4.3.12-4.78-1.48-8.04a16 16 0 0 0-3.04-4.42 72 72 0 0 1-2.74-2.1c-3.9-3.16-11.26-3.64-16.2-1.06a14 14 0 0 0-7.26 7.36q-4.92 9.84 2.76 18.48c3.38 3.8 5.68 4.8 13.08 5.66.36.04 2-.34 3.66-.86m-11.02-6.84c-1.96-1.24-2.68-3.46-2-6.06.5-1.8.76-2.04 2.16-2.04h1.58l-.34 2.6c-.32 2.28-.22 2.66.76 3.2 1.44.76 3.24-.12 3.24-1.6 0-1.54 2.76-1.42 3.46.16.36.86.96 1.2 2.1 1.2 1.52 0 1.6-.1 1.6-2.4 0-2.06.14-2.4 1.18-2.54 2.72-.4 2.92 5.24.24 7.34-1.12.88-1.86 1.06-3.54.8a20 20 0 0 0-6.62-.02c-1.74.2-2.78.02-3.82-.64m-.06-11.94c-3.54-2.84-1.4-10.2 2.28-7.82.66.42.68.7.14 1.58-.88 1.44-.84 3.46.1 4.24 1.1.9 2.8.2 3.16-1.32.46-1.78 3-1.86 3.76-.12a2.4 2.4 0 0 0 1.98 1.36c1.4.16 1.46.08 1.46-2.24s.06-2.42 1.54-2.42c1.12 0 1.66.3 1.9 1.1.52 1.62-.2 4.62-1.36 5.8-1.2 1.2-4.68 1.4-6.32.38-.84-.52-1.28-.52-2.1 0-1.7 1.06-4.86.8-6.54-.54m47.56 9.6a18 18 0 0 0 9.44-9.44c.74-2.08.92-3.58.7-6.02-.46-4.82-1.24-6.96-3.72-10-4.84-5.94-12.16-7.54-19.4-4.22a15.6 15.6 0 0 0-8.5 8.58 16.6 16.6 0 0 0 8.08 20.86c3.58 1.78 9.02 1.88 13.4.24m-12.86-7.14c-1.46-1.14-1.72-1.68-1.7-3.56.02-3.66 2.4-5.66 6.7-5.64 3.16.02 6.06 1.32 9.16 4.12 2 1.8 2.28 2.28 1.8 3.1-.34.54-1 1.06-1.46 1.14-.84.18-2.46-1-2.46-1.8 0-.52-1.74-1.76-2.52-1.8-.36 0-.66.6-.66 1.36 0 .8-.64 2-1.54 2.92-2.04 2.04-4.88 2.1-7.32.16m5.06-2.44c.86-.84.8-2.8-.1-3.54-1.16-.96-3.5.16-3.5 1.68 0 1.44.9 2.5 2.12 2.5.46 0 1.12-.28 1.48-.64m-6.5-11.96c-.16-.16-.28-.82-.28-1.5v-1.24h17.46v1.32c0 .72-.18 1.34-.4 1.38-1.5.2-16.58.24-16.8.04m-295.8 29.88q-9.26-3.12-12.32-11.6a18.9 18.9 0 0 1 7.46-22.56c4.5-3.1 12.88-3.58 18.34-1.04a21.6 21.6 0 0 1 9.46 9.42c1.2 2.58 1.4 3.6 1.36 8.24 0 4.46-.2 5.64-1.2 7.6a30 30 0 0 1-9.3 9.16c-2.68 1.38-10.68 1.84-13.8.78m11.74-3.06c5.54-2.06 8.98-6.88 9.74-13.66.4-3.62.32-4.2-.9-6.86a17.4 17.4 0 0 0-6.9-8.36c-2.58-1.7-3.36-1.94-7.1-2.16-7.48-.44-12.56 2.4-15.68 8.72-1.28 2.64-1.5 3.68-1.46 7.3.02 3.02.32 4.78 1 6.08 1.24 2.4 5.9 7.28 7.96 8.36a17.6 17.6 0 0 0 13.34.58m-13.36-4.72c-.86-1.38.4-4.54 2.84-7.14 2.42-2.6 2.52-2.8 3.14-7.4.7-5.26 1.8-7.3 4-7.56 1.76-.2 1.9 1.2.36 3.72-.74 1.22-1.06 2.68-1.08 4.92 0 4.28-.3 5.14-2.16 6.2-.96.56-2 1.9-2.68 3.44-1.68 3.86-3.44 5.4-4.4 3.82m201.52-8.12c-8-2.62-12.8-8.72-13.28-16.86-.2-3.56-.38-4.14-1.1-3.9l-3.76 1.34a18.64 18.64 0 0 1-24.74-15.9c-.32-4 1.14-9.84 3.06-12.28 1.06-1.34 1.06-1.42.14-1.74-6.6-2.3-10.22-5.4-12.92-11.04-1.3-2.7-1.54-3.8-1.54-7.56 0-3.7.24-4.88 1.52-7.66 4.06-8.78 14.08-13.36 22.56-10.32q8.84 3.2 12.04 10.34a20 20 0 0 1-1.5 17.72l-1.3 2 1.2.44 3.2 1.16c2.84 1 7.26 5.14 9 8.4a16 16 0 0 1 1.8 7.22c.2 2.46.5 4.46.72 4.46s1.54-.54 2.96-1.2c2.08-.94 3.52-1.16 7.6-1.16 4.4 0 5.36.18 7.68 1.4 3.8 2 7.18 5.16 8.94 8.42 1.32 2.44 1.58 3.6 1.8 8.04.26 5.48.2 5.78-2.56 10.22-1.74 2.8-5.88 6.4-8.84 7.66-3.08 1.32-9.8 1.76-12.68.8m12.8-3.34a15 15 0 0 0 8.62-11.44c.86-4.22-.54-10.62-2.82-12.9-.4-.4-1.04-1.14-1.4-1.64-1.42-1.88-5.54-4.22-8.52-4.84a16 16 0 0 0-10.96 1.42 13.4 13.4 0 0 0-6.1 5.78c-3.22 5.02-3.66 9.12-1.56 14.48a17.4 17.4 0 0 0 12.16 10.56c2.74.64 7.8-.04 10.6-1.4m-17.6-6.88c-.84-.32-.84-1.58.02-2.12.98-.6 4.28-5.4 5.1-7.4.84-2.08.32-4.76-1-5.2-.56-.16-1.76.08-2.68.56-2 1.04-3.18.72-2.8-.76.34-1.2 2.08-2.48 4.1-3 1.02-.26 1.96.02 3.46 1.02 1.74 1.14 2.14 1.74 2.42 3.72.3 1.94.12 2.84-1.06 5.18a25 25 0 0 1-2.2 3.7c-1.04 1.14-.2 1.64 2.1 1.2 1.26-.22 2.02-.08 2.6.52.78.76 1.02.64 2.8-1.4 3.6-4.2 5.2-8.6 3.68-10.14-1.06-1.06-2.84-1.08-4.2-.04-1.46 1.1-1.88.98-1.88-.6 0-2.88 4.74-4.46 7.66-2.54 1.5.98 2.46 3.52 2.16 5.76-.2 1.62-2.62 6.36-3.5 6.92-1.24.76-.24 1.3 2.4 1.3 2.56 0 2.92.12 2.92 1.04a2 2 0 0 1-.98 1.56c-.54.28-5.16.52-10.34.52-5.14 0-9.52.1-9.72.22s-.68.1-1.04-.02m-12.76-11.6q4.96-1.96 6.6-5.4c.5-1.06 1.06-2.06 1.26-2.2 2.6-1.98 2.94-8.54.76-14.02a13.4 13.4 0 0 0-3.84-5.62c-3.24-2.86-4.7-3.56-8.26-3.98-2.52-.3-3.14-.2-4.14.72-1.12 1-3.84 2.04-8.66 3.28-2.66.7-4.66 3.1-5.82 7.04-3.24 10.88 5.48 22.14 16.54 21.34 1.78-.14 4.28-.66 5.56-1.16m-15.8-7.06c-.86-.38-1.2-.96-1.2-2.14v-1.6l2.54.32c1.98.26 2.7.16 3.24-.5.6-.72.56-1.06-.16-2.18-.48-.72-1.34-1.32-1.92-1.32-1.62 0-1.48-3.04.14-3.28.84-.12 1.24-.58 1.36-1.6.2-1.76-1.26-2.66-3.6-2.2-1.6.34-1.68.28-1.5-1.2.16-1.44.3-1.52 3.2-1.68 2.5-.12 3.2.04 4.14 1 1 .98 1.12 1.58.9 4.08-.14 1.9.04 3.66.54 4.94.92 2.3.6 4.1-1.08 6.04-1.32 1.52-4.58 2.18-6.6 1.32m9.92-1.02c0-.6.34-1.24.74-1.48.94-.54 4.92-7.04 5.36-8.74a5.5 5.5 0 0 0-.26-2.74c-.48-1.28-.76-1.44-2-1.14-.8.2-1.88.76-2.4 1.2-1.16 1.06-2.14.28-1.88-1.5.24-1.72 2.34-2.68 5.18-2.4 2.72.28 4.04 1.54 4.56 4.38.4 2.04-.84 5.92-2.56 8.14l-1.02 1.32 2.56.26c2.32.24 2.6.4 2.74 1.72.08.8-.04 1.48-.28 1.48l-5.6.3c-4.88.24-5.14.2-5.14-.8m-9.94-23.3c2.5-1.28 5.12-2.2 6.98-2.44 3.46-.42 4.4-1.32 6.2-5.98 2.96-7.68-.66-17.28-7.88-20.8-3.34-1.62-10.96-1.78-14-.26a16.4 16.4 0 0 0-9.24 12.44 17.2 17.2 0 0 0 11.74 18.4l2.16.68a104 104 0 0 0 4.04-2.04m-.9-7.54a14 14 0 0 1-.4-2.56l-.14-1.84-3.3-.16c-3.9-.2-4.1-.66-1.7-3.96l3.72-5.1a18 18 0 0 0 2.08-3.32c0-.24.48-.42 1.06-.42.96 0 1.06.34 1.06 4.36 0 3.8.14 4.46 1.06 5.04 1.3.8 1.36 2.16.12 3.06q-.94.66-.92 2.96c0 2-.16 2.32-1.2 2.46-.66.1-1.3-.14-1.44-.52m-.6-8.2c.2-.46.24-.98.08-1.12-.34-.34-1.88.92-1.88 1.54 0 .82 1.48.5 1.8-.4M473 386c-2.76-1.88-2.82-1.9-5.8-1.34-3.5.64-3.84.54-3.84-1.18 0-1.4.66-1.68 4.24-1.8 2.04-.1 2.7-.44 4.78-2.46q3.72-3.68 4.56-1.52c.2.52-.4 1.56-1.68 2.86l-2 2.06 1.8 1.08c1 .6 1.98 1.1 2.2 1.1.2 0 .4.72.4 1.6 0 2.12-1.1 2.02-4.66-.4m-418.4-5.98a21 21 0 0 1-5.88-1.96c-2.86-1.48-4.36-2.8-7.92-7.06-1.52-1.84-2.6-7.96-2.12-12.26.66-6.26 5.4-12.34 11.64-14.92 4.86-2 12.2-1.48 16.4 1.16a20 20 0 0 1 2.4 1.68c.16.18.94.74 1.74 1.26.8.5 1.44 1.24 1.44 1.64s.36 1 .8 1.38 1.32 1.76 1.94 3.1c.94 2.02 1.14 3.4 1.12 7.84-.02 5.04-.12 5.58-1.6 7.94a24 24 0 0 1-9.24 8.66c-3.48 1.86-5.56 2.16-10.74 1.54m9.06-3.66c3.32-1.46 6-3.3 6-4.1 0-.36.32-.82.7-1.06 1-.6 2.92-5.8 3.32-9 .76-6.06-4.26-13.72-10.38-15.8a20 20 0 0 0-12-.04c-3.44 1.18-8.12 6.04-9.4 9.76-1.92 5.66-.44 11.48 4.34 16.9.6.66 1.24 1.2 1.48 1.2s1.2.6 2.14 1.32c3.4 2.6 9.04 2.92 13.8.8m-.12-12.42c-.18-.7-.62-1.4-1-1.54-.34-.14-4.38-.42-8.94-.64-4.56-.2-8.42-.6-8.58-.82-.14-.24-.1-1.04.08-1.8l.34-1.36 8.28.3c10.52.38 11.42.52 12.74 2.2 1.88 2.4 1.16 4.94-1.4 4.94q-1.2.02-1.52-1.28m398.24 8.96q0-1.3 1.44-2.06c1.8-.96 3.84-2.84 3.84-3.56 0-.3-1-.52-2.24-.46-3.5.14-3.66.08-3.48-1.2.16-1.12.6-1.24 6.44-1.88 7.08-.78 7.76-.58 7.76 2.32 0 3.84-2.52 6.14-5.5 5-.8-.3-1.54-.54-1.62-.54s-1.1.82-2.22 1.84c-2.48 2.24-4.42 2.48-4.42.54m10.58-5.56c0-.78-.36-1.06-1.32-1.06q-2.16 0-.7 1.48c1 .98 2 .76 2-.42m-11.36-8.96a18 18 0 0 1-.62-3.64c-.4-4-.28-4.08 7.6-4.56l5.96-.36v1.74c0 .96.16 2.64.34 3.74.32 1.86.26 2-1.02 2-1.2 0-1.42-.32-1.8-2.26-.36-1.8-.7-2.28-1.7-2.44-1.18-.16-1.24-.04-.94 1.86.4 2.4-.16 3.54-1.56 3.26-.74-.14-1.02-.72-1.16-2.46-.14-2-.3-2.26-1.32-2.1-.96.12-1.16.5-1.16 2.28 0 1.16-.2 2.4-.42 2.76-.5.8-1.76.88-2.2.2m-444-9.1c-5.04-.9-10.9-4.58-13.14-8.26-2.6-4.26-4-12.64-2.54-15.32.32-.62.68-1.6.76-2.2.2-1.2 3.56-5.54 5.86-7.52l1.56-1.36-2.5-2.04A17.4 17.4 0 0 1 1 300.78a20 20 0 0 0-.8-4.48q-.44-.92.08-.92c.3 0 .56-.44.56-.96s.28-1.24.62-1.6c.36-.34.46-.62.22-.62-.92 0 2.6-5.04 5.4-7.72a15.4 15.4 0 0 1 9.2-4.6c.8-.08 1.56-.28 1.72-.44.62-.62 7.24.54 9.88 1.76 2.96 1.34 7.88 5.52 7.88 6.66 0 .34.2.64.4.64 1.04 0 2.5 6.16 2.4 10.08-.16 5.74-1.7 9.54-5.32 13.08l-2.88 2.8 2.86 2.76a15.6 15.6 0 0 1 5.38 11.4c.36 5.96-.62 9.4-3.9 13.48a16 16 0 0 1-6.16 5.16c-3.64 1.8-8.2 2.6-11.56 2m7.94-3.22q3.12-.88 6.44-3.76c.6-.54 1.9-2.64 2.82-4.68 1.44-3.08 1.7-4.28 1.66-7.32a13.2 13.2 0 0 0-2.6-8.74c-1.36-2.1-5.34-5.56-6.4-5.56-.28 0-1.2.28-2 .6-1.32.52-3.78.56-11.48.24-4.06-.2-7.64 3.96-9.12 10.54-.78 3.5-.14 8.88 1.2 10.24.4.38.7.86.72 1.04 0 .2 1 1.48 2.24 2.82a16 16 0 0 0 9.64 5.22c2.8.4 3.46.34 6.88-.64M10.64 334c-.54-1.72.32-7 1.32-8.06a5.6 5.6 0 0 1 5.46-1.32c1.14.4 1.68.3 2.46-.4 1.28-1.14 4.82-1.62 6.28-.86 1.5.8 2.32 3.86 2.12 8l-.18 3.44-8.56.14c-8.2.14-8.56.1-8.9-.94m14.02-2.68c.66-.5.56-.6.8-.94-.4-2.06-.26-1.56-1.24-3.44-.48-.94-1.12-.76-1.88-.2-1.06.78-1.72 4.08-.92 4.58.94.58 3.24.58 3.24 0m-9-.8c0-.44-.2-.68-.44-.54-.26.16-.36-.36-.22-1.16.18-1.12.1-1.26-.34-.64-.84 1.2-.72 3.18.2 3.18a.8.8 0 0 0 .8-.84m2.12-.28c0-.3-.24-.4-.52-.2-.3.18-.54.56-.54.84 0 .3.24.4.54.2.28-.16.52-.56.52-.84m-2.64-17.92c2.08-.4 8.5-.3 11 .2 2.22.44 2.32.4 4.62-2 3.72-3.88 5-6.92 5-11.8 0-3.44-.22-4.6-1.44-7.04-4.24-8.44-13.44-11.92-21.2-8-2.94 1.5-6.9 5.26-7.24 6.9-.1.44-.58 1.6-1.06 2.54a14 14 0 0 0-.9 5.56 15.4 15.4 0 0 0 3.84 10.64c1.78 2.08 4.8 4.08 5.48 3.64.32-.2 1.18-.48 1.9-.64m-4.36-8.08c-.6-1.8.32-2.56 4.96-3.94 2.9-.88 4.44-1.58 4.04-1.84-.38-.2-.7-.66-.74-.96l-.14-1c-.02-.26-1.2-.78-2.58-1.16-3.64-1-4.88-1.94-4.88-3.7 0-2.08.76-2.34 3.2-1.08 1.14.6 2.08.92 2.1.7q.04-.3.4.2c.32.48 6.72 3.6 7.52 3.66.14 0 .8.32 1.46.68s1.2.5 1.2.3.46.06 1.04.6c2.12 1.9 1.68 2.26-5.8 4.68-2.2.72-5.14 1.8-6.54 2.4-2.88 1.26-4.92 1.44-5.24.46m459.3 40.3c-.52-.3-3.24-1.14-6.06-1.84s-5.2-1.4-5.34-1.54c-.58-.6.5-1.78 2.36-2.6 1.12-.52 3.92-1.9 6.2-3.06 3.7-1.88 4.26-2.04 4.96-1.34 1.12 1.12.56 1.72-3.34 3.6-1.88.9-3.52 1.84-3.66 2.06s1.2.72 3 1.12q5.7 1.28 4.9 3.26c-.4 1.02-1.6 1.16-3.02.34m-380.92-8.08c-3.98-1.64-5.86-3.04-8.06-6.06-2.96-4.04-4.24-8.06-3.9-12.24.3-3.46 1.76-8.24 2.98-9.64 2.8-3.26 3.76-4.16 5.6-5.36a19.26 19.26 0 0 1 28.04 9.12c2 5.2 1.9 10.68-.24 14.46a26 26 0 0 1-6.9 7.9c-4.24 3.16-12.24 4-17.52 1.8m10.82-1.74c3.76-.54 10.4-5.6 10.4-7.88 0-.42.24-.78.54-.78.28 0 .52-.66.52-1.46s.24-2.28.54-3.3c.7-2.42-.26-7.46-1.96-10.4-3.6-6.28-12.2-9.72-18.74-7.52-4.78 1.6-9.96 7.44-10.98 12.36a13.6 13.6 0 0 0 .64 8.48 15.2 15.2 0 0 0 6.8 8.56c2.8 1.74 7.52 3 9.34 2.48.4-.12 1.7-.36 2.9-.54m-6.66-6.9c-.76-.2-.92-.86-.92-3.6 0-1.8.36-4.32.8-5.56.96-2.74.96-2.8.12-2.32-.36.2-.2-.14.34-.76 1.44-1.66 1.06-1.58-3.3.6-2.48 1.24-3.7 1.12-4.42-.48q-1-2.28 1.9-2.32c2.06-.02 5.44-1.32 7.88-3.04 3.6-2.52 4.56-1.56 2.5 2.5-1.84 3.6-2.74 8.58-2.1 11.46.5 2.2.44 2.6-.36 3.2-.5.38-1.06.66-1.2.6zm281.92 6.8c-4.36-1.64-6.36-3.12-8.7-6.46-2.4-3.44-3.04-5.02-3.72-9.54-1.1-7.36 3.74-15.9 11-19.36 2.5-1.2 3.76-1.44 7.56-1.46 4-.04 4.96.14 7.94 1.54 5.3 2.5 7.72 4.8 10.16 9.76 1.48 3.04 1.68 3.92 1.62 7.68-.08 7.62-3.72 13.6-10.24 16.84-2.98 1.48-4.04 1.72-8.2 1.84-3.64.1-5.4-.1-7.42-.86m13.8-2.64c6.44-3.28 9.5-8.5 9.28-15.84-.14-4.46-.64-5.84-3.5-9.5-3.64-4.6-9.12-6.7-15.4-5.86a14.6 14.6 0 0 0-10.3 5.8c-2.5 3.18-3.4 5.96-3.36 10.48a15 15 0 0 0 4.5 10.86 15.6 15.6 0 0 0 13.18 5.36 16 16 0 0 0 5.6-1.3m-2.36-9.1c-2.54-3.16-4.36-3.92-9.46-3.94-6.68-.04-6.56-.32 2.78-8 4.68-3.84 5.68-4.34 7.02-3.48 1.08.68.36 1.7-3.6 5.1-4 3.46-4.02 3.28.4 4.46a10 10 0 0 1 6.32 5.2c1.42 3.42-.9 3.86-3.46.66m71.14 7.28c-.6-1.96-.68-6.72-.12-7.18.86-.68 12.54-1.88 13.04-1.34.6.66 1.04 6.26.56 7.04-.8 1.26-2.4.4-2.56-1.4s-1.3-3.1-2.2-2.56c-.3.2-.56 1.4-.56 2.7 0 1.98-.16 2.34-1.02 2.34-1.22 0-1.9-.92-1.74-2.38.2-1.7-.74-2.74-1.82-2.06-.7.44-.9 1.16-.78 3.04.14 2.34.08 2.46-1.22 2.46-.76 0-1.48-.3-1.6-.66M421.28 328c-3.04-1-6.02-3-8.56-5.78-2.12-2.3-4.4-6.4-4.4-7.92a2 2 0 0 0-.48-1.22c-.78-.84.38-8.2 1.8-11.68 2.7-6.42 9.84-10.8 17.64-10.8 2.6 0 8.32 1.94 10.66 3.6a20 20 0 0 1 7.8 14.56 14 14 0 0 1-1.14 7.74 21.6 21.6 0 0 1-8.9 10.32c-2.1 1.2-3.26 1.48-7.4 1.66-3.24.16-5.64 0-7.02-.48m13.48-3.94a16 16 0 0 0 7.54-8.84c.36-1.16.64-3.8.64-5.88-.04-3.48-.2-4.08-2.28-7.58-3.5-5.88-8.18-8.54-14.86-8.48-9.74.1-17.44 10.1-15 19.48a16 16 0 0 0 5.46 9.26c2.48 2.22 4.06 2.96 7.92 3.7 2.78.54 7.7-.24 10.58-1.66m-17.86-6.8c-1.12-.48-.72-1.6 1.06-3.06 9.3-7.54 8.4-7.2 16-6.1 3.94.56 5.4 1.44 4.84 2.9-.3.8-.86.84-4.44.5l-5.76-.54c-1.7-.14-2.44.32-7.32 4.66-2.16 1.9-2.96 2.2-4.38 1.62m-111 7.78a19 19 0 0 1-8.58-5.24c-4-3.92-5.08-7.2-4.76-14.5.3-6.36.42-6.68 4.74-11.16 3.04-3.14 4.36-3.94 9-5.4 3.88-1.18 7.92-.86 12.62 1.04a17.6 17.6 0 0 1 9.52 8.84c1.66 3.12 1.8 3.72 1.76 8.12 0 4.08-.2 5.2-1.46 7.8a24 24 0 0 1-8.56 9.18c-1.92 1.12-7.66 2.38-10.56 2.3-.6-.02-2.26-.46-3.74-1m10.46-2.5c6-1.68 10.76-7.8 11.4-14.62.54-6-3.8-13.34-9.4-15.9-1.84-.84-3.5-1.1-7.16-1.12-4.2 0-5.06.16-7.4 1.42-4.92 2.68-7.14 5.46-8.36 10.46q-2.2 9.12 4.76 15.98c4.46 4.34 9.74 5.6 16.16 3.8m-8.44-9.46c-1.64-1.64-1.84-2.1-1.56-3.76a6.5 6.5 0 0 1 1.14-2.84c.76-.84.76-1.08-.04-2.76-.82-1.74-.8-1.92.26-4 .88-1.76 1.52-2.3 3.2-2.76 2.72-.74 4.54-.24 5.84 1.6 1.26 1.74 1.36 3.72.28 5.78-.68 1.3-.68 1.72-.04 3q1.56 3.2-1.64 6.02c-2.6 2.28-5 2.2-7.44-.28m5.88-3c.44-.74.34-1.18-.56-2.06-1.4-1.4-3.36-.96-3.36.78 0 2.38 2.68 3.24 3.92 1.26m.3-7.26c.3-.56.4-1.4.2-1.88-.46-1.2-3.54-.88-3.8.4-.4 2.2 2.56 3.4 3.6 1.48m119.42-13.5c-4.86-1.78-9.34-5.84-11.14-10.08a17.2 17.2 0 0 1-1.16-11.42c1.16-6.2 4.42-10.46 10.32-13.5 2.48-1.28 3.48-1.48 7.68-1.52 5.56-.04 8 .6 11.66 3 5.14 3.4 8.54 10 8.4 16.32-.14 6.6-5.9 14.52-12.32 16.96q-6.88 2.6-13.44.24m11.84-2.04a17.4 17.4 0 0 0 9.96-9.64c.9-2.4 1.06-8.18.3-10.76a17.4 17.4 0 0 0-12.54-11.46 10.4 10.4 0 0 0-6.8 0c-5.7 1.5-8.8 3.84-10.96 8.34-2 4.22-2.44 7-1.64 10.8a14.4 14.4 0 0 0 4.4 8.56 16 16 0 0 0 17.28 4.16m-10.82-8.7c-2.78-2.14-3.48-3.44-3.48-6.4 0-1.46.44-2.42 1.72-3.82l4.52-4.98c2.6-2.84 2.92-3.04 4.1-2.48.72.32 1.3.96 1.3 1.42s-1.52 2.34-3.38 4.16c-5.68 5.6-6.06 6.88-2.9 9.56 2.6 2.18 5.12.94 9.36-4.62 1.66-2.18 2.18-2.54 3.52-2.4 1 .1 1.66.5 1.76 1.04.16.86-6.26 7.82-8.86 9.6q-3.36 2.26-7.66-1.08m-151.2 8.5c.36-.16.82-.14 1 .04.18.16-.14.3-.7.28q-.92-.08-.32-.32m-166.82-10.26a19 19 0 0 1-9.32-7.38c-1.8-2.56-2.6-5.84-2.6-11.12-.02-5.76 1.34-8.92 5.74-13.2 3.5-3.44 6.2-4.62 11.68-5.1 14.2-1.24 24.96 14.5 18.8 27.5a23.4 23.4 0 0 1-9.08 9.08c-3.16 1.54-11.8 1.66-15.22.22m10.58-1.6c5.22-.94 8.64-3.78 11.4-9.44 1.5-3.06 1.64-3.74 1.36-6.88-.52-6.32-2.48-9.86-7.5-13.56-3.94-2.92-9.16-3.64-14.58-2.04-6.24 1.86-11.68 10.28-10.86 16.8a17.4 17.4 0 0 0 13.62 15.12c3.2.64 3.06.64 6.56 0m-5.36-9.04a50 50 0 0 0-5.4-2.9c-3-1.34-3.8-2.4-2.78-3.64 1.22-1.46 4.36-.78 7.68 1.68 3.38 2.48 5.18 2.6 7.34.44 3.54-3.54 7.62-5.42 8.54-3.94.4.64-1.1 3.16-1.88 3.16-.62 0-5.4 3.26-7.8 5.36-.96.84-2.04 1.52-2.4 1.52a12 12 0 0 1-3.3-1.68m45.24-3.34c-5.9-1.2-9.36-3.64-12.54-8.92-5.88-9.76-2.04-21.68 8.64-26.86a14 14 0 0 1 7.24-1.6c2.22 0 4.28.12 4.58.3s1.12-.58 1.82-1.68a20 20 0 0 1 8-7.14c3.64-1.66 12.08-1.74 15.64-.16a19.4 19.4 0 0 1 9.44 9.28c1.22 2.54 1.4 3.56 1.4 8.2 0 5-.1 5.44-1.78 8.46a20 20 0 0 1-9 8.66c-2.54 1.2-3.7 1.4-7.74 1.4h-4.76l-1.4 2.16a21.2 21.2 0 0 1-13.7 8.32c-1.3.14-3.92-.04-5.84-.42m9.58-3c2.8-.98 8.96-6.1 8.96-7.48 0-.16-1-.88-2.24-1.6-2.62-1.56-6.56-5.34-7.52-7.24-1.28-2.54-1.98-6.92-1.8-11.26l.2-4.36-4 .02c-3.52.02-4.3.22-7.12 1.84-5.2 2.96-7.86 6.52-8.66 11.48a14 14 0 0 0 1.72 10 16 16 0 0 0 6.02 6.8 17 17 0 0 0 14.44 1.8m-11.36-6.58c-1.62-1.6-.74-2.86 2-2.86 3.52 0 3.06-3.92-.5-4.34-1.8-.2-2.3-1.6-1.06-2.84 1.62-1.64.64-3.74-1.48-3.22l-2.64.64c-.88.24-1.34.06-1.6-.6-.44-1.14.54-2.32 2.7-3.22 2.54-1.06 3.78-.88 5.48.84 1.18 1.16 1.56 2.02 1.56 3.56 0 1.46.3 2.22 1.04 2.68a7 7 0 0 1 1.9 2.34c1.3 2.5.36 5.18-2.34 6.7-2.44 1.36-3.92 1.46-5.06.32m34.74-4.14a18.8 18.8 0 0 0 8.4-8.66 16.4 16.4 0 0 0-.16-12.88c-1.28-2.8-4.84-6.8-6.04-6.8-.34 0-.9-.36-1.24-.8-.36-.4-2-1.16-3.64-1.64a16.6 16.6 0 0 0-11.4.84c-2.8 1.26-6.68 4.48-6.68 5.56 0 .4-.3.8-.66.92-.86.28.44 1.98 1.52 1.98.96 0 6.88 5.94 7.32 7.36.2.6.68 1.1 1.08 1.1.54 0 .38-.82-.64-3.3-1.76-4.3-1.84-5.9-.32-6.12 1.38-.2 2.22 1.22 3.6 6 .5 1.74 1.32 4.12 1.84 5.28 1.7 3.8 1.76 4.38.54 5.02-1.52.82-2.2.16-3.4-3.4-.54-1.62-1.2-2.94-1.46-2.94-.24 0-.12.64.28 1.44.86 1.72 1.1 7.5.4 10.3-.56 2.42-.3 2.58 4.2 2.34a16 16 0 0 0 6.46-1.6m-2.06-9.4c-1.5-.74-2.48-3.14-2.16-5.32.2-1.34-.02-2-1-2.9-1.48-1.38-1.74-4.9-.46-6.16.44-.44.8-1.18.8-1.64 0-.64.6-.82 2.68-.82 2.28 0 2.92.24 4.3 1.6 1.4 1.4 1.56 1.88 1.28 3.62-.26 1.68-.1 2.2.96 3.2q2.44 2.3 1.36 5.6c-1 3-4.62 4.32-7.76 2.8m4.28-2.88c1.04-.4 1.08-2.52.06-3.36-1.2-1-3.18-.46-3.38.94-.34 2.44.9 3.36 3.32 2.42m-2.08-8.68c0-1.6-.18-1.86-1.4-2-1-.12-1.6.14-1.98.84-.74 1.38.68 3.4 2.24 3.2.92-.14 1.14-.54 1.14-2.04m-12.8 18.8a17 17 0 0 0-1.26-9.78c-1.92-4.48-8.28-9.34-9.56-7.32a16 16 0 0 0-.44 4.4c0 3.24.26 4.2 2 7.66 1.6 3.14 2.56 4.34 4.6 5.72 1.4.96 2.92 1.66 3.38 1.58s1-1.06 1.26-2.28m41.42 3.4c-5.98-1.5-12.26-7.36-14.08-13.12a15.4 15.4 0 0 1-.2-10.28c1.66-6.48 4.44-9.8 10.54-12.62a15 15 0 0 1 7.74-1.74c3.4-.02 4.56.2 7.4 1.56a19.4 19.4 0 0 1 9.56 8.98c2.74 5.56 2.9 12.02.4 16.86-1.48 2.84-4.44 6.46-6 7.32-5.14 2.84-6.06 3.16-9.6 3.36a24 24 0 0 1-5.76-.32m11.48-3.94c11-5.4 12.24-19.98 2.36-27.94-4.44-3.58-9.84-4.4-15.74-2.4-11.8 4-14.92 19.66-5.5 27.62 1.14.96 2.78 2.14 3.66 2.64 4.18 2.34 10.52 2.38 15.2.08m-18.34-6.54c-.5-.56-.74-1.36-.54-1.86.28-.72.8-.8 2.9-.54 2.42.32 2.56.28 2.9-1 .4-1.66 0-2.4-1.66-3.04-1.4-.54-1.86-3.16-.56-3.16 1.2 0 2.06-1.46 1.72-2.9-.3-1.16-.6-1.32-2.46-1.24-3.92.16-4.06-2.32-.2-3.04 4.32-.8 7.54 3.4 5.52 7.16-.36.68-.28 1.46.32 2.66a6.2 6.2 0 0 1-.92 6.7c-1.52 1.6-5.64 1.78-7 .26m16.88.32c-.14-.36-.3-1.6-.4-2.78-.14-2.08-.18-2.12-2.26-2.18-3.72-.12-3.96-.18-3.96-1.04 0-.78 1.94-3.6 4.34-6.3a32 32 0 0 0 2.16-2.9c.68-1.06 1.66-1.86 2.24-1.86.92 0 1.02.4 1.04 4.4 0 3.64.16 4.5.94 4.92 1.2.68 1.16 1.26-.2 2.54-.9.82-1.06 1.4-.8 2.74.2 1 .08 2-.26 2.4-.74.9-2.54.94-2.84.06m-.28-8.92c0-.94-.12-1-.8-.46-.42.36-.8.86-.8 1.12s.38.46.8.46c.46 0 .8-.48.8-1.12m54.04 14.92a16.6 16.6 0 0 1-7.06-4.4c-9.76-9.3-7.32-25.44 4.68-30.92 7.16-3.28 16.9-1.7 21.96 3.6 4.56 4.74 6.02 8.48 5.94 15.14-.06 5.86-5.08 13.08-10.96 15.8-4.14 1.88-10.64 2.24-14.56.78m12.12-2.66c4.4-1.38 7.44-4.14 9.6-8.8 1.48-3.14 1.6-3.8 1.3-6.8-.48-4.76-1.68-7.82-4.12-10.6a16 16 0 0 0-9.9-5.56 13 13 0 0 0-7.14.3c-3.3.8-4.16 1.3-6.88 3.88-3.6 3.4-4.96 6.04-5.42 10.5a16.4 16.4 0 0 0 6.9 14.72c2.7 1.96 3.58 2.34 7.46 3.14 3.46.72 3.26.74 8.2-.8m-1.34-7.5a14 14 0 0 0-3.7-.4c-4.34.16-4.44-.2-.86-3.66 3.12-3.02 5.36-6.5 5.36-8.32 0-1.8-2.06-2.8-4-1.92s-2.34.76-2.34-.68c0-1.76 1.86-2.94 4.64-2.94q4.84 0 4.88 5.04c0 2.8-.52 3.96-3 6.72a8 8 0 0 0-1.76 2.52c0 .3.92.52 2.04.52 2.34 0 3.5 1.02 3 2.62-.4 1.2-1.6 1.34-4.26.5m-13.88-1.96c-.48-.3-.52-1.4-.12-4.6 1.2-9.92 2-12.96 3.36-12.96.98 0 1.3.9 1.06 2.92l-.74 7.14a126 126 0 0 1-.82 6.74c-.26 1.2-1.5 1.56-2.74.76m-263 5.96c-4.9-5.06-4.9-5.02-1.22-8.34 2.44-2.2 4-2.72 7-2.32 4.14.56 6.86 5.66 4.98 9.3-1.12 2.14-4.72 5.9-5.64 5.88-.4 0-2.72-2.04-5.12-4.52m7-1.08c1.6-2.42-.04-6.56-2.6-6.56-1.34 0-3.48 1.4-3.46 2.28 0 .74 4.12 5.66 4.74 5.66.22 0 .82-.62 1.32-1.4m91.82-.38q-6.44-2.3-9.08-6.4c-4.6-7.1-4.9-13.8-.98-20.78a18 18 0 0 1 9-8.24c2.34-.94 3.92-1.2 7.94-1.18 5.88 0 8.36.96 12.66 4.82 3.84 3.44 5.5 7.16 5.76 12.92.2 4.38.14 4.8-1.6 8.5-3.44 7.3-8.62 10.86-16.56 11.36-2.96.2-4.4 0-7.14-1m12.44-2.4c3.12-1.02 7-4.6 8.74-8a16.8 16.8 0 0 0-3.74-19.8c-2.72-2.48-4.66-3.32-9.4-4.04-3.5-.54-3.92-.5-7.34.84-5.88 2.32-8.94 6.06-10.22 12.48a15.2 15.2 0 0 0 2.1 11.54 14.6 14.6 0 0 0 6.74 6.36c4.34 2.2 7.96 2.36 13.12.64m-10.6-5.4c-.52-.84.2-4.16 2.12-9.7 2.12-6.06 1.84-6.28-3.24-2.66q-5.5 3.9-5.9.92-.16-1.16 1.06-1.92l6.7-4.28c3-1.96 5.84-3.48 6.3-3.4 1.48.3 2 1.8 1.34 4a128 128 0 0 1-2.82 8.34c-1.26 3-1.2 4.06.16 2.9.36-.3 2.3-1.52 4.32-2.72l3.66-2.18 1 1.2c.52.68.78 1.44.54 1.68-.64.64-6.56 4.14-7 4.14-.2 0-1.64.96-3.2 2.12-2.84 2.12-4.4 2.6-5.04 1.58m307.44 5.08c-1.56-1.56-1.68-3.5-.28-4.38.9-.54 1.14-.4 2.1 1.2 1.76 3 2.9 2.16 2.06-1.52a5.2 5.2 0 0 1 .5-3.98c.8-1.6 1.24-1.94 2.84-2.08s2.16.12 3.34 1.52c1.68 2 1.64 3.86-.08 4.1-.86.12-1.36-.22-1.8-1.2-.34-.74-.98-1.36-1.4-1.36-.6 0-.68.46-.4 2 .54 3.2.44 4.3-.46 5.68-1.2 1.86-4.6 1.86-6.42.02m-72.92-1.4c-7.06-2.4-11.2-6.48-13.32-13.12-1.88-5.86.08-14 4.44-18.38 4-4 10.2-6.34 15.76-5.92 3.62.28 8.98 2.68 11.94 5.4 3.96 3.6 6.02 9.7 5.6 16.46a10 10 0 0 1-2.04 6.36c-3.36 4.96-6.76 7.74-11.32 9.2a15.4 15.4 0 0 1-11.06 0m10.52-2.38c3.2-1.12 7.62-5.06 9.2-8.16 3.2-6.28 1.94-14.84-2.74-18.9a66 66 0 0 1-2.22-2.02 19 19 0 0 0-3.8-2.08c-7.36-3.28-16.8.42-20.68 8.12-3.08 6.06-1.4 14.52 3.84 19.4a16.2 16.2 0 0 0 16.4 3.64m-9.56-7.4c-.9-.8-2.64-2.14-3.84-2.94q-3.78-2.64-.72-3.3c6.9-1.44 10.6-3.04 11.3-4.86.58-1.54-.2-3.28-1.52-3.4l-1.44-.2-1.2-.2c-1.1-.1-.72-1.56.66-2.48 1.7-1.12 4.46-.26 6.34 1.98 2.44 2.88 1.4 6.16-2.8 8.84-1.4.92-2.94 1.66-3.4 1.66s-1.26.16-1.76.36c-.8.3-.6.62 1.14 2.1 1.74 1.46 2 1.9 1.5 2.68-.9 1.44-2.42 1.36-4.26-.24m96.82 9.12a20 20 0 0 1-13.14-12.04c-1.2-3.24-.88-12.6.48-14.1.46-.5.84-1.1.84-1.3 0-.6 2.26-3.58 3.98-5.24 3.8-3.64 11.48-5.66 16.78-4.4a17.6 17.6 0 0 1 9.3 4.8c2.2 2.04 3.04 3.34 4.4 6.8 1.84 4.8 2 7.34.76 12.06a19 19 0 0 1-6.28 9.64 16 16 0 0 1-8.86 3.98c-4.28.74-4.8.72-8.26-.2m10.76-3c10.1-3.76 13.9-16.58 7.44-25.08a18 18 0 0 0-13.88-7.1c-7.34 0-14.64 6.9-15.82 14.96-.56 3.72 1.28 9.16 4.28 12.76a16 16 0 0 0 18 4.48m-5.92-5.96c-.78-1.16-.78-1.42 0-2.88 1.2-2.36 1-3.34-1-4.96-2.14-1.7-2.34-1.72-4.74-.6-1.8.88-4.56.7-4.56-.28 0-.56 2.76-2.2 9.3-5.6a54 54 0 0 0 5.22-2.94c.8-.78 2.94-.6 3.28.28.28.74-1.4 6.76-3.58 12.86-.54 1.54-1 3.24-1 3.8 0 .8-.94 1.6-1.88 1.6-.12 0-.6-.56-1.04-1.28m2.6-10.48c.72-2.72.3-3.08-1.72-1.54-1.16.9-1.18 1-.34 1.84 1.18 1.2 1.68 1.12 2.06-.3m-425.4 16.34c-.86-.4-2.86-2.08-4.4-3.72-2.34-2.46-2.8-3.22-2.52-4.3.6-2.32 2.4-1.64 5.6 2.12 1.6 1.88 3.3 3.42 3.74 3.44.9 0 3.14-1.86 3.14-2.6 0-.92-2.74-3.74-3.3-3.4q-.48.28-.2-.2c.16-.3-.4-1.28-1.3-2.16-1.88-1.8-1.88-3.46-.04-3.72 2.36-.32 8.02 6.34 8.02 9.44 0 2.2-2.82 5.16-5.28 5.54a7 7 0 0 1-3.44-.44m384.02-3.1c-1.1-1.1-.7-1.8 2.8-5.1 1.9-1.76 3.46-3.52 3.46-3.9 0-.4-.5-1.12-1.1-1.64-1.36-1.16-1.1-2.16.6-2.36 1.66-.2 8.24 6.2 7.72 7.52-.42 1.14-2.08 1.06-3.6-.18l-1.24-1-2.72 2.8c-3.6 3.72-5.1 4.7-5.92 3.86m-9.24-8.86a10 10 0 0 1-2.48-3.68c-.6-1.86-.6-2.42.2-4.54 1.16-3 2.56-3.94 6.3-4.34 2.88-.3 2.9-.28 5.36 2.18 2.64 2.62 2.98 4.2 1.16 5.28-.8.48-1.1.4-1.6-.46-1.44-2.48-3.4-4-5.24-4-2.28 0-3.56 1.38-3.56 3.8 0 2.1 1.04 3.3 3.6 4.2q2.68.9 1.06 2.5c-1.06 1.06-2.94.7-4.8-.94m-362.2-2.46-3.14-3.52-1.38.92c-1.52 1-3.56.68-3.56-.54 0-1.04 7.16-7.64 8.28-7.64 1.72 0 2.06 2.74.42 3.38-1.46.56-.72 2.18 2.48 5.4 2.58 2.6 3.16 3.48 2.88 4.38-.68 2.14-2.6 1.38-6-2.4m12.94-7.22a20 20 0 0 1-1.96-2.4c-.6-.94-1.6-1.34-4.4-1.8-3.74-.6-4.72-1.4-3.52-2.84.46-.54 1.42-.76 3.1-.64l2.44.14-.2-2.32c-.2-2.48.36-3.2 2.44-3.22 1.1 0 1.2.22 1.2 3.08 0 2.54.26 3.42 1.46 5 .8 1.06 1.86 2.08 2.38 2.24.94.34 1.2 1.66.52 2.68-.86 1.22-2.3 1.26-3.46.08M404 207.4c-2.8-2.58-2.8-2.62.72-6.26a94 94 0 0 0 3.74-4.06c.8-.94 1.88-1.72 2.4-1.72 1.38 0 5.62 4.48 5.24 5.52-.48 1.24-1.98 1-3.64-.6-1.38-1.32-1.56-1.36-2.36-.58s-.7 1 .94 2.46c1.46 1.32 1.68 1.78 1.22 2.52-.94 1.54-1.74 1.44-3.44-.36-1.5-1.6-1.66-1.66-2.5-.84-.84.84-.8 1 .86 2.52.96.9 1.66 2.02 1.56 2.5-.3 1.68-2.2 1.24-4.74-1.1m-11.2-10.28c-.92-.92 0-2.38 4.08-6.4a36 36 0 0 1 4.92-4.36c.98 0 3.78 3.48 4.12 5.1.74 3.56-4.36 6.14-7.16 3.6-1.1-1-1.12-1-2.52.7-1.32 1.64-2.64 2.16-3.44 1.36m10.14-4.74c-.26-1.38-1.94-2.2-2.54-1.28-.6 1 .3 2.14 1.68 2.14q1.04 0 .86-.86m-15.7-.66c-.56-.36-.64-1.24-.34-3.74l.38-3.26-3.3.16c-2.64.12-3.4-.02-3.88-.74-.86-1.32-.12-1.72 3.8-2l3.52-.28.16-3.6c.16-3.58.18-3.6 1.6-3.44 1.4.16 1.4.24 1.24 3.28l-.2 3.14 2.94-.32c2.18-.2 3.1-.1 3.56.46 1.2 1.42.16 2.34-2.6 2.34-3.88 0-4.32.28-4.32 2.9 0 4.76-.74 6.24-2.56 5.1M96.62 181.8a20 20 0 0 1-11.6-11.3c-1.76-4.2-1.42-10.74.8-15.16a18 18 0 0 1 9.54-8.9c4.52-1.82 6.74-2.1 10.72-1.4q11.36 2.1 14.9 12.06 3.28 9.32-2.28 17.6c-1.8 2.7-3.6 4.12-7.72 6.16-3.7 1.8-10.68 2.26-14.34.94m14.1-3.54c3.8-2.32 5.4-4 7.34-7.8a15.8 15.8 0 0 0-1.24-15.6 19 19 0 0 0-8.82-6.56c-2.96-.88-10-.56-11.88.52-5.52 3.2-7.72 6.04-9.2 11.9a12.4 12.4 0 0 0 1.48 10.24 12 12 0 0 1 1.36 2.6c0 .8 3.5 3.66 5.96 4.92a12.8 12.8 0 0 0 8.4 1.84 11.2 11.2 0 0 0 6.6-2.06m-11.64-7.92c-2.04-3.68-5-8.2-5.64-8.6-.28-.2-.52-1-.52-1.82 0-1.16.36-1.64 1.58-2.14a10 10 0 0 0 2.9-2c1.04-1.04 2-1.36 4.64-1.56 2.86-.22 3.56-.08 5.12 1 3.92 2.68 5.16 6.48 3.52 10.74-.68 1.78-1.68 2.96-4.08 4.76-4.36 3.26-5.56 3.2-7.52-.4m5.38-1.84c3.12-2 3.86-3.6 3.18-6.8-.36-1.74-.84-2.4-2.5-3.32a10 10 0 0 0-2.76-1.14c-.6 0-4.48 1.8-5.12 2.4-.16.14 1.6 3.58 2.82 5.48.3.46.96 1.62 1.48 2.56 1.08 2 1.02 2 2.9.8m-78.74 11.52c-4.12-.8-9.76-4.46-11.82-7.72-2.86-4.5-3.6-12.3-1.64-17.78a18 18 0 0 1 4.6-6.72c.54-.4 1.4-1.16 1.9-1.72 3.12-3.34 14.14-4.4 19.34-1.86 3.68 1.8 6.7 4.48 8.86 7.84 1.76 2.74 1.78 2.84 1.76 8.88 0 5.52-.14 6.36-1.44 9-1.68 3.46-6.84 8.26-10.1 9.4-2.74.92-8.32 1.26-11.46.68m6.88-2.54c0-.2.72-.44 1.6-.5 1.86-.14 6.46-2.7 6.04-3.4q-.2-.38.5-.16c1.12.44 3.86-3.56 4.9-7.12.88-3 .8-9.9-.14-10.58-.26-.2-.54-.7-.62-1.12-.64-3.1-6.5-8.1-10.56-9.04a16 16 0 0 0-14.5 3.4c-2.02 1.7-4.6 5.14-4.6 6.16 0 .14-.28.98-.6 1.86-.76 1.94-.52 10.2.3 10.72.34.2.92 1 1.34 1.78 1 1.86 3.74 4.92 5.4 6 .78.5 2.4 1.24 3.66 1.6 2.46.8 7.28 1.04 7.28.4m-5.3-9.66a108 108 0 0 0-5.64-4.9 8 8 0 0 1-2.44-2.56c-.58-2.08 1.92-3.48 3.28-1.86.34.4 1.06.62 1.6.48.88-.22 1-.66.8-3.3-.2-2.52-.06-3.2.8-3.98 1.58-1.42 2.48-.7 2.88 2.34.32 2.44.16 4.2.86 6 0 .22 2.6.28 5.78.12 5.74-.3 6.66-.06 6.08 1.46-.46 1.2-2.68 1.96-5.8 1.96-1.56 0-3 .26-3.16.54-.2.3-.6.4-.92.2q-.5-.32-.2.24c.44.7-.24.82-1.06.22-.28-.22.4.46 1.54 1.5 2.42 2.26 2.6 4.36.38 4.6-1 .08-2.2-.68-4.78-3.06m345.82 10.54c-1.3-1.2-2.4-2.64-2.4-3.2 0-1.28 7.92-8.9 9.28-8.9 1.48 0 5.14 3.8 4.72 4.92-.48 1.28-1.8 1.08-3.48-.52-1.22-1.18-1.6-1.3-2.28-.74-1.16.98-1 1.88.5 2.88.74.48 1.34 1.34 1.34 1.92 0 1.62-1.92 1.28-3.68-.68l-1.52-1.72-.68 1.48c-.6 1.34-.52 1.6 1 3.2 2 2.02 2.04 2.24.64 3-.88.46-1.42.2-3.44-1.64m-13.88-10.28c-5.78-1.4-10.92-6.18-13.4-12.42-1.54-3.96-1.26-10.06.68-14.36a19 19 0 0 1 10.64-9.88 25 25 0 0 1 6.56-1.16c2.92 0 2.98-.04 1.8-.86-2.28-1.6-6.7-12.76-5.7-14.4.16-.24.44-1.58.62-2.96 1-7.48 7.44-13.6 15.86-15.18 4.6-.84 10.22.56 14.48 3.64 2.74 2 3.68 3.18 5.8 7.26 6.18 11.94-2.18 26.06-16.04 27.1l-3.94.3 2.16 2.44c3.72 4.24 4.36 5.96 4.38 11.96.02 6.46-.86 8.72-5.06 12.88a18.6 18.6 0 0 1-10 5.72c-3.6.8-5.3.8-8.84-.08m10.18-2.94c11.66-3.6 14.9-18.74 5.94-27.88-1.2-1.24-2.6-2.24-3.12-2.24-.5 0-1.04-.22-1.2-.5a10 10 0 0 0-3.34-1.38c-4.9-1.4-10.42-.12-15 3.5-4.28 3.4-6.26 11-4.46 17.2.8 2.76 3.26 6.74 4.76 7.72l2.56 1.84c3.84 2.84 8.4 3.4 13.86 1.74m-10.74-6.44c-1.78-2.14-.9-6.3 1.7-8.14 3.72-2.64 3.76-2.66 3-3.6a9 9 0 0 0-2.46-1.68c-2.02-.96-2.4-1.6-1.78-3.26.56-1.48 1.04-1.48 2.66-.08.7.6 2.12 1.54 3.16 2.08 2.68 1.4 5.36 4.04 5.16 5.12-.12.58-.92 1.06-2.24 1.34-2.82.6-6 2.46-6.34 3.74-.14.58-.14 1.72.02 2.52.22 1.12.04 1.6-.8 2.04-1.34.72-1.4.72-2.08-.08M386.02 131c3.14-1.44 5.9-3.7 5.9-4.84 0-.36.32-.84.72-1.08 1.56-.92 3.46-6.5 3.24-9.44-.2-2.4-1.24-6.54-2.08-8.1a22 22 0 0 0-6.64-6.28c-10.68-6.2-24.34 2.14-24.34 14.86a17.4 17.4 0 0 0 9.42 14.7c5.2 2.4 8.8 2.44 13.78.18m-5.74-6.34c0-1.16.4-2.26 1.1-2.94.6-.6 1-1.5.92-2-.2-1.1-3.62-2.82-5.8-2.92-1.44-.08-1.7.16-2.48 2.24q-1.6 4.26-3.52 2.7c-1.14-.94-.98-1.56 2.54-9.52 2.76-6.26 3-6.62 4.56-6.8 2.26-.2 2.5.86.86 4.08a18 18 0 0 0-1.36 3.16c0 .42 5.72 3.26 6.6 3.26.2 0 .94-1.3 1.68-2.9 1.54-3.36 1.92-3.7 3.36-2.92 1.46.78 1.36 1.6-.74 5.72a38 38 0 0 0-3.24 7.52c-.52 1.9-1.8 3.16-3.24 3.16-1.06 0-1.24-.26-1.24-1.84m-244.18 42c-.1-.38-.92-2.98-1.84-5.8-.9-2.8-1.5-5.48-1.32-5.94s.94-1 1.72-1.14c.76-.18 2.08-.54 2.92-.8 2.28-.72 2.98-.6 2.98.5 0 1.14-.88 2-2.34 2.26-1.42.28-2.32 1.84-1.5 2.66.5.5.92.48 1.9-.04 1.7-.9 3.26-.54 3.26.76 0 .74-.56 1.22-1.86 1.64-2 .66-2.6 1.8-1.4 2.76.56.48 1.16.44 2.6-.16 1.62-.68 1.96-.68 2.5 0 1 1.2.42 1.86-2.66 2.92-3.4 1.18-4.72 1.28-4.96.38m131.46-3.58a18.8 18.8 0 0 1-15-13.88 19 19 0 0 1 4.26-16.92l1.9-1.96-1.56-1.48a28 28 0 0 1-3.48-4.66c-3.5-5.84-3-14 1.22-20.26.84-1.26 1.54-2.4 1.54-2.56s-.46-.88-1.02-1.6a22 22 0 0 1-2.2-4.8c-3.36-10.08 2.74-20.8 13.54-23.74 3.66-1 5.92-.92 10.12.38a19.4 19.4 0 0 1 8.7 5.44c.84 1 .88 1 2.04-.18a19.24 19.24 0 0 1 27.82 3.84c3.36 5.08 4 12.78 1.52 18.68-1.14 2.76-5.76 7.4-8.9 9a19.8 19.8 0 0 1-17.82-.48l-2.46-1.34.72 3c1.6 6.64.12 13.46-3.8 17.76l-1.84 2 1.64 1.66a20 20 0 0 1 5.34 9.66 19.3 19.3 0 0 1-13.14 21.86 15.4 15.4 0 0 1-9.14.58m11.44-3.9a18.4 18.4 0 0 0 7.82-9c1.26-3.3.96-10.46-.52-12.82-1.96-3.14-4.56-6.04-5.42-6.02-.5 0-2.64.6-4.8 1.32-4.84 1.64-8.06 1.66-12.46.06l-3.44-1.24-1.04 1.12c-3.46 3.72-5.08 10.74-3.8 16.48 1.04 4.62 5.28 9.1 10.56 11.14 3.2 1.2 9.8.7 13.1-1.04m-16.9-4.94c-.14-.22-.44-4.18-.66-8.76l-.4-8.32h1.38c1.66 0 1.76.32 2.3 7.4.7 9.4.68 9.76-.96 9.96-.76.08-1.52-.04-1.66-.28m8.12-1.08q-1.14-.94-.8-1.86c.3-.8.78-.88 2.86-.6 2.72.36 4.26-.54 4.26-2.44 0-1.2-1.34-2.62-2.54-2.7-3.88-.22-3.52.2-3.7-4.52l-.14-4.34 3.4-.36c3.78-.4 4.58-.16 4.58 1.38 0 .8-.38 1.02-1.72 1.02-2.4 0-3.16.64-2.96 2.4.16 1.3.48 1.6 2.3 1.96 1.16.24 2.52.96 3.02 1.6 1.9 2.46.7 7.54-2.08 8.8-1.92.88-5.18.7-6.48-.34m5.24-22.02c1.3-.4 2.44-.96 2.56-1.3.4-1.24-3.68-2.32-7.92-2.08-3.86.2-7.4 1.52-6.52 2.42 1.56 1.6 8 2.12 11.88.96m-13.2-3.52c.56-.3 2.26-.88 3.8-1.28l2.8-.76-4.6-.04c-2.56 0-4.64-.2-4.64-.38 0-.2.92-1.56 2.06-3.04 3.9-5.12 5.2-8.72 3.64-10.26-.76-.78-3.4-.84-3.86-.1-.18.28-.8.52-1.34.52-1.76 0-1.3-2.26.68-3.44.94-.58 2.08-.98 2.52-.92q.8.12-.2-.54a34 34 0 0 1-2.8-2.16c-1.04-.9-2.1-1.4-2.6-1.2-1.06.4-3.5 5.76-4 8.8-.66 4.18 1.34 10.32 4.46 13.6 1.74 1.84 2.48 2.06 4.08 1.2m20.96-1.98a17.6 17.6 0 0 0 2.6-16.9c-1.4-3.82-2.54-4.3-5.8-2.48-2.58 1.44-2.6 1.46-1.24 1.92 1.56.52 3.06 3.24 3.04 5.5-.08 5.36-6.9 14.02-8.26 10.48-.2-.5.48-1.6 1.86-3 1.2-1.22 2.2-2.38 2.2-2.6 0-.2-.94-.52-2.08-.72q-5.04-.82-4.3-6.08c.06-.44.6-1.34 1.2-2l1.12-1.2h-3.36c-3.14 0-3.3.08-2.52.94.44.52.98 1.94 1.2 3.18.3 1.96.12 2.68-1.54 5.7a24 24 0 0 0-1.9 3.98c0 .28 1.2.5 2.64.5 2.44 0 2.64.1 2.64 1.26 0 1.1.32 1.3 2.52 1.6 1.4.2 3.34.7 4.36 1.08 3.08 1.16 3.94.98 5.62-1.16m-4.26-11.24-.6-2.12c-.4-1.42-2.72-1.98-3.8-.9-.7.7-.72 1.08-.14 2.46.6 1.4.92 1.6 2.76 1.6s2.04-.12 1.8-1.04m25.44-7.24a17.6 17.6 0 0 0 9.84-8.18c3.28-6.76 2.12-13.58-3.24-19-5.06-5.14-11.64-6.48-17.86-3.66a14 14 0 0 1-2.72 1.04c-.26 0-.9.46-1.42 1.04-.8.86-.84 1.3-.38 2.52 1.08 2.72 1.84 8.1 1.54 10.88a22 22 0 0 1-1.92 6.04c-.9 1.8-1.64 3.46-1.64 3.7 0 .76 2.6 3.28 4.4 4.26a17.2 17.2 0 0 0 13.4 1.36m-1.26-7.12c-1.44-.4-1.72-.74-1.72-2.06 0-1.3.2-1.58 1.2-1.58.68 0 1.48.26 1.8.56.3.32 1.16.4 1.92.2 4.1-1 2.72-4.88-2-5.62-1.18-.2-1.48-2.36-.94-6.66l.28-2.28 4.02.16c3.94.14 4.04.2 4.2 1.58s.06 1.42-2.64 1.6c-2.46.12-2.84.3-3 1.34-.12.98.28 1.38 2.2 2.2 2.48 1.06 3 2 3 5.36 0 2.2-1.08 3.92-3.16 5-1.72.9-2.66.92-5.16.2m-12.04-1.32c-.46-.48-.78-1.24-.68-1.72.14-.68.7-.82 2.66-.68 2.28.16 2.56.04 3.14-1.26s.52-1.52-1.04-2.8c-2.12-1.74-2.14-2.48-.12-3.52 2.72-1.4 1.8-3.98-1.42-3.98-1.5 0-1.74-.18-1.74-1.28q-.02-2.4 4.2-1.62 3.76.6 3.72 4.98c0 1.46-.28 2.26-.92 2.62-.88.5-.88.6 0 2.1.52.86.92 2.12.92 2.78 0 1.6-2.06 4.58-3.42 4.94-2.04.54-4.44.3-5.3-.56M278.7 105c1.56-.8 2.92-1.72 3.02-2.04.4-1.3-7.98-4.96-11.34-4.96-2.04 0-7.92 1.84-9.42 2.96-1.04.78-1.02.84.8 2.36 2.44 2.06 5.8 3.06 10.34 3.1a11.4 11.4 0 0 0 6.6-1.4m-17.56-6.44a19.2 19.2 0 0 1 17.52-.36c1.56.76 2.96 1.26 3.12 1.12q.18-.26-.5-.28-.88.04-.06-.44c.56-.36.58-.92.06-2.96-.34-1.38-.94-2.62-1.32-2.76s-.54-.6-.4-1.04c.18-.42-.4-.08-1.26.8-1.84 1.84-5.08 2.66-6.66 1.68-.84-.54-1.14-.52-1.54.06q-.56.8-.2-.26c.18-.54.32-1.4.32-1.96 0-.86.32-.94 2.8-.68 3.2.34 4.26-.4 4-2.84-.2-1.5-.76-1.82-4.32-2.56l-1.46-.28.14-4.36.16-4.36 3.48-.14c2.64-.12 3.66.04 4.18.66.96 1.18-.2 2.4-2.3 2.4-3.76.02-3.86 2.28-.2 4a6 6 0 0 1 3.08 2.8l.82 1.76.74-2.3c.4-1.26 1.3-3.22 2-4.38 1.6-2.56 1.38-3-3-5.94a14.4 14.4 0 0 0-12.18-2.32c-2.5.56-6.94 2.82-6.94 3.58 0 .12.24.08.52-.1.28-.2 1.3-.18 2.26 0 2.02.38 4.1 3 4.1 5.14 0 1.66-1.72 5.82-3.18 7.66-1.38 1.76-.96 2.28 1.88 2.28 2 0 2.36.16 2.36 1.04 0 .6-.18 1.08-.4 1.1-6.84.52-9.18.44-9.48-.32-.16-.44.04-1.2.46-1.72.4-.5 1.78-2.62 3.02-4.72 1.94-3.26 2.2-4.04 1.78-5.3-.48-1.4-.66-1.46-3.72-1.46-3.04 0-3.24.08-4 1.6-2.12 4.2-2.4 7.22-1.16 12.02.74 2.84 2.1 5.16 3.06 5.16.24 0 1.32-.46 2.42-1m25.38-.96c1.98-5.24 2.12-6.28 1.46-10.14a12 12 0 0 0-1.42-4.58c-.7-.7-.94-.5-2.08 1.74-1.1 2.14-1.3 3.28-1.3 7.36 0 4.02.18 5.04 1 5.96 1.32 1.46 1.68 1.4 2.34-.34M146.74 157.2c-1.08-3.22-1.8-6.08-1.66-6.34q.96-1.5 6.32 1.9c4.12 2.64 4.72 2.38 3.2-1.36-1.28-3.24-1.1-4.2.76-4.2 1.3 0 1.64.26 1.88 1.46.18.8.92 3.12 1.64 5.16 1.94 5.42 2.04 6 1 6.4-1.08.42-5.62-1.8-8.34-4.12-1.1-.92-2.14-1.52-2.3-1.36-.18.18.18 1.72.8 3.44 1.42 4.06 1.4 4.9-.14 4.9-1.08 0-1.44-.64-3.16-5.88m19.44-2c-1.6-.98-3.4-3.9-3.4-5.56 0-.46.4-1.8.86-2.96 1.82-4.6 9.72-6.64 9.72-2.54 0 .9-1.1 1.24-3.08.98-.4-.06-1.52.52-2.52 1.28-2.28 1.76-2.36 3.5-.26 5.6 1.64 1.66 2.66 1.88 4.3 1 1.32-.7 1.32-1.56.04-1.56-.56 0-1.32-.4-1.7-.86-.6-.72-.54-1 .54-1.88.78-.6 1.88-.96 2.82-.86 1.32.14 1.68.52 2.34 2.46.98 2.92.7 3.6-2.08 4.86-2.86 1.3-5.5 1.3-7.6.04m15.82-3.1c-.68-.44-3.44-9.2-3.54-11.24-.06-1.02.22-1.36 1.2-1.5q2.12-.28 2.16 2.42c0 .66.22 1.62.5 2.12s.64 1.52.8 2.24c.56 2.56.98 2.8 3.4 2.08 1.94-.6 2.34-.56 3.12.2.78.8.8 1 .08 1.7-.44.44-2.16 1.14-3.84 1.6-3.54.9-3.1.86-3.88.38m10.96-5.26c0-.8.22-3.86.48-6.76.36-3.98.7-5.42 1.4-5.92 1.24-.92 2.28-.26 4.8 3.1a48 48 0 0 0 3.86 4.46c1.84 1.8 2 3.5.32 3.8-.66.14-1.52-.4-2.42-1.5-1.36-1.66-1.48-1.7-3.32-1.08-1.74.56-1.92.8-2.08 2.84-.14 1.98-.3 2.24-1.6 2.4s-1.46-.02-1.44-1.34m4.74-7c0-.28-.24-.66-.52-.84s-.54.04-.54.5.24.82.54.82c.28 0 .52-.2.52-.5m11.44 2.46-1.86-5.86c-1.32-4.06-1.56-5.38-1.08-5.96.9-1.08 1.66-.92 4 .78 1.16.82 3.12 2.16 4.38 2.94l2.28 1.44-.38-1.76a10 10 0 0 0-1.14-2.98c-1.12-1.76-.74-3.54.76-3.54 1.04 0 1.44.68 2.96 5.02.98 2.78 1.94 5.4 2.14 5.88.2.5.02 1.12-.46 1.52-.7.58-1.2.54-2.94-.26a10 10 0 0 1-2.68-1.62 20 20 0 0 0-4.96-2.86c-.12 0 .26 1.42.86 3.18s.94 3.54.78 3.96c-.38.96-2.42 1.06-2.66.12m15.34-10.92c-1.04-3.18-1.9-6-1.9-6.28 0-.6 5.52-2.24 7.6-2.24 5.36 0 8.1 7.14 4.26 11.16a14 14 0 0 1-7.14 3.14c-.68 0-1.38-1.46-2.8-5.78m7.56.9c2.06-2.1 2.08-3.26.04-5.28-1.36-1.36-1.88-1.56-3.3-1.28-2.38.48-2.52.8-1.72 3.76 1.4 5.22 2.18 5.68 4.98 2.8m-171.28.96a24 24 0 0 1-8.64-5.06c-1.02-.96-4.32-6.26-4.62-7.42-.12-.44-.24-3.2-.28-6.16-.04-3.76.16-5.8.72-6.88 1.22-2.4 3.84-6.24 4.58-6.7.36-.22 1-.72 1.4-1.12s2.12-1.4 3.84-2.24c2.82-1.36 3.7-1.52 8.44-1.52h5.3l-.2-4.78c-.16-4.56-.08-4.94 1.74-8.8a14 14 0 0 1 4.94-6.34c4.66-3.58 6.4-4.2 11.88-4.2 4.6 0 9.94 1.14 9.94 2.16 0 .26.42.6.94.76 1.84.58 5.08 4.32 6.68 7.7 1.46 3.04 1.64 3.98 1.6 7.94 0 3.88-.24 5-1.64 8a23 23 0 0 1-3.74 5.62c-3.94 3.96-11.08 6.36-16 5.4-3.72-.7-3.7-.72-3.12 1.22.3.96.54 3.2.54 4.98a18.8 18.8 0 0 1-5.98 13.04c-5.32 4.36-12.08 5.98-18.32 4.4m12.06-3.4a17 17 0 0 0 8-7.82c1.6-3.66 1.96-10 .7-12.42a10 10 0 0 0-1.6-2.34c-3.6-2.88-5.18-4.5-5.76-5.88-.6-1.42-1.18-1.78-4.2-2.6-5.52-1.5-10-.2-15.48 4.52-4.16 3.56-6.02 12.66-3.58 17.36.4.78.74 1.68.74 2.02s1.2 1.92 2.64 3.5a14.8 14.8 0 0 0 8.2 4.82c2.06.52 7.98-.14 10.34-1.14m-10.86-7.2a8 8 0 0 1-5.02-6.24c-.64-2.86-.6-3.14.7-5.8 1.7-3.5 4.96-5.86 7.76-5.6 1.58.12 1.86.34 1.86 1.42 0 1-.38 1.4-1.74 1.74-1.08.28-1.6.68-1.38 1.04q.34.54-.24.2c-.92-.56-3.8 2.56-3.8 4.14 0 3.16 3 6.68 5.7 6.68 1.38 0 5.56-3.06 5.28-3.86-.12-.36-1.14-.64-2.28-.64-2.78 0-3.1-1.64-.74-3.64 2.4-2 3.3-1.78 5.2 1.3 1.94 3.12 1.96 3.24.76 5.14-1.2 1.86-2.04 2.54-4.74 3.82a8.4 8.4 0 0 1-7.32.28m7.86-5.48c.2-.3.06-.68-.3-.82q-.72-.28-.04-.32c.9-.06 1.34.88.6 1.34q-.54.32-.26-.2m26.56-11.28c4.1-1.54 9.24-7.38 9.24-10.48 0-.58.24-1.2.54-1.38.28-.18.52-1.64.52-3.26 0-3.42-2.08-8.26-4.9-11.36a15.8 15.8 0 0 0-14.4-4.58c-6.08 1.06-9.28 3.54-12.02 9.4a14 14 0 0 0-1.66 7.12c-.06 4.52.74 6.1 4.44 8.76a16 16 0 0 1 3.68 3.84c.6 1.1 1.16 2 1.2 2 .08 0 1.06.36 2.24.8 2.6.98 7.16.6 11.12-.86m-8.02-6.3c-.64-.24-1.82-1.36-2.66-2.48a30 30 0 0 0-2.06-2.54c-1.44-1.36-3.4-4.54-3.4-5.5 0-2.68 3-1.98 4.74 1.1 1.78 3.14 5.24 6.78 6.46 6.78 1.44 0 4.14-2.84 4.12-4.34 0-.66-1.2-2.78-2.66-4.66-4.64-6.02-4.48-5.7-3.4-6.9.52-.56 1.22-1.04 1.56-1.04.68 0 2.92 2.2 2.92 2.84 0 .38 3.06 4.52 3.76 5.1.78.64 1.54 2.7 1.54 4.18 0 5.3-6.04 9.44-10.92 7.46M448.8 120.8c-8.26-1.54-15.1-10-15.1-18.74 0-4.02.8-6.54 3.34-10.44 2.32-3.6 4.58-5.36 9.08-7.16 3.08-1.24 4.06-1.4 7.9-1.2 5.66.32 9.26 2 12.96 6.02a19.2 19.2 0 0 1 3.76 20.08 19.4 19.4 0 0 1-10.16 10.22 26 26 0 0 1-11.8 1.22m8.58-2.78c7.58-2.44 12.9-10.24 11.76-17.22-.64-3.98-.94-4.86-2.56-7.36a18 18 0 0 0-13.74-7.6c-4.8 0-7.94 1.34-11.56 5-2.5 2.56-3.46 3.96-4.1 6.12a18 18 0 0 0-.08 10.4c1.94 5.5 8 10.58 13.44 11.28 1.66.2 3.08.4 3.16.44s1.74-.44 3.68-1.06m-10.6-7.68c-.74-.72-.34-2.5.88-4.1a10 10 0 0 0 1.36-2.16c.06-.3.48-.94.94-1.44.68-.76.72-1.3.22-3.28-.72-2.86-.78-7-.1-7.42.76-.48 3.2.84 3.24 1.78.08 1.52.54 5.02.7 5.2.1.08 1.62-.38 3.4-1.02 3.16-1.14 3.26-1.14 4.34-.18 1.4 1.28.82 1.84-3.52 3.4-3.68 1.34-4.6 2.2-7.02 6.52-1.3 2.32-2 3.06-2.9 3.06-.66 0-1.36-.16-1.56-.36m-317.32 5.14c-4-.8-8.24-3.76-10.5-7.34-2.72-4.32-4-8.64-3.62-12.4a19.26 19.26 0 0 1 28-15.8 13.4 13.4 0 0 1 6.14 5.2c3.44 4.56 4.58 8.12 4.1 12.78a19.6 19.6 0 0 1-10.38 15.54 20.6 20.6 0 0 1-13.74 2.02m11.4-3.48a17.6 17.6 0 0 0 8.66-9.86c1.34-3.98 1.38-7.2.12-10.82-1.16-3.4-3.14-5.7-7.16-8.4a10.4 10.4 0 0 0-6.5-2.28c-9.48-.6-16.9 5.6-17.8 14.88a20 20 0 0 0 2.88 11.2c1.2 1.8 5.54 5.06 6.68 5.06.36 0 .66.2.66.48 0 .66 1.64.94 6 1.02a12 12 0 0 0 6.46-1.28m-3.6-6.44a17 17 0 0 1-1.64-2.6c-.46-.9-1.34-1.76-1.94-1.94-1.08-.28-1.12-.48-.76-6 .36-5.84.96-7.36 2.68-6.7.54.2.74 1.32.74 4.12 0 3.36.24 4.34 1.84 7.5 2 3.98 2.3 5.72 1.02 6.2-1.1.44-1 .48-1.92-.6m67.76 2.24c-7.88-2-12.9-8.2-13.96-17.32-.82-6.98 3.68-14.56 10.6-17.86a19.24 19.24 0 0 1 27.04 11.1c1.26 3.46.74 9.52-1.16 13.5-1.9 4.04-6.08 8.28-9.52 9.7-3.6 1.5-9.14 1.86-13 .88m7.52-1.88c7.24-1.64 11.92-6.04 13.72-12.94a12 12 0 0 0-1.34-10.26c-2.4-4.4-3.44-5.52-7.08-7.62-2.7-1.56-3.3-1.68-7.7-1.68-4.52 0-4.94.08-7.8 1.8-6.26 3.8-9.28 10-8.22 16.8 1.22 7.96 6.58 12.82 15.78 14.4.14 0 1.32-.2 2.64-.5m-9.88-6.7c-.6-.4-.88-1.4-.76-2.72.04-.56.6-.64 2.36-.38 1.78.26 2.46.16 3-.52.6-.72.6-1.08-.06-2.26-.44-.8-1.24-1.4-1.78-1.4s-1.24-.44-1.56-.94c-.48-.78-.32-1.16.94-2.16 1.16-.92 1.44-1.48 1.16-2.34-.44-1.42-2.04-1.96-3.5-1.18-1.42.76-2.62.32-2.62-1q-.02-2.4 4.52-2.42c3.78-.04 4.74.9 4.74 4.64 0 1.64.34 3.32.84 4.08 1.8 2.8 1.66 4.84-.52 7.34-.8.92-1.8 1.32-3.62 1.48-1.4.12-2.8 0-3.14-.2M217 96.78a80 80 0 0 1-1.04-5.4c-.44-2.6-1.06-6-1.4-7.5-.74-3.48-.38-4.52 1.5-4.3 1.66.2 1.72.4 3.1 9.52.5 3.4.8 6.5.62 6.94-.38 1-2.5 1.56-2.8.74m186.04 7.8c-4.64-1.32-10.32-6.08-12-10.06-2.54-6.08-2.8-11.16-.84-15.56a21 21 0 0 1 12.9-11.18 19 19 0 0 1 24.44 17.8c.08 2.92-.44 5.4-1.94 9.48-1 2.76-6.12 7.42-9.5 8.68-4.1 1.54-9.4 1.88-13.06.84m10.6-2.4c3.48-1.06 7.6-4.76 9.42-8.5 2.08-4.26 2.26-7.86.66-12.66-2-6-6.24-9.76-12.4-11.04a11 11 0 0 0-6.62.3c-4.6 1.22-7.04 2.8-9.18 5.88a17.8 17.8 0 0 0-3.12 14.64c1.04 4.44 6.12 9.7 10.8 11.18 2.8.88 7.82.98 10.42.2m-11.84-9.8c-.76-.76-.32-2.8 1.44-6.6 1-2.14 2.2-5.16 2.7-6.7 1.16-3.56 2.34-3.94 6.04-1.94 3.68 2 4.52 3.08 4.46 5.68-.06 1.68-.4 2.46-1.54 3.44-1.28 1.1-1.9 1.24-4.18 1.04a30 30 0 0 1-3.36-.46c-.42-.12-1.18.94-1.94 2.7-1.18 2.76-2.6 3.86-3.6 2.84m10.44-8.78c1.1-1.54 1.06-1.72-.54-2.76-1.28-.86-1.42-.84-2.38 0-1.26 1.16-1.3 2.3-.08 3.2 1.32 1 2.08.9 3-.44M19.38 90a8 8 0 0 1-2.7-1.3c-.46-.4-1-.74-1.2-.74-.54 0-5.28-3.52-6.16-4.6a16.6 16.6 0 0 1-4-10.86c-.46-8.92 4.38-16.56 12.16-19.26 4.56-1.58 8.56-1.62 13.34-.16 6.04 1.86 9.1 4.7 11.74 10.9 1.7 4.02 1.62 10.56-.16 14.2a18 18 0 0 0-1.34 3.16c-.04.8-2.64 3.6-5.02 5.42a21.4 21.4 0 0 1-16.66 3.22m12.48-4.4c8.16-4.08 11.42-13.7 7.2-21.32-1.5-2.74-2.16-3.4-2.94-2.92q-.42.22-.16-.28c.48-.78-2-3.04-4.94-4.48-1.88-.94-3.28-1.2-6.62-1.16-5.98 0-8.72 1.34-12.06 5.84-3.9 5.2-4.46 7.6-3.28 13.72.46 2.4 2.9 7.14 3.68 7.14.4 0 .84.34 1 .76.28.78 3.44 2.66 6.42 3.82.88.34 3.04.64 4.82.66 2.68.04 3.88-.26 6.88-1.78M23 80.08a48 48 0 0 1-2.72-3.84c-.8-1.28-2.3-3.52-3.3-4.96A12 12 0 0 1 15.14 68c0-.36 1.1-1.5 2.46-2.52 1.92-1.48 2.94-1.88 4.68-1.88 3 0 5.02 1.92 5.02 4.76 0 1.92.08 2 3.1 3.1 1.7.62 3.34 1.14 3.64 1.14.92 0 1.78 1.4 1.42 2.32-.54 1.42-2.78 1.64-5.18.46-2.46-1.2-5.6-2-5.6-1.44 0 .2.72 1.66 1.62 3.24 1.32 2.3 1.52 3 1 3.64-1.04 1.24-2.96.9-4.3-.74m.3-10.3c.42-.68.3-1.12-.52-1.96-.94-.92-1.2-.96-2.06-.34-.96.7-.96.76.02 2.1 1.1 1.52 1.7 1.56 2.56.2m418.3-18c-5.4-1.52-8.7-4.4-11.9-10.36-1.4-2.58-1.54-3.34-1.48-7.4.12-8.4 3.98-14.6 11.12-17.9 2.7-1.24 3.72-1.4 7.96-1.36 4.02.04 5.38.3 8 1.46 3.76 1.7 7.42 5.28 9.46 9.28 1.32 2.6 1.48 3.46 1.48 8.2 0 4.56-.16 5.6-1.24 7.64-1.84 3.46-6.2 7.78-9.4 9.34-3.4 1.68-10.14 2.2-14 1.12m11.7-2.74a15.4 15.4 0 0 0 8.34-7.68c1.4-2.76 1.7-3.9 1.7-6.84 0-5.72-1.18-8.74-4.8-12.28-3.8-3.74-7.2-4.96-12.62-4.56-8.84.64-14.8 7.18-14.92 16.34a15.6 15.6 0 0 0 11.16 15.1c2.72.88 8.54.84 11.14-.08m-12.54-9.6c-.56-1.44 4.8-16.08 5.86-16.04s7.8 2.5 8.36 3.04c.8.82-.04 2.76-1.2 2.76a10 10 0 0 1-2.96-.8c-2.46-1.02-2.44-1.02-3.2.6-.76 1.66-.48 2.32.96 2.32 1.94 0 4.8 1.5 4.6 2.44-.3 1.58-1.8 2.1-3.72 1.34-3.48-1.4-3.4-1.44-4.48 1.86-.88 2.64-1.24 3.12-2.46 3.26q-1.42.18-1.76-.76M317.82 38c-9.52-2.1-16.24-12.8-14.04-22.32 1.2-5.12 3.52-8.5 8.34-12.04 3-2.2 5.96-3.04 10.9-3.06 3.96-.02 4.82.16 8.2 1.78a16.8 16.8 0 0 1 8.86 8.4c2 3.96 2.32 6.24 1.54 11.32-.66 4.38-1.38 6.22-3.54 9.06-1.46 1.94-6.88 6.16-8.08 6.32-.44.06-1.64.36-2.66.68-2.32.74-5.76.68-9.52-.14m12-4.08c5.68-2.62 8.48-6.72 9-13.2.4-4.86-1.16-8.78-5.08-12.84-2.66-2.76-3.34-3.18-6.8-4.08-3.22-.86-4.36-.92-6.88-.46-4.64.86-9.3 4.02-11.6 7.86-3.12 5.28-2.7 13.8.88 17.66l2.32 2.54a17 17 0 0 0 7.6 4.1c2.98.7 6.9.12 10.56-1.58m-9.56-6.6c-.2-.5-.08-3.5.24-6.68.32-3.2.44-6.14.3-6.56q-.32-.76-2.64-.76c-2.5 0-3.36-1.04-2.36-2.8.4-.76 1.34-.84 7.2-.56 7.16.34 8.44.8 7.8 2.78-.3.96-.76 1.12-3.22 1.12h-2.88l-.06 4.1c-.02 2.26-.2 5.4-.4 7-.32 2.8-.4 2.92-2 3.08-1.14.12-1.74-.1-1.98-.72m-43.94 10.26a24 24 0 0 1-6.08-2.54c-6.9-4.04-9.84-10.32-9-19.18.5-5.14.34-4.4 1.18-5.28a18 18 0 0 0 1.8-2.54c1.6-2.64 3.66-4.4 7.26-6.36 2.88-1.54 3.56-1.68 8-1.68 10.26 0 15.48 3.4 19.2 12.48 2.48 6.12.52 14.74-4.46 19.58a26 26 0 0 1-10.68 5.54c-3.18.68-3.6.68-7.2 0m9.4-3.42a15.2 15.2 0 0 0 9.28-7.6c4.64-8.92 1.2-18.6-8.06-22.68-3.8-1.66-10.04-1.6-13.48.14a16.6 16.6 0 0 0-8.94 15.46 17.6 17.6 0 0 0 4.8 10.8A22 22 0 0 0 280.7 35c1.26.02 3.52-.36 5.02-.82M279.98 28c-.24-.72-1.12-7.74-1.88-14.9-.56-5.36-.28-6.12 2.36-6.12h1.7v4.36c0 2.4.3 7.06.7 10.38.6 5.12.6 6.06-.04 6.46-1.08.68-2.6.6-2.84-.18"/>
</svg>
